/* XPM */ 
static char * ecbopen_xpm[] = {
"16 18 37 1",
" 	c None",
"!	c black",
"#	c white",
"$	c #7898B5",
"%	c #FCFCFB",
"&	c #FDFDFB",
"'	c #FCFCFA",
"(	c #F7F6F3",
")	c #F7F7F5",
"*	c #F7F7F4",
"+	c #F6F6F4",
",	c #F1F0EB",
"-	c #E5E1DA",
".	c #A5A5C6",
"0	c #F5F5F1",
"1	c #040404",
"2	c #DFDBD2",
"3	c #F2F2EE",
"4	c #F0F0EC",
"5	c #EDEDE7",
"6	c #ECEBE6",
"7	c #EAE9E3",
"8	c #E3E0D9",
"9	c #DBD6CC",
":	c #E4E1D9",
";	c #DCD8CF",
"<	c #D8D3C9",
"=	c #D7D2C7",
">	c #D6D1C6",
"?	c #D2CCC0",
"@	c #CFC8BB",
"A	c #D2CCBF",
"B	c #C6BEAE",
"C	c #C2B8A8",
"D	c #C1B8A7",
"E	c #C0B7A6",
"F	c #C3BAAA",
"                ",
"                ",
"                ",
"                ",
"                ",
" #$$$$$$$#      ",
" $#######$      ",
" $%&&&%'($      ",
" $))**+,-$      ",
".$0111112$      ",
" $3456789$      ",
" $:;<=>?@$      ",
" $ABCDDEF$      ",
" #$$$$$$$#      ",
"     .          ",
"     .          ",
"     .          ",
"     .          "};