/* XPM */ 
static char * ecbhandle_xpm[] = {
"8 18 3 1",
" 	c None",
"!	c black",
"#	c #ADA5C6",
"        ",
"        ",
"        ",
"        ",
"        ",
"        ",
"        ",
"        ",
"        ",
"########",
"        ",
"        ",
"        ",
"        ",
"        ",
"        ",
"        ",
"        "};