/* XPM */
static char * empty_xpm[] = {
"16 10 25 1",
" 	c None",
".	c #454545",
"+	c #A5A5A5",
"@	c #A3A3A3",
"#	c #999999",
"$	c #7B7B7B",
"%	c #666666",
"&	c #656565",
"*	c #636363",
"=	c #616161",
"-	c #5B5B5B",
";	c #424242",
">	c #7E7E7E",
",	c #6F6F6F",
"'	c #6D6D6D",
")	c #737373",
"!	c #747474",
"~	c #797979",
"{	c #848484",
"]	c #727272",
"^	c #585858",
"/	c #646464",
"(	c #838383",
"_	c #858585",
":	c #4F4F4F",
"                ",
" ...            ",
".+@#....        ",
".@$%&*=-.;      ",
".>$.......      ",
".,.')!~>{..     ",
"..']!~>{.^      ",
"./])~>(_.       ",
"........:       ",
"                "};
