/* XPM */
static char *back-disabled[] = {
/* width height num_colors chars_per_pixel */
"    24    24       15            1",
/* colors */
". c #b6b2b6 s backgroundToolBarColor",
"# c #606060",
"a c #d7d7d7",
"b c #c6c6c6",
"c c #bebebe",
"d c #b6b6b6",
"e c #bebabe",
"f c #a9ada9",
"g c #a1a1a1",
"h c #999999",
"i c #919191",
"j c #aeaaae",
"k c #898989",
"l c #818181",
"m c #797979",
/* pixels */
"........................",
"........................",
"........................",
"........................",
"............#...........",
"...........##...........",
"..........#a#...........",
".........#ab#...........",
"........#acc######......",
".......#adddaaaaa#e.....",
"......#afffffffff#e.....",
".....#agggggggggg#e.....",
".....e#hhhhhhhhhh#e.....",
"......e#iiiiiiiii#e.....",
"......je#kkk######e.....",
".......je#ll#eeeeee.....",
"........je#m#...........",
".........je##...........",
"...........e#...........",
"............e...........",
"........................",
"........................",
"........................",
"........................"
};
