/* XPM */
static char *copy_up_xpm[] = {
/* width height ncolors chars_per_pixel */
"24 24 7 1",
/* colors */
"  c #b6b2b6 s backgroundToolBarColor",
"# c #000000",
"a c #aeb2ae",
"b c #c7ff86",
"c c #f7ffbe",
"d c #aeb2ae",
"e c #a6a6a6",
/* pixels */
"                        ",
"  #########ed           ",
"  #ccccccc##ed          ",
"  #ccccccc#c#ed         ",
"  #caaaaac####ed        ",
"  #cccccccccc#ed        ",
"  #caaaaccccc#ed        ",
"  #cccccccccc#ed        ",
"  #ccccc#########ed     ",
"  #c##cc#bbbbbbb##ed    ",
"  #ccccc#bbbbbbb#b#ed   ",
"  #ccccc#baaaaab####ed  ",
"  #ccccc#bbbbbbbbbb#ed  ",
"  #ccccc#baaaabbbbb#ed  ",
"  #######bbbbbbbbbb#ed  ",
"   eeeee#bbbbbbbbbb#ed  ",
"    dddd#baaaaaaabb#ed  ",
"        #bbbbbbbbbb#ed  ",
"        #bbbbbbbbbb#ed  ",
"        #bbbbbbbbbb#ed  ",
"        #bbbbbbbbbb#ed  ",
"        ############ed  ",
"         eeeeeeeeeeeed  ",
"          dddddddddddd  "
};
