/* XPM */
static char *forward-disabled[] = {
/* width height num_colors chars_per_pixel */
"    24    24       15            1",
/* colors */
". c #b6b2b6 s backgroundToolBarColor",
"# c #606060",
"a c #d7d7d7",
"b c #c6c6c6",
"c c #bebebe",
"d c #b6b6b6",
"e c #a9ada9",
"f c #a1a5a1",
"g c #aeaaae",
"h c #999999",
"i c #bebabe",
"j c #919191",
"k c #898989",
"l c #818181",
"m c #797979",
/* pixels */
"........................",
"........................",
"........................",
"........................",
"...........#............",
"...........##...........",
"...........#a#..........",
"...........#ba#.........",
"......######cca#........",
"......#aaaaaddda#.......",
"......#eeeeeeeeea#......",
"......#ffffffffffa#.....",
"......#hhhhhhhhhh#ig....",
"......#jjjjjjjjj#ig.....",
"......######kkk#ig......",
".......iiii#ll#ig.......",
"........ggg#m#ig........",
"...........##ig.........",
"...........#ig..........",
"...........ig...........",
"........................",
"........................",
"........................",
"........................"
};
