/* XPM */
static char * parent_up_xpm[] = {
"24 24 11 1",
"  c #b6b2b6 s backgroundToolBarColor",
". c #000000",
"X c #c7ff86",
"o c #59f300",
"O c #51e700",
"+ c #49db00",
"@ c #41cf00",
"# c #8e8a8e",
"$ c #38c700",
"% c #28ba00",
"& c #20ae00",
"                        ",
"                        ",
"                        ",
"                        ",
"                        ",
"           .            ",
"          .X.           ",
"         .XoX.          ",
"        .XoooX.         ",
"       .XOOOOOX.        ",
"      .XOOOOOOOX.       ",
"     .X+++++++++X.      ",
"    .....@@@@@.....     ",
"    ####.$$$$$.####     ",
"        .%%%%%.         ",
"        .&&&&&.         ",
"        .&&&&&.         ",
"        .......         ",
"        #######         ",
"                        ",
"                        ",
"                        ",
"                        ",
"                        "
};
