/* XPM */
static char * search_up_xpm[] = {
"24 24 20 1",
" 	c #B6DAB2CAB6DA s backgroundToolBarColor",
".	c #000000000000",
"X	c #8E38C30BFFFF",
"o	c #8617BEFBF7DE",
"O	c #8617BAEAF7DE",
"+	c #8617B6DAF7DE",
"@	c #FFFFFFFFFFFF",
"#	c #79E7AEBAEFBE",
"$	c #79E7AEBAF7DE",
"%	c #79E7B2CAF7DE",
"&	c #79E7A699EFBE",
"*	c #79E7AAAAEFBE",
"=	c #71C6A289EFBE",
"-	c #71C69E79EFBE",
";	c #71C69A69E79D",
":	c #69A69658E79D",
">	c #69A69248E79D",
"<	c #69A68A28E79D",
"1	c #965896589658",
"2	c #AEBAAEBAAEBA",
"                        ",
"                        ",
"          ....          ",
"        ..XXXX..        ",
"       .XoO+++Oo.       ",
"      .Xo+@@#$%+o.      ",
"     .Xo+$@@&&*$+o.     ",
"     .XO%*=-;-=*%O.     ",
"     .X+$&-:>:-&$+.     ",
"     .X+#&;><>;&#+.     ",
"     ..X$&-:>:-&$..     ",
"     .1.%*=-;-=*.1.     ",
"      .2..*&&&..2.1     ",
"       .@@....22.11     ",
"        ..@@@2..11      ",
"        1.....111       ",
"       1..111111        ",
"       1..1111          ",
"      1..11             ",
"      1..1              ",
"     1..11              ",
"     @@.1               ",
"                        ",
"                        "
};
