/* XPM */
static char *noname[] = {
/* width height ncolors chars_per_pixel */
"    16    14        9            1",
/* colors */
"  c none",
"# c #314030",
"$ c #617F5F",
"% c #485E47",
"+ c #89B386",
". c #C4FFBF",
"; c #B0E5AC",
"! c #ff0000",
"& c #ff7f7f",
/* pixels */
"                ",
"    &&!!!!&&    ",
"   ####!!####   ",
"  %$#$#!!#$#$%  ",
"%%++$+$!!$+$++%%",
";;;;+;+!!+;+;;;;",
"....+.+!!+.+....",
";;;;+;+!!+;+;;;;",
"++++$;$!!$;$++++",
"%%%%#%#!!#%#%%%%",
"  %+#+#!!#+#+%  ",
"   ####!!####   ",
"    &&!!!!&&    ",
"                "
};
