/* XPM */
static char *weather-up[] = {
/* width height num_colors chars_per_pixel */
"    24    24       20            1",
/* colors */
". c #b6b2b6 s backgroundToolBarColor",
"# c #ffaa61",
"a c #ffeb9e",
"b c #ffdb96",
"c c #ffc786",
"d c #ffb679",
"e c #ffa271",
"f c #ff9269",
"g c #ff7d61",
"h c #ffffff",
"i c #ff6d59",
"j c #efefef",
"k c #ff5951",
"l c #dfdfdf",
"m c #cfd3cf",
"n c #bec3be",
"o c #aeb2ae",
"p c #9ea29e",
"q c #969696",
"r c #000000",
/* pixels */
"........................",
"........................",
".........#..............",
".........#..............",
"..#......#......#.......",
"...#....###....#........",
"....##..###..##.........",
"....###.aaa.###.........",
".....#bbbbbbb#..........",
"......ccccccc...........",
"...##ddddddddd##........",
"#####eeeeeeeee#####.....",
"...##fffffffff##........",
"......gggggggghhh..hhh..",
".....#iiiiiiijjjjjjjjjj.",
"....###.kkk.llllllllllll",
"....##..###.mmmmmmmmmmmm",
"...#....###.nnnnnnnnnnnn",
"..#......#..oooooooooooo",
".........#...pppppppppp.",
".........#....qqq..qqq..",
"........................",
"........................",
"........................"
};
