/* XPM */
static char * ecb_class_public_xpm[] = {
"16 14 39 1",
" 	c None",
".	c #005D00",
"+	c #FFFFFF",
"@	c #040404",
"#	c #3CBA00",
"$	c #F2F2F2",
"%	c #F2F1C5",
"&	c #E0B84B",
"*	c #DCB857",
"=	c #F2DDA4",
"-	c #E0B74A",
";	c #D7B34F",
">	c #ECC864",
",	c #F2CB61",
"'	c #E8C25C",
")	c #4F2721",
"!	c #4B5F87",
"~	c #4F648E",
"{	c #E5A684",
"]	c #D48E67",
"^	c #D67A44",
"/	c #C2CBDF",
"(	c #8AAAEA",
"_	c #83A1DE",
":	c #87A7E8",
"<	c #E2B7A1",
"[	c #D08254",
"}	c #DF966D",
"|	c #B2C5EB",
"1	c #6B8CD1",
"2	c #7798DF",
"3	c #7190D4",
"4	c #D67942",
"5	c #DEAC90",
"6	c #532923",
"7	c #A9BBDF",
"8	c #83A3E6",
"9	c #809EDC",
"0	c #EEC1AA",
"         ...+   ",
"   @+   .#+#.$  ",
"  @%@$  .$ $.+  ",
" @%&*@+ + .....$",
"@=-;>,@$  ..#..+",
" @,',@+   .#+#.$",
"  @,@$ @@)..#..+",
"@@!@!~@{]^.....$",
"@/(_:@{<^[})$+$+",
"@|123@]4]{56+   ",
"@789:@4[{50)$   ",
"@|9:9~@}50)+    ",
"@!~!~!$)6)$     ",
" +$+$+ +$+      "};
