/* XPM */
static char * ecb_enumeration_public_xpm[] = {
"16 14 6 1",
" 	c None",
".	c #005D00",
"+	c #F2F2F2",
"@	c #FFFFFF",
"#	c #3CBA00",
"$	c #0000FF",
"                ",
"         ...+   ",
"@+@     .#@#.+  ",
"+$+     .@ +.@  ",
"$$@+@+  @ .....@",
"+$+$$@    ..#..+",
"@$@+@$@+@ .#@#.@",
"+$+@$@$$++..#..+",
"@+@$@+@+$@.....@",
"  +$$$+$++@+@+@+",
"  @+@+@+$+      ",
"     @$$+@      ",
"     +@+@       ",
"                "};
