/* XPM */
static char * ecb_variable_unknown_xpm[] = {
"12 14 105 2",
"  	c None",
". 	c #F3F3F3",
"+ 	c #BCBCBC",
"@ 	c #BABABA",
"# 	c #EBEBEB",
"$ 	c #C0C0C0",
"% 	c #555555",
"& 	c #7E7E7E",
"* 	c #7B7B7B",
"= 	c #4F4F4F",
"- 	c #9E9E9E",
"; 	c #DEDEDE",
"> 	c #3F3F3F",
", 	c #5C5C5C",
"' 	c #818181",
") 	c #7F7E7E",
"! 	c #53403C",
"~ 	c #27211E",
"{ 	c #CFCFCF",
"] 	c #757575",
"^ 	c #424242",
"/ 	c #414141",
"( 	c #734122",
"_ 	c #AC551F",
": 	c #DE7529",
"< 	c #CC7226",
"[ 	c #99897A",
"} 	c #373737",
"| 	c #343434",
"1 	c #4D3522",
"2 	c #EC862D",
"3 	c #F69131",
"4 	c #F48F30",
"5 	c #E8822B",
"6 	c #926D52",
"7 	c #292929",
"8 	c #242424",
"9 	c #623517",
"0 	c #D16B24",
"a 	c #D77126",
"b 	c #D67025",
"c 	c #CC6622",
"d 	c #876553",
"e 	c #626262",
"f 	c #121212",
"g 	c #3E1E0F",
"h 	c #B54F1B",
"i 	c #BA541C",
"j 	c #B9531C",
"k 	c #A44114",
"l 	c #93817C",
"m 	c #A5A5C6",
"n 	c #444444",
"o 	c #0D0D10",
"p 	c #4B1908",
"q 	c #9D3712",
"r 	c #993311",
"s 	c #692926",
"t 	c #C3CCE5",
"u 	c #3C5CBA",
"v 	c #4A3C78",
"w 	c #7A3F4F",
"x 	c #7A5A7E",
"y 	c #4264CA",
"z 	c #376CB1",
"A 	c #E8EDF8",
"B 	c #4765DF",
"C 	c #6782FD",
"D 	c #527AE6",
"E 	c #81B3F2",
"F 	c #9DD0FF",
"G 	c #537CE2",
"H 	c #6078FC",
"I 	c #4180A5",
"J 	c #8BA2DC",
"K 	c #425BEC",
"L 	c #5C72FD",
"M 	c #6A85FD",
"N 	c #4D77DD",
"O 	c #A8DAFB",
"P 	c #466AE3",
"Q 	c #576BFB",
"R 	c #3068AF",
"S 	c #748FD5",
"T 	c #2B4ED6",
"U 	c #465EF0",
"V 	c #586CFC",
"W 	c #576EF8",
"X 	c #4070CF",
"Y 	c #475FEE",
"Z 	c #3251D5",
"` 	c #385B7C",
" .	c #D5DBEA",
"..	c #556DAD",
"+.	c #3D59AB",
"@.	c #4059AD",
"#.	c #435BAE",
"$.	c #465D9F",
"%.	c #5F709C",
"&.	c #959AA7",
"*.	c #DFDFDF",
"=.	c #F1F1F1",
"-.	c #F0F0F0",
";.	c #F4F4F4",
">.	c #FAFAFA",
"      . + @ #           ",
"    $ % & * = -         ",
"  ; > , ' ) ! ~ {       ",
"  ] ^ / ( _ : < [       ",
"  } | 1 2 3 4 5 6       ",
"  7 8 9 0 a b c d       ",
"  e f g h i j k l       ",
"m m n o p q r s {       ",
"    t u v w x y z       ",
"  A B C D E F G H I     ",
"  J K L M N O P Q R     ",
"  S T U V W X Y Z `     ",
"   ...+.@.#.$.%.&.*.    ",
"      =.-.-.;.>.        "};
