/* XPM */
static char * ecb_class_protected_xpm[] = {
"16 14 38 1",
" 	c None",
".	c #444444",
"+	c #FFFFFF",
"@	c #EDEDED",
"#	c #F2F2F2",
"$	c #E7E7E7",
"%	c #747474",
"&	c #F1F1F1",
"*	c #F5F5F5",
"=	c #D8D8D8",
"-	c #D2D2D2",
";	c #8C8C8C",
">	c #CACACA",
",	c #404040",
"'	c #E0E0E0",
")	c #898989",
"!	c #E6E6E6",
"~	c #C9C9C9",
"{	c #C5C5C5",
"]	c #D5D5D5",
"^	c #787878",
"/	c #D1D1D1",
"(	c #656565",
"_	c #868686",
":	c #C8C8C8",
"<	c #B6B6B6",
"[	c #ABABAB",
"}	c #D7D7D7",
"|	c #BDBDBD",
"1	c #BBBBBB",
"2	c #AFAFAF",
"3	c #A7A7A7",
"4	c #B0B0B0",
"5	c #AAAAAA",
"6	c #CBCBCB",
"7	c #B8B8B8",
"8	c #B4B4B4",
"9	c #676767",
"         .....+ ",
"   .+   .+@#@$%+",
"  .&.*  .@=.=-;*",
" .&>>.+ ,$-='=)+",
".!~{]=.* ..-^)* ",
" .=/=.+   .=)+  ",
"  .=.* ..(.-;*  ",
".._._).:<[.=';+ ",
".}|<1.:/[2.';*  ",
".-345.<5<:~^+   ",
".6781.52:~=*    ",
".-818).|~=(+    ",
"._)_)_*(9(*     ",
" +*+*+ +*+      "};
