/* XPM */
static char * ecb_variable_protected_xpm[] = {
"16 14 119 2",
"  	c None",
". 	c #F3F3F3",
"+ 	c #BCBCBC",
"@ 	c #BABABA",
"# 	c #EBEBEB",
"$ 	c #C0C0C0",
"% 	c #555555",
"& 	c #7E7E7E",
"* 	c #7B7B7B",
"= 	c #4F4F4F",
"- 	c #9E9E9E",
"; 	c #040404",
"> 	c #F2F2F2",
", 	c #DEDEDE",
"' 	c #3F3F3F",
") 	c #5C5C5C",
"! 	c #818181",
"~ 	c #7F7E7E",
"{ 	c #53403C",
"] 	c #27211E",
"^ 	c #CFCFCF",
"/ 	c #FFFFFF",
"( 	c #FEE99F",
"_ 	c #FEF0B7",
": 	c #FEDF8B",
"< 	c #8E2E00",
"[ 	c #757575",
"} 	c #424242",
"| 	c #414141",
"1 	c #734122",
"2 	c #AC551F",
"3 	c #DE7529",
"4 	c #CC7226",
"5 	c #99897A",
"6 	c #FDC760",
"7 	c #FCBD4F",
"8 	c #C04C00",
"9 	c #FEFBE5",
"0 	c #373737",
"a 	c #343434",
"b 	c #4D3522",
"c 	c #EC862D",
"d 	c #F69131",
"e 	c #F48F30",
"f 	c #E8822B",
"g 	c #926D52",
"h 	c #FDD378",
"i 	c #B84900",
"j 	c #292929",
"k 	c #242424",
"l 	c #623517",
"m 	c #D16B24",
"n 	c #D77126",
"o 	c #D67025",
"p 	c #CC6622",
"q 	c #876553",
"r 	c #963400",
"s 	c #626262",
"t 	c #121212",
"u 	c #3E1E0F",
"v 	c #B54F1B",
"w 	c #BA541C",
"x 	c #B9531C",
"y 	c #A44114",
"z 	c #93817C",
"A 	c #A5A5C6",
"B 	c #444444",
"C 	c #0D0D10",
"D 	c #4B1908",
"E 	c #9D3712",
"F 	c #993311",
"G 	c #692926",
"H 	c #C3CCE5",
"I 	c #3C5CBA",
"J 	c #4A3C78",
"K 	c #7A3F4F",
"L 	c #7A5A7E",
"M 	c #4264CA",
"N 	c #376CB1",
"O 	c #E8EDF8",
"P 	c #4765DF",
"Q 	c #6782FD",
"R 	c #527AE6",
"S 	c #81B3F2",
"T 	c #9DD0FF",
"U 	c #537CE2",
"V 	c #6078FC",
"W 	c #4180A5",
"X 	c #8BA2DC",
"Y 	c #425BEC",
"Z 	c #5C72FD",
"` 	c #6A85FD",
" .	c #4D77DD",
"..	c #A8DAFB",
"+.	c #466AE3",
"@.	c #576BFB",
"#.	c #3068AF",
"$.	c #748FD5",
"%.	c #2B4ED6",
"&.	c #465EF0",
"*.	c #586CFC",
"=.	c #576EF8",
"-.	c #4070CF",
";.	c #475FEE",
">.	c #3251D5",
",.	c #385B7C",
"'.	c #D5DBEA",
").	c #556DAD",
"!.	c #3D59AB",
"~.	c #4059AD",
"{.	c #435BAE",
"].	c #465D9F",
"^.	c #5F709C",
"/.	c #959AA7",
"(.	c #DFDFDF",
"_.	c #F1F1F1",
":.	c #F0F0F0",
"<.	c #F4F4F4",
"[.	c #FAFAFA",
"    . + @ #                     ",
"  $ % & * = -     ; ; ; ; ; >   ",
", ' ) ! ~ { ] ^ ; / ( _ ( : < / ",
"[ } | 1 2 3 4 5 ; ( 6 ; 6 7 8 9 ",
"0 a b c d e f g ; : 7 6 h 6 i / ",
"j k l m n o p q / ; ; 7 r i /   ",
"s t u v w x y z   / ; 6 i /     ",
"A B C D E F G ^     ; 7 8 9     ",
"  H I J K L M N     ; 6 h 8 /   ",
"O P Q R S T U V W   ; h 8 9     ",
"X Y Z `  ...+.@.#.    r 9       ",
"$.%.&.*.=.-.;.>.,.    9         ",
"'.).!.~.{.].^./.(.              ",
"    _.:.:.<.[.                  "};
