/* XPM */
static char * ecb_variable_private_static_xpm[] = {
"16 14 47 1",
" 	c None",
".	c #696969",
"+	c #F5F5F5",
"@	c #757575",
"#	c #727272",
"$	c #8F8F8F",
"%	c #C5C5C5",
"&	c #FFFFFF",
"*	c #989898",
"=	c #EDEDED",
"-	c #AFAFAF",
";	c #444444",
">	c #676767",
",	c #D8D8D8",
"'	c #939393",
")	c #D7D7D7",
"!	c #BDBDBD",
"~	c #8C8C8C",
"{	c #EBEBEB",
"]	c #929292",
"^	c #A9A9A9",
"/	c #D2D2D2",
"(	c #9E9E9E",
"_	c #898989",
":	c #E1E1E1",
"<	c #979797",
"[	c #AAAAAA",
"}	c #CBCBCB",
"|	c #A5A5A5",
"1	c #868686",
"2	c #E9E9E9",
"3	c #B3B3B3",
"4	c #A2A2A2",
"5	c #8B8B8B",
"6	c #E2E2E2",
"7	c #B0B0B0",
"8	c #888888",
"9	c #B9B9B9",
"0	c #A7A7A7",
"a	c #8D8D8D",
"b	c #E3E3E3",
"c	c #B4B4B4",
"d	c #B6B6B6",
"e	c #7D7D7D",
"f	c #E8E8E8",
"g	c #BCBCBC",
"h	c #9D9D9D",
"                ",
"          ...+  ",
"   @#$+  .%&%.+ ",
"   *=-&  .& +.& ",
";;;>,';; .....+ ",
";)!~{]!^&..~..& ",
";/(_:<[_+.~&~.+ ",
";}|12]31&..~..& ",
";/456<7_+.....+ ",
";}[8{]91&+&+&+& ",
";/0ab<c_+       ",
";d_ef]_1&       ",
" &+02g+&+       ",
"   *h[&         "};
