/* XPM */
static char * ecb_variable_private_static_xpm[] = {
"16 14 55 1",
" 	c None",
".	c #BA0000",
"+	c #F2F2F2",
"@	c #474747",
"#	c #434343",
"$	c #626C7D",
"%	c #FF9090",
"&	c #FFFFFF",
"*	c #6E7683",
"=	c #E7EBD8",
"-	c #8296BD",
";	c #040404",
">	c #2D3544",
",	c #CBCEBD",
"'	c #5C729A",
")	c #C2CBDF",
"!	c #8AAAEA",
"~	c #57688C",
"{	c #E1E8DD",
"]	c #5C7099",
"^	c #6F8FD3",
"/	c #FF2424",
"(	c #B2C5EB",
"_	c #6080C9",
":	c #50648B",
"<	c #D3DAD4",
"[	c #6176A1",
"}	c #7190D4",
"|	c #4F648E",
"1	c #A9BBDF",
"2	c #6789D6",
"3	c #4D6085",
"4	c #DFE5E2",
"5	c #7B9CE2",
"6	c #4B5F87",
"7	c #6685CD",
"8	c #53668D",
"9	c #D4DADA",
"0	c #7998D8",
"a	c #6E8FD9",
"b	c #506287",
"c	c #DFE7E9",
"d	c #83A4E6",
"e	c #6D8CD1",
"f	c #56698F",
"g	c #D5DBE1",
"h	c #809EDC",
"i	c #83A1DE",
"j	c #44536D",
"k	c #DCE2E9",
"l	c #838B9A",
"m	c #DEE3E9",
"n	c #92A8D0",
"o	c #727E95",
"p	c #8690A1",
"                ",
"          ...+  ",
"   @#$+  .%&%.+ ",
"   *=-&  .& +.& ",
";;;>,';; .....+ ",
";)!~{]!^&../..& ",
";(_:<[}|+./&/.+ ",
";1234]56&../..& ",
";(789[0|+.....+ ",
";1abc]d6&+&+&+& ",
";(efg[h|+       ",
";i|jk]|6&       ",
" &+lmn+&+       ",
"   *op&         "};
