/* XPM */
static char * ecb_variable_private_xpm[] = {
"16 14 39 1",
" 	c None",
".	c #BA0000",
"+	c #F2F2F2",
"@	c #FF9090",
"#	c #FFFFFF",
"$	c #040404",
"%	c #C2CBDF",
"&	c #8AAAEA",
"*	c #83A1DE",
"=	c #6F8FD3",
"-	c #FF2424",
";	c #B2C5EB",
">	c #6080C9",
",	c #688AD5",
"'	c #6687CD",
")	c #7193DC",
"!	c #7190D4",
"~	c #4F648E",
"{	c #A9BBDF",
"]	c #6789D6",
"^	c #6686CD",
"/	c #7091DA",
"(	c #7B9CE2",
"_	c #4B5F87",
":	c #6685CD",
"<	c #6F91DA",
"[	c #6F8ED2",
"}	c #7A9CE1",
"|	c #7998D8",
"1	c #6E8FD9",
"2	c #6D8DD2",
"3	c #799AE0",
"4	c #7897D7",
"5	c #83A4E6",
"6	c #6D8CD1",
"7	c #7899DF",
"8	c #7896D7",
"9	c #83A3E6",
"0	c #809EDC",
"                ",
"          ...+  ",
"         .@#@.+ ",
"         .# +.# ",
"$$$$$$$$ .....+ ",
"$%&*&*&=#..-..# ",
"$;>,')!~+.-#-.+ ",
"${]^/=(_#..-..# ",
"$;:<[}|~+.....+ ",
"${12345_#+#+#+# ",
"$;67890~+       ",
"$*~_~_~_#       ",
" #+#+#+#+       ",
"                "};
