/* XPM */
static char * ecb_variable_public_xpm[] = {
"16 14 109 2",
"  	c None",
". 	c #F3F3F3",
"+ 	c #BCBCBC",
"@ 	c #BABABA",
"# 	c #EBEBEB",
"$ 	c #C0C0C0",
"% 	c #555555",
"& 	c #7E7E7E",
"* 	c #7B7B7B",
"= 	c #4F4F4F",
"- 	c #9E9E9E",
"; 	c #005D00",
"> 	c #F2F2F2",
", 	c #DEDEDE",
"' 	c #3F3F3F",
") 	c #5C5C5C",
"! 	c #818181",
"~ 	c #7F7E7E",
"{ 	c #53403C",
"] 	c #27211E",
"^ 	c #CFCFCF",
"/ 	c #3CBA00",
"( 	c #FFFFFF",
"_ 	c #757575",
": 	c #424242",
"< 	c #414141",
"[ 	c #734122",
"} 	c #AC551F",
"| 	c #DE7529",
"1 	c #CC7226",
"2 	c #99897A",
"3 	c #373737",
"4 	c #343434",
"5 	c #4D3522",
"6 	c #EC862D",
"7 	c #F69131",
"8 	c #F48F30",
"9 	c #E8822B",
"0 	c #926D52",
"a 	c #292929",
"b 	c #242424",
"c 	c #623517",
"d 	c #D16B24",
"e 	c #D77126",
"f 	c #D67025",
"g 	c #CC6622",
"h 	c #876553",
"i 	c #626262",
"j 	c #121212",
"k 	c #3E1E0F",
"l 	c #B54F1B",
"m 	c #BA541C",
"n 	c #B9531C",
"o 	c #A44114",
"p 	c #93817C",
"q 	c #A5A5C6",
"r 	c #444444",
"s 	c #0D0D10",
"t 	c #4B1908",
"u 	c #9D3712",
"v 	c #993311",
"w 	c #692926",
"x 	c #C3CCE5",
"y 	c #3C5CBA",
"z 	c #4A3C78",
"A 	c #7A3F4F",
"B 	c #7A5A7E",
"C 	c #4264CA",
"D 	c #376CB1",
"E 	c #E8EDF8",
"F 	c #4765DF",
"G 	c #6782FD",
"H 	c #527AE6",
"I 	c #81B3F2",
"J 	c #9DD0FF",
"K 	c #537CE2",
"L 	c #6078FC",
"M 	c #4180A5",
"N 	c #8BA2DC",
"O 	c #425BEC",
"P 	c #5C72FD",
"Q 	c #6A85FD",
"R 	c #4D77DD",
"S 	c #A8DAFB",
"T 	c #466AE3",
"U 	c #576BFB",
"V 	c #3068AF",
"W 	c #748FD5",
"X 	c #2B4ED6",
"Y 	c #465EF0",
"Z 	c #586CFC",
"` 	c #576EF8",
" .	c #4070CF",
"..	c #475FEE",
"+.	c #3251D5",
"@.	c #385B7C",
"#.	c #D5DBEA",
"$.	c #556DAD",
"%.	c #3D59AB",
"&.	c #4059AD",
"*.	c #435BAE",
"=.	c #465D9F",
"-.	c #5F709C",
";.	c #959AA7",
">.	c #DFDFDF",
",.	c #F1F1F1",
"'.	c #F0F0F0",
").	c #F4F4F4",
"!.	c #FAFAFA",
"    . + @ #                     ",
"  $ % & * = -     ; ; ; >       ",
", ' ) ! ~ { ] ^ ; / ( / ; >     ",
"_ : < [ } | 1 2 ; (   > ; (     ",
"3 4 5 6 7 8 9 0     ; ; ; ; ; > ",
"a b c d e f g h     ; ; / ; ; ( ",
"i j k l m n o p     ; / ( / ; > ",
"q r s t u v w ^     ; ; / ; ; ( ",
"  x y z A B C D     ; ; ; ; ; > ",
"E F G H I J K L M   > ( > ( > ( ",
"N O P Q R S T U V               ",
"W X Y Z `  ...+.@.              ",
"#.$.%.&.*.=.-.;.>.              ",
"    ,.'.'.).!.                  "};
