/* XPM */
static char * ecb_variable_protected_static_xpm[] = {
"16 14 63 1",
" 	c None",
".	c #040404",
"+	c #F2F2F2",
"@	c #474747",
"#	c #434343",
"$	c #626C7D",
"%	c #FFFFFF",
"&	c #FEE99F",
"*	c #FEF0B7",
"=	c #FEDF8B",
"-	c #8E2E00",
";	c #6E7683",
">	c #E7EBD8",
",	c #8296BD",
"'	c #FDC760",
")	c #FCBD4F",
"!	c #C04C00",
"~	c #FEFBE5",
"{	c #2D3544",
"]	c #CBCEBD",
"^	c #5C729A",
"/	c #FDD378",
"(	c #B84900",
"_	c #C2CBDF",
":	c #8AAAEA",
"<	c #57688C",
"[	c #E1E8DD",
"}	c #5C7099",
"|	c #6F8FD3",
"1	c #963400",
"2	c #B2C5EB",
"3	c #6080C9",
"4	c #50648B",
"5	c #D3DAD4",
"6	c #6176A1",
"7	c #7190D4",
"8	c #4F648E",
"9	c #A9BBDF",
"0	c #6789D6",
"a	c #4D6085",
"b	c #DFE5E2",
"c	c #7B9CE2",
"d	c #4B5F87",
"e	c #6685CD",
"f	c #53668D",
"g	c #D4DADA",
"h	c #7998D8",
"i	c #6E8FD9",
"j	c #506287",
"k	c #DFE7E9",
"l	c #83A4E6",
"m	c #6D8CD1",
"n	c #56698F",
"o	c #D5DBE1",
"p	c #809EDC",
"q	c #83A1DE",
"r	c #44536D",
"s	c #DCE2E9",
"t	c #838B9A",
"u	c #DEE3E9",
"v	c #92A8D0",
"w	c #727E95",
"x	c #8690A1",
"                ",
"         .....+ ",
"   @#$+ .%&*&=-%",
"   ;>,% .&'.')!~",
"...{]^...=)'/'(%",
"._:<[}:|%..)1(% ",
".2345678+%.'(%  ",
".90ab}cd% .)!~  ",
".2efg6h8+ .'/!% ",
".9ijk}ld% ./!~  ",
".2mno6p8+  1~   ",
".q8rs}8d%  ~    ",
" %+tuv+%+       ",
"   ;wx%         "};
