/* XPM */
static char * ecb_class_unknown_xpm[] = {
"16 14 38 1",
" 	c None",
".	c #040404",
"+	c #FFFFFF",
"@	c #F2F1C5",
"#	c #F2F2F2",
"$	c #E0B84B",
"%	c #DCB857",
"&	c #F2DDA4",
"*	c #E0B74A",
"=	c #D7B34F",
"-	c #ECC864",
";	c #F2CB61",
">	c #E8C25C",
",	c #4F2721",
"'	c #A5A5C6",
")	c #4B5F87",
"!	c #4F648E",
"~	c #E5A684",
"{	c #D48E67",
"]	c #D67A44",
"^	c #C2CBDF",
"/	c #8AAAEA",
"(	c #83A1DE",
"_	c #87A7E8",
":	c #E2B7A1",
"<	c #D08254",
"[	c #DF966D",
"}	c #B2C5EB",
"|	c #6B8CD1",
"1	c #7798DF",
"2	c #7190D4",
"3	c #D67942",
"4	c #DEAC90",
"5	c #532923",
"6	c #A9BBDF",
"7	c #83A3E6",
"8	c #809EDC",
"9	c #EEC1AA",
"                ",
"    .+          ",
"   .@.#         ",
"  .@$%.+        ",
" .&*=-;.#       ",
"  .;>;.+        ",
"   .;.# ..,#    ",
"'..).)!.~{],+   ",
" .^/(_.~:]<[,#  ",
" .}|12.{3{~45+  ",
" .678_.3<~49,#  ",
" .}8_8!.[49,+   ",
" .)!)!)#,5,#    ",
"  +#+#+ +#+     "};
