/* XPM */
static char * ecb_function_protected_static_xpm[] = {
"16 14 51 1",
" 	c None",
".	c #444444",
"+	c #F5F5F5",
"@	c #757575",
"#	c #727272",
"$	c #8F8F8F",
"%	c #FFFFFF",
"&	c #EDEDED",
"*	c #F2F2F2",
"=	c #E7E7E7",
"-	c #747474",
";	c #EEEEEE",
">	c #AAAAAA",
",	c #D8D8D8",
"'	c #D2D2D2",
")	c #8C8C8C",
"!	c #FBFBFB",
"~	c #656565",
"{	c #4C4C4C",
"]	c #DCDCDC",
"^	c #989898",
"/	c #E0E0E0",
"(	c #898989",
"_	c #C8C8C8",
":	c #8A8A8A",
"<	c #ECECEC",
"[	c #A1A1A1",
"}	c #676767",
"|	c #787878",
"1	c #DDDDDD",
"2	c #A8A8A8",
"3	c #E2E2E2",
"4	c #A7A7A7",
"5	c #B6B6B6",
"6	c #D1D1D1",
"7	c #A4A4A4",
"8	c #A3A3A3",
"9	c #BDBDBD",
"0	c #A5A5A5",
"a	c #8E8E8E",
"b	c #E3E3E3",
"c	c #ACACAC",
"d	c #C9C9C9",
"e	c #B5B5B5",
"f	c #E6E6E6",
"g	c #AFAFAF",
"h	c #666666",
"i	c #939393",
"j	c #9B9B9B",
"k	c #EAEAEA",
"l	c #B7B7B7",
"                ",
"         .....+ ",
"   @#$+ .%&*&=-%",
"   #;>% .&,.,')!",
"  ~{]^+ .=',/,(%",
" ._:<[}++..'|(% ",
"._12345}+%.,(%  ",
".678<7_~% .')!  ",
".90abcd}+ .,/)% ",
".0e:;2,~% ./)!  ",
"+.5afg~%  +|!   ",
" +}hfi%    !    ",
"  +jkl+         ",
"   )$8%         "};
