/* XPM */ 
static char * ecbfunctionprivatestatic_xpm[] = {
"16 14 53 1",
" 	c None",
"!	c black",
"#	c #BA0000",
"$	c #F2F2F2",
"%	c #474747",
"&	c #434343",
"'	c #626C7D",
"(	c #FF9090",
")	c white",
"*	c #F6E8C6",
"+	c #C27F58",
",	c #4F2721",
"-	c #1B0D0B",
".	c #E0CFB0",
"0	c #B16238",
"1	c #040404",
"2	c #E5A684",
"3	c #915532",
"4	c #F7E4C2",
"5	c #C36D3D",
"6	c #532923",
"7	c #FF2424",
"8	c #E7CBBC",
"9	c #C07B57",
":	c #EAD6B7",
";	c #CE7644",
"<	c #D48E67",
"=	c #E2B7A1",
">	c #CA713E",
"?	c #B67553",
"@	c #F7E2C6",
"A	c #C37344",
"B	c #DF966D",
"C	c #CB733F",
"D	c #995A35",
"E	c #EAD7C1",
"F	c #D07C4D",
"G	c #DEAC90",
"H	c #DB8958",
"I	c #F8E5D1",
"J	c #C6794E",
"K	c #EEC1AA",
"L	c #EBDACB",
"M	c #D18255",
"N	c #4A2A26",
"O	c #ECDBCF",
"P	c #A85D35",
"Q	c #887371",
"R	c #EDE0D8",
"S	c #D58F67",
"T	c #73605E",
"U	c #796563",
"V	c #90807F",
"                ",
"          ###$  ",
"   %&'$  #()(#$ ",
"   &*+)  #) $#) ",
"  ,-.0$  #####$ ",
" 123456$ ##7##) ",
"1289:;<6$#7)7#$ ",
"1=>?@A2,)##7##) ",
"1BCDEFG6$#####$ ",
"1CH3IJK,)$)$)$) ",
"$1<DLM,)        ",
" $6NOP)         ",
"  $QRS$         ",
"   TUV)         "};