/* XPM */
static char * ecb_function_public_static_xpm[] = {
"16 14 51 1",
" 	c None",
".	c #005D00",
"+	c #F2F2F2",
"@	c #474747",
"#	c #434343",
"$	c #626C7D",
"%	c #3CBA00",
"&	c #FFFFFF",
"*	c #F6E8C6",
"=	c #C27F58",
"-	c #4F2721",
";	c #1B0D0B",
">	c #E0CFB0",
",	c #B16238",
"'	c #040404",
")	c #E5A684",
"!	c #915532",
"~	c #F7E4C2",
"{	c #C36D3D",
"]	c #532923",
"^	c #E7CBBC",
"/	c #C07B57",
"(	c #EAD6B7",
"_	c #CE7644",
":	c #D48E67",
"<	c #E2B7A1",
"[	c #CA713E",
"}	c #B67553",
"|	c #F7E2C6",
"1	c #C37344",
"2	c #DF966D",
"3	c #CB733F",
"4	c #995A35",
"5	c #EAD7C1",
"6	c #D07C4D",
"7	c #DEAC90",
"8	c #DB8958",
"9	c #F8E5D1",
"0	c #C6794E",
"a	c #EEC1AA",
"b	c #EBDACB",
"c	c #D18255",
"d	c #4A2A26",
"e	c #ECDBCF",
"f	c #A85D35",
"g	c #887371",
"h	c #EDE0D8",
"i	c #D58F67",
"j	c #73605E",
"k	c #796563",
"l	c #90807F",
"                ",
"        ...+    ",
"   @#$+.%&%.+   ",
"   #*=&.& +.&   ",
"  -;>,+  .....+ ",
" ')!~{]+ ..%..& ",
"')^/(_:]+.%&%.+ ",
"'<[}|1)-&..%..& ",
"'234567]+.....+ ",
"'38!90a-&+&+&+& ",
"+':4bc-&        ",
" +]def&         ",
"  +ghi+         ",
"   jkl&         "};
