/* XPM */
static char * ecb_variable_public_static_xpm[] = {
"16 14 48 1",
" 	c None",
".	c #686868",
"+	c #F5F5F5",
"@	c #757575",
"#	c #727272",
"$	c #8F8F8F",
"%	c #9F9F9F",
"&	c #FFFFFF",
"*	c #989898",
"=	c #EDEDED",
"-	c #AFAFAF",
";	c #444444",
">	c #676767",
",	c #D8D8D8",
"'	c #939393",
")	c #404040",
"!	c #D7D7D7",
"~	c #BDBDBD",
"{	c #8C8C8C",
"]	c #EBEBEB",
"^	c #929292",
"/	c #A9A9A9",
"(	c #D2D2D2",
"_	c #9E9E9E",
":	c #898989",
"<	c #E1E1E1",
"[	c #979797",
"}	c #AAAAAA",
"|	c #CBCBCB",
"1	c #A5A5A5",
"2	c #868686",
"3	c #E9E9E9",
"4	c #B3B3B3",
"5	c #A2A2A2",
"6	c #8B8B8B",
"7	c #E2E2E2",
"8	c #B0B0B0",
"9	c #888888",
"0	c #B9B9B9",
"a	c #A7A7A7",
"b	c #8D8D8D",
"c	c #E3E3E3",
"d	c #B4B4B4",
"e	c #B6B6B6",
"f	c #7D7D7D",
"g	c #E8E8E8",
"h	c #BCBCBC",
"i	c #9D9D9D",
"                ",
"        ...+    ",
"   @#$+.%&%.+   ",
"   *=-&.& +.&   ",
";;;>,';) .....+ ",
";!~{]^~/&..%..& ",
";(_:<[}:+.%&%.+ ",
";|123^42&..%..& ",
";(567[8:+.....+ ",
";|}9]^02&+&+&+& ",
";(abc[d:+       ",
";e:fg^:2&       ",
" &+a3h+&+       ",
"   *i}&         "};
