/* XPM */
static char * ecb_variable_private_xpm[] = {
"16 14 31 1",
" 	c None",
".	c #696969",
"+	c #F5F5F5",
"@	c #C5C5C5",
"#	c #FFFFFF",
"$	c #444444",
"%	c #D7D7D7",
"&	c #BDBDBD",
"*	c #B6B6B6",
"=	c #A9A9A9",
"-	c #8C8C8C",
";	c #D2D2D2",
">	c #9E9E9E",
",	c #A6A6A6",
"'	c #A3A3A3",
")	c #ACACAC",
"!	c #AAAAAA",
"~	c #898989",
"{	c #CBCBCB",
"]	c #A5A5A5",
"^	c #ABABAB",
"/	c #B3B3B3",
"(	c #868686",
"_	c #A2A2A2",
":	c #B0B0B0",
"<	c #A7A7A7",
"[	c #B1B1B1",
"}	c #AFAFAF",
"|	c #B9B9B9",
"1	c #B8B8B8",
"2	c #B4B4B4",
"                ",
"          ...+  ",
"         .@#@.+ ",
"         .# +.# ",
"$$$$$$$$ .....+ ",
"$%&*&*&=#..-..# ",
"$;>,')!~+.-#-.+ ",
"${]'^=/(#..-..# ",
"$;_!=/:~+.....+ ",
"${!<[}|(#+#+#+# ",
"$;<:}12~+       ",
"$*~(~(~(#       ",
" #+#+#+#+       ",
"                "};
