/* XPM */
static char * ecb_enumeration_protected_xpm[] = {
"16 14 16 1",
" 	c None",
".	c #040404",
"+	c #F2F2F2",
"@	c #FFFFFF",
"#	c #FEE99F",
"$	c #FEF0B7",
"%	c #FEDF8B",
"&	c #8E2E00",
"*	c #0000FF",
"=	c #FDC760",
"-	c #FCBD4F",
";	c #C04C00",
">	c #FEFBE5",
",	c #FDD378",
"'	c #B84900",
")	c #963400",
"                ",
"         .....+ ",
"@+@     .@#$#%&@",
"+*+     .#=.=-;>",
"**@+@+  .%-=,='@",
"+*+**@  @..-)'@ ",
"@*@+@*@+@@.='@  ",
"+*+@*@**++.-;>  ",
"@+@*@+@+*@.=,;@ ",
"  +***+*++.,;>  ",
"  @+@+@+*+ )>   ",
"     @**+@ >    ",
"     +@+@       ",
"                "};
