/* XPM */
static char * ecb_class_private_xpm[] = {
"16 14 40 1",
" 	c None",
".	c #BA0000",
"+	c #F2F2F2",
"@	c #040404",
"#	c #FFFFFF",
"$	c #FF9090",
"%	c #F2F1C5",
"&	c #E0B84B",
"*	c #DCB857",
"=	c #F2DDA4",
"-	c #E0B74A",
";	c #D7B34F",
">	c #ECC864",
",	c #F2CB61",
"'	c #FF2424",
")	c #E8C25C",
"!	c #4F2721",
"~	c #4B5F87",
"{	c #4F648E",
"]	c #E5A684",
"^	c #D48E67",
"/	c #D67A44",
"(	c #C2CBDF",
"_	c #8AAAEA",
":	c #83A1DE",
"<	c #87A7E8",
"[	c #E2B7A1",
"}	c #D08254",
"|	c #DF966D",
"1	c #B2C5EB",
"2	c #6B8CD1",
"3	c #7798DF",
"4	c #7190D4",
"5	c #D67942",
"6	c #DEAC90",
"7	c #532923",
"8	c #A9BBDF",
"9	c #83A3E6",
"0	c #809EDC",
"a	c #EEC1AA",
"           ...+ ",
"   @#     .$#$.+",
"  @%@+    .+ +.#",
" @%&*@#   .....+",
"@=-;>,@+  ..'..#",
" @,),@#   .'#'.+",
"  @,@+ @@!..'..#",
"@@~@~{@]^/.....+",
"@(_:<@][/}|!+#+#",
"@1234@^5^]67#   ",
"@890<@5}]6a!+   ",
"@10<0{@|6a!#    ",
"@~{~{~+!7!+     ",
" #+#+# #+#      "};
