/* XPM */
static char * ecb_variable_unknown_xpm[] = {
"12 14 37 1",
" 	c None",
".	c #040404",
"+	c #C2CBDF",
"@	c #8AAAEA",
"#	c #83A1DE",
"$	c #6F8FD3",
"%	c #FFFFFF",
"&	c #B2C5EB",
"*	c #6080C9",
"=	c #688AD5",
"-	c #6687CD",
";	c #7193DC",
">	c #7190D4",
",	c #4F648E",
"'	c #F2F2F2",
")	c #A5A5C6",
"!	c #A9BBDF",
"~	c #6789D6",
"{	c #6686CD",
"]	c #7091DA",
"^	c #7B9CE2",
"/	c #4B5F87",
"(	c #6685CD",
"_	c #6F91DA",
":	c #6F8ED2",
"<	c #7A9CE1",
"[	c #7998D8",
"}	c #6E8FD9",
"|	c #6D8DD2",
"1	c #799AE0",
"2	c #7897D7",
"3	c #83A4E6",
"4	c #6D8CD1",
"5	c #7899DF",
"6	c #7896D7",
"7	c #83A3E6",
"8	c #809EDC",
"            ",
"            ",
"            ",
"            ",
" ........   ",
" .+@#@#@$%  ",
" .&*=-;>,'  ",
").!~{]$^/%  ",
" .&(_:<[,'  ",
" .!}|123/%  ",
" .&45678,'  ",
" .#,/,/,/%  ",
"  %'%'%'%'  ",
"            "};
