/* XPM */
static char * ecb_variable_unknown_static_xpm[] = {
"12 14 46 1",
" 	c None",
".	c #757575",
"+	c #727272",
"@	c #8F8F8F",
"#	c #F5F5F5",
"$	c #989898",
"%	c #EDEDED",
"&	c #AFAFAF",
"*	c #FFFFFF",
"=	c #444444",
"-	c #676767",
";	c #D8D8D8",
">	c #939393",
",	c #D7D7D7",
"'	c #BDBDBD",
")	c #8C8C8C",
"!	c #EBEBEB",
"~	c #929292",
"{	c #A9A9A9",
"]	c #D2D2D2",
"^	c #9E9E9E",
"/	c #898989",
"(	c #E1E1E1",
"_	c #979797",
":	c #AAAAAA",
"<	c #A5A5C6",
"[	c #CBCBCB",
"}	c #A5A5A5",
"|	c #868686",
"1	c #E9E9E9",
"2	c #B3B3B3",
"3	c #A2A2A2",
"4	c #8B8B8B",
"5	c #E2E2E2",
"6	c #B0B0B0",
"7	c #888888",
"8	c #B9B9B9",
"9	c #A7A7A7",
"0	c #8D8D8D",
"a	c #E3E3E3",
"b	c #B4B4B4",
"c	c #B6B6B6",
"d	c #7D7D7D",
"e	c #E8E8E8",
"f	c #BCBCBC",
"g	c #9D9D9D",
"            ",
"            ",
"    .+@#    ",
"    $%&*    ",
" ===-;>==   ",
" =,')!~'{*  ",
" =]^/(_:/#  ",
"<=[}|1~2|*  ",
" =]345_6/#  ",
" =[:7!~8|*  ",
" =]90a_b/#  ",
" =c/de~/|*  ",
"  *#91f#*#  ",
"    $g:*    "};
