/* XPM */
static char * Methods_xpm[] = {
"16 14 103 2",
"  	c None",
". 	c #000000",
"+ 	c #E5A684",
"@ 	c #D6AE99",
"# 	c #DF966D",
"$ 	c #C16E3E",
"% 	c #532923",
"& 	c #E6E6E6",
"* 	c #CA713E",
"= 	c #DB8958",
"- 	c #C98762",
"; 	c #848484",
"> 	c #8B8B8B",
", 	c #616161",
"' 	c #3B3B3B",
") 	c #4B251F",
"! 	c #D1D1D1",
"~ 	c #C6C6C6",
"{ 	c #545454",
"] 	c #6B6A6A",
"^ 	c #FFFFFF",
"/ 	c #C16D3C",
"( 	c #DB8757",
"_ 	c #D3A389",
": 	c #717070",
"< 	c #F2F2F2",
"[ 	c #5E5E5E",
"} 	c #5B5B5B",
"| 	c #626262",
"1 	c #444444",
"2 	c #715B4F",
"3 	c #7B665A",
"4 	c #736358",
"5 	c #7E6E65",
"6 	c #766963",
"7 	c #80756F",
"8 	c #544948",
"9 	c #7B7B7B",
"0 	c #6F6F6F",
"a 	c #BCBCBC",
"b 	c #C6C5C6",
"c 	c #EFEFEF",
"d 	c #787978",
"e 	c #DAB8A5",
"f 	c #EFCEBC",
"g 	c #DEC5B8",
"h 	c #F2DACE",
"i 	c #96837F",
"j 	c #FAFAFA",
"k 	c #6B6B6B",
"l 	c #696969",
"m 	c #C5C5C5",
"n 	c #BBBBBB",
"o 	c #FBFBFC",
"p 	c #EEEEED",
"q 	c #A28D89",
"r 	c #988480",
"s 	c #A18B88",
"t 	c #FAFAF9",
"u 	c #717171",
"v 	c #EEEDED",
"w 	c #F9F9F9",
"x 	c #E9E9E8",
"y 	c #FBFBFB",
"z 	c #E7E7E7",
"A 	c #F9FAF9",
"B 	c #F1F0F1",
"C 	c #C2C2C2",
"D 	c #B7B8B7",
"E 	c #F5F5F5",
"F 	c #E7E8E8",
"G 	c #E5E5E5",
"H 	c #EFF0F0",
"I 	c #E2E2E2",
"J 	c #ECEDED",
"K 	c #DFDFDF",
"L 	c #B7B7B8",
"M 	c #C0C1C1",
"N 	c #D6D6D6",
"O 	c #E0E0E0",
"P 	c #D4D4D4",
"Q 	c #DFDEDE",
"R 	c #D3D3D3",
"S 	c #DDDDDD",
"T 	c #D1D2D1",
"U 	c #DCDCDC",
"V 	c #C7C7C7",
"W 	c #BDBDBD",
"X 	c #484847",
"Y 	c #C1C1C0",
"Z 	c #F1F1F0",
"` 	c #E3E3E3",
" .	c #EBEBEB",
"..	c #DEDEDE",
"+.	c #E8E9E8",
"@.	c #DCDBDB",
"#.	c #EDEDEE",
"$.	c #EAEBEB",
"%.	c #E9E8E9",
"&.	c #DCDCDB",
"*.	c #E7E7E6",
"=.	c #646464",
"-.	c #040404",
"          -.-.-.-.              ",
"        -.+ @ # $ % &           ",
"      -.+ @ * $ = - % ; > , '   ",
"    ; -.@ * $ = - + ) ! ~ { ] ^ ",
"  , ! -.# / ( - + _ % ~ { ~ : < ",
"[ } | 1 2 3 4 5 6 7 8 9 ~ ! ] ^ ",
"0 a b c d e f g h i j k ! ~ : < ",
"l m n o p q r s i t & u ~ ! ] ^ ",
"0 n m v w x y z A & B k ! ~ : < ",
"l C D E F < G H I J K u ~ ! ] ^ ",
"0 L M N O P Q R S T U k V W X < ",
"l Y N Z ` v O  ...+.@.u ~ | <   ",
"0 N < ` #.O $...%.&.*.k | <     ",
"l 0 l 0 l 0 l 0 l 0 l =.<       "};
