/* XPM */
static char * ecb_variable_unknown_static_xpm[] = {
"12 14 53 1",
" 	c None",
".	c #474747",
"+	c #434343",
"@	c #626C7D",
"#	c #F2F2F2",
"$	c #6E7683",
"%	c #E7EBD8",
"&	c #8296BD",
"*	c #FFFFFF",
"=	c #040404",
"-	c #2D3544",
";	c #CBCEBD",
">	c #5C729A",
",	c #C2CBDF",
"'	c #8AAAEA",
")	c #57688C",
"!	c #E1E8DD",
"~	c #5C7099",
"{	c #6F8FD3",
"]	c #B2C5EB",
"^	c #6080C9",
"/	c #50648B",
"(	c #D3DAD4",
"_	c #6176A1",
":	c #7190D4",
"<	c #4F648E",
"[	c #A5A5C6",
"}	c #A9BBDF",
"|	c #6789D6",
"1	c #4D6085",
"2	c #DFE5E2",
"3	c #7B9CE2",
"4	c #4B5F87",
"5	c #6685CD",
"6	c #53668D",
"7	c #D4DADA",
"8	c #7998D8",
"9	c #6E8FD9",
"0	c #506287",
"a	c #DFE7E9",
"b	c #83A4E6",
"c	c #6D8CD1",
"d	c #56698F",
"e	c #D5DBE1",
"f	c #809EDC",
"g	c #83A1DE",
"h	c #44536D",
"i	c #DCE2E9",
"j	c #838B9A",
"k	c #DEE3E9",
"l	c #92A8D0",
"m	c #727E95",
"n	c #8690A1",
"            ",
"            ",
"    .+@#    ",
"    $%&*    ",
" ===-;>==   ",
" =,')!~'{*  ",
" =]^/(_:<#  ",
"[=}|12~34*  ",
" =]567_8<#  ",
" =}90a~b4*  ",
" =]cde_f<#  ",
" =g<hi~<4*  ",
"  *#jkl#*#  ",
"    $mn*    "};
