/* XPM */
static char * ecb_variable_protected_xpm[] = {
"16 14 47 1",
" 	c None",
".	c #040404",
"+	c #F2F2F2",
"@	c #FFFFFF",
"#	c #FEE99F",
"$	c #FEF0B7",
"%	c #FEDF8B",
"&	c #8E2E00",
"*	c #FDC760",
"=	c #FCBD4F",
"-	c #C04C00",
";	c #FEFBE5",
">	c #FDD378",
",	c #B84900",
"'	c #C2CBDF",
")	c #8AAAEA",
"!	c #83A1DE",
"~	c #6F8FD3",
"{	c #963400",
"]	c #B2C5EB",
"^	c #6080C9",
"/	c #688AD5",
"(	c #6687CD",
"_	c #7193DC",
":	c #7190D4",
"<	c #4F648E",
"[	c #A9BBDF",
"}	c #6789D6",
"|	c #6686CD",
"1	c #7091DA",
"2	c #7B9CE2",
"3	c #4B5F87",
"4	c #6685CD",
"5	c #6F91DA",
"6	c #6F8ED2",
"7	c #7A9CE1",
"8	c #7998D8",
"9	c #6E8FD9",
"0	c #6D8DD2",
"a	c #799AE0",
"b	c #7897D7",
"c	c #83A4E6",
"d	c #6D8CD1",
"e	c #7899DF",
"f	c #7896D7",
"g	c #83A3E6",
"h	c #809EDC",
"                ",
"         .....+ ",
"        .@#$#%&@",
"        .#*.*=-;",
".........%=*>*,@",
".')!)!)~@..={,@ ",
".]^/(_:<+@.*,@  ",
".[}|1~23@ .=-;  ",
".]45678<+ .*>-@ ",
".[90abc3@ .>-;  ",
".]defgh<+  {;   ",
".!<3<3<3@  ;    ",
" @+@+@+@+       ",
"                "};
