/* XPM */
static char * Variables_xpm[] = {
"16 14 116 2",
"  	c None",
". 	c #000000",
"+ 	c #C2CBDF",
"@ 	c #8AAAEA",
"# 	c #83A1DE",
"$ 	c #6F8FD3",
"% 	c #FFFFFF",
"& 	c #B2C5EB",
"* 	c #5B79BF",
"= 	c #688AD5",
"- 	c #6180C3",
"; 	c #7193DC",
"> 	c #6B89C9",
", 	c #4F648E",
"' 	c #848484",
") 	c #8B8B8B",
"! 	c #616161",
"~ 	c #3B3B3B",
"{ 	c #A0B1D4",
"] 	c #6789D6",
"^ 	c #617FC3",
"/ 	c #7091DA",
"( 	c #6988C8",
"_ 	c #7B9CE2",
": 	c #475A80",
"< 	c #D1D1D1",
"[ 	c #C6C6C6",
"} 	c #545454",
"| 	c #6B6A6A",
"1 	c #617EC3",
"2 	c #6F91DA",
"3 	c #6987C7",
"4 	c #7A9CE1",
"5 	c #7390CD",
"6 	c #717070",
"7 	c #F2F2F2",
"8 	c #5E5E5E",
"9 	c #5B5B5B",
"0 	c #626262",
"a 	c #444444",
"b 	c #696D76",
"c 	c #5F687B",
"d 	c #5A6273",
"e 	c #626B7C",
"f 	c #5D6574",
"g 	c #656D7E",
"h 	c #535761",
"i 	c #4C4C4C",
"j 	c #6F6F6F",
"k 	c #BCBCBC",
"l 	c #C6C5C6",
"m 	c #737373",
"n 	c #D5DFF3",
"o 	c #A7B7D9",
"p 	c #B6C7EB",
"q 	c #ACBBDB",
"r 	c #BACBEE",
"s 	c #AFBEDC",
"t 	c #9EA9BF",
"u 	c #6B6B6B",
"v 	c #696969",
"w 	c #C5C5C5",
"x 	c #BBBBBB",
"y 	c #787879",
"z 	c #B2C2DF",
"A 	c #A0ABC1",
"B 	c #969FB3",
"C 	c #9FAAC0",
"D 	c #949EB2",
"E 	c #9EA9BE",
"F 	c #939DB1",
"G 	c #717171",
"H 	c #EEEDED",
"I 	c #F9F9F9",
"J 	c #EBEBEA",
"K 	c #F6F7F7",
"L 	c #E9E9E9",
"M 	c #F3F4F3",
"N 	c #E6E6E6",
"O 	c #F1F0F1",
"P 	c #C2C2C2",
"Q 	c #B7B8B7",
"R 	c #F5F5F5",
"S 	c #E7E8E8",
"T 	c #E5E5E5",
"U 	c #EFF0F0",
"V 	c #E2E2E2",
"W 	c #ECEDED",
"X 	c #DFDFDF",
"Y 	c #B7B7B8",
"Z 	c #C0C1C1",
"` 	c #D6D6D6",
" .	c #E0E0E0",
"..	c #D4D4D4",
"+.	c #DFDEDE",
"@.	c #D3D3D3",
"#.	c #DDDDDD",
"$.	c #D1D2D1",
"%.	c #DCDCDC",
"&.	c #C7C7C7",
"*.	c #BDBDBD",
"=.	c #484847",
"-.	c #C1C1C0",
";.	c #F1F1F0",
">.	c #E3E3E3",
",.	c #EBEBEB",
"'.	c #DEDEDE",
").	c #E8E9E8",
"!.	c #DCDBDB",
"~.	c #EDEDEE",
"{.	c #EAEBEB",
"].	c #E9E8E9",
"^.	c #DCDCDB",
"/.	c #E7E7E6",
"(.	c #646464",
"_.	c #040404",
"      _._._._._._._._.          ",
"      _.+ @ # @ # @ $ %         ",
"      _.& * = - ; > , ' ) ! ~   ",
"    ' _.{ ] ^ / ( _ : < [ } | % ",
"  ! < _.& 1 2 3 4 5 , [ } [ 6 7 ",
"8 9 0 a b c d e f g h i [ < | % ",
"j k l m n o p q r s t u < [ 6 7 ",
"v w x y z A B C D E F G [ < | % ",
"j x w H I J K L M N O u < [ 6 7 ",
"v P Q R S 7 T U V W X G [ < | % ",
"j Y Z `  ...+.@.#.$.%.u &.*.=.7 ",
"v -.` ;.>.H  .,.'.).!.G [ 0 7   ",
"j ` 7 >.~. .{.'.].^./.u 0 7     ",
"v j v j v j v j v j v (.7       "};
