/* XPM */
static char * elmo2_xpm[] = {
"18 13 3 1",
" 	c None",
".	c #71C66DB6FFFF",
"X	c #B6DAEFBEFFFF",
"        ..        ",
"       . ..       ",
"      .. ...      ",
"    . ...... .    ",
"    ..........    ",
"    .....X....    ",
"    ....XX.X..    ",
"   ...X.XXX...    ",
"  ...XXXXXX....   ",
"  ...XXXXXXX...   ",
"  ...XXXXXXX...   ",
"   ...XXXXX...    ",
"    ........      "};
