/* XPM */
static char * imap_xpm[] = {
"16 16 8 1",
" 	c None",
".	c #E79DE79DE79D",
"X	c #C71BC30BC71B",
"o	c #BEFBBEFBBEFB",
"O	c #000000000000",
"+	c #965896589658",
"@	c #61856595CF3C",
"#	c #30C230C26185",
"                ",
"   .....        ",
"  .XoooX.       ",
" .Xoooooo.....O ",
" .XoooooXXXXo+O ",
" .XooooXXXXoo+O ",
" .XooooXXXooo+O ",
" .XooXXXXXXXX+O ",
" .XoXXXXXXXXX+O ",
" .++++++++++++O ",
" OOOOOOOOOOOOOO ",
"                ",
"@@@@##XXXX##@@@@",
"      @@@@      ",
"       @@       ",
"        @@@@@   "};
