/* XPM */
static char * internal_xpm[] = {
"16 16 10 1",
" 	c None",
".	c #000000000000",
"X	c #E79DCB2B9E79",
"o	c #CF3CBAEA9658",
"O	c #B6DAA6998617",
"+	c #BEFBE79DF7DE",
"@	c #FFFFFFFFFFFF",
"#	c #CF3CCF3CCF3C",
"$	c #51445144FFFF",
"%	c #9E79A2899E79",
"                ",
"                ",
"   ....         ",
"  .XXXX.        ",
" .XooooX......  ",
" .Xooo...XXXXO. ",
" .Xoo.+++.oooO. ",
" .Xo.+@@++.ooO. ",
" .Xo.+@@++.ooO. ",
" .Xo.+++++.ooO. ",
" .Xo#.+++.#ooO. ",
" .Xoo#...$$ooO. ",
" .OOOOOOOO$$OO. ",
"  .........$$.  ",
"            %%  ",
"                "};
