/* XPM */
static char * localnews_xpm[] = {
"16 16 5 1",
" 	c None",
".	c #000000000000",
"X	c #BEFBB2CA69A6",
"o	c #FFFFFFFFFFFF",
"O	c #EFBEE38D8617",
"                ",
"                ",
" .............  ",
".X.oooooooooo.  ",
".X.oX.X...o.o.  ",
"..X.ooooooooo.  ",
".X..o..X..X.Xo. ",
" .XX.oooooo.oo. ",
" ..X.oXXXooooo. ",
" ..X.oXXX.o.o.o.",
"  .X.OOOOOOOOOo.",
"  ..OOOOOOOOOO. ",
"   ...........  ",
"                ",
"                ",
"                "};
