/* XPM */
static char * namazu_xpm[] = {
"16 16 16 1",
" 	c None",
".	c #104008200000",
"X	c #000000000000",
"o	c #BEFB71C638E3",
"O	c #30C224924103",
"+	c #28A220812081",
"@	c #1040104028A2",
"#	c #104010401040",
"$	c #186110400820",
"%	c #9E79596528A2",
"&	c #AEBA69A630C2",
"*	c #CF3CAAAAAEBA",
"=	c #082008200820",
"-	c #38E324921040",
";	c #49242CB21861",
":	c #410338E330C2",
"                ",
"     ...X       ",
"    XooooX      ",
"   XoooooX      ",
"  XoooooooX     ",
"  XoooooooX     ",
"  XXoXoooooO    ",
"  XXoXooooo+   X",
"  XoooooXXooX XX",
"  @##$%.o&ooXXoX",
" X****#ooooooooX",
" X*****XXoooooX ",
" XXXX+***=oooX  ",
"  X******=-;ooX ",
"   ::::::X  -o# ",
"             $# "};
