/* XPM */
static char * pipe_xpm[] = {
"16 16 9 1",
" 	c None",
".	c #9E799E79FFFF",
"X	c #51445144FFFF",
"o	c #2081208169A6",
"O	c #00000000FFFF",
"+	c #D75CD75CD75C",
"@	c #FFFF00000000",
"#	c #FFFFFFFFFFFF",
"$	c #A699A289A699",
"                ",
"                ",
"     .XXXo      ",
"     .XXXo      ",
"     .XXXo      ",
"O+@+O.XXXo@+O+@ ",
"+####.XXXo####+$",
"@##.XXXXXXXo##O$",
"+###.XXXXXo###+$",
"O####.XXXo####@$",
"+#####.Xo#####+$",
"@######o######O$",
"+#############+$",
"O+@+O+@+O+@+O+@$",
" $$$$$$$$$$$$$$$",
"                "};
