/* XPM */
static char * pop_xpm[] = {
"16 16 7 1",
" 	c None",
".	c #DF7DD75C79E7",
"X	c #BEFBB2CA69A6",
"o	c #000000000000",
"O	c #A6999E795965",
"+	c #61856595CF3C",
"@	c #30C230C26185",
"                ",
"   .....        ",
"  .XXXXX.       ",
" .XXXXXXX.....o ",
" .XXXXXXXXXXXOo ",
" .XXXXXXXXXXXOo ",
" .XXXXXXXXXXXOo ",
" .XXXXXXXXXXXOo ",
" .XXXXXXXXXXXOo ",
" .OOOOOOOOOOOOo ",
" oooooooooooooo ",
"                ",
"++++@@....@@++++",
"      ++++      ",
"       ++       ",
"        +++++   "};
