#define wl_alpha_logo_width 464
#define wl_alpha_logo_height 160
static char wl_alpha_logo_bits[] = {
 0x00,0x00,0x00,0x00,0x00,0x00,0x00,0x00,0x00,0x00,0x00,0x00,0x00,0x00,0x00,
 0x00,0x00,0x00,0x00,0x00,0x00,0x00,0x00,0x00,0x00,0x00,0x00,0x00,0x00,0x00,
 0x00,0x00,0x00,0x00,0x00,0x00,0x00,0x00,0x00,0x00,0x00,0x00,0x00,0x00,0x00,
 0x00,0x00,0x00,0x00,0x00,0x00,0x00,0x00,0x00,0x00,0x00,0x00,0x00,0x00,0x00,
 0x00,0x00,0x00,0x00,0x00,0x00,0x00,0x00,0x00,0x00,0x00,0x00,0x00,0x00,0x00,
 0x00,0x00,0x00,0x00,0x00,0x00,0x00,0x00,0x00,0x00,0x00,0x00,0x00,0x00,0x00,
 0x00,0x00,0x00,0x00,0x00,0x00,0x00,0x00,0x00,0x00,0x00,0x00,0x00,0x00,0x00,
 0x00,0x00,0x00,0x00,0x00,0x00,0x00,0x00,0x00,0x00,0x00,0x00,0x00,0x00,0x00,
 0x00,0x00,0x00,0x00,0x00,0x00,0x00,0x00,0x00,0x00,0x00,0x00,0x00,0x00,0x00,
 0x00,0x00,0x00,0x00,0x00,0x00,0x00,0x00,0x00,0x00,0x00,0x00,0x00,0x00,0x00,
 0x00,0x00,0x00,0x00,0x00,0x00,0x00,0x00,0x00,0x00,0x00,0x00,0x00,0x00,0x00,
 0x00,0x00,0x00,0x00,0x00,0x00,0x00,0x00,0x00,0x00,0x00,0x00,0x00,0x00,0x00,
 0x00,0x00,0x00,0x00,0x00,0x00,0x00,0x00,0x00,0x00,0x00,0x00,0x00,0x00,0x00,
 0x00,0x00,0x00,0x00,0x00,0x00,0x00,0x00,0x00,0x00,0x00,0x00,0x00,0x00,0x00,
 0x00,0x00,0x00,0x00,0x00,0x00,0x00,0x00,0x00,0x00,0x00,0x00,0x00,0x00,0x00,
 0x00,0x00,0x00,0x00,0x00,0x00,0x00,0x00,0x00,0x00,0x00,0x00,0x00,0x00,0x00,
 0x00,0x00,0x00,0x00,0x00,0x00,0x00,0x00,0x00,0x00,0x00,0x00,0x00,0x00,0x00,
 0x00,0x00,0x00,0x00,0x00,0x00,0x00,0x00,0x00,0x00,0x00,0x00,0x00,0x00,0x00,
 0x00,0x00,0x00,0x00,0x00,0x00,0x00,0x00,0x00,0x00,0x00,0x00,0x00,0x00,0x00,
 0x00,0x00,0x00,0x00,0x00,0x00,0x00,0x00,0x00,0x00,0x00,0x00,0x00,0x00,0x00,
 0x00,0x00,0x00,0x00,0x00,0x00,0x00,0x00,0x00,0x00,0x00,0x00,0x00,0x00,0x00,
 0x00,0x00,0x00,0x00,0x00,0x00,0x00,0x00,0x00,0x00,0x00,0x00,0x00,0x00,0x00,
 0x00,0x00,0x00,0x00,0x00,0x00,0x00,0x00,0x00,0x00,0x00,0x00,0x00,0x00,0x00,
 0x00,0x00,0x00,0x00,0x00,0x00,0x00,0x00,0x00,0x00,0x00,0x00,0x00,0x00,0x00,
 0x00,0x00,0x00,0x00,0x00,0x00,0x00,0x00,0x00,0x00,0x00,0x00,0x00,0x00,0x00,
 0x00,0x00,0x00,0x00,0x00,0x00,0x00,0x00,0x00,0x00,0x00,0x00,0x00,0x00,0x00,
 0x00,0x00,0x00,0x00,0x00,0x00,0x00,0x00,0x00,0x00,0x00,0x00,0x00,0x00,0x00,
 0x00,0x00,0x00,0x00,0x00,0x00,0x00,0x00,0x00,0x18,0x00,0x00,0x00,0x00,0x00,
 0x00,0x00,0x00,0x00,0x00,0x00,0x00,0x00,0x00,0x00,0x00,0x00,0x00,0xa0,0xaa,
 0x00,0x00,0x00,0x00,0x00,0x00,0x00,0x00,0x00,0x00,0x00,0x00,0x00,0x00,0x00,
 0x00,0x00,0x00,0x00,0x00,0x00,0x00,0x00,0x00,0x00,0x00,0x00,0x00,0x00,0x00,
 0x00,0x00,0x00,0x00,0x00,0x00,0x00,0x2e,0x00,0x00,0x00,0x00,0x00,0x00,0x00,
 0x00,0x00,0x00,0x00,0x00,0x00,0x00,0x00,0x00,0x00,0x50,0x15,0x11,0x2a,0x00,
 0x00,0x00,0x00,0x00,0x00,0x00,0x00,0x00,0x00,0x00,0x00,0x00,0x00,0x00,0x00,
 0x00,0x00,0x00,0x00,0x00,0x00,0x00,0x00,0x00,0x00,0x00,0x00,0x00,0x00,0x00,
 0x00,0x00,0x00,0x00,0x00,0x7a,0x00,0x00,0x00,0x00,0x00,0x00,0x00,0x00,0x00,
 0x00,0x00,0x00,0x00,0x00,0x00,0x00,0x80,0x8a,0x88,0x88,0x84,0x02,0x00,0x00,
 0x00,0x00,0x00,0x00,0x00,0x00,0x00,0x00,0x00,0x00,0x00,0x00,0x00,0x00,0x00,
 0x00,0x00,0x00,0x00,0x00,0x00,0x00,0x00,0x00,0x00,0x00,0x00,0x00,0x00,0x00,
 0x00,0x00,0x80,0x77,0x00,0x00,0x00,0x00,0x00,0x00,0x00,0x00,0x00,0x00,0x00,
 0x00,0x00,0x00,0x00,0x00,0x48,0x20,0x52,0x24,0x21,0x28,0x00,0x00,0x00,0x00,
 0x00,0x00,0x00,0x00,0x00,0x00,0x00,0x00,0x00,0x00,0x00,0x00,0x00,0x00,0x00,
 0x00,0x00,0x00,0x00,0x00,0x00,0x00,0x00,0x00,0x00,0x00,0x00,0x00,0x00,0x00,
 0x80,0x7a,0x00,0x00,0x00,0x00,0x00,0x00,0x00,0x00,0x00,0x00,0x00,0x00,0x00,
 0x00,0x00,0x00,0x22,0x95,0x84,0x42,0x94,0x82,0x00,0x00,0x00,0x00,0x00,0x00,
 0x00,0x00,0x00,0x00,0x00,0x00,0x00,0x00,0x00,0x00,0x00,0x00,0x00,0x00,0x00,
 0x00,0x00,0x00,0x00,0x00,0x00,0x00,0x00,0x00,0x00,0x00,0x00,0x00,0xf0,0x6d,
 0x00,0x00,0x00,0x00,0x00,0x00,0x00,0x00,0x00,0x00,0x00,0x00,0x00,0x00,0x00,
 0x90,0x14,0x02,0x21,0x14,0x41,0x28,0x04,0x00,0x00,0x00,0x00,0x00,0x00,0x00,
 0x00,0x00,0x00,0x00,0x00,0x00,0x00,0x00,0x00,0x00,0x00,0x00,0x00,0x00,0x00,
 0x00,0x00,0x00,0x00,0x00,0x00,0x00,0x00,0x00,0x00,0x00,0xa8,0x76,0x00,0x00,
 0x00,0x00,0x00,0x00,0x00,0x00,0x00,0x00,0x00,0x00,0x00,0x00,0x00,0x40,0x81,
 0x54,0x14,0x41,0x14,0x01,0x11,0x00,0x00,0x00,0x00,0x00,0x00,0x00,0x00,0x00,
 0x00,0x00,0x00,0x00,0x00,0x00,0x00,0x00,0x00,0x00,0x00,0x00,0x00,0x00,0x00,
 0x00,0x00,0x00,0x00,0x00,0x00,0x00,0x00,0x00,0xb4,0x6b,0x00,0x00,0x00,0x00,
 0x00,0x00,0x00,0x00,0x00,0x00,0x00,0x00,0x00,0x00,0x00,0x15,0x2a,0x41,0xa2,
 0x94,0x42,0xb8,0x44,0x01,0x00,0x00,0x00,0x00,0x00,0x00,0x00,0x00,0x00,0x00,
 0x00,0x00,0x00,0x00,0x00,0x00,0x00,0x00,0x00,0x00,0x00,0x00,0x00,0x00,0x00,
 0x00,0x00,0x00,0x00,0x00,0x00,0x00,0x6c,0x7d,0x00,0x00,0x00,0x00,0x00,0x00,
 0x00,0x00,0x00,0x00,0x00,0x00,0x00,0x00,0x40,0xa2,0x90,0x14,0x09,0x22,0x10,
 0x3e,0x10,0x00,0x00,0x00,0x00,0x00,0x00,0x00,0x00,0x00,0x00,0x00,0x00,0x00,
 0x00,0x00,0x00,0x00,0x00,0x00,0x00,0x00,0x00,0x00,0x00,0x00,0x00,0x00,0x00,
 0x00,0x00,0x00,0x00,0x80,0xb7,0x6b,0x00,0x00,0x00,0x00,0x00,0x00,0x00,0x00,
 0x00,0x00,0x00,0x00,0x00,0x00,0xa0,0x14,0x25,0xa2,0xa4,0x88,0x0a,0xbf,0x42,
 0x0a,0x00,0x00,0x00,0x00,0x00,0x00,0x00,0x00,0x00,0x00,0x00,0x00,0x00,0x00,
 0x00,0x00,0x00,0x00,0x00,0x00,0x00,0x00,0x00,0x00,0x00,0x00,0x00,0x00,0x00,
 0x00,0x00,0x40,0xdd,0x76,0x00,0x00,0x00,0x00,0x00,0x00,0x00,0x00,0x00,0x00,
 0x00,0x00,0x00,0x00,0x14,0xa2,0x88,0x08,0x40,0x04,0xa0,0x3e,0x08,0x10,0x00,
 0x00,0x00,0x00,0x00,0x00,0x00,0x00,0x00,0x00,0x00,0x00,0x00,0x00,0x00,0x00,
 0x00,0x00,0x00,0x00,0x00,0x00,0x00,0x00,0x00,0x00,0x00,0x00,0x00,0x00,0x00,
 0xa0,0x6b,0x7b,0x00,0x00,0x00,0x00,0x00,0x00,0x00,0x00,0x00,0x00,0x00,0x00,
 0x00,0x00,0x52,0x15,0x44,0x52,0x95,0xc2,0x1f,0xb8,0xa2,0x22,0x00,0x00,0x00,
 0x00,0x00,0x00,0x00,0x00,0x00,0x00,0x00,0x00,0x00,0x00,0x00,0x00,0x00,0x00,
 0x00,0x00,0x00,0x00,0x00,0x00,0x00,0x00,0x00,0x00,0x00,0x00,0x00,0x68,0xbd,
 0x6d,0x00,0x00,0x00,0x00,0x00,0x00,0x00,0x00,0x00,0x00,0x00,0x00,0x00,0x80,
 0x94,0xa0,0x22,0x09,0x22,0xe8,0x9f,0x32,0x08,0x80,0x00,0x00,0x00,0x00,0x00,
 0x00,0x00,0x00,0x00,0x00,0x00,0x00,0x00,0x00,0x00,0x00,0x00,0x00,0x00,0x00,
 0x00,0x00,0x00,0x00,0x00,0x00,0x00,0x00,0x00,0x00,0x00,0xb8,0xd7,0x76,0x00,
 0x00,0x00,0x00,0x00,0x40,0x01,0x00,0x00,0x00,0x00,0x00,0x00,0x50,0x49,0x4a,
 0x94,0xa0,0x80,0xd2,0x7f,0x70,0x82,0x14,0x01,0x00,0x00,0x00,0x00,0x00,0x00,
 0x00,0x00,0x00,0x00,0x00,0x00,0x00,0x00,0x00,0x00,0x00,0x00,0x00,0x00,0x00,
 0x00,0x00,0x00,0x00,0x00,0x00,0x00,0x00,0x00,0xdf,0x7a,0x7b,0x00,0x00,0x00,
 0x00,0x00,0xa0,0x0a,0x00,0x00,0x00,0x00,0x00,0x00,0x40,0x24,0x25,0x01,0x15,
 0xf8,0x04,0x3f,0xf5,0x28,0x80,0x02,0x00,0x00,0x00,0x00,0x00,0x00,0x00,0x00,
 0x00,0x00,0x00,0x00,0x00,0x00,0x00,0x00,0x00,0x00,0x00,0x00,0x00,0x00,0x00,
 0x00,0x00,0x00,0x00,0x00,0x00,0xc0,0x6a,0xad,0x6d,0x00,0x00,0x00,0x00,0x00,
 0x58,0x15,0x00,0x00,0x00,0x00,0x00,0x00,0x2a,0x93,0x92,0x54,0x42,0xfe,0x23,
 0xff,0xe0,0x02,0x25,0x04,0x00,0x00,0x00,0x00,0x00,0x00,0x00,0x00,0x00,0x00,
 0x00,0x00,0x00,0x00,0x00,0x00,0x00,0x00,0x00,0x00,0x00,0x00,0x00,0x00,0x00,
 0x00,0x00,0x00,0x00,0x40,0xbb,0x77,0x3b,0x00,0x00,0x00,0x00,0x00,0xac,0x2a,
 0x00,0x00,0x00,0x00,0x00,0x00,0xa8,0x54,0x48,0x22,0x14,0xef,0x17,0xff,0xea,
 0x50,0x80,0x0c,0x00,0x00,0x00,0x00,0x00,0x00,0x00,0x00,0x00,0x00,0x00,0x00,
 0x00,0x00,0x00,0x00,0x00,0x00,0x00,0x00,0x00,0x00,0x00,0x00,0x00,0x00,0x00,
 0x00,0x00,0xf8,0xd7,0xaa,0x3d,0x00,0x00,0x00,0x00,0x00,0xab,0x75,0x00,0x00,
 0x00,0x00,0x00,0x40,0x15,0x49,0x25,0x49,0x89,0x8f,0x4f,0xfe,0xe1,0x84,0x14,
 0x08,0x00,0x00,0x00,0x00,0x00,0x00,0x00,0x00,0x00,0x00,0x00,0x00,0x00,0x00,
 0x00,0x00,0x00,0x00,0x00,0x00,0x00,0x00,0x00,0x00,0x00,0x00,0x00,0x00,0x00,
 0x56,0xbd,0xfd,0x36,0x00,0x00,0x00,0x00,0x80,0xaa,0x56,0x00,0x00,0x00,0x00,
 0x00,0x00,0xa5,0x24,0x92,0x00,0x94,0x57,0x3f,0xce,0xcb,0x11,0x40,0x11,0x00,
 0x00,0x00,0x00,0x00,0x00,0x00,0x00,0x00,0x00,0x00,0x00,0x00,0x00,0x00,0x00,
 0x00,0x00,0x00,0x00,0x00,0x00,0x00,0x00,0x00,0x00,0x00,0x00,0x80,0x6d,0x6b,
 0xab,0x3d,0x00,0x00,0x00,0x00,0x40,0xb5,0xea,0x00,0x00,0x00,0x00,0x00,0xa0,
 0x92,0x52,0x09,0xf8,0xdf,0xc3,0x5f,0x9e,0xc3,0x44,0x05,0x24,0x00,0x00,0x00,
 0x00,0x00,0x00,0x00,0x00,0x00,0x00,0x00,0x00,0x00,0x00,0x00,0x00,0x00,0x00,
 0x00,0x00,0x00,0x00,0x00,0x00,0x00,0x00,0x00,0x00,0x60,0xbb,0xdd,0xdd,0x1e,
 0x00,0x00,0x00,0x00,0x40,0x55,0xd5,0x00,0x00,0x00,0x00,0x00,0xa8,0x54,0x8a,
 0x04,0xff,0xc0,0x01,0x58,0x59,0xcf,0x10,0x50,0x60,0x00,0x00,0x00,0x00,0x00,
 0x00,0x00,0x00,0x00,0x00,0x00,0x00,0x00,0x00,0x00,0x00,0x00,0x00,0x00,0x00,
 0x00,0x00,0x00,0x00,0x00,0x00,0x00,0x00,0xa8,0xed,0x76,0x6b,0x1b,0x00,0x00,
 0x00,0x00,0xb0,0xaa,0xea,0x00,0x00,0x00,0x00,0x00,0x54,0x4a,0x51,0xe6,0x7f,
 0xc0,0x01,0x78,0x3a,0xce,0x43,0x02,0x49,0x00,0x00,0x00,0x00,0x00,0x00,0x00,
 0x00,0x00,0x00,0x00,0x00,0x00,0x00,0x00,0x00,0x00,0x00,0x00,0x00,0x00,0x00,
 0x00,0x00,0x00,0x00,0x00,0x00,0x7d,0xb7,0xad,0xdd,0x1e,0x00,0x00,0x00,0x00,
 0x50,0x57,0xed,0x00,0x00,0x00,0x00,0x00,0x25,0xa5,0xcc,0xf3,0x3f,0xc0,0x00,
 0x78,0x38,0xfd,0x0b,0x10,0x80,0x00,0x00,0x00,0x00,0x00,0x00,0x00,0x00,0x00,
 0x00,0x00,0x00,0x00,0x00,0x00,0x00,0x00,0x00,0x00,0x00,0x00,0x00,0x00,0x00,
 0x00,0x00,0x00,0xe0,0xd7,0x6d,0xf7,0x6e,0x0f,0x00,0x00,0x00,0x00,0x68,0xb5,
 0x75,0x00,0x00,0x00,0x00,0x80,0x94,0x52,0xf2,0xf8,0x1f,0xc0,0x00,0x70,0xb8,
 0xf8,0x23,0x85,0xa4,0x01,0x00,0x00,0x00,0x00,0x00,0x00,0x00,0x00,0x00,0x00,
 0x00,0x00,0x00,0x00,0x00,0x00,0x00,0x00,0x00,0x00,0x00,0x00,0x00,0x00,0xc0,
 0x01,0xb6,0xfa,0xde,0xad,0xb5,0x0f,0x00,0x00,0x00,0x00,0xa8,0xaa,0x6a,0x00,
 0x00,0x00,0x00,0xa0,0x52,0x09,0x08,0xe0,0x0f,0xc0,0x00,0x70,0x30,0xf2,0x4b,
 0x20,0x00,0x01,0x00,0x00,0x00,0x00,0x00,0x00,0x00,0x00,0x00,0x00,0x00,0x00,
 0x00,0x00,0x00,0x00,0x00,0x00,0x00,0x00,0x00,0x00,0x00,0x00,0x40,0xfd,0xdd,
 0xaf,0xb5,0x76,0xdb,0x06,0x00,0x00,0x00,0x00,0x54,0x55,0x75,0x00,0x00,0x00,
 0x00,0x90,0xaa,0xc4,0x3f,0x00,0x0e,0xc0,0x01,0xf0,0x30,0xe0,0x03,0x09,0x25,
 0x03,0x00,0x00,0x00,0x00,0x00,0x00,0x00,0x00,0x00,0x00,0x00,0x00,0x00,0x00,
 0x00,0x00,0x00,0x00,0x00,0x00,0x00,0x00,0x00,0x00,0x80,0x57,0xf7,0xda,0xee,
 0xdb,0xb6,0x07,0x00,0x00,0x00,0x00,0xdb,0x5a,0x75,0x00,0x00,0x00,0x00,0x48,
 0x4a,0xf2,0x3f,0x00,0x0e,0xc0,0x01,0xe0,0x70,0xc0,0x27,0x40,0x80,0x02,0x00,
 0x00,0x00,0x00,0x00,0x00,0x00,0x00,0x00,0x00,0x00,0x00,0x00,0x00,0x00,0x00,
 0x00,0x00,0x00,0x00,0x00,0x00,0x00,0x00,0x80,0xfa,0x5d,0x77,0xbb,0xb6,0xed,
 0x03,0x00,0x00,0x00,0x00,0x55,0xab,0x3a,0x00,0x00,0x00,0x00,0x50,0x25,0xf1,
 0x7f,0x00,0x1c,0x80,0x01,0xe0,0x70,0xc0,0x8f,0x14,0x12,0x06,0x00,0x00,0x00,
 0x00,0x00,0x00,0x00,0x00,0x00,0x00,0x00,0x00,0x00,0x00,0x00,0x00,0x00,0x00,
 0x00,0x00,0x00,0x00,0x00,0x00,0x80,0x5f,0xef,0xdd,0x6d,0xef,0xde,0x01,0x00,
 0x00,0x00,0x00,0x6d,0x55,0x3b,0x00,0x00,0x00,0x00,0x4a,0xa9,0xfb,0x7c,0x00,
 0x18,0x80,0x01,0xe0,0xf0,0xc0,0x27,0x40,0x40,0x06,0x00,0x00,0x00,0x00,0x00,
 0x00,0x00,0x00,0x00,0x00,0x00,0x00,0x00,0x00,0x00,0x00,0x00,0x00,0x00,0x00,
 0x00,0x00,0x00,0x00,0x80,0xea,0x75,0x77,0xdb,0xba,0xf5,0x00,0x00,0x00,0x00,
 0x40,0xab,0x6a,0x1d,0x00,0x00,0x00,0x00,0xaa,0xd4,0x39,0x78,0x00,0x18,0x80,
 0x03,0xe0,0xf0,0x81,0x87,0x0a,0x09,0x04,0x00,0x00,0x00,0x00,0x00,0x00,0x00,
 0x00,0x00,0x00,0x00,0x00,0x00,0x00,0x00,0x00,0x00,0x00,0x00,0x00,0x00,0x00,
 0x00,0x00,0x00,0xbf,0xbe,0xdd,0xee,0x6d,0x77,0x00,0x00,0x00,0x00,0xa0,0xd5,
 0x56,0x1d,0x00,0x00,0x00,0x80,0x02,0xf2,0x1c,0x70,0x00,0x38,0x00,0x07,0xe0,
 0xf8,0x03,0x10,0x20,0x20,0x0d,0x00,0x00,0x00,0x00,0x00,0x00,0x00,0x00,0x00,
 0x00,0x00,0x00,0x00,0x00,0x00,0x00,0x00,0x00,0x00,0x00,0x00,0x00,0x00,0x00,
 0x00,0xea,0xd7,0xb6,0x5b,0xb7,0x3d,0x00,0x00,0x00,0x00,0x40,0xad,0xaa,0x0e,
 0x00,0x00,0x00,0x00,0xf0,0x3d,0x1c,0x20,0x00,0x38,0x00,0x07,0xf0,0xf8,0x03,
 0x44,0x82,0x04,0x0c,0x00,0x00,0x00,0x00,0x00,0x00,0x00,0x00,0x00,0x00,0x00,
 0x00,0x00,0x00,0x00,0x00,0x00,0x00,0x00,0x00,0x00,0x00,0x00,0x00,0x00,0xbf,
 0xfa,0xef,0xee,0xda,0x1e,0x00,0x00,0x00,0x00,0xb0,0xd5,0x5a,0x0f,0x00,0x00,
 0x00,0x00,0xff,0x1f,0x1c,0x00,0x00,0x38,0x00,0x0e,0x70,0xf8,0x00,0x10,0x10,
 0x90,0x0c,0x00,0x00,0x00,0x00,0x00,0x00,0x00,0x00,0x00,0x00,0x00,0x00,0x00,
 0x00,0x00,0x00,0x00,0x00,0x00,0x00,0x00,0x00,0x00,0x00,0x00,0xea,0xaf,0xba,
 0x75,0xb7,0x0f,0x00,0x00,0x00,0x00,0xd0,0x5a,0xab,0x07,0x00,0x00,0x00,0xc0,
 0xff,0x07,0x1c,0x00,0x00,0x30,0x00,0x3c,0x38,0x00,0x00,0x40,0x45,0x02,0x08,
 0x00,0x00,0x00,0x00,0x00,0x00,0x00,0x00,0x00,0x00,0x00,0x00,0x00,0x00,0x00,
 0x00,0x00,0x00,0x00,0x00,0x00,0x00,0x00,0x00,0x00,0xbc,0x7a,0x6f,0xaf,0xed,
 0x07,0x00,0x00,0x00,0x00,0x68,0xad,0xaa,0x03,0x00,0x00,0x00,0xe0,0xdf,0x0f,
 0x3c,0x00,0x00,0x70,0x00,0x7c,0x3e,0x00,0x00,0x00,0x00,0x20,0x19,0x00,0x00,
 0x00,0x00,0x00,0x00,0x00,0x00,0x00,0x00,0x00,0x00,0x00,0x00,0x00,0x00,0x00,
 0x00,0x00,0x00,0x00,0x00,0x00,0x00,0x00,0xd4,0xdf,0xf5,0xfa,0xf6,0x01,0x00,
 0x00,0x00,0x00,0x58,0x6b,0xd5,0x01,0x00,0x00,0x00,0xe8,0xef,0x0e,0xf8,0x7f,
 0x00,0x70,0x00,0xf8,0x1f,0x00,0x00,0x20,0x29,0x09,0x18,0x00,0x00,0x00,0x00,
 0x00,0x00,0x00,0x00,0x00,0x00,0x00,0x00,0x00,0x00,0x00,0x00,0x00,0x00,0x00,
 0x00,0x00,0x00,0x00,0x00,0x00,0xfc,0xea,0xae,0xaf,0xfd,0x00,0x00,0x00,0x00,
 0x00,0x6e,0xad,0xf6,0x00,0x00,0x00,0xf8,0xd7,0x7b,0x1c,0xf0,0xff,0x00,0x70,
 0x00,0xe0,0x0f,0x00,0x00,0x40,0x40,0x40,0x1a,0x00,0x00,0x00,0x00,0x00,0x00,
 0x00,0x00,0x00,0x00,0x00,0x00,0x00,0x00,0x00,0x00,0x00,0x00,0x00,0x00,0x00,
 0x00,0x00,0x00,0x00,0x50,0xbf,0x7b,0x75,0x3f,0x00,0x00,0x00,0x00,0x00,0xa8,
 0x6a,0x75,0x00,0x00,0x00,0xff,0xab,0x1f,0x1c,0xe0,0xff,0x01,0xf0,0x00,0x00,
 0x07,0x00,0x00,0x00,0x0a,0x09,0x18,0x00,0x00,0x00,0x00,0x00,0x00,0x00,0x00,
 0x00,0x00,0x00,0x00,0x00,0x00,0x00,0x00,0x00,0x00,0x00,0x00,0x00,0x00,0x00,
 0x00,0x00,0xf0,0xd5,0xdd,0xae,0x0f,0x00,0x00,0x00,0x00,0x00,0xb7,0xad,0x3a,
 0x00,0x00,0xe0,0xff,0x57,0x0f,0x0c,0x00,0xff,0x03,0xe0,0x3f,0x00,0x00,0x00,
 0x00,0x80,0x20,0x80,0x18,0x00,0x00,0x00,0x00,0x00,0x00,0x00,0x00,0x00,0x00,
 0x00,0x00,0x00,0x00,0x00,0x00,0x00,0x00,0x00,0x00,0x00,0x00,0x00,0x00,0x00,
 0x40,0xff,0xb6,0xf7,0x03,0x00,0x00,0x00,0x00,0x80,0x5a,0xb5,0x1d,0x00,0x00,
 0xf0,0xcf,0xaf,0x06,0x0e,0x00,0x80,0x03,0xf0,0x3f,0x00,0x00,0x00,0x00,0x00,
 0x04,0x25,0x12,0x00,0x00,0x00,0x00,0x00,0x00,0x00,0x00,0x00,0x00,0x00,0x00,
 0x00,0x00,0x00,0x00,0x00,0x00,0x00,0x00,0x00,0x00,0x00,0x00,0x00,0xc0,0x55,
 0xef,0xda,0x01,0x00,0x00,0x00,0x00,0x80,0xaa,0xd5,0x0e,0x00,0xc0,0xf9,0x21,
 0xd7,0x0e,0x0f,0x00,0x00,0x03,0xf8,0x1f,0x00,0x00,0x00,0x00,0x00,0x41,0x00,
 0x18,0x00,0x00,0x00,0x00,0x00,0x00,0x00,0x00,0x00,0x00,0x00,0x00,0x00,0x00,
 0x00,0x00,0x00,0x00,0x00,0x00,0x00,0x00,0x00,0x00,0x00,0x00,0xfe,0x5b,0x7f,
 0x00,0x00,0x00,0x00,0x00,0x40,0xdb,0x56,0x07,0x00,0xf8,0xe1,0x41,0xef,0x9e,
 0x0f,0x00,0x00,0x07,0xfc,0x0f,0x00,0x00,0x00,0x00,0x00,0x10,0x29,0x35,0x00,
 0x00,0x00,0x00,0x00,0x00,0x00,0x00,0x00,0xa0,0x00,0x00,0x00,0x00,0x00,0x00,
 0x00,0x00,0x00,0x00,0x00,0x00,0x00,0x00,0x00,0x00,0x54,0xfd,0x3a,0x00,0x00,
 0x00,0x00,0x00,0x40,0xad,0xda,0x03,0x00,0xfc,0xc1,0x51,0x75,0xfc,0x0f,0x00,
 0x00,0x03,0x3c,0x00,0x00,0x00,0x00,0x00,0x00,0x04,0x00,0x3a,0x00,0x00,0x00,
 0x00,0x00,0x00,0x00,0x00,0x00,0x94,0x01,0x00,0x00,0x00,0x00,0x00,0x00,0x00,
 0x00,0x00,0x00,0x00,0x00,0x00,0x00,0x00,0xe0,0xaf,0x1f,0x00,0x00,0x00,0x00,
 0x00,0x40,0x6b,0xeb,0x01,0x30,0xfc,0x80,0x15,0x3d,0xfc,0x0f,0xe0,0x80,0x03,
 0x0c,0x00,0x00,0x00,0x00,0x00,0x00,0x48,0x92,0x35,0x00,0x00,0x00,0x00,0x00,
 0x00,0x00,0x00,0x00,0xc0,0x01,0x00,0x00,0x00,0x00,0x00,0x00,0x00,0x00,0x00,
 0x00,0x00,0x00,0x00,0x00,0x00,0x00,0x74,0x07,0x00,0x00,0x00,0x00,0x00,0xb0,
 0xb5,0xfa,0x00,0x3e,0xf0,0x80,0xc7,0x1e,0x3c,0x0f,0xe0,0xc1,0x03,0x00,0x00,
 0x00,0x00,0x00,0x00,0x00,0x02,0x40,0x2a,0x00,0x00,0x00,0x00,0x00,0x00,0x00,
 0x00,0x00,0x94,0x01,0x00,0x00,0x00,0x00,0x00,0x00,0x00,0x00,0x00,0x00,0x00,
 0x00,0x00,0x00,0x00,0x00,0xdc,0x07,0x00,0x00,0x00,0x00,0x00,0x50,0xad,0x3d,
 0x80,0x3f,0xe0,0x80,0xe3,0x0f,0x18,0x1e,0xc0,0xc3,0x03,0x00,0x00,0x00,0x00,
 0x00,0x00,0x00,0xa8,0x44,0x75,0x00,0x00,0x00,0x00,0x00,0x00,0x00,0x00,0x00,
 0xa2,0x01,0x00,0x00,0x00,0x00,0x00,0x00,0x00,0x00,0x00,0x00,0x00,0x00,0x00,
 0x00,0x00,0x00,0xee,0x01,0x00,0x00,0x00,0x00,0x00,0xe8,0xb6,0x1e,0x80,0x1f,
 0xe0,0x80,0xff,0x07,0x18,0x3c,0xc0,0xff,0x01,0x00,0x00,0x00,0x00,0x00,0x00,
 0x00,0x00,0xa0,0x6a,0x00,0x00,0x00,0x00,0x00,0x00,0x00,0x00,0x80,0x88,0x01,
 0x00,0x00,0x00,0x00,0x00,0x00,0x00,0x00,0x00,0x00,0x00,0x00,0x00,0x00,0x00,
 0x00,0xf5,0x01,0x00,0x00,0x00,0x00,0x00,0xa8,0xaa,0x0f,0x80,0x1f,0xe0,0x80,
 0xff,0x03,0x38,0x78,0xc0,0xff,0x00,0x00,0x00,0x00,0x00,0x00,0x00,0x00,0x48,
 0x52,0x75,0x00,0x00,0x00,0x00,0x00,0x00,0x00,0x00,0x00,0xa4,0x01,0x00,0x00,
 0x00,0x00,0x00,0x00,0x00,0x00,0x00,0x00,0x00,0x00,0x00,0x00,0x00,0x80,0xff,
 0x00,0x00,0x00,0x00,0x00,0x00,0x68,0xdb,0x03,0x00,0x3e,0xe0,0x80,0xff,0x03,
 0x38,0xf0,0x83,0x07,0x00,0x00,0x00,0x00,0x00,0x00,0x00,0x00,0x00,0x50,0x75,
 0x00,0x00,0x00,0x00,0x00,0x00,0x00,0x00,0x80,0x92,0x01,0x00,0x00,0x00,0x00,
 0x00,0x00,0x00,0x00,0x00,0x00,0x00,0x00,0x00,0x00,0x00,0x40,0x75,0x00,0x00,
 0x00,0x00,0x00,0x00,0xb4,0xed,0x01,0x00,0x3c,0xe0,0x00,0xef,0x21,0x30,0xe0,
 0x87,0x01,0x00,0x00,0x00,0x00,0x00,0x00,0x00,0x00,0xa4,0x52,0x35,0x00,0x00,
 0x00,0x00,0x00,0x00,0x00,0x00,0x00,0xc8,0x01,0x00,0x00,0x00,0x00,0x00,0x00,
 0x00,0x00,0x00,0x00,0x00,0x00,0x00,0x00,0x00,0x80,0x3f,0x00,0x00,0x00,0x00,
 0x00,0x00,0x5a,0xf5,0x00,0x00,0x70,0xe0,0xa0,0x7e,0x30,0xf8,0xc0,0x07,0x00,
 0x00,0x00,0x00,0x00,0x00,0x00,0x00,0x00,0x00,0x58,0x35,0x00,0x00,0x00,0x00,
 0x00,0x00,0x00,0x00,0xa0,0xc2,0x00,0x00,0x00,0x00,0x00,0x00,0x00,0x00,0x00,
 0x00,0x00,0x00,0x00,0x00,0x00,0x00,0x60,0x1d,0x00,0x00,0x00,0x00,0x00,0x00,
 0x6c,0x6b,0x00,0x00,0xf0,0xe0,0x50,0x3e,0x30,0xf0,0x81,0x01,0x00,0x00,0x00,
 0x00,0x00,0x00,0x00,0x00,0x00,0x48,0xa4,0x3a,0x00,0x00,0x00,0x00,0x00,0x00,
 0x00,0x00,0x00,0xd4,0x00,0x00,0x00,0x00,0x00,0x00,0x00,0x00,0x00,0x00,0x00,
 0x00,0x00,0x00,0x00,0x00,0xf0,0x0f,0x00,0x00,0x00,0x00,0x00,0x00,0xab,0x7d,
 0x00,0x00,0xe0,0xe1,0xa0,0x1e,0x70,0xf8,0x03,0x00,0x00,0x00,0x00,0x00,0x00,
 0x00,0x00,0x00,0x00,0x00,0x55,0x35,0x00,0x00,0x00,0x00,0x00,0x00,0x00,0x00,
 0xa0,0xc2,0x00,0x00,0x00,0x00,0x00,0x00,0x00,0x00,0x00,0x00,0x00,0x00,0x18,
 0x00,0x00,0x00,0xa8,0x06,0x00,0x00,0x00,0x00,0x00,0x00,0x68,0x35,0x00,0x00,
 0xc0,0xe1,0x50,0x0d,0x70,0xf8,0x01,0x00,0x00,0x00,0x00,0x00,0x00,0x00,0x00,
 0x00,0x00,0x28,0xaa,0x3a,0x00,0x00,0x00,0x00,0x00,0x00,0x00,0x00,0x10,0xe8,
 0x00,0x00,0x00,0x00,0x00,0x00,0x00,0x00,0x00,0x00,0x00,0x40,0x1c,0x00,0x00,
 0x00,0xf8,0x03,0x00,0x00,0x00,0x00,0x00,0x00,0x5f,0x3b,0x00,0x00,0xc0,0xe1,
 0x54,0x0d,0x70,0x78,0x00,0x00,0x00,0x00,0x00,0x00,0x00,0x00,0x00,0x00,0x00,
 0x00,0x55,0x1d,0x00,0x00,0x00,0x00,0x00,0x00,0x00,0x00,0x40,0xe5,0x00,0x00,
 0x00,0x00,0x00,0x00,0x00,0x00,0x00,0x00,0x00,0x00,0x0c,0x00,0x00,0x00,0xd4,
 0x03,0x00,0x00,0x00,0x00,0x00,0xc0,0xbf,0x1d,0x00,0x00,0x80,0x61,0xa8,0x1d,
 0x7e,0x00,0x00,0x00,0x00,0x00,0x00,0x00,0x00,0x00,0x00,0x00,0x00,0x90,0xaa,
 0x1a,0x00,0x00,0x00,0x00,0x00,0x00,0x00,0x00,0x94,0x60,0x00,0x00,0x00,0x00,
 0x00,0x00,0x00,0x00,0x00,0x00,0x00,0x10,0x0e,0x00,0x00,0x00,0xfa,0x01,0x00,
 0x00,0x00,0x00,0x00,0xc0,0xff,0x1e,0x00,0x00,0x80,0x67,0xaa,0xfd,0x7f,0x00,
 0x00,0x00,0x00,0x00,0x00,0x00,0x00,0x00,0x00,0x00,0x00,0x84,0xaa,0x1e,0x00,
 0x00,0x00,0x00,0x00,0x00,0x00,0x00,0x20,0x7a,0x00,0x00,0x00,0x00,0x00,0x00,
 0x00,0x00,0x00,0x00,0x00,0x42,0x06,0x00,0x00,0x00,0xee,0x00,0x00,0x00,0x00,
 0x00,0xc0,0xc0,0x7f,0x0d,0x00,0x00,0x00,0x7f,0xd5,0xfc,0x1f,0x00,0x00,0x00,
 0x00,0x00,0x00,0x00,0x00,0x00,0x00,0x00,0x00,0x40,0x55,0x0d,0x00,0x00,0x00,
 0x00,0x00,0x00,0x00,0x00,0x12,0x31,0x00,0x00,0x00,0x00,0x00,0x00,0x00,0x00,
 0x00,0x00,0x00,0x00,0x07,0x00,0x00,0x00,0x7b,0x00,0x00,0x00,0x00,0x00,0xf8,
 0xb1,0xff,0x0f,0x00,0x00,0x00,0xfe,0x6a,0xfe,0x03,0x00,0x00,0x00,0x00,0x00,
 0x00,0x00,0x00,0x00,0x00,0x00,0x00,0x90,0xaa,0x0e,0x00,0x00,0x00,0x00,0x00,
 0x00,0x00,0x00,0x88,0x3c,0x00,0x00,0x00,0x00,0x00,0x00,0x00,0x00,0x00,0x00,
 0x00,0x80,0x03,0x00,0x00,0x00,0x3d,0x00,0x00,0x00,0x00,0x00,0xf8,0xd5,0xfc,
 0x0e,0x00,0x00,0x00,0xfc,0x75,0x7f,0x00,0x00,0x00,0x00,0x00,0x00,0x00,0x00,
 0x00,0x00,0x00,0x00,0x00,0x48,0x55,0x07,0x00,0x00,0x00,0x00,0x00,0x00,0x00,
 0x00,0x52,0x1a,0x00,0x00,0x00,0x00,0x00,0x00,0x00,0x00,0x00,0x00,0x00,0xc8,
 0x01,0x00,0x00,0xc0,0x3f,0x00,0x00,0x00,0x00,0x70,0xf8,0x6c,0xfd,0x07,0x00,
 0x00,0x00,0xfc,0x75,0x0e,0x00,0x00,0x00,0x00,0x00,0x00,0x00,0x00,0x00,0x00,
 0x00,0x00,0x00,0x60,0x55,0x07,0x00,0x00,0x00,0x00,0x00,0x00,0x00,0x80,0x08,
 0x0e,0x00,0x00,0x00,0x00,0x00,0x00,0x00,0x00,0x00,0x00,0x00,0xe1,0x00,0x00,
 0x00,0x40,0x1d,0x00,0x00,0x00,0x00,0x7e,0xf0,0xb7,0x9c,0x07,0x00,0x00,0x00,
 0xf8,0x3a,0x04,0x00,0x00,0x00,0x00,0x00,0x00,0x00,0x00,0x00,0x00,0x00,0x00,
 0x00,0x92,0x2a,0x03,0x00,0x00,0x00,0x00,0x00,0x00,0x00,0x00,0xa2,0x06,0x00,
 0x00,0x00,0x00,0x00,0x00,0x00,0x00,0x00,0x00,0x00,0x70,0x00,0x00,0x00,0xc0,
 0x0f,0x00,0x00,0x00,0x00,0x7e,0xe0,0xaa,0xed,0x07,0x00,0x00,0x00,0xf8,0x1d,
 0x00,0x00,0x00,0x00,0x00,0x00,0x00,0x00,0x00,0x00,0x00,0x00,0x00,0x00,0xd0,
 0xaa,0x03,0x00,0x00,0x00,0x00,0x00,0x00,0x00,0x00,0x11,0x07,0x00,0x00,0x00,
 0x00,0x00,0x00,0x00,0x00,0x00,0x00,0x40,0x30,0x00,0x00,0x00,0xf0,0x0e,0x00,
 0x00,0x00,0x00,0x7f,0xe0,0x77,0x3c,0x07,0x00,0x00,0x00,0x70,0x1d,0x00,0x00,
 0x00,0x00,0x00,0x00,0x00,0x00,0x00,0x00,0x00,0x00,0x00,0x00,0x28,0x95,0x01,
 0x00,0x00,0x00,0x00,0x00,0x00,0x00,0x40,0xca,0x03,0x00,0x00,0x00,0x00,0x00,
 0x00,0x00,0x90,0x01,0x00,0x00,0x3a,0x00,0x00,0x00,0xb0,0x07,0x00,0x00,0x80,
 0x07,0x7c,0xc8,0xae,0x4e,0x0f,0x00,0x00,0x00,0xa0,0x0e,0x00,0x00,0x00,0x00,
 0x00,0x00,0x00,0x00,0x00,0x00,0x00,0x00,0x00,0x00,0xaa,0x85,0x01,0x00,0x00,
 0x00,0x00,0xa0,0x00,0x00,0x80,0xe0,0x01,0x00,0x00,0x00,0x00,0x00,0x00,0x00,
 0xc0,0x01,0x00,0x10,0x1c,0x00,0x00,0x00,0xd8,0x03,0x00,0x00,0xf0,0x1f,0x78,
 0xd4,0xd7,0x3e,0x1f,0x00,0x00,0x00,0x50,0x07,0x00,0x00,0x38,0x00,0x00,0x00,
 0x00,0x00,0x00,0x00,0x00,0x00,0x00,0x00,0xa8,0xd2,0x01,0x00,0x50,0x01,0x00,
 0xa8,0x01,0x00,0x20,0xea,0x00,0x00,0x00,0x00,0x00,0x00,0x00,0x00,0xd0,0x00,
 0x00,0x00,0x0e,0x00,0x00,0x00,0xf4,0x03,0x00,0x00,0xfc,0x3f,0x60,0xda,0x75,
 0xfd,0x1f,0x00,0x00,0x00,0xa0,0x07,0x00,0x00,0x56,0x00,0x00,0x00,0x00,0x00,
 0x00,0x00,0x00,0x00,0x00,0x00,0xac,0xe2,0x00,0x00,0x24,0x0d,0x00,0xe4,0x01,
 0x00,0x80,0x74,0x00,0x00,0x00,0x00,0x00,0x00,0x00,0x00,0xe2,0x00,0x00,0x00,
 0x07,0x00,0x00,0x00,0xde,0x01,0x00,0x00,0xfe,0xfc,0xe0,0xc4,0xaf,0xfc,0x3f,
 0x00,0x00,0x00,0xac,0x03,0x00,0x00,0xec,0x00,0x00,0x00,0x18,0x00,0x00,0x00,
 0x00,0x00,0x40,0x15,0x54,0xe1,0x00,0x80,0xaa,0x1a,0x00,0xe9,0x00,0x00,0x28,
 0x39,0x00,0x00,0x24,0x00,0x00,0x00,0x00,0x80,0x40,0x00,0x90,0x48,0x03,0x00,
 0x00,0x00,0xf5,0x00,0x00,0x00,0x3e,0xf8,0xe0,0xf6,0x57,0xfe,0x3f,0x00,0x00,
 0x00,0xa8,0x03,0x00,0x00,0xbb,0x01,0x00,0x00,0x6a,0x00,0x00,0x00,0x00,0x00,
 0xd8,0x0f,0x56,0x68,0x00,0x40,0x52,0x19,0x80,0x64,0x00,0x00,0x40,0x1e,0x00,
 0x00,0x48,0x00,0x00,0x00,0x00,0x00,0x88,0x00,0x00,0x00,0x00,0x00,0x00,0x00,
 0xff,0x00,0x00,0x00,0x3e,0xe0,0xe0,0xff,0xeb,0xbe,0x70,0x00,0x00,0x00,0xd4,
 0x01,0x00,0xbf,0xed,0x01,0x00,0x80,0xed,0x00,0x00,0x00,0x00,0x80,0xf6,0x00,
 0x29,0x71,0x00,0xa0,0x2b,0x1d,0x00,0x2a,0x00,0x00,0x90,0x0e,0x00,0x80,0xd2,
 0x00,0x00,0x00,0x00,0x40,0x42,0x01,0x24,0x09,0x00,0x0f,0x00,0x80,0x6a,0x00,
 0x00,0x00,0x3c,0xe0,0xe0,0xff,0x5f,0xde,0xf1,0x01,0x00,0x00,0xea,0x00,0xf0,
 0xfa,0xf6,0x01,0x00,0x80,0x76,0x00,0x2c,0x00,0x00,0xa0,0x1e,0x00,0x2d,0x34,
 0x00,0xd4,0xa9,0x1a,0xc0,0x52,0x01,0x00,0x20,0x07,0x00,0x40,0xe0,0x00,0x00,
 0x15,0x00,0x10,0x10,0x02,0x00,0x80,0xf0,0x03,0x00,0x80,0x7f,0x00,0x1f,0x00,
 0x30,0xc0,0xec,0x9f,0xb7,0xae,0xf1,0x03,0x00,0x00,0xea,0x00,0xac,0xc7,0xdb,
 0x00,0x00,0x60,0x7b,0x00,0xd7,0x00,0x00,0xa0,0x07,0x80,0x92,0x38,0x00,0x64,
 0x40,0x1d,0x20,0x4a,0x02,0x00,0xc8,0x03,0x00,0x80,0x6a,0x00,0x40,0x30,0x00,
 0x40,0x42,0x06,0xf0,0x70,0x7f,0x00,0x00,0xe0,0x3a,0xe0,0x1f,0x00,0x30,0xc0,
 0xd6,0x03,0xd6,0xdc,0xf1,0x03,0x00,0x00,0x75,0x00,0xfb,0x80,0x7e,0x00,0x00,
 0xd0,0x75,0xc0,0xfa,0x00,0x00,0xd8,0x03,0x00,0x0a,0x1c,0x00,0x1a,0xb0,0x0e,
 0xa0,0x29,0x19,0x00,0xe4,0x01,0x00,0x20,0x70,0x00,0x10,0x3a,0x00,0x00,0x08,
 0x04,0x00,0x30,0x00,0x00,0x00,0xa0,0x3f,0xe0,0x1f,0x00,0x70,0xe0,0xcd,0xc3,
 0x6e,0x7e,0xf3,0x01,0x00,0x00,0x75,0xc0,0x7d,0xc0,0x55,0x00,0x00,0xb0,0x3e,
 0x40,0xab,0x01,0x00,0xee,0x01,0x80,0x45,0x0e,0x80,0x0e,0x00,0x07,0x40,0x4a,
 0x35,0x00,0x72,0x00,0x00,0x48,0x3d,0x00,0x40,0x19,0x00,0x40,0x81,0x0c,0x00,
 0x3a,0x00,0x00,0x00,0xf0,0x1a,0xe0,0x0f,0x00,0x60,0xf0,0xfb,0x41,0x5e,0x7e,
 0x23,0x00,0x00,0x80,0x3a,0xa0,0x1e,0x80,0xee,0x01,0x00,0x6c,0x1b,0xb0,0xd5,
 0x01,0x00,0xe9,0x00,0x80,0x12,0x0e,0x80,0x0e,0xe8,0x03,0x20,0xa5,0x34,0x00,
 0x38,0x00,0x00,0x20,0x1e,0x00,0x10,0x1c,0x00,0x20,0x24,0x08,0x00,0x18,0x00,
 0x00,0x00,0x50,0x1c,0xc0,0x07,0x00,0xe0,0xfc,0xbe,0x83,0x0e,0xff,0x06,0x00,
 0x00,0x80,0x3a,0xe8,0x1f,0x00,0x5b,0x03,0x00,0xb8,0x1d,0xd0,0xbe,0x01,0x80,
 0x76,0x00,0x40,0x01,0x07,0x40,0x07,0xd4,0x01,0xd0,0x52,0x3a,0x00,0x3a,0x00,
 0x00,0x88,0x07,0x00,0x44,0x0f,0x00,0x08,0x00,0x19,0x80,0x1c,0x00,0x00,0x00,
 0x0c,0x1f,0x80,0x0f,0x00,0xe0,0x7f,0x8f,0x43,0xfe,0xff,0x06,0x00,0x00,0x00,
 0x1d,0xbc,0x0e,0x00,0xbd,0x07,0x00,0xd6,0x0e,0xbc,0xd2,0x01,0x80,0x7a,0x00,
 0xa0,0x49,0x03,0x40,0x03,0xf1,0x00,0x04,0x28,0x1d,0x00,0x1d,0x00,0x00,0xd2,
 0x03,0x00,0x88,0x07,0x80,0x00,0x24,0x18,0x00,0x0c,0x00,0x00,0x00,0xe4,0x0f,
 0x00,0x0e,0x00,0xe0,0xdf,0x07,0x83,0xfe,0x6f,0x0d,0x00,0x00,0x40,0x1d,0xea,
 0x07,0x80,0xe9,0x06,0x00,0x7b,0x0f,0xf0,0xae,0x01,0x40,0x35,0x00,0x40,0x82,
 0x03,0xa0,0x23,0x3d,0x00,0x00,0x90,0x0e,0x00,0x0c,0x00,0x00,0xe4,0x00,0x00,
 0xc1,0x01,0x00,0x00,0x80,0x1c,0x40,0x0e,0x00,0x00,0x00,0xf4,0x1f,0x00,0x0e,
 0x00,0xc0,0xff,0x03,0x47,0xfe,0xaa,0x0d,0x00,0x00,0xa0,0x0d,0xbe,0x06,0x40,
 0xbc,0x0e,0x00,0xad,0x07,0x49,0xdb,0x01,0xa0,0x3b,0x00,0xb0,0xd0,0x01,0x90,
 0xca,0x0f,0x00,0x00,0x40,0x07,0x00,0x0d,0x00,0x00,0x71,0x00,0x00,0xe8,0x00,
 0x00,0x00,0x10,0x18,0x00,0x06,0x00,0x00,0x00,0xfb,0x1f,0x00,0x1e,0x00,0xc0,
 0xd7,0x01,0x8f,0x5f,0xdb,0x1a,0x00,0x00,0xa0,0x0e,0xea,0x07,0x40,0xd0,0x0f,
 0x80,0xd6,0x06,0x00,0xb5,0x01,0x50,0x35,0x00,0xd4,0xc4,0x00,0x50,0xff,0x00,
 0x00,0x00,0xb0,0x03,0x00,0x0d,0x00,0x00,0x74,0x00,0x00,0x72,0x00,0x00,0x00,
 0x40,0x0e,0x20,0x06,0x00,0x00,0x00,0xef,0x3f,0x00,0x1c,0x00,0xc0,0x7f,0x80,
 0x5f,0xb5,0x6d,0x17,0x00,0x00,0xa0,0x8e,0x7f,0x07,0x20,0x68,0x0d,0x00,0xbb,
 0x07,0x80,0xad,0x01,0xd0,0x3a,0x00,0x52,0xe1,0x00,0xc8,0x03,0x00,0x00,0x00,
 0xc8,0x01,0x80,0x08,0x00,0x00,0x31,0x00,0x40,0x31,0x00,0x00,0x00,0x00,0x0c,
 0x00,0x06,0x00,0x00,0x80,0x3a,0x3f,0x00,0x1c,0xc0,0xb8,0x3b,0x80,0x9f,0x6d,
 0xb5,0x3a,0x00,0x00,0x40,0x87,0xaa,0x07,0x10,0xbc,0x0f,0xc0,0xd6,0x03,0x80,
 0xd6,0x01,0x60,0x6d,0x00,0x52,0x75,0x00,0xa8,0x01,0x00,0x00,0x00,0xe0,0x00,
 0x40,0x15,0x00,0x40,0x34,0x00,0x00,0x34,0x00,0x00,0x00,0x80,0x0e,0x88,0x04,
 0x00,0x00,0x80,0x6f,0x7f,0x00,0x1c,0xc0,0x94,0x0f,0x80,0x8f,0xb6,0x56,0x6b,
 0x00,0x00,0x60,0x87,0xff,0x06,0x0c,0xd4,0x0e,0x90,0x6d,0x03,0x00,0x7b,0x03,
 0xac,0x55,0x80,0xa9,0x3a,0x00,0x50,0x03,0x00,0x40,0x00,0x74,0x00,0x08,0x22,
 0x00,0x00,0x42,0x00,0xa0,0x32,0x00,0x00,0x00,0x00,0x07,0x00,0x0c,0x00,0x00,
 0xc0,0x5a,0xff,0x00,0x1c,0xc0,0xbb,0x03,0x00,0x00,0xd5,0xbb,0x6d,0x00,0x00,
 0xb0,0xc3,0x55,0x0f,0x15,0x7a,0x0f,0x48,0xb7,0x07,0x80,0x95,0x03,0xb1,0xaa,
 0x69,0xa1,0x1a,0x00,0xaa,0x06,0x00,0x20,0x00,0x68,0x00,0x60,0x09,0x00,0x40,
 0xd1,0x00,0x08,0x24,0x00,0x88,0x0a,0x20,0x03,0x48,0x10,0x00,0x00,0xa0,0x7f,
 0xff,0x01,0x18,0xc0,0x97,0x3f,0x00,0x00,0x5b,0x55,0xd5,0x00,0x00,0x98,0x83,
 0xfe,0xf5,0x0b,0xac,0x05,0xf3,0x5a,0x15,0x00,0xed,0x42,0xd9,0xb6,0xaa,0xd8,
 0x2a,0x80,0x90,0x0a,0x00,0x88,0x00,0x65,0x80,0x1a,0x54,0x01,0x10,0x0a,0x00,
 0xa2,0x40,0x80,0x04,0x18,0x80,0x03,0x00,0x01,0x00,0x08,0xe0,0x2a,0xd7,0x03,
 0x38,0xc0,0x9b,0x7f,0x00,0x00,0xad,0xda,0xb6,0x01,0x00,0xd0,0xe3,0x57,0x5f,
 0x07,0x77,0xef,0x4c,0xef,0x0e,0x80,0x56,0xad,0xaf,0xda,0xea,0x52,0x55,0x55,
 0x56,0x25,0x00,0x42,0x40,0x6a,0x00,0x8e,0x42,0x14,0xa0,0x50,0x05,0x0c,0x14,
 0xa0,0x41,0x12,0xc0,0x01,0x10,0x10,0x00,0x07,0xb0,0x7f,0xcf,0x03,0x38,0xd0,
 0xdd,0x3f,0x00,0x00,0xf6,0x6d,0xab,0x01,0x00,0xa8,0xa1,0xfa,0xea,0x83,0xda,
 0xaa,0xa7,0xb5,0x07,0x80,0x75,0xd7,0x6b,0x4b,0x75,0xa8,0xaa,0xaa,0x53,0xaa,
 0xaa,0x3c,0x00,0x55,0xa9,0x47,0x91,0x42,0x3d,0x0a,0x50,0xaf,0x42,0xe5,0x00,
 0x30,0xc8,0x00,0x00,0x02,0x80,0x03,0xd0,0x2a,0xef,0x07,0x70,0xce,0xdf,0x07,
 0x00,0x00,0x98,0x56,0x6d,0x03,0x00,0xd4,0xe1,0xaf,0xff,0x01,0x6f,0xff,0x61,
 0xbb,0x03,0x00,0xae,0xfa,0x50,0xb5,0x3a,0x52,0xab,0xea,0xa9,0xa9,0x92,0x1e,
 0x40,0x91,0xca,0x03,0x2a,0x28,0x4e,0x51,0xa5,0x13,0x10,0x70,0x50,0x29,0x60,
 0x00,0x48,0x40,0xe4,0x01,0x70,0x7f,0xff,0x0f,0x70,0xe0,0x0f,0x00,0x00,0x00,
 0x68,0xbb,0xb5,0x06,0x00,0xd4,0xa1,0xfa,0xea,0xc0,0xf5,0xea,0xc0,0xd6,0x01,
 0x00,0xd5,0x75,0xb0,0xad,0x9d,0x50,0x55,0xf5,0x50,0x55,0x55,0x0f,0xa0,0x4a,
 0xe4,0x41,0x41,0x85,0x07,0x84,0xc8,0x41,0x45,0x3d,0x00,0x40,0x30,0x00,0x00,
 0x08,0x70,0x00,0xd8,0x2b,0xff,0x1f,0xf0,0xff,0x03,0x00,0x00,0x00,0xb0,0x55,
 0xad,0x0d,0x00,0xea,0xc0,0xaf,0x3f,0x80,0xae,0x3f,0xa0,0xed,0x00,0x00,0xbb,
 0x3e,0x50,0xb5,0x0e,0xaa,0xaa,0x7a,0xa0,0x4a,0xaa,0x07,0x20,0x29,0x73,0x00,
 0x14,0xd0,0x83,0x22,0xe4,0x20,0x10,0x0e,0x20,0x25,0x1d,0x00,0x20,0x02,0x3c,
 0x00,0x78,0x7d,0xff,0x1f,0xf2,0xff,0x01,0x00,0x00,0x00,0x50,0xed,0x56,0x0d,
 0x00,0xd4,0x80,0xfa,0x1e,0xc0,0xdb,0x1e,0x60,0x7b,0x00,0x00,0xd5,0x1e,0xd0,
 0xaa,0xa7,0x50,0x55,0x3d,0x40,0xa9,0xd2,0x01,0xa0,0xa4,0x3c,0x00,0xa2,0xea,
 0x00,0x48,0x79,0x00,0x85,0x07,0x00,0x00,0x0e,0x00,0x80,0x80,0x0e,0x00,0xd4,
 0x2f,0x7f,0xfd,0xf9,0x7f,0x00,0x00,0x00,0x00,0xe0,0x56,0xeb,0x1a,0x00,0xea,
 0x80,0xaf,0x07,0x80,0xf6,0x07,0xc0,0x3d,0x00,0x00,0xae,0x07,0x60,0xed,0x0b,
 0xbc,0xaa,0x0e,0x80,0x2a,0xf5,0x00,0x40,0x95,0x1e,0x00,0x14,0x79,0x00,0x12,
 0x1e,0x80,0xe0,0x03,0x40,0xc9,0x07,0x00,0x00,0x90,0x07,0x00,0x7c,0x75,0xd7,
 0x3d,0xfb,0x3f,0x00,0x00,0x00,0x00,0x40,0x6b,0x35,0x37,0x00,0x75,0x00,0xfa,
 0x01,0x80,0xfb,0x01,0x80,0x1e,0x00,0x00,0xf4,0x03,0x80,0xf6,0x40,0x9d,0xd5,
 0x07,0x00,0x55,0x3d,0x00,0x80,0x54,0x0f,0x00,0x88,0x1e,0x00,0xa2,0x0f,0x00,
 0xfa,0x00,0x00,0xe0,0x01,0x00,0x00,0xe2,0x01,0x00,0xa8,0x3f,0x7f,0xf9,0xfd,
 0x0e,0x00,0x00,0x00,0x00,0x80,0xb5,0xad,0x29,0x00,0x6a,0x00,0x00,0x00,0x00,
 0x3e,0x00,0x80,0x0f,0x00,0x00,0xf8,0x00,0x00,0x3f,0x14,0x0e,0xfe,0x01,0x00,
 0xa6,0x0f,0x00,0x00,0xca,0x03,0x00,0xe0,0x03,0x00,0xf8,0x01,0x00,0x3e,0x00,
 0x00,0x7e,0x00,0x00,0x00,0x7f,0x00,0x00,0xfc,0x6a,0xd7,0xfd,0xd7,0x07,0x00,
 0x00,0x00,0x00,0x80,0xae,0xb6,0x6e,0x00,0x75,0x00,0x00,0x00,0x00,0x00,0x00,
 0x00,0x02,0x00,0x00,0x00,0x00,0x00,0x00,0x82,0x07,0x00,0x00,0x00,0xf0,0x01,
 0x00,0x00,0xfc,0x00,0x00,0x00,0x00,0x00,0x00,0x00,0x00,0x00,0x00,0x00,0x00,
 0x00,0x00,0x00,0x00,0x00,0x00,0xa8,0x3f,0xf7,0xfe,0xfb,0x01,0x00,0x00,0x00,
 0x00,0x00,0x6a,0xd5,0xb2,0x00,0x76,0x00,0x00,0x00,0x00,0x00,0x00,0x00,0x00,
 0x00,0x00,0x00,0x00,0x00,0x80,0xd0,0x03,0x00,0x00,0x00,0x00,0x00,0x00,0x00,
 0x00,0x00,0x00,0x00,0x00,0x00,0x00,0x00,0x00,0x00,0x00,0x00,0x00,0x00,0x00,
 0x00,0x00,0x00,0x00,0xfc,0x95,0x5f,0x7b,0x7d,0x00,0x00,0x00,0x00,0x00,0x00,
 0xaa,0x56,0xcd,0x81,0x3a,0x00,0x00,0x00,0x00,0x00,0x00,0x00,0x00,0x00,0x00,
 0x00,0x00,0x00,0x20,0xe4,0x00,0x00,0x00,0x00,0x00,0x00,0x00,0x00,0x00,0x00,
 0x00,0x00,0x00,0x00,0x00,0x00,0x00,0x00,0x00,0x00,0x00,0x00,0x00,0x00,0x00,
 0x00,0x00,0xac,0xbe,0xff,0xdf,0x3f,0x00,0x0c,0x03,0x00,0x00,0x00,0xd7,0x5a,
 0x35,0x03,0x35,0x00,0x00,0x00,0x00,0x18,0x1c,0x00,0x00,0x00,0x00,0x00,0x00,
 0x00,0x80,0x73,0x00,0x00,0x00,0x00,0x00,0x00,0x00,0x00,0x00,0x00,0x7c,0x00,
 0x00,0xc0,0x1f,0x00,0x00,0x00,0x00,0x00,0x00,0x00,0x00,0x00,0x00,0x00,0x00,
 0xf4,0x97,0xbf,0x6a,0x0f,0x00,0x08,0xe1,0xef,0x1f,0x80,0x53,0xe7,0xea,0xf2,
 0x7f,0x10,0xfe,0xf8,0x00,0x38,0x1c,0xfe,0x70,0xe0,0xc0,0x00,0x03,0x7f,0x10,
 0x7a,0x90,0x7f,0xfe,0xf8,0xc0,0x0f,0x03,0x0e,0x7f,0x00,0xc6,0x30,0x04,0x40,
 0x00,0x82,0xc0,0x80,0x83,0x83,0x3f,0x86,0x00,0x00,0x00,0x00,0x00,0xb8,0xfa,
 0xdf,0xff,0x03,0x00,0x98,0x20,0x02,0x07,0x80,0x54,0x57,0x3a,0x87,0x70,0x10,
 0x22,0x28,0x01,0x38,0x06,0x02,0xac,0x58,0xc1,0xc1,0x0d,0x49,0x40,0xdb,0x10,
 0x0c,0x92,0x28,0x63,0x80,0x83,0x1b,0x49,0x00,0x83,0x31,0x04,0x40,0x00,0xc2,
 0xe0,0xe0,0x46,0x8c,0x24,0x86,0x00,0x00,0x00,0x00,0x00,0xdc,0x5f,0x75,0xf5,
 0x00,0x00,0xd0,0x20,0x00,0x03,0x80,0x44,0xd5,0x0c,0x8a,0x71,0x10,0x02,0x08,
 0x01,0x48,0x1a,0x02,0x04,0x08,0x40,0x21,0x00,0x01,0x14,0x43,0x11,0x0c,0x02,
 0x08,0x23,0x80,0xc2,0x00,0x01,0x00,0x01,0x51,0x04,0xc0,0x07,0xc6,0xa1,0x30,
 0x40,0x80,0x00,0x8a,0x00,0x00,0x00,0x00,0x00,0xb0,0xea,0xdf,0x3f,0x00,0x00,
 0x60,0xe0,0x03,0x03,0xc0,0x4c,0x49,0x4d,0x9b,0xd8,0x1f,0x3e,0xf8,0x01,0x58,
 0x0b,0x3e,0x78,0xf0,0x20,0x21,0x00,0x1f,0xa1,0x43,0x13,0x0c,0x3e,0xf8,0xe1,
 0x83,0x44,0x00,0x1f,0x00,0x01,0x91,0x04,0x40,0x06,0xa4,0x20,0x11,0xc0,0x83,
 0x0f,0x92,0x00,0x00,0x00,0x00,0x00,0xe0,0x7f,0x75,0x0f,0x00,0x00,0x20,0x20,
 0x01,0x03,0xc0,0x8f,0x75,0xa4,0xb6,0x5a,0x00,0x12,0xc8,0x40,0xd8,0x19,0x2a,
 0x80,0x01,0xa3,0x22,0x0e,0x13,0xe4,0x43,0x16,0x0c,0x16,0x88,0x20,0xc0,0x44,
 0x00,0x0b,0x00,0x81,0x11,0x05,0x40,0x00,0xaa,0x30,0x11,0x00,0x8d,0x09,0xa2,
 0x00,0x00,0x00,0x00,0x00,0xa0,0xaa,0xff,0x01,0x00,0x00,0x20,0x20,0x00,0x03,
 0x60,0x00,0x6b,0x8d,0xc2,0x58,0x10,0x02,0x88,0x28,0x99,0x18,0x02,0x00,0x01,
 0xb2,0x22,0x08,0x01,0x71,0x42,0x18,0x0c,0x02,0x88,0x21,0x40,0xce,0x10,0x01,
 0x00,0x83,0x10,0x07,0x40,0x00,0x98,0x90,0x33,0x04,0x88,0x00,0xe2,0x00,0x00,
 0x00,0x00,0x00,0x80,0xff,0x3e,0x00,0x00,0x00,0x20,0xe0,0x0f,0x03,0x20,0x10,
 0x48,0xfa,0xb3,0x5a,0x10,0xfe,0x08,0xa1,0x8a,0x18,0xfa,0xdc,0xb8,0x11,0xc4,
 0x0d,0x7f,0x3c,0x42,0x08,0x0c,0xfe,0x08,0x61,0x20,0x88,0x1f,0x7f,0x00,0xfc,
 0x10,0x06,0x40,0x1f,0x92,0x09,0xe2,0xc7,0x8d,0x3f,0xc2,0x00,0x00,0x00,0x00,
 0x00,0x00,0xfe,0x03,0x00,0x00,0x00,0x40,0x00,0x04,0x00,0x00,0x00,0xaa,0x04,
 0xc8,0x18,0x10,0x40,0x00,0xaa,0x0a,0x00,0x24,0x50,0xa0,0x00,0x80,0x00,0x21,
 0x0f,0x02,0x10,0x00,0x90,0x00,0x00,0x00,0x00,0x04,0x48,0x00,0x00,0x00,0x00,
 0x80,0x08,0x00,0x00,0x00,0x01,0x00,0x24,0x00,0x00,0x00,0x00,0x00,0x00,0x00,
 0x00,0x00,0x00,0x00,0x00,0x00,0x00,0x00,0x00,0x00,0x00,0x50,0x34,0x54,0x1e,
 0x00,0x00,0x00,0x29,0x89,0x00,0x00,0x00,0x00,0x00,0x00,0x00,0x00,0x07,0x00,
 0x00,0x00,0x00,0x00,0x00,0x00,0x00,0x00,0x00,0x00,0x00,0x00,0x00,0x00,0x00,
 0x00,0x00,0x00,0x00,0x00,0x00,0x00,0x00,0x00,0x00,0x00,0x00,0x00,0x00,0x00,
 0x00,0x00,0x00,0x00,0x00,0x00,0x00,0x00,0x00,0x50,0xd7,0x55,0x0d,0x00,0x00,
 0x00,0x54,0x55,0x0a,0x00,0x00,0x00,0x00,0x00,0x20,0xe5,0x01,0x00,0x00,0x00,
 0x00,0x00,0x00,0x00,0x00,0x00,0x00,0x00,0x00,0x00,0x00,0x00,0x00,0x00,0x00,
 0x00,0x00,0x00,0x00,0x00,0x00,0x00,0x00,0x00,0x00,0x00,0x00,0x00,0x00,0x00,
 0x00,0x00,0x00,0x00,0x00,0x00,0x00,0x40,0x29,0x55,0x0d,0x00,0x00,0x00,0xa5,
 0x4a,0x15,0x00,0x00,0x00,0x00,0x00,0x80,0x78,0x00,0x00,0x00,0x00,0x00,0x00,
 0x00,0x00,0x00,0x00,0x00,0x00,0x00,0x00,0x00,0x00,0x00,0x00,0x00,0x00,0x00,
 0x00,0x00,0x00,0x00,0x00,0x00,0x00,0x00,0x00,0x00,0x00,0x00,0x00,0x00,0x00,
 0x00,0x00,0x00,0x00,0x00,0x80,0xad,0x55,0x0d,0x00,0x00,0x80,0x2a,0x29,0x29,
 0x00,0x00,0x00,0x00,0x00,0x2a,0x3d,0x00,0x00,0x00,0x00,0x00,0x00,0x00,0x00,
 0x00,0x00,0x00,0x00,0x00,0x00,0x00,0x00,0x00,0x00,0x00,0x00,0x00,0x00,0x00,
 0x00,0x00,0x00,0x00,0x00,0x00,0x00,0x00,0x00,0x00,0x00,0x00,0x00,0x00,0x00,
 0x00,0x00,0x00,0x00,0x6a,0xad,0x0e,0x00,0x00,0x00,0x52,0xa5,0x64,0x00,0x00,
 0x00,0x00,0x00,0x00,0x0f,0x00,0x00,0x00,0x00,0x00,0x00,0x00,0x00,0x00,0x00,
 0x00,0x00,0x00,0x00,0x00,0x00,0x00,0x00,0x00,0x00,0x00,0x00,0x00,0x00,0x00,
 0x00,0x00,0x00,0x00,0x00,0x00,0x00,0x00,0x00,0x00,0x00,0x00,0x00,0x00,0x00,
 0x00,0x00,0x54,0x55,0x0d,0x00,0x00,0x80,0x2a,0x55,0x55,0x00,0x00,0x00,0x00,
 0x80,0xea,0x03,0x00,0x00,0x00,0x00,0x00,0x00,0x00,0x00,0x00,0x00,0x00,0x00,
 0x00,0x00,0x00,0x00,0x00,0x00,0x00,0x00,0x00,0x00,0x00,0x00,0x00,0x00,0x00,
 0x00,0x00,0x00,0x00,0x00,0x00,0x00,0x00,0x00,0x00,0x00,0x00,0x00,0x00,0x00,
 0x58,0xb5,0x0d,0x00,0x00,0x00,0xaa,0xaa,0xaa,0x00,0x00,0x00,0x00,0x48,0xf8,
 0x00,0x00,0x00,0x00,0x00,0x00,0x00,0x00,0x00,0x00,0x00,0x00,0x00,0x00,0x00,
 0x00,0x00,0x00,0x00,0x00,0x00,0x00,0x00,0x00,0x00,0x00,0x00,0x00,0x00,0x00,
 0x00,0x00,0x00,0x00,0x00,0x00,0x00,0x00,0x00,0x00,0x00,0x00,0x00,0xd0,0xaa,
 0x1a,0x00,0x00,0x00,0x92,0x24,0x49,0x01,0x00,0x00,0x00,0x90,0x3e,0x00,0x00,
 0x00,0x00,0x00,0x00,0x00,0x00,0x00,0x00,0x00,0x00,0x00,0x00,0x00,0x00,0x00,
 0x00,0x00,0x00,0x00,0x00,0x00,0x00,0x00,0x00,0x00,0x00,0x00,0x00,0x00,0x00,
 0x00,0x00,0x00,0x00,0x00,0x00,0x00,0x00,0x00,0x00,0x00,0xa0,0x56,0x15,0x00,
 0x00,0x00,0xaa,0xaa,0xa4,0x02,0x00,0x00,0x00,0x85,0x0f,0x00,0x00,0x00,0x00,
 0x00,0x00,0x00,0x00,0x00,0x00,0x00,0x00,0x00,0x00,0x00,0x00,0x00,0x00,0x00,
 0x00,0x00,0x00,0x00,0x00,0x00,0x00,0x00,0x00,0x00,0x00,0x00,0x00,0x00,0x00,
 0x00,0x00,0x00,0x00,0x00,0x00,0x00,0x00,0x00,0xa0,0xaa,0x3a,0x00,0x00,0x00,
 0x54,0x55,0x55,0x0a,0x00,0x00,0xa4,0xf0,0x01,0x00,0x00,0x00,0x00,0x00,0x00,
 0x00,0x00,0x00,0x00,0x00,0x00,0x00,0x00,0x00,0x00,0x00,0x00,0x00,0x00,0x00,
 0x00,0x00,0x00,0x00,0x00,0x00,0x00,0x00,0x00,0x00,0x00,0x00,0x00,0x00,0x00,
 0x00,0x00,0x00,0x00,0x00,0x00,0x00,0x00,0x5b,0x6b,0x00,0x00,0x00,0x20,0x49,
 0x95,0x12,0x00,0x90,0x10,0x7e,0x00,0x00,0x00,0x00,0x00,0x00,0x00,0x00,0x00,
 0x00,0x00,0x00,0x00,0x00,0x00,0x00,0x00,0x00,0x00,0x00,0x00,0x00,0x00,0x00,
 0x00,0x00,0x00,0x00,0x00,0x00,0x00,0x00,0x00,0x00,0x00,0x00,0x00,0x00,0x00,
 0x00,0x00,0x00,0x00,0x00,0x00,0xaa,0x6a,0x00,0x00,0x00,0x40,0x55,0x52,0x4a,
 0x4a,0x22,0xc5,0x0f,0x00,0x00,0x00,0x00,0x00,0x00,0x00,0x00,0x00,0x00,0x00,
 0x00,0x00,0x00,0x00,0x00,0x00,0x00,0x00,0x00,0x00,0x00,0x00,0x00,0x00,0x00,
 0x00,0x00,0x00,0x00,0x00,0x00,0x00,0x00,0x00,0x00,0x00,0x00,0x00,0x00,0x00,
 0x00,0x00,0x00,0x00,0x6a,0xd5,0x00,0x00,0x00,0x80,0xaa,0x4a,0x55,0x21,0x89,
 0xf8,0x01,0x00,0x00,0x00,0x00,0x00,0x00,0x00,0x00,0x00,0x00,0x00,0x00,0x00,
 0x00,0x00,0x00,0x00,0x00,0x00,0x00,0x00,0x00,0x00,0x00,0x00,0x00,0x00,0x00,
 0x00,0x00,0x00,0x00,0x00,0x00,0x00,0x00,0x00,0x00,0x00,0x00,0x00,0x00,0x00,
 0x00,0x00,0xa8,0xd5,0x00,0x00,0x00,0x00,0x4c,0x29,0x91,0x9a,0x52,0x1f,0x00,
 0x00,0x00,0x00,0x00,0x00,0x00,0x00,0x00,0x00,0x00,0x00,0x00,0x00,0x00,0x00,
 0x00,0x00,0x00,0x00,0x00,0x00,0x00,0x00,0x00,0x00,0x00,0x00,0x00,0x00,0x00,
 0x00,0x00,0x00,0x00,0x00,0x00,0x00,0x00,0x00,0x00,0x00,0x00,0x00,0x00,0x00,
 0x50,0xad,0x01,0x00,0x00,0x00,0xe0,0xa5,0x4a,0x44,0xf8,0x03,0x00,0x00,0x00,
 0x00,0x00,0x00,0x00,0x00,0x00,0x00,0x00,0x00,0x00,0x00,0x00,0x00,0x00,0x00,
 0x00,0x00,0x00,0x00,0x00,0x00,0x00,0x00,0x00,0x00,0x00,0x00,0x00,0x00,0x00,
 0x00,0x00,0x00,0x00,0x00,0x00,0x00,0x00,0x00,0x00,0x00,0x00,0x00,0x58,0xb5,
 0x01,0x00,0x00,0x00,0x00,0xfc,0xaa,0xfa,0x1f,0x00,0x00,0x00,0x00,0x00,0x00,
 0x00,0x00,0x00,0x00,0x00,0x00,0x00,0x00,0x00,0x00,0x00,0x00,0x00,0x00,0x00,
 0x00,0x00,0x00,0x00,0x00,0x00,0x00,0x00,0x00,0x00,0x00,0x00,0x00,0x00,0x00,
 0x00,0x00,0x00,0x00,0x00,0x00,0x00,0x00,0x00,0x00,0x00,0xa8,0xaa,0x03,0x00,
 0x00,0x00,0x00,0x00,0xf8,0x1f,0x00,0x00,0x00,0x00,0x00,0x00,0x00,0x00,0x00,
 0x00,0x00,0x00,0x00,0x00,0x00,0x00,0x00,0x00,0x00,0x00,0x00,0x00,0x00,0x00,
 0x00,0x00,0x00,0x00,0x00,0x00,0x00,0x00,0x00,0x00,0x00,0x00,0x00,0x00,0x00,
 0x00,0x00,0x00,0x00,0x00,0x00,0x00,0x00,0x00,0x50,0x55,0x03,0x00,0x00,0x00,
 0x00,0x00,0x00,0x00,0x00,0x00,0x00,0x00,0x00,0x00,0x00,0x00,0x00,0x00,0x00,
 0x00,0x00,0x00,0x00,0x00,0x00,0x00,0x00,0x00,0x00,0x00,0x00,0x00,0x00,0x00,
 0x00,0x00,0x00,0x00,0x00,0x00,0x00,0x00,0x00,0x00,0x00,0x00,0x00,0x00,0x00,
 0x00,0x00,0x00,0x00,0x00,0x00,0x00,0x68,0x55,0x03,0x00,0x00,0x00,0x00,0x00,
 0x00,0x00,0x00,0x00,0x00,0x00,0x00,0x00,0x00,0x00,0x00,0x00,0x00,0x00,0x00,
 0x00,0x00,0x00,0x00,0x00,0x00,0x00,0x00,0x00,0x00,0x00,0x00,0x00,0x00,0x00,
 0x00,0x00,0x00,0x00,0x00,0x00,0x00,0x00,0x00,0x00,0x00,0x00,0x00,0x00,0x00,
 0x00,0x00,0x00,0x00,0x00,0xa8,0xaa,0x06,0x00,0x00,0x00,0x00,0x00,0x00,0x00,
 0x00,0x00,0x00,0x00,0x00,0x00,0x00,0x00,0x00,0x00,0x00,0x00,0x00,0x00,0x00,
 0x00,0x00,0x00,0x00,0x00,0x00,0x00,0x00,0x00,0x00,0x00,0x00,0x00,0x00,0x00,
 0x00,0x00,0x00,0x00,0x00,0x00,0x00,0x00,0x00,0x00,0x00,0x00,0x00,0x00,0x00,
 0x00,0x00,0x00,0xa8,0x55,0x07,0x00,0x00,0x00,0x00,0x00,0x00,0x00,0x00,0x00,
 0x00,0x00,0x00,0x00,0x00,0x00,0x00,0x00,0x00,0x00,0x00,0x00,0x00,0x00,0x00,
 0x00,0x00,0x00,0x00,0x00,0x00,0x00,0x00,0x00,0x00,0x00,0x00,0x00,0x00,0x00,
 0x00,0x00,0x00,0x00,0x00,0x00,0x00,0x00,0x00,0x00,0x00,0x00,0x00,0x00,0x00,
 0x00,0xa8,0x5a,0x05,0x00,0x00,0x00,0x00,0x00,0x00,0x00,0x00,0x00,0x00,0x00,
 0x00,0x00,0x00,0x00,0x00,0x00,0x00,0x00,0x00,0x00,0x00,0x00,0x00,0x00,0x00,
 0x00,0x00,0x00,0x00,0x00,0x00,0x00,0x00,0x00,0x00,0x00,0x00,0x00,0x00,0x00,
 0x00,0x00,0x00,0x00,0x00,0x00,0x00,0x00,0x00,0x00,0x00,0x00,0x00,0x00,0xa8,
 0xaa,0x0e,0x00,0x00,0x00,0x00,0x00,0x00,0x00,0x00,0x00,0x00,0x00,0x00,0x00,
 0x00,0x00,0x00,0x00,0x00,0x00,0x00,0x00,0x00,0x00,0x00,0x00,0x00,0x00,0x00,
 0x00,0x00,0x00,0x00,0x00,0x00,0x00,0x00,0x00,0x00,0x00,0x00,0x00,0x00,0x00,
 0x00,0x00,0x00,0x00,0x00,0x00,0x00,0x00,0x00,0x00,0x00,0x00,0x68,0x55,0x0d,
 0x00,0x00,0x00,0x00,0x00,0x00,0x00,0x00,0x00,0x00,0x00,0x00,0x00,0x00,0x00,
 0x00,0x00,0x00,0x00,0x00,0x00,0x00,0x00,0x00,0x00,0x00,0x00,0x00,0x00,0x00,
 0x00,0x00,0x00,0x00,0x00,0x00,0x00,0x00,0x00,0x00,0x00,0x00,0x00,0x00,0x00,
 0x00,0x00,0x00,0x00,0x00,0x00,0x00,0x00,0x00,0x00,0x50,0x6b,0x0d,0x00,0x00,
 0x00,0x00,0x00,0x00,0x00,0x00,0x00,0x00,0x00,0x00,0x00,0x00,0x00,0x00,0x00,
 0x00,0x00,0x00,0x00,0x00,0x00,0x00,0x00,0x00,0x00,0x00,0x00,0x00,0x00,0x00,
 0x00,0x00,0x00,0x00,0x00,0x00,0x00,0x00,0x00,0x00,0x00,0x00,0x00,0x00,0x00,
 0x00,0x00,0x00,0x00,0x00,0x00,0x00,0x00,0x50,0x55,0x0d,0x00,0x00,0x00,0x00,
 0x00,0x00,0x00,0x00,0x00,0x00,0x00,0x00,0x00,0x00,0x00,0x00,0x00,0x00,0x00,
 0x00,0x00,0x00,0x00,0x00,0x00,0x00,0x00,0x00,0x00,0x00,0x00,0x00,0x00,0x00,
 0x00,0x00,0x00,0x00,0x00,0x00,0x00,0x00,0x00,0x00,0x00,0x00,0x00,0x00,0x00,
 0x00,0x00,0x00,0x00,0x00,0x00,0xa0,0xaa,0x1a,0x00,0x00,0x00,0x00,0x00,0x00,
 0x00,0x00,0x00,0x00,0x00,0x00,0x00,0x00,0x00,0x00,0x00,0x00,0x00,0x00,0x00,
 0x00,0x00,0x00,0x00,0x00,0x00,0x00,0x00,0x00,0x00,0x00,0x00,0x00,0x00,0x00,
 0x00,0x00,0x00,0x00,0x00,0x00,0x00,0x00,0x00,0x00,0x00,0x00,0x00,0x00,0x00,
 0x00,0x00,0x00,0x00,0x50,0x55,0x1d,0x00,0x00,0x00,0x00,0x00,0x00,0x00,0x00,
 0x00,0x00,0x00,0x00,0x00,0x00,0x00,0x00,0x00,0x00,0x00,0x00,0x00,0x00,0x00,
 0x00,0x00,0x00,0x00,0x00,0x00,0x00,0x00,0x00,0x00,0x00,0x00,0x00,0x00,0x00,
 0x00,0x00,0x00,0x00,0x00,0x00,0x00,0x00,0x00,0x00,0x00,0x00,0x00,0x00,0x00,
 0x00,0x00,0xa0,0xad,0x1a,0x00,0x00,0x00,0x00,0x00,0x00,0x00,0x00,0x00,0x00,
 0x00,0x00,0x00,0x00,0x00,0x00,0x00,0x00,0x00,0x00,0x00,0x00,0x00,0x00,0x00,
 0x00,0x00,0x00,0x00,0x00,0x00,0x00,0x00,0x00,0x00,0x00,0x00,0x00,0x00,0x00,
 0x00,0x00,0x00,0x00,0x00,0x00,0x00,0x00,0x00,0x00,0x00,0x00,0x00,0x00,0x00,
 0x50,0xb5,0x1a,0x00,0x00,0x00,0x00,0x00,0x00,0x00,0x00,0x00,0x00,0x00,0x00,
 0x00,0x00,0x00,0x00,0x00,0x00,0x00,0x00,0x00,0x00,0x00,0x00,0x00,0x00,0x00,
 0x00,0x00,0x00,0x00,0x00,0x00,0x00,0x00,0x00,0x00,0x00,0x00,0x00,0x00,0x00,
 0x00,0x00,0x00,0x00,0x00,0x00,0x00,0x00,0x00,0x00,0x00,0x00,0x00,0x60,0x55,
 0x35,0x00,0x00,0x00,0x00,0x00,0x00,0x00,0x00,0x00,0x00,0x00,0x00,0x00,0x00,
 0x00,0x00,0x00,0x00,0x00,0x00,0x00,0x00,0x00,0x00,0x00,0x00,0x00,0x00,0x00,
 0x00,0x00,0x00,0x00,0x00,0x00,0x00,0x00,0x00,0x00,0x00,0x00,0x00,0x00,0x00,
 0x00,0x00,0x00,0x00,0x00,0x00,0x00,0x00,0x00,0x00,0x00,0x80,0xaa,0x3a,0x00,
 0x00,0x00,0x00,0x00,0x00,0x00,0x00,0x00,0x00,0x00,0x00,0x00,0x00,0x00,0x00,
 0x00,0x00,0x00,0x00,0x00,0x00,0x00,0x00,0x00,0x00,0x00,0x00,0x00,0x00,0x00,
 0x00,0x00,0x00,0x00,0x00,0x00,0x00,0x00,0x00,0x00,0x00,0x00,0x00,0x00,0x00,
 0x00,0x00,0x00,0x00,0x00,0x00,0x00,0x00,0x00,0x60,0x55,0x35,0x00,0x00,0x00,
 0x00,0x00,0x00,0x00,0x00,0x00,0x00,0x00,0x00,0x00,0x00,0x00,0x00,0x00,0x00,
 0x00,0x00,0x00,0x00,0x00,0x00,0x00,0x00,0x00,0x00,0x00,0x00,0x00,0x00,0x00,
 0x00,0x00,0x00,0x00,0x00,0x00,0x00,0x00,0x00,0x00,0x00,0x00,0x00,0x00,0x00,
 0x00,0x00,0x00,0x00,0x00,0x00,0x00,0xa0,0xd6,0x3a,0x00,0x00,0x00,0x00,0x00,
 0x00,0x00,0x00,0x00,0x00,0x00,0x00,0x00,0x00,0x00,0x00,0x00,0x00,0x00,0x00,
 0x00,0x00,0x00,0x00,0x00,0x00,0x00,0x00,0x00,0x00,0x00,0x00,0x00,0x00,0x00,
 0x00,0x00,0x00,0x00,0x00,0x00,0x00,0x00,0x00,0x00,0x00,0x00,0x00,0x00,0x00,
 0x00,0x00,0x00,0x00,0x00,0x80,0x5a,0x35,0x00,0x00,0x00,0x00,0x00,0x00,0x00,
 0x00,0x00,0x00,0x00,0x00,0x00,0x00,0x00,0x00,0x00,0x00,0x00,0x00,0x00,0x00,
 0x00,0x00,0x00,0x00,0x00,0x00,0x00,0x00,0x00,0x00,0x00,0x00,0x00,0x00,0x00,
 0x00,0x00,0x00,0x00,0x00,0x00,0x00,0x00,0x00,0x00,0x00,0x00,0x00,0x00,0x00,
 0x00,0x00,0x00,0xc0,0xaa,0x3a,0x00,0x00,0x00,0x00,0x00,0x00,0x00,0x00,0x00,
 0x00,0x00,0x00,0x00,0x00,0x00,0x00,0x00,0x00,0x00,0x00,0x00,0x00,0x00,0x00,
 0x00,0x00,0x00,0x00,0x00,0x00,0x00,0x00,0x00,0x00,0x00,0x00,0x00,0x00,0x00,
 0x00,0x00,0x00,0x00,0x00,0x00,0x00,0x00,0x00,0x00,0x00,0x00,0x00,0x00,0x00,
 0x00,0x00,0x55,0x35,0x00,0x00,0x00,0x00,0x00,0x00,0x00,0x00,0x00,0x00,0x00,
 0x00,0x00,0x00,0x00,0x00,0x00,0x00,0x00,0x00,0x00,0x00,0x00,0x00,0x00,0x00,
 0x00,0x00,0x00,0x00,0x00,0x00,0x00,0x00,0x00,0x00,0x00,0x00,0x00,0x00,0x00,
 0x00,0x00,0x00,0x00,0x00,0x00,0x00,0x00,0x00,0x00,0x00,0x00,0x00,0x00,0x80,
 0xaa,0x3a,0x00,0x00,0x00,0x00,0x00,0x00,0x00,0x00,0x00,0x00,0x00,0x00,0x00,
 0x00,0x00,0x00,0x00,0x00,0x00,0x00,0x00,0x00,0x00,0x00,0x00,0x00,0x00,0x00,
 0x00,0x00,0x00,0x00,0x00,0x00,0x00,0x00,0x00,0x00,0x00,0x00,0x00,0x00,0x00,
 0x00,0x00,0x00,0x00,0x00,0x00,0x00,0x00,0x00,0x00,0x00,0x00,0x00,0x55,0x35,
 0x00,0x00,0x00,0x00,0x00,0x00,0x00,0x00,0x00,0x00,0x00,0x00,0x00,0x00,0x00,
 0x00,0x00,0x00,0x00,0x00,0x00,0x00,0x00,0x00,0x00,0x00,0x00,0x00,0x00,0x00,
 0x00,0x00,0x00,0x00,0x00,0x00,0x00,0x00,0x00,0x00,0x00,0x00,0x00,0x00,0x00,
 0x00,0x00,0x00,0x00,0x00,0x00,0x00,0x00,0x00,0x00,0x00,0xda,0x3a,0x00,0x00,
 0x00,0x00,0x00,0x00,0x00,0x00,0x00,0x00,0x00,0x00,0x00,0x00,0x00,0x00,0x00,
 0x00,0x00,0x00,0x00,0x00,0x00,0x00,0x00,0x00,0x00,0x00,0x00,0x00,0x00,0x00,
 0x00,0x00,0x00,0x00,0x00,0x00,0x00,0x00,0x00,0x00,0x00,0x00,0x00,0x00,0x00,
 0x00,0x00,0x00,0x00,0x00,0x00,0x00,0x00,0x00,0x55,0x35,0x00,0x00,0x00,0x00,
 0x00,0x00,0x00,0x00,0x00,0x00,0x00,0x00,0x00,0x00,0x00,0x00,0x00,0x00,0x00,
 0x00,0x00,0x00,0x00,0x00,0x00,0x00,0x00,0x00,0x00,0x00,0x00,0x00,0x00,0x00,
 0x00,0x00,0x00,0x00,0x00,0x00,0x00,0x00,0x00,0x00,0x00,0x00,0x00,0x00,0x00,
 0x00,0x00,0x00,0x00,0x00,0x00,0x00,0xaa,0x3a,0x00,0x00,0x00,0x00,0x00,0x00,
 0x00,0x00,0x00,0x00,0x00,0x00,0x00,0x00,0x00,0x00,0x00,0x00,0x00,0x00,0x00,
 0x00,0x00,0x00,0x00,0x00,0x00,0x00,0x00,0x00,0x00,0x00,0x00,0x00,0x00,0x00,
 0x00,0x00,0x00,0x00,0x00,0x00,0x00,0x00,0x00,0x00,0x00,0x00,0x00,0x00,0x00,
 0x00,0x00,0x00,0x00,0x00,0xaa,0x3a,0x00,0x00,0x00,0x00,0x00,0x00,0x00,0x00,
 0x00,0x00,0x00,0x00,0x00,0x00,0x00,0x00,0x00,0x00,0x00,0x00,0x00,0x00,0x00,
 0x00,0x00,0x00,0x00,0x00,0x00,0x00,0x00,0x00,0x00,0x00,0x00,0x00,0x00,0x00,
 0x00,0x00,0x00,0x00,0x00,0x00,0x00,0x00,0x00,0x00,0x00,0x00,0x00,0x00,0x00,
 0x00,0x00,0x00,0x54,0x1d,0x00,0x00,0x00,0x00,0x00,0x00,0x00,0x00,0x00,0x00,
 0x00,0x00,0x00,0x00,0x00,0x00,0x00,0x00,0x00,0x00,0x00,0x00,0x00,0x00,0x00,
 0x00,0x00,0x00,0x00,0x00,0x00,0x00,0x00,0x00,0x00,0x00,0x00,0x00,0x00,0x00,
 0x00,0x00,0x00,0x00,0x00,0x00,0x00,0x00,0x00,0x00,0x00,0x00,0x00,0x00,0x00,
 0x00,0x68,0x1d,0x00,0x00,0x00,0x00,0x00,0x00,0x00,0x00,0x00,0x00,0x00,0x00,
 0x00,0x00,0x00,0x00,0x00,0x00,0x00,0x00,0x00,0x00,0x00,0x00,0x00,0x00,0x00,
 0x00,0x00,0x00,0x00,0x00,0x00,0x00,0x00,0x00,0x00,0x00,0x00,0x00,0x00,0x00,
 0x00,0x00,0x00,0x00,0x00,0x00,0x00,0x00,0x00,0x00,0x00,0x00,0x00,0x00,0xa0,
 0x1e,0x00,0x00,0x00,0x00,0x00,0x00,0x00,0x00,0x00,0x00,0x00,0x00,0x00,0x00,
 0x00,0x00,0x00,0x00,0x00,0x00,0x00,0x00,0x00,0x00,0x00,0x00,0x00,0x00,0x00,
 0x00,0x00,0x00,0x00,0x00,0x00,0x00,0x00,0x00,0x00,0x00,0x00,0x00,0x00,0x00,
 0x00,0x00,0x00,0x00,0x00,0x00,0x00,0x00,0x00,0x00,0x00,0x00,0xc0,0x0f,0x00,
 0x00,0x00,0x00,0x00,0x00,0x00,0x00,0x00,0x00,0x00,0x00,0x00,0x00,0x00,0x00,
 0x00,0x00,0x00,0x00,0x00,0x00,0x00,0x00,0x00,0x00,0x00,0x00,0x00,0x00,0x00,
 0x00,0x00,0x00,0x00,0x00,0x00,0x00,0x00,0x00,0x00};
