/* XPM */
static char * wl_folder_check_entity_up_xpm[] = {
"32 32 8 1",
" 	c None",
".	c #000000000000",
"X	c #FFFFE38DB6DA",
"o	c #E79DCB2B9E79",
"O	c #B6DAA6998617",
"+	c #CF3CBAEA9658",
"@	c #BEFB492471C6",
"#	c #AEBAAAAAAEBA",
"                                ",
"                                ",
"                                ",
"        ............            ",
"     ...XXXXXXXXXXXX...         ",
"    .XXXXXXXXXXXXXXXXXX.        ",
"    .XXXXXXXXXXXXXXXXXX.        ",
"    ....XXXXXXXXXXXX....        ",
"    .ooo............OOO.        ",
"    .ooo++++++++++++OOO.        ",
"    .ooo++++++++++++OOO.        ",
"    .ooo++++@@@@@@++OOO.        ",
"    .ooo+++@@@@@@@@+OOO.        ",
"    .ooo+++@@@++@@@+OOO.        ",
"    .ooo+++@@@++@@@+OOO.        ",
"    .ooo+++++++@@@++OOO.        ",
"    .ooo++++++@@@@+++OO.        ",
"    #...++++++@@@+++...###      ",
"    ####.....@@@....#######     ",
"     ########@@@############    ",
"        #####@@@###########     ",
"             #############      ",
"             @@@#               ",
"             @@@#               ",
"           . @@@#       .       ",
"      ...  .            .       ",
"     .   . ...   .   .. . .     ",
"     .     .  . . . .   ..      ",
"     .     .  . ... .   ..      ",
"     .   . .  . .   .   . .     ",
"      ...  .  .  ..  .. . .     ",
"                                "};
