/* XPM */
static char * wl_folder_previous_unsync_up_xpm[] = {
"32 32 18 1",
" 	c None",
".	c #000000000000",
"X	c #8E38C30BFFFF",
"o	c #69A69658F7DE",
"O	c #69A69248EFBE",
"+	c #69A68E38EFBE",
"@	c #69A68A28E79D",
"#	c #61858617E79D",
"$	c #61858207DF7D",
"%	c #965896589658",
"&	c #61857DF7DF7D",
"*	c #61857DF7D75C",
"=	c #618579E7D75C",
"-	c #596575D6CF3C",
";	c #596571C6CF3C",
":	c #59656DB6CF3C",
">	c #596569A6C71B",
",	c #59656595C71B",
"                                ",
"                                ",
"                                ",
"                                ",
"               .                ",
"              .X.               ",
"             .Xoo.              ",
"            .XOOOO.             ",
"           .X++++++.            ",
"          .X@@@@@@@@.           ",
"         .X@#########.          ",
"        ......X$$......         ",
"         %%%%.X&&.%%%%%         ",
"             .X**.%             ",
"             .X==.%             ",
"             .X--.%             ",
"             .X;;.%             ",
"             .X::.%             ",
"             .X>>.%             ",
"             .X,,.%             ",
"             .X,,.%             ",
"             .....%             ",
"              %%%%%             ",
"                                ",
"                                ",
"         ...                    ",
"         .  . . . .  .  .       ",
"         .  . .. . . .  .       ",
"         ...  .  ... .  .       ",
"         .    .  .   . .        ",
"         .    .   ..  .         ",
"                                "};
