/* XPM */
static char * wl_folder_select_entity_up_xpm[] = {
"32 32 20 1",
" 	c #BEFBBEFBBEFB",
".	c #000000000000",
"X	c #8E38C30BFFFF",
"o	c #8617BEFBF7DE",
"O	c #8617BAEAF7DE",
"+	c #8617B6DAF7DE",
"@	c #FFFFFFFFFFFF",
"#	c #79E7AEBAEFBE",
"$	c #79E7AEBAF7DE",
"%	c #79E7B2CAF7DE",
"&	c #79E7A699EFBE",
"*	c #79E7AAAAEFBE",
"=	c #71C6A289EFBE",
"-	c #71C69E79EFBE",
";	c #71C69A69E79D",
":	c #69A69658E79D",
">	c #69A69248E79D",
",	c #69A68A28E79D",
"<	c #965896589658",
"1	c #AEBAAEBAAEBA",
"                                ",
"                                ",
"                  ....          ",
"                ..XXXX..        ",
"               .XoO+++Oo.       ",
"              .Xo+@@#$%+o.      ",
"             .Xo+$@@&&*$+o.     ",
"             .XO%*=-;-=*%O.     ",
"             .X+$&-:>:-&$+.     ",
"             .X+#&;>,>;&#+.     ",
"             ..X$&-:>:-&$..     ",
"             .<.%*=-;-=*.<.     ",
"              .1..*&&&..1.<     ",
"               .@@....11.<<     ",
"                ..@@@1..<<      ",
"                <.....<<<       ",
"               <..<<<<<<        ",
"               <..<<<<          ",
"              <..<<             ",
"              <..<              ",
"             <..<<              ",
"             @@.<               ",
"             <<<<               ",
"             <<<<               ",
"              <                 ",
"      ....                      ",
"         .  ..   ..  ....       ",
"        .  .  . .  . . . .      ",
"       .   .  . .  . . . .      ",
"      .    .  . .  . . . .      ",
"      ....  ..   ..  . . .      ",
"                                "};
