/* XPM */
static char * wl_message_play_content_up_xpm[] = {
"32 32 6 1",
" 	c None",
".	c #000000000000",
"X	c #BEFBBEFBBEFB",
"o	c #69A669A669A6",
"O	c #9E799A699E79",
"+	c #D75C5D755965",
"                                ",
"                                ",
"                                ",
"                                ",
"        ............            ",
"       .XXXXXXXXXXXo.           ",
"    .. .XOOOOOOOOOOo.           ",
"    .. .XOOOOOO........         ",
"    .X..XOOOOOO.XXOOOO.         ",
"    .O..XOOOOOO.oooooo.         ",
"    .o..XOOOOOO........         ",
"    .o..XOOOOOOOOOOo.           ",
"    .o..XOOOOOOOOOOo.           ",
"    .. .XOOOOOOOOOOo.           ",
"    .. .XOOOOOOOOOOo.           ",
"       .oooooooooooo.           ",
"        ............   +        ",
"                       ++       ",
"        ++ ++ ++ +++++++++      ",
"        ++ ++ ++ ++++++++++     ",
"        ++ ++ ++ ++++++++++     ",
"        ++ ++ ++ +++++++++      ",
"                       ++       ",
"                       +        ",
"              .                 ",
"         ...  .                 ",
"         .  . . ..  .  .        ",
"         .  . .   . .  .        ",
"         ...  . ... .  .        ",
"         .    . . .  ..         ",
"         .    . .. . .          ",
"                    .           "};
