/* XPM */
static char * wl_summary_jump_to_current_message_up_xpm[] = {
"32 32 7 1",
" 	c None",
".	c #000000000000",
"X	c #EFBEFFFFC71B",
"o	c #CF3CBAEA9658",
"O	c #F7DEFFFFBEFB",
"+	c #AEBAB2CAAEBA",
"@	c #69A68E38EFBE",
"                                ",
"                                ",
"            ............        ",
"           .X.oOOOOOOOO.++      ",
"          .X.oOOOOOOOOO.++      ",
"         .XX.oOOOOOOOOO.++      ",
"        .X...oOOOOOOOOO.++      ",
"        ..ooooOO+O+++OO.++      ",
"        .oOOOOOOOOOOOOO.++      ",
"        .OOOOOOOOOOOOOO.++      ",
"      @ .OO++OOOO++++OO.++      ",
"      @@.OOOOOOOOOOOOOO.++      ",
"  @@@@@@@OOOOOOOOOOOOOO.++      ",
"  @@@@@@@@O+OO++OOO++OO.++      ",
"  @@@@@@@@@OOOOOOOOOOOO.++      ",
"  @@@@@@@@OOOOOOOOOOOOO.++      ",
"  @@@@@@@OO++OO++O+++OO.++      ",
"      @@.OOOOOOOOOOOOOO.++      ",
"      @ .OOOOOOOOOOOOOO.++      ",
"        .OOOOOOOOOOOOOO.++      ",
"        .OOOOOOOOOOOOOO.++      ",
"        .OOOOOOOOOOOOOO.++      ",
"         ...............++      ",
"          ++++++++++++++++      ",
"          +++++++++.++++++      ",
"        ....       .            ",
"        .    ...  ... .  . .    ",
"        ...  .  .  . . . ..     ",
"        .    .  .  . ... .      ",
"        .    .  .  . .   .      ",
"        .... .  .  .  .. .      ",
"                                "};
