/* XPM */
static char * wl_draft_up_xpm[] = {
"32 32 7 1",
" 	c None",
".	c #000000000000",
"X	c #EFBEFFFFC71B",
"o	c #FFFFFFFFFFFF",
"O	c #9E799A699E79",
"+	c #79E7B2CAF7DE",
"@	c #CF3CBAEA9658",
"                                ",
"             ...............   .",
"              .XXXXXXXXXXXXX. ..",
"     .....     .XXXXXXXXXXXX..o.",
"    .OOOOO.    .XOXOOOXXXXX..o. ",
"   .....OOO.....XXXXXXXXXXX.oo. ",
"  .@@@@@.OOOOO.XXXXXXXXXX..ooo. ",
" .@@@@@@@......XXXXXXXXX.oooo.  ",
" .@@@@@@@@@@@@.XXXXXXXX.oooo.   ",
"  .@@@@@@@@@@@.XXXXXXXX.oooo.   ",
"  .@@@@@@@@@@@.XXXXXXX.ooooo.   ",
"  .@@@@@@@@@@@@.XXXXXX.oo.oo.OOO",
"   .@@@@@@@@@@@.XXXXXX.oo.o.X.OO",
"   .@@@@@@@@@@@.XXXXXX.oo.o.X.OO",
"   .@@@@@@@@@.......XXXo.oo.XX.O",
"    ..........OOOOO.XXX..o.XXX.O",
"             .......XXXX..XXXX.O",
"              .+++.XXXXX.XXXX.OO",
"             .+o+++.XXXX.XXX.OOO",
"            .+o+++++........OOOO",
"            ..o......  . OOOOO  ",
"            ..o......OOOOOOO    ",
"            .........OO         ",
"             .......OOO         ",
"                                ",
"      ..                        ",
"     .  . .  .  ..   ..  ..     ",
"     .    .  . .  . .   .       ",
"     . .. .  . ....  .   .      ",
"     .  . .  . .      .   .     ",
"      ..   ...  ... ..  ..      ",
"                                "};
