/* XPM */
static char * leaf_xpm[] = {
"16 10 21 1",
" 	c None",
".	c #484848",
"+	c #000000",
"@	c #585858",
"#	c #777777",
"$	c #7C7C7C",
"%	c #818181",
"&	c #858585",
"*	c #3E3E3E",
"=	c #595959",
"-	c #8A8A8A",
";	c #8E8E8E",
">	c #474747",
",	c #868686",
"'	c #939393",
")	c #979797",
"!	c #9F9F9F",
"~	c #5E5E5E",
"{	c #A0A0A0",
"]	c #616161",
"^	c #4B4B4B",
"                ",
"   .+++         ",
"  @#$%&*        ",
" =#$%&-;*       ",
">#$%,-;')+      ",
">$%,-;')!+      ",
" ~&-;'){*       ",
"  ];'){*        ",
"   ^+++         ",
"                "};
