/* XPM */
static char * close_xpm[] = {
"16 10 49 1",
" 	c None",
".	c #98981E",
"+	c #96961B",
"@	c #929216",
"#	c #FFFDBC",
"$	c #B5B54B",
"%	c #949418",
"&	c #94941A",
"*	c #97971D",
"=	c #98981F",
"-	c #999923",
";	c #8E8E0F",
">	c #878706",
",	c #95951B",
"'	c #98981D",
")	c #9F9F26",
"!	c #ADAD40",
"~	c #B0B045",
"{	c #B5B54A",
"]	c #B6B651",
"^	c #BCBC59",
"/	c #919115",
"(	c #8B8B0B",
"_	c #A4A430",
":	c #A9A935",
"<	c #AFAF44",
"[	c #B4B449",
"}	c #B5B550",
"|	c #BDBD5A",
"1	c #8C8C0C",
"2	c #AAAA36",
"3	c #BEBE5B",
"4	c #C3C361",
"5	c #939317",
"6	c #8D8D0E",
"7	c #ADAD3F",
"8	c #B6B650",
"9	c #BBBB58",
"0	c #C2C260",
"a	c #C6C669",
"b	c #939319",
"c	c #8D8D0F",
"d	c #C2C25F",
"e	c #C9C96E",
"f	c #868603",
"g	c #8E8E11",
"h	c #8F8F12",
"i	c #919114",
"j	c #878705",
"                ",
" ..+            ",
"@##$%&*=-;      ",
">,')!~{]^/      ",
"(_:!<[}^|/      ",
"12!<$]^345      ",
"67<{89|0ab      ",
"c<[89|dae&      ",
"f6;ghhi/@j      ",
"                "};
