/* XPM */
static char * open_xpm[] = {
"16 10 20 1",
" 	c None",
".	c #848400",
"+	c #FFFDBC",
"@	c #D6D67B",
"#	c #CECE7B",
"$	c #C6C66B",
"%	c #BDBD5A",
"&	c #CECE73",
"*	c #B2B247",
"=	c #B8B84D",
"-	c #BDBD57",
";	c #C0C05D",
">	c #B9B950",
",	c #C9C96A",
"'	c #C1C15E",
")	c #B7B74C",
"!	c #BCBC56",
"~	c #C6C664",
"{	c #ADAD40",
"]	c #A5A5C6",
" ..             ",
".++...          ",
".@##$%.         ",
".@&......       ",
".&.*=-;>,.      ",
".&.=-'',.       ",
"..)!;~,,.       ",
".{{!~,,.        ",
".......         ",
"   ]            "};
