/* XPM */
static char * leaf_xpm[] = {
"16 10 19 1",
" 	c None",
".	c #424242",
"+	c #494949",
"@	c #979797",
"#	c #9D9D9D",
"$	c #A4A4A4",
"%	c #737373",
"&	c #999999",
"*	c #9B9B9B",
"=	c #A2A2A2",
"-	c #B3B3B3",
";	c #939393",
">	c #989898",
",	c #BABABA",
"'	c #9C9C9C",
")	c #949494",
"!	c #BDBDBD",
"~	c #AFAFAF",
"{	c #B5B5B5",
"                ",
"....+           ",
".@#$.%          ",
".@&#...         ",
".#*==-.         ",
".&&;>,.         ",
".')>>!.         ",
".~{,!!.         ",
".......         ",
"                "};
