/* XPM */ 
static char * ecbhandle_xpm[] = {
"8 20 3 1",
" 	c None",
"!	c black",
"#	c #ADA5C6",
"        ",
"        ",
"        ",
"        ",
"        ",
"        ",
"        ",
"        ",
"        ",
"        ",
"########",
"        ",
"        ",
"        ",
"        ",
"        ",
"        ",
"        ",
"        ",
"        "};