/* XPM */
static char * ecb_variable_protected_static_xpm[] = {
"16 14 51 1",
" 	c None",
".	c #444444",
"+	c #F5F5F5",
"@	c #757575",
"#	c #727272",
"$	c #8F8F8F",
"%	c #FFFFFF",
"&	c #EDEDED",
"*	c #F2F2F2",
"=	c #E7E7E7",
"-	c #747474",
";	c #989898",
">	c #AFAFAF",
",	c #D8D8D8",
"'	c #D2D2D2",
")	c #8C8C8C",
"!	c #FBFBFB",
"~	c #676767",
"{	c #939393",
"]	c #E0E0E0",
"^	c #898989",
"/	c #D7D7D7",
"(	c #BDBDBD",
"_	c #EBEBEB",
":	c #929292",
"<	c #A9A9A9",
"[	c #787878",
"}	c #9E9E9E",
"|	c #E1E1E1",
"1	c #979797",
"2	c #AAAAAA",
"3	c #CBCBCB",
"4	c #A5A5A5",
"5	c #868686",
"6	c #E9E9E9",
"7	c #B3B3B3",
"8	c #A2A2A2",
"9	c #8B8B8B",
"0	c #E2E2E2",
"a	c #B0B0B0",
"b	c #888888",
"c	c #B9B9B9",
"d	c #A7A7A7",
"e	c #8D8D8D",
"f	c #E3E3E3",
"g	c #B4B4B4",
"h	c #B6B6B6",
"i	c #7D7D7D",
"j	c #E8E8E8",
"k	c #BCBCBC",
"l	c #9D9D9D",
"                ",
"         .....+ ",
"   @#$+ .%&*&=-%",
"   ;&>% .&,.,')!",
"...~,{...=',],^%",
"./()_:(<%..'[^% ",
".'}^|12^+%.,^%  ",
".3456:75% .')!  ",
".'8901a^+ .,])% ",
".32b_:c5% .])!  ",
".'def1g^+  [!   ",
".h^ij:^5%  !    ",
" %+d6k+%+       ",
"   ;l2%         "};
