/* XPM */
static char * ecb_variable_protected_xpm[] = {
"16 14 37 1",
" 	c None",
".	c #444444",
"+	c #F5F5F5",
"@	c #FFFFFF",
"#	c #EDEDED",
"$	c #F2F2F2",
"%	c #E7E7E7",
"&	c #747474",
"*	c #D8D8D8",
"=	c #D2D2D2",
"-	c #8C8C8C",
";	c #FBFBFB",
">	c #E0E0E0",
",	c #898989",
"'	c #D7D7D7",
")	c #BDBDBD",
"!	c #B6B6B6",
"~	c #A9A9A9",
"{	c #787878",
"]	c #9E9E9E",
"^	c #A6A6A6",
"/	c #A3A3A3",
"(	c #ACACAC",
"_	c #AAAAAA",
":	c #CBCBCB",
"<	c #A5A5A5",
"[	c #ABABAB",
"}	c #B3B3B3",
"|	c #868686",
"1	c #A2A2A2",
"2	c #B0B0B0",
"3	c #A7A7A7",
"4	c #B1B1B1",
"5	c #AFAFAF",
"6	c #B9B9B9",
"7	c #B8B8B8",
"8	c #B4B4B4",
"                ",
"         .....+ ",
"        .@#$#%&@",
"        .#*.*=-;",
".........%=*>*,@",
".')!)!)~@..={,@ ",
".=]^/(_,+@.*,@  ",
".:</[~}|@ .=-;  ",
".=1_~}2,+ .*>-@ ",
".:_3456|@ .>-;  ",
".=32578,+  {;   ",
".!,|,|,|@  ;    ",
" @+@+@+@+       ",
"                "};
