/* XPM */
static char * parents_xpm[] = {
"16 14 188 2",
"  	c None",
". 	c #F3F3F3",
"+ 	c #BCBCBC",
"@ 	c #BABABA",
"# 	c #EBEBEB",
"$ 	c #EBE1CE",
"% 	c #D1B37B",
"& 	c #D5B67F",
"* 	c #CCAB6E",
"= 	c #E0D6C3",
"- 	c #C0C0C0",
"; 	c #555555",
"> 	c #7E7E7E",
", 	c #7B7B7B",
"' 	c #4F4F4F",
") 	c #9E9E9E",
"! 	c #F7F4EC",
"~ 	c #C29542",
"{ 	c #DEB66E",
"] 	c #E7C893",
"^ 	c #DCBA7D",
"/ 	c #B0842F",
"( 	c #DCD8D2",
"_ 	c #DEDEDE",
": 	c #3F3F3F",
"< 	c #5C5C5C",
"[ 	c #818181",
"} 	c #7F7E7E",
"| 	c #53403C",
"1 	c #27211E",
"2 	c #CFCFCF",
"3 	c #E1CCA4",
"4 	c #C38D2A",
"5 	c #CB973C",
"6 	c #D79D44",
"7 	c #DC9839",
"8 	c #C28829",
"9 	c #A99875",
"0 	c #757575",
"a 	c #424242",
"b 	c #414141",
"c 	c #734122",
"d 	c #AC551F",
"e 	c #DE7529",
"f 	c #CC7226",
"g 	c #99897A",
"h 	c #E1BD84",
"i 	c #FEB953",
"j 	c #FABB55",
"k 	c #FFBE58",
"l 	c #FFB953",
"m 	c #FDB14B",
"n 	c #A48B61",
"o 	c #373737",
"p 	c #343434",
"q 	c #4D3522",
"r 	c #EC862D",
"s 	c #F69131",
"t 	c #F48F30",
"u 	c #E8822B",
"v 	c #926D52",
"w 	c #DCB57B",
"x 	c #FFAE48",
"y 	c #FFB24C",
"z 	c #FDA640",
"A 	c #9C8A6A",
"B 	c #292929",
"C 	c #242424",
"D 	c #623517",
"E 	c #D16B24",
"F 	c #D77126",
"G 	c #D67025",
"H 	c #CC6622",
"I 	c #876553",
"J 	c #D7BE95",
"K 	c #FEA13B",
"L 	c #FFA43E",
"M 	c #FFA13B",
"N 	c #DB8B2B",
"O 	c #ABA8A2",
"P 	c #626262",
"Q 	c #121212",
"R 	c #3E1E0F",
"S 	c #B54F1B",
"T 	c #BA541C",
"U 	c #B9531C",
"V 	c #A44114",
"W 	c #93817C",
"X 	c #EBEAE1",
"Y 	c #CE8827",
"Z 	c #F4942E",
"` 	c #E78D28",
" .	c #917244",
"..	c #E5E5E5",
"+.	c #444444",
"@.	c #0D0D10",
"#.	c #4B1908",
"$.	c #9D3712",
"%.	c #993311",
"&.	c #692926",
"*.	c #86A18A",
"=.	c #66B366",
"-.	c #699957",
";.	c #BF914A",
">.	c #C08A38",
",.	c #758234",
"'.	c #6A9569",
").	c #C3CCE5",
"!.	c #3C5CBA",
"~.	c #4A3C78",
"{.	c #7A3F4F",
"].	c #7A5A7E",
"^.	c #4264CA",
"/.	c #376CB1",
"(.	c #6CC47F",
"_.	c #7CBD80",
":.	c #F0F8FF",
"<.	c #C0DBD2",
"[.	c #5DB760",
"}.	c #57BD57",
"|.	c #7CA97C",
"1.	c #E8EDF8",
"2.	c #4765DF",
"3.	c #6782FD",
"4.	c #527AE6",
"5.	c #81B3F2",
"6.	c #9DD0FF",
"7.	c #537CE2",
"8.	c #6078FC",
"9.	c #4180A5",
"0.	c #5CB25E",
"a.	c #E9FBF8",
"b.	c #5FAF60",
"c.	c #6FD06F",
"d.	c #54C354",
"e.	c #2B972B",
"f.	c #D2D5D2",
"g.	c #8BA2DC",
"h.	c #425BEC",
"i.	c #5C72FD",
"j.	c #6A85FD",
"k.	c #4D77DD",
"l.	c #A8DAFB",
"m.	c #466AE3",
"n.	c #576BFB",
"o.	c #3068AF",
"p.	c #45B145",
"q.	c #5FAA6B",
"r.	c #59C359",
"s.	c #53C353",
"t.	c #3DB83D",
"u.	c #1D9D1D",
"v.	c #9AA99A",
"w.	c #748FD5",
"x.	c #2B4ED6",
"y.	c #465EF0",
"z.	c #586CFC",
"A.	c #576EF8",
"B.	c #4070CF",
"C.	c #475FEE",
"D.	c #3251D5",
"E.	c #385B7C",
"F.	c #4C8B4C",
"G.	c #2E7B2E",
"H.	c #378D37",
"I.	c #328B32",
"J.	c #2A832A",
"K.	c #397639",
"L.	c #C5C6C5",
"M.	c #D5DBEA",
"N.	c #556DAD",
"O.	c #3D59AB",
"P.	c #4059AD",
"Q.	c #435BAE",
"R.	c #465D9F",
"S.	c #5F709C",
"T.	c #959AA7",
"U.	c #DFDFDF",
"V.	c #F4F4F4",
"W.	c #E8E8E8",
"X.	c #DCDCDC",
"Y.	c #DBDBDB",
"Z.	c #ECECEC",
"`.	c #F9F9F9",
" +	c #F1F1F1",
".+	c #F0F0F0",
"++	c #FAFAFA",
"@+	c #FFFFFF",
"    . + @ #       $ % & * =     ",
"  - ; > , ' )   ! ~ { ] ^ / (   ",
"_ : < [ } | 1 2 3 4 5 6 7 8 9   ",
"0 a b c d e f g h i j k l m n   ",
"o p q r s t u v w x y y x z A   ",
"B C D E F G H I J K L L M N O   ",
"P Q R S T U V W X Y Z Z `  ...  ",
"..+.@.#.$.%.&.*.=.-.;.>.,.'.    ",
"  ).!.~.{.].^./.(._.:.<.[.}.|.  ",
"1.2.3.4.5.6.7.8.9.0.a.b.c.d.e.f.",
"g.h.i.j.k.l.m.n.o.p.q.r.s.t.u.v.",
"w.x.y.z.A.B.C.D.E.F.G.H.I.J.K.L.",
"M.N.O.P.Q.R.S.T.U.V.W.X.Y.X.Z.  ",
"  `. +.+.+V.++@+                "};
