/* XPM */
static char * ecb_constructor_public_xpm[] = {
"16 14 17 1",
" 	c None",
".	c #686868",
"+	c #9F9F9F",
"@	c #FFFFFF",
"#	c #F5F5F5",
"$	c #444444",
"%	c #EFEFEF",
"&	c #787878",
"*	c #C2C2C2",
"=	c #C9C9C9",
"-	c #CECECE",
";	c #C6C6C6",
">	c #D1D1D1",
",	c #CDCDCD",
"'	c #CACACA",
")	c #E0E0E0",
"!	c #D5D5D5",
"                ",
"        ...     ",
"       .+@+.#   ",
"    $# .@  .@   ",
"   $%&#@ .....# ",
"  $%*=&# ..+..@ ",
" $%*-;>&#.+@+.# ",
"$%*,'>-)&..+..@ ",
" $)'!-)&#.....# ",
"  $)>)&# #@#@#@ ",
"   $)&#         ",
"    &#          ",
"    #           ",
"                "};
