/* XPM */
static char * ecb_function_protected_xpm[] = {
"16 14 28 1",
" 	c None",
".	c #040404",
"+	c #F2F2F2",
"@	c #FFFFFF",
"#	c #FEE99F",
"$	c #FEF0B7",
"%	c #FEDF8B",
"&	c #8E2E00",
"*	c #FDC760",
"=	c #FCBD4F",
"-	c #C04C00",
";	c #FEFBE5",
">	c #FDD378",
",	c #B84900",
"'	c #E5A684",
")	c #E2B7A1",
"!	c #DF966D",
"~	c #CB7441",
"{	c #532923",
"]	c #963400",
"^	c #CA713E",
"/	c #DB8958",
"(	c #D48E67",
"_	c #4F2721",
":	c #CB733F",
"<	c #DB8757",
"[	c #DEAC90",
"}	c #EEC1AA",
"                ",
"         .....+ ",
"        .@#$#%&@",
"        .#*.*=-;",
"  ....+ .%=*>*,@",
" .')!~{++..=],@ ",
".')^~/({+@.*,@  ",
".)^~/('_@ .=-;  ",
".!:<('[{+ .*>-@ ",
".:/('[}_@ .>-;  ",
"+.('[}_@  +];   ",
" +{_{_@    ;    ",
"  +@+@          ",
"                "};
