/* XPM */
static char * ecb_function_public_static_xpm[] = {
"16 14 44 1",
" 	c None",
".	c #686868",
"+	c #F5F5F5",
"@	c #757575",
"#	c #727272",
"$	c #8F8F8F",
"%	c #9F9F9F",
"&	c #FFFFFF",
"*	c #EEEEEE",
"=	c #AAAAAA",
"-	c #656565",
";	c #4C4C4C",
">	c #DCDCDC",
",	c #989898",
"'	c #444444",
")	c #C8C8C8",
"!	c #8A8A8A",
"~	c #ECECEC",
"{	c #A1A1A1",
"]	c #676767",
"^	c #DDDDDD",
"/	c #A8A8A8",
"(	c #E2E2E2",
"_	c #A7A7A7",
":	c #B6B6B6",
"<	c #D1D1D1",
"[	c #A4A4A4",
"}	c #A3A3A3",
"|	c #BDBDBD",
"1	c #A5A5A5",
"2	c #8E8E8E",
"3	c #E3E3E3",
"4	c #ACACAC",
"5	c #C9C9C9",
"6	c #B5B5B5",
"7	c #D8D8D8",
"8	c #E6E6E6",
"9	c #AFAFAF",
"0	c #666666",
"a	c #939393",
"b	c #9B9B9B",
"c	c #EAEAEA",
"d	c #B7B7B7",
"e	c #8C8C8C",
"                ",
"        ...+    ",
"   @#$+.%&%.+   ",
"   #*=&.& +.&   ",
"  -;>,+  .....+ ",
" ')!~{]+ ..%..& ",
"')^/(_:]+.%&%.+ ",
"'<[}~[)-&..%..& ",
"'|12345]+.....+ ",
"'16!*/7-&+&+&+& ",
"+':289-&        ",
" +]08a&         ",
"  +bcd+         ",
"   e$}&         "};
