/* XPM */ 
static char * ecbconstructorpublic_xpm[] = {
"16 14 22 1",
" 	c None",
"!	c black",
"#	c #005D00",
"$	c white",
"%	c #3CBA00",
"&	c #F2F2F2",
"'	c #040404",
"(	c #FFE9AD",
")	c #6B4900",
"*	c #D5AE46",
"+	c #E0B74A",
",	c #D5AF47",
"-	c #E4BD54",
".	c #D8B350",
"0	c #E8C25C",
"1	c #050505",
"2	c #E3BD53",
"3	c #DCB857",
"4	c #E0BE5F",
"5	c #FFD666",
"6	c #ECC864",
"7	c #E4C267",
"                ",
"        ###$    ",
"       #%$%#&   ",
"    '& #$  #$   ",
"   '()&$ #####& ",
"  '(*+)& ##%##$ ",
" '(,-.0)&#%$%#& ",
"1(*23045)##%##$ ",
" '53645)&#####& ",
"  '575)& &$&$&$ ",
"   '5)&         ",
"    )&          ",
"    &           ",
"                "};