/* XPM */
static char * ecb_function_unknown_static_xpm[] = {
"12 14 50 1",
" 	c None",
".	c #474747",
"+	c #434343",
"@	c #626C7D",
"#	c #F2F2F2",
"$	c #F6E8C6",
"%	c #C27F58",
"&	c #FFFFFF",
"*	c #4F2721",
"=	c #1B0D0B",
"-	c #E0CFB0",
";	c #B16238",
">	c #040404",
",	c #E5A684",
"'	c #915532",
")	c #F7E4C2",
"!	c #C36D3D",
"~	c #532923",
"{	c #E7CBBC",
"]	c #C07B57",
"^	c #EAD6B7",
"/	c #CE7644",
"(	c #D48E67",
"_	c #A5A5C6",
":	c #E2B7A1",
"<	c #CA713E",
"[	c #B67553",
"}	c #F7E2C6",
"|	c #C37344",
"1	c #DF966D",
"2	c #CB733F",
"3	c #995A35",
"4	c #EAD7C1",
"5	c #D07C4D",
"6	c #DEAC90",
"7	c #DB8958",
"8	c #F8E5D1",
"9	c #C6794E",
"0	c #EEC1AA",
"a	c #EBDACB",
"b	c #D18255",
"c	c #4A2A26",
"d	c #ECDBCF",
"e	c #A85D35",
"f	c #887371",
"g	c #EDE0D8",
"h	c #D58F67",
"i	c #73605E",
"j	c #796563",
"k	c #90807F",
"            ",
"            ",
"    .+@#    ",
"    +$%&    ",
"   *=-;#    ",
"  >,')!~#   ",
" >,{]^/(~#  ",
"_>:<[}|,*&  ",
" >123456~#  ",
" >27'890*&  ",
" #>(3ab*&   ",
"  #~cde&    ",
"   #fgh#    ",
"    ijk&    "};
