/* XPM */
static char * ecb_function_protected_static_xpm[] = {
"16 14 60 1",
" 	c None",
".	c #040404",
"+	c #F2F2F2",
"@	c #474747",
"#	c #434343",
"$	c #626C7D",
"%	c #FFFFFF",
"&	c #FEE99F",
"*	c #FEF0B7",
"=	c #FEDF8B",
"-	c #8E2E00",
";	c #F6E8C6",
">	c #C27F58",
",	c #FDC760",
"'	c #FCBD4F",
")	c #C04C00",
"!	c #FEFBE5",
"~	c #4F2721",
"{	c #1B0D0B",
"]	c #E0CFB0",
"^	c #B16238",
"/	c #FDD378",
"(	c #B84900",
"_	c #E5A684",
":	c #915532",
"<	c #F7E4C2",
"[	c #C36D3D",
"}	c #532923",
"|	c #963400",
"1	c #E7CBBC",
"2	c #C07B57",
"3	c #EAD6B7",
"4	c #CE7644",
"5	c #D48E67",
"6	c #E2B7A1",
"7	c #CA713E",
"8	c #B67553",
"9	c #F7E2C6",
"0	c #C37344",
"a	c #DF966D",
"b	c #CB733F",
"c	c #995A35",
"d	c #EAD7C1",
"e	c #D07C4D",
"f	c #DEAC90",
"g	c #DB8958",
"h	c #F8E5D1",
"i	c #C6794E",
"j	c #EEC1AA",
"k	c #EBDACB",
"l	c #D18255",
"m	c #4A2A26",
"n	c #ECDBCF",
"o	c #A85D35",
"p	c #887371",
"q	c #EDE0D8",
"r	c #D58F67",
"s	c #73605E",
"t	c #796563",
"u	c #90807F",
"                ",
"         .....+ ",
"   @#$+ .%&*&=-%",
"   #;>% .&,.,')!",
"  ~{]^+ .=',/,(%",
" ._:<[}++..'|(% ",
"._12345}+%.,(%  ",
".67890_~% .')!  ",
".abcdef}+ .,/)% ",
".bg:hij~% ./)!  ",
"+.5ckl~%  +|!   ",
" +}mno%    !    ",
"  +pqr+         ",
"   stu%         "};
