/* XPM */
static char * ecb_enumeration_private_xpm[] = {
"16 14 7 1",
" 	c None",
".	c #BA0000",
"+	c #FFFFFF",
"@	c #F2F2F2",
"#	c #FF9090",
"$	c #0000FF",
"%	c #FF2424",
"                ",
"           ...+ ",
"+@+       .#+#.+",
"@$@       .+ @.@",
"$$+@+@    .....+",
"@$@$$+    ..%..@",
"+$+@+$+@+ .%+%.+",
"@$@+$+$$@@..%..@",
"+@+$+@+@$+.....+",
"  @$$$@$@@+@+@+ ",
"  +@+@+@$@      ",
"     +$$@+      ",
"     @+@+       ",
"                "};
