/* XPM */
static char * ecb_constructor_unknown_xpm[] = {
"12 14 19 1",
" 	c None",
".	c #040404",
"+	c #F2F2F2",
"@	c #FFE9AD",
"#	c #6B4900",
"$	c #D5AE46",
"%	c #E0B74A",
"&	c #D5AF47",
"*	c #E4BD54",
"=	c #D8B350",
"-	c #E8C25C",
";	c #A5A5C6",
">	c #050505",
",	c #E3BD53",
"'	c #DCB857",
")	c #E0BE5F",
"!	c #FFD666",
"~	c #ECC864",
"{	c #E4C267",
"            ",
"            ",
"            ",
"     .+     ",
"    .@#+    ",
"   .@$%#+   ",
"  .@&*=-#+  ",
";>@$,'-)!#+ ",
"  .!'~)!#+  ",
"   .!{!#+   ",
"    .!#+    ",
"     #+     ",
"     +      ",
"            "};
