/* XPM */
static char * Constructors_xpm[] = {
"16 14 94 2",
"  	c None",
". 	c #040404",
"+ 	c #FFFFFF",
"@ 	c #FFE9AD",
"# 	c #848484",
"$ 	c #8B8B8B",
"% 	c #CAA542",
"& 	c #E0B74A",
"* 	c #666666",
"= 	c #616161",
"- 	c #3B3B3B",
"; 	c #D1D1D1",
"> 	c #E4BD54",
", 	c #CDAA4C",
"' 	c #E8C25C",
") 	c #C6C6C6",
"! 	c #545454",
"~ 	c #6B6A6A",
"{ 	c #050505",
"] 	c #E3BD53",
"^ 	c #D3B257",
"/ 	c #FFD666",
"( 	c #7C7C7C",
"_ 	c #717070",
": 	c #F2F2F2",
"< 	c #5E5E5E",
"[ 	c #5B5B5B",
"} 	c #626262",
"| 	c #676767",
"1 	c #414141",
"2 	c #857A5D",
"3 	c #756C55",
"4 	c #80765D",
"5 	c #766E57",
"6 	c #7B7B7B",
"7 	c #6F6F6F",
"8 	c #BCBCBC",
"9 	c #C6C5C6",
"0 	c #EFEFEF",
"a 	c #FBFCFB",
"b 	c #727272",
"c 	c #FCE7AC",
"d 	c #E1D1A3",
"e 	c #FBE5AB",
"f 	c #FAFAFA",
"g 	c #6B6B6B",
"h 	c #696969",
"i 	c #C5C5C5",
"j 	c #BBBBBB",
"k 	c #FBFBFC",
"l 	c #EEEDED",
"m 	c #F9F9F9",
"n 	c #717170",
"o 	c #FAFAF9",
"p 	c #E6E6E6",
"q 	c #717171",
"r 	c #EBEBEA",
"s 	c #F6F7F7",
"t 	c #F9FAF9",
"u 	c #F1F0F1",
"v 	c #C2C2C2",
"w 	c #B7B8B7",
"x 	c #F5F5F5",
"y 	c #E7E8E8",
"z 	c #E5E5E5",
"A 	c #E2E2E2",
"B 	c #EDEDEE",
"C 	c #DFDFDF",
"D 	c #B7B7B8",
"E 	c #BABBBB",
"F 	c #D9D9D9",
"G 	c #D8D8D8",
"H 	c #D7D7D7",
"I 	c #D7D6D6",
"J 	c #D6D6D6",
"K 	c #D5D5D5",
"L 	c #D4D5D4",
"M 	c #D4D4D4",
"N 	c #C7C7C7",
"O 	c #BDBDBD",
"P 	c #484847",
"Q 	c #C1C1C0",
"R 	c #F1F1F0",
"S 	c #E3E3E3",
"T 	c #E0E0E0",
"U 	c #EBEBEB",
"V 	c #DEDEDE",
"W 	c #E8E9E8",
"X 	c #DCDBDB",
"Y 	c #EAEBEB",
"Z 	c #E9E8E9",
"` 	c #DCDCDB",
" .	c #E7E7E6",
"..	c #646464",
"              . +               ",
"            . @ . +             ",
"      # $ . @ % & . * # $ = -   ",
"    # ; . @ % > , ' . ; ) ! ~ + ",
"  = ; { @ % ] ^ ' ^ / . ( ) _ : ",
"< [ } | 1 2 3 4 5 2 1 6 ) ; ~ + ",
"7 8 9 0 a b c d e 7 f g ; ) _ : ",
"h i j k l m n e 7 o p q ) ; ~ + ",
"7 j i l m r s 7 t p u g ; ) _ : ",
"h v w x y : z s A B C q ) ; ~ + ",
"7 D E F G H I J K L M g N O P : ",
"h Q J R S l T U V W X q ) } :   ",
"7 J : S B T Y V Z `  .g } :     ",
"h 7 h 7 h 7 h 7 h 7 h ..:       "};
