/* XPM */
static char * ecb_function_unknown_static_xpm[] = {
"12 14 43 1",
" 	c None",
".	c #757575",
"+	c #727272",
"@	c #8F8F8F",
"#	c #F5F5F5",
"$	c #EEEEEE",
"%	c #AAAAAA",
"&	c #FFFFFF",
"*	c #656565",
"=	c #4C4C4C",
"-	c #DCDCDC",
";	c #989898",
">	c #444444",
",	c #C8C8C8",
"'	c #8A8A8A",
")	c #ECECEC",
"!	c #A1A1A1",
"~	c #676767",
"{	c #DDDDDD",
"]	c #A8A8A8",
"^	c #E2E2E2",
"/	c #A7A7A7",
"(	c #B6B6B6",
"_	c #A5A5C6",
":	c #D1D1D1",
"<	c #A4A4A4",
"[	c #A3A3A3",
"}	c #BDBDBD",
"|	c #A5A5A5",
"1	c #8E8E8E",
"2	c #E3E3E3",
"3	c #ACACAC",
"4	c #C9C9C9",
"5	c #B5B5B5",
"6	c #D8D8D8",
"7	c #E6E6E6",
"8	c #AFAFAF",
"9	c #666666",
"0	c #939393",
"a	c #9B9B9B",
"b	c #EAEAEA",
"c	c #B7B7B7",
"d	c #8C8C8C",
"            ",
"            ",
"    .+@#    ",
"    +$%&    ",
"   *=-;#    ",
"  >,')!~#   ",
" >,{]^/(~#  ",
"_>:<[)<,*&  ",
" >}|1234~#  ",
" >|5'$]6*&  ",
" #>(178*&   ",
"  #~970&    ",
"   #abc#    ",
"    d@[&    "};
