/* XPM */
static char * ecb_function_unknown_xpm[] = {
"12 14 18 1",
" 	c None",
".	c #040404",
"+	c #F2F2F2",
"@	c #E5A684",
"#	c #E2B7A1",
"$	c #DF966D",
"%	c #CB7441",
"&	c #532923",
"*	c #CA713E",
"=	c #DB8958",
"-	c #D48E67",
";	c #A5A5C6",
">	c #4F2721",
",	c #FFFFFF",
"'	c #CB733F",
")	c #DB8757",
"!	c #DEAC90",
"~	c #EEC1AA",
"            ",
"            ",
"            ",
"            ",
"   ....+    ",
"  .@#$%&+   ",
" .@#*%=-&+  ",
";.#*%=-@>,  ",
" .$')-@!&+  ",
" .'=-@!~>,  ",
" +.-@!~>,   ",
"  +&>&>,    ",
"   +,+,     ",
"            "};
