/* XPM */
static char * ecb_class_unknown_xpm[] = {
"16 14 31 1",
" 	c None",
".	c #434343",
"+	c #FFFFFF",
"@	c #F1F1F1",
"#	c #F5F5F5",
"$	c #CACACA",
"%	c #E6E6E6",
"&	c #C9C9C9",
"*	c #C5C5C5",
"=	c #D5D5D5",
"-	c #D8D8D8",
";	c #D1D1D1",
">	c #656565",
",	c #A5A5C6",
"'	c #868686",
")	c #898989",
"!	c #C8C8C8",
"~	c #B6B6B6",
"{	c #ABABAB",
"]	c #D7D7D7",
"^	c #BDBDBD",
"/	c #BBBBBB",
"(	c #AFAFAF",
"_	c #D2D2D2",
":	c #A7A7A7",
"<	c #B0B0B0",
"[	c #AAAAAA",
"}	c #676767",
"|	c #CBCBCB",
"1	c #B8B8B8",
"2	c #B4B4B4",
"                ",
"    .+          ",
"   .@.#         ",
"  .@$$.+        ",
" .%&*=-.#       ",
"  .-;-.+        ",
"   .-.# ..>#    ",
",..'.').!~{>+   ",
" .]^~/.!;{(^>#  ",
" ._:<[.~[~!&}+  ",
" .|12/.[(!&->#  ",
" ._2/2).^&->+   ",
" .')')'#>}>#    ",
"  +#+#+ +#+     "};
