/* XPM */
static char * ecb_function_private_static_xpm[] = {
"16 14 44 1",
" 	c None",
".	c #696969",
"+	c #F5F5F5",
"@	c #757575",
"#	c #727272",
"$	c #8F8F8F",
"%	c #C5C5C5",
"&	c #FFFFFF",
"*	c #EEEEEE",
"=	c #AAAAAA",
"-	c #656565",
";	c #4C4C4C",
">	c #DCDCDC",
",	c #989898",
"'	c #444444",
")	c #C8C8C8",
"!	c #8A8A8A",
"~	c #ECECEC",
"{	c #A1A1A1",
"]	c #676767",
"^	c #8C8C8C",
"/	c #DDDDDD",
"(	c #A8A8A8",
"_	c #E2E2E2",
":	c #A7A7A7",
"<	c #B6B6B6",
"[	c #D1D1D1",
"}	c #A4A4A4",
"|	c #A3A3A3",
"1	c #BDBDBD",
"2	c #A5A5A5",
"3	c #8E8E8E",
"4	c #E3E3E3",
"5	c #ACACAC",
"6	c #C9C9C9",
"7	c #B5B5B5",
"8	c #D8D8D8",
"9	c #E6E6E6",
"0	c #AFAFAF",
"a	c #666666",
"b	c #939393",
"c	c #9B9B9B",
"d	c #EAEAEA",
"e	c #B7B7B7",
"                ",
"          ...+  ",
"   @#$+  .%&%.+ ",
"   #*=&  .& +.& ",
"  -;>,+  .....+ ",
" ')!~{]+ ..^..& ",
"')/(_:<]+.^&^.+ ",
"'[}|~})-&..^..& ",
"'123456]+.....+ ",
"'27!*(8-&+&+&+& ",
"+'<390-&        ",
" +]a9b&         ",
"  +cde+         ",
"   ^$|&         "};
