/* XPM */ 
static char * ecbenumunknown_xpm[] = {
"16 14 5 1",
" 	c None",
"!	c black",
"#	c white",
"$	c #F2F2F2",
"%	c #0000FF",
"                ",
"                ",
"#$#             ",
"$%$             ",
"%%#$#$          ",
"$%$%%#          ",
"#%#$#%#$#       ",
"$%$#%#%%$$      ",
"#$#%#$#$%#      ",
"  $%%%$%$$      ",
"  #$#$#$%$      ",
"     #%%$#      ",
"     $#$#       ",
"                "};