/* XPM */
static char * ecb_function_public_xpm[] = {
"16 14 19 1",
" 	c None",
".	c #686868",
"+	c #F5F5F5",
"@	c #9F9F9F",
"#	c #FFFFFF",
"$	c #444444",
"%	c #C8C8C8",
"&	c #D1D1D1",
"*	c #BDBDBD",
"=	c #A6A6A6",
"-	c #676767",
";	c #A4A4A4",
">	c #B5B5B5",
",	c #B6B6B6",
"'	c #656565",
")	c #A5A5A5",
"!	c #B3B3B3",
"~	c #C9C9C9",
"{	c #D8D8D8",
"                ",
"        ...+    ",
"       .@#@.+   ",
"       .# +.#   ",
"  $$$$++ .....+ ",
" $%&*=-+ ..@..# ",
"$%&;=>,-+.@#@.+ ",
"$&;=>,%'#..@..# ",
"$*)!,%~-+.....+ ",
"$)>,%~{'#+#+#+# ",
"+$,%~{'#        ",
" +-'-'#         ",
"  +#+#          ",
"                "};
