/* XPM */
static char * ecb_constructor_unknown_xpm[] = {
"12 14 15 1",
" 	c None",
".	c #444444",
"+	c #F5F5F5",
"@	c #EFEFEF",
"#	c #787878",
"$	c #C2C2C2",
"%	c #C9C9C9",
"&	c #CECECE",
"*	c #C6C6C6",
"=	c #D1D1D1",
"-	c #A5A5C6",
";	c #CDCDCD",
">	c #CACACA",
",	c #E0E0E0",
"'	c #D5D5D5",
"            ",
"            ",
"            ",
"     .+     ",
"    .@#+    ",
"   .@$%#+   ",
"  .@$&*=#+  ",
"-.@$;>=&,#+ ",
"  .,>'&,#+  ",
"   .,=,#+   ",
"    .,#+    ",
"     #+     ",
"     +      ",
"            "};
