/* XPM */
static char * ecb_close_xpm[] = {
"12 14 34 1",
" 	c None",
".	c #7898B5",
"+	c #FFFFFF",
"@	c #FCFCFB",
"#	c #FDFDFB",
"$	c #040404",
"%	c #FCFCFA",
"&	c #F7F6F3",
"*	c #F7F7F5",
"=	c #F7F7F4",
"-	c #F6F6F4",
";	c #F1F0EB",
">	c #E5E1DA",
",	c #A5A5C6",
"'	c #F5F5F1",
")	c #DFDBD2",
"!	c #F2F2EE",
"~	c #F0F0EC",
"{	c #EDEDE7",
"]	c #EAE9E3",
"^	c #E3E0D9",
"/	c #DBD6CC",
"(	c #E4E1D9",
"_	c #DCD8CF",
":	c #D8D3C9",
"<	c #D6D1C6",
"[	c #D2CCC0",
"}	c #CFC8BB",
"|	c #D2CCBF",
"1	c #C6BEAE",
"2	c #C2B8A8",
"3	c #C1B8A7",
"4	c #C0B7A6",
"5	c #C3BAAA",
"            ",
"            ",
"            ",
"  .......   ",
" .+++++++.  ",
" .@##$@%&.  ",
" .**=$-;>.  ",
",.'$$$$$).  ",
" .!~{$]^/.  ",
" .(_:$<[}.  ",
" .|123345.  ",
"  .......   ",
"            ",
"            "};
