/* XPM */
static char * ecb_handle_xpm[] = {
"6 14 2 1",
" 	c None",
".	c #ADA5C6",
"      ",
"      ",
"      ",
"      ",
"      ",
"      ",
"      ",
"......",
"      ",
"      ",
"      ",
"      ",
"      ",
"      "};
