/* XPM */ 
static char * ecbhandle_xpm[] = {
"8 21 3 1",
" 	c None",
"!	c black",
"#	c #ADA5C6",
"        ",
"        ",
"        ",
"        ",
"        ",
"        ",
"        ",
"        ",
"        ",
"        ",
"########",
"        ",
"        ",
"        ",
"        ",
"        ",
"        ",
"        ",
"        ",
"        ",
"        "};