/* XPM */
static char * ecb_open_xpm[] = {
"12 14 36 1",
" 	c None",
".	c #7898B5",
"+	c #FFFFFF",
"@	c #FCFCFB",
"#	c #FDFDFB",
"$	c #FCFCFA",
"%	c #F7F6F3",
"&	c #F7F7F5",
"*	c #F7F7F4",
"=	c #F6F6F4",
"-	c #F1F0EB",
";	c #E5E1DA",
">	c #A5A5C6",
",	c #F5F5F1",
"'	c #040404",
")	c #DFDBD2",
"!	c #F2F2EE",
"~	c #F0F0EC",
"{	c #EDEDE7",
"]	c #ECEBE6",
"^	c #EAE9E3",
"/	c #E3E0D9",
"(	c #DBD6CC",
"_	c #E4E1D9",
":	c #DCD8CF",
"<	c #D8D3C9",
"[	c #D7D2C7",
"}	c #D6D1C6",
"|	c #D2CCC0",
"1	c #CFC8BB",
"2	c #D2CCBF",
"3	c #C6BEAE",
"4	c #C2B8A8",
"5	c #C1B8A7",
"6	c #C0B7A6",
"7	c #C3BAAA",
"            ",
"            ",
"            ",
"  .......   ",
" .+++++++.  ",
" .@###@$%.  ",
" .&&**=-;.  ",
">.,''''').  ",
" .!~{]^/(.  ",
" ._:<[}|1.  ",
" .2345567.  ",
"  .......   ",
"     >      ",
"     >      "};
