/* XPM */
static char * ecb_leaf_added_xpm[] = {
"16 14 10 1",
" 	c None",
".	c #424242",
"+	c #949494",
"@	c #9C9C9C",
"#	c #A5A5A5",
"$	c #ADADAD",
"%	c #848484",
"&	c #B5B5B5",
"*	c #FE9832",
"=	c #FFFFFF",
"                ",
".......         ",
".++@@#..        ",
".+@@##.$.       ",
".@@###....      ",
".@%%%+%$&.      ",
".###$$****      ",
".#%+%**==**     ",
".#$$***==***    ",
".$%%*======*    ",
".$$&*======*    ",
".$&&***==***    ",
".....**==**     ",
"      ****      "};
