<?xml version="1.0" encoding="UTF-8" standalone="no"?>
<!-- Created with Inkscape (http://www.inkscape.org/) -->

<svg
   xmlns:dc="http://purl.org/dc/elements/1.1/"
   xmlns:cc="http://creativecommons.org/ns#"
   xmlns:rdf="http://www.w3.org/1999/02/22-rdf-syntax-ns#"
   xmlns:svg="http://www.w3.org/2000/svg"
   xmlns="http://www.w3.org/2000/svg"
   xmlns:sodipodi="http://sodipodi.sourceforge.net/DTD/sodipodi-0.dtd"
   xmlns:inkscape="http://www.inkscape.org/namespaces/inkscape"
   width="2910.3096"
   height="833.80408"
   id="svg2"
   version="1.1"
   inkscape:version="0.48.3.1 r9886"
   sodipodi:docname="header.svg"
   inkscape:export-filename="/home/marijn/tern_fish.png"
   inkscape:export-xdpi="34.000793"
   inkscape:export-ydpi="34.000793">
  <defs
     id="defs4">
    <clipPath
       clipPathUnits="userSpaceOnUse"
       id="clipPath4641">
      <path
         style="fill:#ffffff;fill-opacity:1;stroke:none"
         d="m -1937.5549,930.86427 -3.5938,54.5304 -10.2187,0 0,104.42473 3551.4374,0 0,-96.42993 2.0625,0 -6.5625,-61.1144 c 0,0 -6.0734,51.955 -107.5938,51.955 -101.0353,0 -113.125,-52.2461 -113.125,-52.2461 l 0,0.2464 c -0.1418,1.1123 -7.1843,51.843 -107.5937,51.843 -101.0354,0 -113.125,-52.2237 -113.125,-52.2237 l -0.094,1.6571 -0.1563,-1.2988 c 0,0 -6.0734,51.955 -107.5937,51.955 -101.03527,0 -113.12507,-52.2462 -113.12507,-52.2462 l 0,0.2464 c -0.1417,1.1123 -7.1841,51.843 -107.5937,51.843 -101.0353,0 -113.125,-52.2237 -113.125,-52.2237 l -0.062,0.9181 -0.062,-0.6046 c 0,0 -6.0732,51.955 -107.59378,51.955 -101.0353,0 -113.125,-52.2237 -113.125,-52.2237 l 0,0.2239 c -0.1417,1.1123 -7.1842,51.843 -107.5937,51.843 -101.0353,0 -113.125,-52.2013 -113.125,-52.2013 l -0.094,1.6348 -0.1562,-1.2989 c 0,0 -6.0734,51.955 -107.5938,51.955 -101.035409,0 -113.125109,-52.2237 -113.125009,-52.2237 l 0,0.2239 c -0.1419,1.1124 -7.1842,51.8431 -107.5937,51.843 -101.035291,0 -113.124991,-52.2237 -113.124991,-52.2237 l -0.125,2.1051 -0.25,-2.1947 c 0,0 -6.0734,51.955 -107.5938,51.955 -101.0354,0 -113.125,-52.2237 -113.125,-52.2237 l 0,0.2239 c -0.1418,1.1124 -7.1843,51.8431 -107.5937,51.8431 -101.0354,0 -113.125,-52.2238 -113.125,-52.2238 l -0.094,1.6572 -0.1563,-1.2988 c 0,0 -6.0733,51.955 -107.5937,51.955 -101.0355,0 -113.125,-52.2238 -113.125,-52.2238 l 0,0.224 c -0.1418,1.1123 -7.1843,51.843 -107.5938,51.843 -101.03525,0 -113.12495,-52.2237 -113.12495,-52.2237 l -0.062,0.9181 -0.062,-0.6046 c 0,0 -6.0732,51.955 -107.5938,51.955 -101.0353,0 -113.125,-52.2238 -113.125,-52.2238 l 0,0.2464 c -0.1416,1.1123 -7.1843,51.843 -107.5937,51.843 -101.0354,0 -113.125,-52.2237 -113.125,-52.2237 l -0.094,1.6348 -0.1563,-1.2989 c 0,0 -6.0735,51.955 -107.5937,51.955 -101.0355,0 -113.1252,-52.2237 -113.125,-52.2237 l 0,0.2463 c -0.1425,1.1123 -7.1847,51.8206 -107.5942,51.8206 -101.0353,0 -113.125,-52.2013 -113.125,-52.2013 z"
         id="path4643"
         inkscape:connector-curvature="0" />
    </clipPath>
    <clipPath
       clipPathUnits="userSpaceOnUse"
       id="clipPath4704">
      <rect
         style="fill:#ff0000;fill-opacity:1;fill-rule:evenodd;stroke:none"
         id="rect4706"
         width="2910.2495"
         height="820.24384"
         x="-1782.1809"
         y="281.99979" />
    </clipPath>
  </defs>
  <sodipodi:namedview
     id="base"
     pagecolor="#adecee"
     bordercolor="#666666"
     borderopacity="1.0"
     inkscape:pageopacity="1"
     inkscape:pageshadow="2"
     inkscape:zoom="0.35"
     inkscape:cx="1142.144"
     inkscape:cy="208.93842"
     inkscape:document-units="px"
     inkscape:current-layer="layer1"
     showgrid="false"
     inkscape:window-width="1600"
     inkscape:window-height="879"
     inkscape:window-x="0"
     inkscape:window-y="21"
     inkscape:window-maximized="0"
     fit-margin-top="0"
     fit-margin-left="0"
     fit-margin-right="0"
     fit-margin-bottom="0"
     showguides="true"
     inkscape:guide-bbox="true" />
  <metadata
     id="metadata7">
    <rdf:RDF>
      <cc:Work
         rdf:about="">
        <dc:format>image/svg+xml</dc:format>
        <dc:type
           rdf:resource="http://purl.org/dc/dcmitype/StillImage" />
        <dc:title></dc:title>
      </cc:Work>
    </rdf:RDF>
  </metadata>
  <g
     inkscape:label="Layer 1"
     inkscape:groupmode="layer"
     id="layer1"
     transform="translate(1782.2408,-256.01532)">
    <path
       style="fill:#276547;fill-opacity:1;stroke:none"
       d="m -1702.1203,920.78764 c -6.6579,-0.0154 -14.2563,1.40768 -21.7187,5.15625 -17.975,9.02939 -24.7665,23.2235 -48,41.40625 -23.2336,18.18275 -48.5849,19.2072 -60.4688,19.1875 l -0.9203,127.93326 c 1886.014586,-2.7206 3169.4125,0.7966 4954.9637,-0.1084 l 0.05,-126.35611 c -9.8491,0.505 -16.163,-3.5321 -21.7187,-6.5625 -5.556,-3.0305 -10.0991,-14.88755 -9.5938,-22.96875 0.505,-8.0812 5.2921,-12.88085 7.3125,-15.40625 1.5102,-1.7449 6.7833,-4.0028 10.625,0 2.5252,3.788 -1.7716,9.93825 -0.75,10.09375 2.5781,0.675 8.4051,-3.70935 9.8437,-8.84375 0.7578,-8.3338 -0.2651,-11.59945 -5.5624,-16.65625 -5.556,-5.3033 -23.3494,-8.8181 -40.4063,-0.25 -17.975,9.0294 -24.7352,23.22345 -47.9687,41.40625 -21.4778,16.80855 -44.7754,18.974 -57.5626,19.1875 l -0.031,-0.0625 c -9.3439,-0.097 -15.601,-3.21 -21.7188,-6.5625 -5.5558,-3.0305 -10.0989,-14.88755 -9.5937,-22.96875 0.505,-8.0812 5.2921,-12.88085 7.3125,-15.40625 1.5102,-1.7449 6.7521,-4.0028 10.5938,0 2.5252,3.788 -1.7717,9.93825 -0.75,10.09375 2.5781,0.675 8.4051,-3.70935 9.8437,-8.84375 0.7577,-8.3338 -0.2337,-11.59945 -5.5313,-16.65625 -3.125,-2.9831 -10.1273,-5.38645 -18.6874,-5.40625 -6.658,-0.015 -14.2565,1.40765 -21.7188,5.15625 -17.975,9.0294 -24.7666,23.22345 -48,41.40625 -16.1438,11.19465 -35.8412,18.23865 -54.9375,19.09375 -9.6499,0.3935 -15.8851,-3.5679 -21.375,-6.5625 -5.5559,-3.0304 -10.0989,-14.88755 -9.5937,-22.96875 0.505,-8.0813 5.2923,-12.88085 7.3124,-15.40625 1.5103,-1.7449 6.7835,-4.0027 10.625,0 2.5255,3.7881 -1.7716,9.93815 -0.75,10.09375 2.5782,0.675 8.4052,-3.70925 9.8438,-8.84375 0.7577,-8.3337 -0.265,-11.59955 -5.5625,-16.65625 -5.5559,-5.3033 -23.3492,-8.8182 -40.4063,-0.25 -17.9748,9.0294 -24.7353,23.22355 -47.9687,41.40625 -21.4777,16.8086 -44.7754,18.9741 -57.5625,19.1875 l -0.031,-0.0625 c -9.3441,-0.097 -15.601,-3.2099 -21.7188,-6.5625 -5.5556,-3.0304 -10.0989,-14.88755 -9.5938,-22.96875 0.5051,-8.0813 5.2923,-12.88085 7.3126,-15.40625 1.5101,-1.7449 6.7522,-4.0027 10.5937,0 2.5254,3.7881 -1.7716,9.93815 -0.75,10.09375 2.5781,0.675 8.4052,-3.70925 9.8437,-8.84375 0.7578,-8.3337 -0.2335,-11.59955 -5.5312,-16.65625 -3.125,-2.9831 -10.1273,-5.38635 -18.6875,-5.40625 -6.6579,-0.015 -14.2563,1.40765 -21.7187,5.15625 -17.975,9.0294 -24.7666,23.22345 -48,41.40625 -22.546,17.6445 -47.0512,19.1329 -59.3438,19.1875 -7.4441,-0.6537 -12.6837,-3.9411 -17.375,-6.5 -5.5558,-3.0305 -10.0989,-14.88753 -9.5938,-22.96875 0.5051,-8.08122 5.2923,-12.88086 7.3126,-15.40625 1.5101,-1.74491 6.7834,-4.00276 10.625,0 2.5253,3.78808 -1.7718,9.9382 -0.75,10.09375 2.578,0.67503 8.4051,-3.70931 9.8437,-8.84375 0.7577,-8.33375 -0.2649,-11.59948 -5.5625,-16.65625 -5.5558,-5.30329 -23.3495,-8.81816 -40.4062,-0.25 -17.975,9.02939 -24.7352,23.2235 -47.9688,41.40625 -21.4777,16.8086 -44.7754,18.974 -57.5625,19.1875 l -0.031,-0.0625 c -9.3436,-0.097 -15.6009,-3.21 -21.7187,-6.5625 -5.5558,-3.0305 -10.099,-14.88753 -9.5937,-22.96875 0.5049,-8.08122 5.2922,-12.88086 7.3124,-15.40625 1.5103,-1.74491 6.7522,-4.00276 10.5938,0 2.5253,3.78808 -1.7716,9.9382 -0.75,10.09375 2.5781,0.67503 8.405,-3.70931 9.8438,-8.84375 0.7577,-8.33375 -0.2337,-11.59948 -5.5313,-16.65625 -3.1251,-2.9831 -10.1273,-5.3864 -18.6875,-5.40625 -6.6579,-0.0154 -14.2563,1.40768 -21.7188,5.15625 -17.9749,9.02939 -24.7664,23.2235 -48,41.40625 -16.1437,11.1947 -35.841,18.23865 -54.9374,19.09375 -9.6499,0.3935 -15.8851,-3.5679 -21.375,-6.5625 -5.5566,-3.0305 -10.0989,-14.88753 -9.5938,-22.96875 0.505,-8.08122 5.2922,-12.88086 7.3125,-15.40625 1.5102,-1.74491 6.7834,-4.00276 10.625,0 2.5253,3.78808 -1.7716,9.9382 -0.75,10.09375 2.5781,0.67503 8.4052,-3.70931 9.8437,-8.84375 0.7578,-8.33375 -0.2649,-11.59948 -5.5624,-16.65625 -5.5559,-5.30329 -23.3494,-8.81816 -40.4063,-0.25 -17.975,9.02939 -24.7352,23.2235 -47.9687,41.40625 -21.4777,16.80855 -44.7755,18.9741 -57.5626,19.1875 l -0.031,-0.0625 c -9.344,-0.097 -15.6008,-3.2099 -21.7188,-6.5625 -5.5555,-3.0304 -10.0989,-14.88753 -9.5937,-22.96875 0.505,-8.08122 5.2922,-12.88086 7.3125,-15.40625 1.5101,-1.74491 6.7521,-4.00276 10.5938,0 2.5253,3.78808 -1.7717,9.9382 -0.75,10.09375 2.578,0.67503 8.4051,-3.70931 9.8437,-8.84375 0.7577,-8.33375 -0.2335,-11.59948 -5.5313,-16.65625 -3.125,-2.9831 -10.1274,-5.3864 -18.6874,-5.40625 -6.658,-0.0154 -14.2564,1.40768 -21.7188,5.15625 -17.975,9.02939 -24.7665,23.2235 -48,41.40625 -22.7433,17.79902 -47.4735,19.15662 -59.6562,19.1875 -7.8825,-0.47585 -13.3262,-3.9109 -18.1876,-6.5625 -5.5555,-3.0305 -10.0989,-14.88755 -9.5937,-22.96875 0.505,-8.0812 5.2922,-12.88085 7.3125,-15.40625 1.5101,-1.7449 6.7834,-4.0028 10.625,0 2.5253,3.788 -1.7716,9.93825 -0.75,10.09375 2.5781,0.675 8.405,-3.70935 9.8438,-8.84375 0.7574,-8.3338 -0.2649,-11.59945 -5.5626,-16.65625 -5.5556,-5.3033 -23.3493,-8.8181 -40.4062,-0.25 -17.975,9.0294 -24.735,23.22345 -47.9688,41.40625 -21.4775,16.8086 -44.7753,18.974 -57.5624,19.1875 l -0.031,-0.0625 c -9.3438,-0.097 -15.6012,-3.21 -21.7187,-6.5625 -5.5559,-3.0305 -10.0989,-14.88755 -9.5938,-22.96875 0.505,-8.0812 5.2922,-12.88085 7.3125,-15.40625 1.5102,-1.7449 6.7522,-4.0028 10.5937,0 2.5254,3.788 -1.7715,9.93825 -0.75,10.09375 2.5782,0.675 8.4052,-3.70935 9.8438,-8.84375 0.7577,-8.3338 -0.2337,-11.59945 -5.5312,-16.65625 -3.1252,-2.9831 -10.1272,-5.38645 -18.6876,-5.40625 -6.6579,-0.015 -14.2563,1.40765 -21.7187,5.15625 -17.975,9.0294 -24.7665,23.22345 -48,41.40625 -16.1438,11.1947 -35.8411,18.23865 -54.9375,19.09375 -9.6498,0.3935 -15.885,-3.5679 -21.375,-6.5625 -5.5558,-3.0304 -10.0989,-14.88755 -9.5938,-22.96875 0.5051,-8.0813 5.2922,-12.88085 7.3126,-15.40625 1.5101,-1.7449 6.7833,-4.0027 10.625,0 2.5252,3.7881 -1.7716,9.93815 -0.75,10.09375 2.578,0.675 8.4051,-3.70925 9.8437,-8.84375 0.7577,-8.3337 -0.2649,-11.59955 -5.5625,-16.65625 -5.5558,-5.3033 -23.3494,-8.8182 -40.4062,-0.25 -17.9751,9.0294 -24.7353,23.22355 -47.9688,41.40625 -21.4777,16.8086 -44.7754,18.9741 -57.5625,19.1875 l -0.031,-0.0625 c -9.3438,-0.097 -15.6009,-3.2099 -21.7187,-6.5625 -5.5558,-3.0304 -10.0989,-14.88755 -9.5937,-22.96875 0.505,-8.0813 5.2922,-12.88085 7.3124,-15.40625 1.5103,-1.7449 6.7522,-4.0027 10.5938,0 2.5253,3.7881 -1.7716,9.93815 -0.75,10.09375 2.5781,0.675 8.4051,-3.70925 9.8438,-8.84375 0.7577,-8.3337 -0.2337,-11.59955 -5.5313,-16.65625 -3.1251,-2.9831 -10.1274,-5.38635 -18.6875,-5.40625 -6.6579,-0.015 -14.2564,1.40765 -21.7188,5.15625 -17.9749,9.0294 -24.7664,23.22345 -48,41.40625 -22.5459,17.64449 -47.0511,19.13293 -59.3437,19.1875 -7.4442,-0.65371 -12.6837,-3.94111 -17.375,-6.5 -5.5558,-3.03046 -10.0989,-14.88753 -9.5937,-22.96875 0.505,-8.08122 5.2922,-12.88086 7.3124,-15.40625 1.5103,-1.74491 6.7834,-4.00276 10.625,0 2.5254,3.78808 -1.7716,9.9382 -0.75,10.09375 2.5782,0.67503 8.4052,-3.70931 9.8438,-8.84375 0.7577,-8.33375 -0.2649,-11.59948 -5.5625,-16.65625 -5.5558,-5.30329 -23.3494,-8.81816 -40.4063,-0.25 -17.9749,9.02939 -24.7352,23.2235 -47.9687,41.40625 -21.4777,16.8086 -44.7754,18.97404 -57.5625,19.1875 l -0.031,-0.0625 c -9.3439,-0.0968 -15.601,-3.20995 -21.7188,-6.5625 -5.5558,-3.03046 -10.0988,-14.88753 -9.5938,-22.96875 0.5051,-8.08122 5.2922,-12.88086 7.3126,-15.40625 1.5101,-1.74491 6.7521,-4.00276 10.5937,0 2.5253,3.78808 -1.7716,9.9382 -0.75,10.09375 2.5781,0.67503 8.4051,-3.70931 9.8437,-8.84375 0.7578,-8.33375 -0.2336,-11.59948 -5.5312,-16.65625 -3.1251,-2.9831 -10.1273,-5.3864 -18.6875,-5.40625 -6.6579,-0.0154 -14.2564,1.40768 -21.7187,5.15625 -17.9751,9.02939 -24.7666,23.2235 -48,41.40625 -16.14411,11.19471 -35.84121,18.23865 -54.93761,19.09375 -9.6499,0.39349 -15.8849,-3.56795 -21.375,-6.5625 -5.5558,-3.03046 -10.0988,-14.88753 -9.5937,-22.96875 0.505,-8.08122 5.2922,-12.88086 7.3125,-15.40625 1.5102,-1.74491 6.7834,-4.00276 10.625,0 2.5253,3.78808 -1.7716,9.9382 -0.75,10.09375 2.5781,0.67503 8.4051,-3.70931 9.8438,-8.84375 0.7576,-8.33375 -0.2649,-11.59948 -5.5626,-16.65625 -5.5558,-5.30329 -23.3493,-8.81816 -40.4062,-0.25 -17.975,9.02939 -24.7353,23.2235 -47.9688,41.40625 -21.4777,16.8086 -44.7754,18.97404 -57.5624,19.1875 l -0.031,-0.0625 c -9.3439,-0.0968 -15.601,-3.20995 -21.7187,-6.5625 -5.5559,-3.03046 -10.0989,-14.88753 -9.5938,-22.96875 0.505,-8.08122 5.2922,-12.88086 7.3125,-15.40625 1.5102,-1.74491 6.7522,-4.00276 10.5937,0 2.5254,3.78808 -1.7716,9.9382 -0.75,10.09375 2.5782,0.67503 8.4052,-3.70931 9.8438,-8.84375 0.7577,-8.33375 -0.2337,-11.59948 -5.5312,-16.65625 -3.1251,-2.9831 -10.1275,-5.3864 -18.6876,-5.40625 -6.6578,-0.0154 -14.2563,1.40768 -21.7187,5.15625 -17.975,9.02939 -24.7665,23.2235 -48,41.40625 -23.2336,18.18275 -48.5849,19.2072 -60.4687,19.1875 -0.2231,-3.7e-4 -0.4394,0.0408 -0.6563,0.0625 -8.9998,0.0474 -14.9502,-3.7201 -20.2187,-6.59375 -5.556,-3.0305 -10.099,-14.88755 -9.5938,-22.96875 0.505,-8.0812 5.2922,-12.88085 7.3125,-15.40625 1.5102,-1.7449 6.7834,-4.0028 10.625,0 2.5253,3.788 -1.7716,9.93825 -0.75,10.09375 2.5781,0.675 8.405,-3.70935 9.8437,-8.84375 0.7578,-8.3338 -0.2649,-11.59945 -5.5624,-16.65625 -5.556,-5.3033 -23.3494,-8.8181 -40.4063,-0.25 -17.975,9.0294 -24.7352,23.22345 -47.9687,41.40625 -21.4779,16.80855 -44.7755,18.974 -57.5626,19.1875 l -0.031,-0.0625 c -9.3438,-0.097 -15.601,-3.21 -21.7188,-6.5625 -5.5558,-3.0305 -10.0988,-14.88755 -9.5937,-22.96875 0.505,-8.0812 5.2922,-12.88085 7.3125,-15.40625 1.5102,-1.7449 6.7522,-4.0028 10.5938,0 2.5252,3.788 -1.7718,9.93825 -0.75,10.09375 2.578,0.675 8.4051,-3.70935 9.8437,-8.84375 0.7577,-8.3338 -0.2337,-11.59945 -5.5313,-16.65625 -3.125,-2.9831 -10.1271,-5.38645 -18.6874,-5.40625 -6.658,-0.015 -14.2564,1.40765 -21.7188,5.15625 -17.975,9.0294 -24.7665,23.22345 -48,41.40625 -16.1438,11.19465 -35.8411,18.23865 -54.9375,19.09375 -9.6498,0.3935 -15.885,-3.5679 -21.375,-6.5625 -5.5558,-3.0304 -10.0988,-14.88755 -9.5937,-22.96875 0.505,-8.0813 5.2922,-12.88085 7.3124,-15.40625 1.5103,-1.7449 6.7835,-4.0027 10.625,0 2.5254,3.7881 -1.7716,9.93815 -0.75,10.09375 2.5782,0.675 8.4052,-3.70925 9.8438,-8.84375 0.7577,-8.3337 -0.2649,-11.59955 -5.5625,-16.65625 -5.5558,-5.3033 -23.3492,-8.8182 -40.4063,-0.25 -17.9748,9.0294 -24.7352,23.22355 -47.9687,41.40625 -21.4777,16.8086 -44.7754,18.9741 -57.5625,19.1875 l -0.031,-0.0625 c -9.3441,-0.097 -15.601,-3.2099 -21.7188,-6.5625 -5.5557,-3.0304 -10.0989,-14.88755 -9.5938,-22.96875 0.5051,-8.0813 5.2923,-12.88085 7.3126,-15.40625 1.51,-1.7449 6.7522,-4.0027 10.5937,0 2.5254,3.7881 -1.7716,9.93815 -0.75,10.09375 2.5781,0.675 8.4052,-3.70925 9.8437,-8.84375 0.7578,-8.3337 -0.2335,-11.59955 -5.5312,-16.65625 -3.125,-2.9831 -10.1273,-5.38635 -18.6875,-5.40625 -6.6579,-0.015 -14.2563,1.40765 -21.7187,5.15625 -17.9751,9.0294 -24.7666,23.22345 -48.000004,41.40625 -22.5461,17.6445 -47.0512,19.1329 -59.3438,19.1875 -7.4441,-0.6537 -12.6837,-3.9411 -17.3750003,-6.5 -5.55579999,-3.0305 -10.0989,-14.88753 -9.5938,-22.96875 0.5051,-8.08122 5.2923,-12.88086 7.3126,-15.40625 1.51,-1.74491 6.7834003,-4.00276 10.6250003,0 2.5252,3.78808 -1.7718,9.9382 -0.75,10.09375 2.5779,0.67503 8.4051,-3.70931 9.8437,-8.84375 0.7577,-8.33375 -0.2649,-11.59948 -5.5625,-16.65625 -5.5558,-5.30329 -23.3494003,-8.81816 -40.4062,-0.25 -17.9751,9.02939 -24.7352,23.2235 -47.9688,41.40625 -21.4777,16.8086 -44.775396,18.974 -57.562496,19.1875 l -0.031,-0.0625 c -9.3436,-0.097 -15.6009,-3.21 -21.7187,-6.5625 -5.5558,-3.0305 -10.0989,-14.88753 -9.5937,-22.96875 0.5049,-8.08122 5.2921,-12.88086 7.3124,-15.40625 1.5103,-1.74491 6.7522,-4.00276 10.5938,0 2.5253,3.78808 -1.7716,9.9382 -0.75,10.09375 2.5781,0.67503 8.4051,-3.70931 9.8438,-8.84375 0.7576,-8.33375 -0.2337,-11.59948 -5.5313,-16.65625 -3.1251,-2.9831 -10.1273,-5.3864 -18.6875,-5.40625 -6.6579,-0.0154 -14.2563,1.40768 -21.7188,5.15625 -17.9748,9.02939 -24.7663,23.2235 -48,41.40625 -16.1437,11.1947 -35.841,18.23865 -54.9374,19.09375 -9.6499,0.3935 -15.885,-3.5679 -21.375,-6.5625 -5.5559,-3.0304 -10.0989,-14.88753 -9.5938,-22.96875 0.505,-8.08122 5.2922,-12.88086 7.3125,-15.40625 1.5102,-1.74491 6.7834,-4.00276 10.625,0 2.5253,3.78808 -1.7716,9.9382 -0.75,10.09375 2.5781,0.67503 8.4052,-3.70931 9.8437,-8.84375 0.7579,-8.33375 -0.2649,-11.59948 -5.5624,-16.65625 -5.5559,-5.30329 -23.3494,-8.81816 -40.4063,-0.25 -17.975,9.02939 -24.7352,23.2235 -47.9687,41.40625 -21.4778,16.80855 -44.7755,18.9741 -57.5626,19.1875 l -0.031,-0.0625 c -9.3439,-0.097 -15.6008,-3.2099 -21.7188,-6.5625 -5.5556,-3.0304 -10.0988,-14.88753 -9.5937,-22.96875 0.505,-8.08122 5.2922,-12.88086 7.3125,-15.40625 1.5102,-1.74491 6.7521,-4.00276 10.5938,0 2.5252,3.78808 -1.7717,9.9382 -0.75,10.09375 2.578,0.67503 8.4051,-3.70931 9.8437,-8.84375 0.7577,-8.33375 -0.2335,-11.59948 -5.5313,-16.65625 -3.125,-2.9831 -10.1273,-5.3864 -18.6874,-5.40625 -6.658,-0.0154 -14.2564,1.40768 -21.7188,5.15625 -17.975,9.02939 -24.7665,23.2235 -48,41.40625 -22.7433,17.79902 -47.4736,19.15662 -59.6562,19.1875 -7.8827,-0.47585 -13.3261,-3.9109 -18.1876,-6.5625 -5.5556,-3.0305 -10.0988,-14.88755 -9.5937,-22.96875 0.505,-8.0812 5.2922,-12.88085 7.3125,-15.40625 1.5102,-1.7449 6.7834,-4.0028 10.625,0 2.5253,3.788 -1.7716,9.93825 -0.75,10.09375 2.5781,0.675 8.4052,-3.70935 9.8438,-8.84375 0.7574,-8.3338 -0.2648,-11.59945 -5.5626,-16.65625 -5.5556,-5.3033 -23.3493,-8.8181 -40.4062,-0.25 -17.975,9.0294 -24.735,23.22345 -47.9688,41.40625 -21.4775,16.8086 -44.7753,18.974 -57.5624,19.1875 l -0.031,-0.0625 c -9.3438,-0.097 -15.6012,-3.21 -21.7187,-6.5625 -5.5558,-3.0305 -10.0989,-14.88755 -9.5938,-22.96875 0.505,-8.0812 5.2922,-12.88085 7.3125,-15.40625 1.5102,-1.7449 6.7521,-4.0028 10.5937,0 2.5254,3.788 -1.7714,9.93825 -0.75,10.09375 2.5783,0.675 8.4052,-3.70935 9.8438,-8.84375 0.7577,-8.3338 -0.2337,-11.59945 -5.5312,-16.65625 -3.1253,-2.9831 -10.1272,-5.38645 -18.6876,-5.40625 -6.6579,-0.015 -14.2563,1.40765 -21.7187,5.15625 -17.975,9.0294 -24.7665,23.22345 -48,41.40625 -16.1438,11.1947 -35.8411,18.23865 -54.9375,19.09375 -9.6498,0.3935 -15.885,-3.5679 -21.375,-6.5625 -5.5558,-3.0304 -10.09885,-14.88755 -9.59375,-22.96875 0.505,-8.0813 5.2922,-12.88085 7.3125,-15.40625 1.5102,-1.7449 6.7834,-4.0027 10.625,0 2.5253,3.7881 -1.7716,9.93815 -0.75,10.09375 2.5781,0.675 8.40515,-3.70925 9.84375,-8.84375 0.7577,-8.3337 -0.2649,-11.59955 -5.5625,-16.65625 -5.5558,-5.3033 -23.34935,-8.8182 -40.40625,-0.25 -17.975,9.0294 -24.73525,23.22355 -47.96875,41.40625 -21.47769,16.8086 -44.77539,18.9741 -57.56249,19.1875 l -0.031,-0.0625 c -9.3439,-0.097 -15.601,-3.2099 -21.7188,-6.5625 -5.5558,-3.0304 -10.0988,-14.88755 -9.5937,-22.96875 0.505,-8.0813 5.2922,-12.88085 7.3125,-15.40625 1.5102,-1.7449 6.7521,-4.0027 10.5937,0 2.5253,3.7881 -1.7716,9.93815 -0.75,10.09375 2.5781,0.675 8.4052,-3.70925 9.8438,-8.84375 0.7577,-8.3337 -0.2337,-11.59955 -5.5313,-16.65625 -3.1251,-2.9831 -10.1274,-5.38635 -18.6875,-5.40625 -6.6579,-0.015 -14.2563,1.40765 -21.7187,5.15625 -17.975,9.0294 -24.7665,23.22345 -48,41.40625 -22.5459,17.64449 -47.0512,19.13293 -59.3438,19.1875 -7.4442,-0.65371 -12.6837,-3.94111 -17.375,-6.5 -5.5558,-3.03046 -10.0988,-14.88753 -9.5937,-22.96875 0.505,-8.08122 5.2922,-12.88086 7.3125,-15.40625 1.5102,-1.74491 6.7834,-4.00276 10.625,0 2.5253,3.78808 -1.7716,9.9382 -0.75,10.09375 2.5781,0.67503 8.4051,-3.70931 9.8437,-8.84375 0.7577,-8.33375 -0.2649,-11.59948 -5.5625,-16.65625 -5.5558,-5.30329 -23.3493,-8.81816 -40.4062,-0.25 -17.975,9.02939 -24.7353,23.2235 -47.9688,41.40625 -21.4777,16.8086 -44.7754,18.97404 -57.5625,19.1875 l -0.031,-0.0625 c -9.3438,-0.0968 -15.6009,-3.20995 -21.7187,-6.5625 -5.5558,-3.03046 -10.0989,-14.88753 -9.5938,-22.96875 0.505,-8.08122 5.2922,-12.88086 7.3125,-15.40625 1.5102,-1.74491 6.7522,-4.00276 10.5938,0 2.5253,3.78808 -1.7716,9.9382 -0.75,10.09375 2.5781,0.67503 8.4051,-3.70931 9.8437,-8.84375 0.7577,-8.33375 -0.2336,-11.59948 -5.5312,-16.65625 -3.1251,-2.9831 -10.1273,-5.3864 -18.6875,-5.40625 -6.6579,-0.0154 -14.2564,1.40768 -21.7188,5.15625 -17.975,9.02939 -24.7665,23.2235 -48,41.40625 -16.1439,11.19471 -35.8411,18.23865 -54.9375,19.09375 -9.6499,0.39349 -15.885,-3.56795 -21.375,-6.5625 -5.5558,-3.03046 -10.0988,-14.88753 -9.5937,-22.96875 0.505,-8.08122 5.2922,-12.88086 7.3125,-15.40625 1.5102,-1.74491 6.7834,-4.00276 10.625,0 2.5253,3.78808 -1.7716,9.9382 -0.75,10.09375 2.5781,0.67503 8.4051,-3.70931 9.8437,-8.84375 0.7577,-8.33375 -0.2649,-11.59948 -5.5625,-16.65625 -5.5558,-5.30329 -23.3493,-8.81816 -40.4062,-0.25 -17.975,9.02939 -24.7353,23.2235 -47.9688,41.40625 -21.4777,16.8086 -44.7754,18.97404 -57.5625,19.1875 l -0.031,-0.0625 c -9.3439,-0.0968 -15.6009,-3.20995 -21.7187,-6.5625 -5.5558,-3.03046 -10.0989,-14.88753 -9.5938,-22.96875 0.505,-8.08122 5.2922,-12.88086 7.3125,-15.40625 1.5102,-1.74491 6.7522,-4.00276 10.5938,0 2.5253,3.78808 -1.7716,9.9382 -0.75,10.09375 2.5781,0.67503 8.4051,-3.70931 9.8437,-8.84375 0.7577,-8.33375 -0.2336,-11.59948 -5.5312,-16.65625 -3.1251,-2.9831 -10.1274,-5.3864 -18.6875,-5.40625 z"
       id="path3074-0-9"
       inkscape:connector-curvature="0"
       sodipodi:nodetypes="sssccccsccccccssccccccccccsccccccccssscccsccccccsscssccccsssccccccccsssccccccccssscccccccccsssccccccccssccccccccccscccsccccsssccccccccccsscscccccsssccccccccsssccsccccccssccccccccssssscsccccccssccccccccccsccccccccssscccsccccccsscssccccsssccccccccsscccccccccssscccccccccsssccccccccssccccccccccsccccccccsssccccccccccsscscccccsssccccccccsssccscccccsssccccccccss" />
    <path
       style="fill:none;stroke:#ffffff;stroke-width:3;stroke-linecap:butt;stroke-linejoin:round;stroke-miterlimit:4;stroke-opacity:1;stroke-dasharray:24, 24;stroke-dashoffset:0"
       d="m 5.3379196,438.11653 c 0,0 504.1881504,28.5067 789.2307704,-38.39652 238.47551,-55.97331 349.59781,-31.86597 441.26621,26.01729 69.6308,43.9678 90.906,83.15678 119.4911,117.2299 28.5852,34.07312 46.4264,75.18418 63.5989,116.60043 35.0953,84.64183 40.0594,111.83978 40.0594,111.83978 0,0 101.2654,-107.64329 248.7477,-166.23213 130.65,-51.90204 660.8502,-59.53951 660.8502,-59.53951"
       id="path4001"
       inkscape:connector-curvature="0"
       transform="translate(-1782.2408,256.01532)"
       sodipodi:nodetypes="csssscsc" />
    <g
       id="g4116"
       transform="matrix(-0.55621847,0,0,0.55621847,-1497.7878,398.97564)">
      <path
         sodipodi:nodetypes="cssssssscssssssssssccscsssscssssssssssssssscsssssscssscccccc"
         inkscape:connector-curvature="0"
         id="path4098"
         d="m -474.64286,501.29075 c 5.71429,-1.07143 12.85715,-4.64286 13.92857,-10 1.07143,-5.35715 2.85715,-11.78572 2.5,-21.07143 -0.35714,-9.28572 -10,-24.28572 -18.92857,-32.85714 -8.92857,-8.57143 -16.57646,-10.75331 -15,-16.42858 1.78571,-6.42857 8.21429,-17.85714 24.64286,-22.85714 16.28942,-4.95765 61.78571,-12.5 82.85714,-13.21428 21.07143,-0.71429 26.42857,-2.14286 43.57143,0.71428 17.14286,2.85714 22.5,3.57143 22.5,3.57143 0,0 -9.64286,0.35714 -10.71428,1.78571 -1.07143,1.42858 1.42857,1.78572 -0.35715,3.21429 -1.78571,1.42857 -35.71428,3.57143 -41.78571,7.5 -6.07143,3.92857 -20.71429,9.28571 -27.5,14.28571 -6.78572,5 -11.78572,5.71429 -12.5,10.35715 -0.71429,4.64285 10,14.64285 16.42857,23.92857 6.42857,9.28571 14.64286,28.21428 17.5,40 2.85714,11.78571 3.57143,15 7.5,17.5 3.92857,2.5 55.35714,10.71428 60.35714,11.78571 5,1.07143 38.57143,3.21429 46.42857,2.5 7.85715,-0.71428 55.71429,-3.92857 55.71429,-3.92857 l -44.64286,6.07143 c 0,0 40.35715,3.57143 50.35715,5.35714 10,1.78572 10.71428,2.5 10.71428,2.5 0,0 -35,-3.92857 -46.78571,-3.57143 -11.78572,0.35715 -29.28572,2.5 -45.35715,2.14286 -16.07142,-0.35714 -30.35714,0.35714 -43.92857,5 -13.57143,4.64286 -32.85714,9.28572 -38.21428,10 -5.35715,0.71429 -6.07143,0.35714 -6.07143,0.35714 0,0 0.35714,8.21429 -2.14286,13.21429 -2.5,5 -15.35714,24.28571 -18.21428,31.78571 -2.85715,7.5 -5.35715,14.64286 -3.21429,18.21429 2.14286,3.57143 25.35714,32.5 24.64286,34.28571 -0.71429,1.78572 -1.78572,1.78572 -0.71429,2.85715 1.07143,1.07143 15.35714,22.14285 18.57143,26.42857 3.21429,4.28571 2.85714,10 5.35714,12.5 2.5,2.5 10.71429,14.28571 12.14286,16.78571 1.42857,2.5 -1.07143,1.78572 0.35714,3.57143 1.42857,1.78572 12.85715,14.28572 12.85715,16.78572 0,2.5 0.71428,6.07142 3.57142,8.57142 2.85715,2.5 7.85715,5.35715 7.85715,7.5 0,2.14286 -3.21429,2.85715 -1.07143,4.28572 2.14286,1.42857 13.21428,12.5 13.57143,14.64286 0.35714,2.14285 -5,1.42857 -2.14286,3.57142 2.85714,2.14286 11.78571,11.07143 11.78571,11.07143 0,0 -38.21428,-22.5 -51.42857,-33.92857 -13.21428,-11.42857 -66.42857,-67.5 -78.57143,-79.28571 -12.14285,-11.78572 -27.85714,-26.42857 -36.07142,-38.92857 -7.80854,-11.88256 -11.07143,-21.42858 -16.42858,-30.35715 -5.35714,-8.92857 -7.85714,-12.85714 -6.78571,-17.14285 1.07143,-4.28572 10.71429,-12.5 15.71429,-15.71429 5,-3.21429 10,-7.5 10,-7.5 0,0 -15,-1.78571 -23.92858,-3.21429 -8.92857,-1.42857 -14.64285,-5.71428 -25,-4.28571 -10.35714,1.42857 -13.92857,-0.35714 -22.5,3.21429 -8.57142,3.57142 -11.07142,3.57142 -11.07142,3.57142 l 12.5,-16.42857 -18.21429,6.78572 18.92857,-27.5 30.35714,-6.78572 c 9.90948,-0.60587 6.71513,-0.4485 16.07143,-3.21428 z"
         style="fill:#ffffff;stroke:none" />
      <path
         id="path4100"
         d="m -359.53125,524.53125 c -0.14053,0.006 -0.23358,0.0155 -0.3125,0.0312 -1.26269,0.25254 -1.78125,1.5 -1.78125,1.5 0,0 1.25254,1.01602 1,2.53125 -0.25254,1.51523 0.77189,2.27363 4.8125,3.03125 4.04061,0.75761 11.60724,3.04141 13.375,2.03125 1.76777,-1.01015 2.79901,-2.51856 1.03125,-3.78125 -1.76777,-1.26269 -5.30488,-0.51349 -6.0625,-2.28125 -0.66291,-1.5468 -8.69315,-2.91749 -11.53125,-3.0625 -0.20272,-0.0104 -0.39072,-0.006 -0.53125,0 z M -522.4375,531.625 c -0.83637,0.0518 -2.19197,0.29016 -4,1.09375 -3.21429,1.42858 -8.20982,1.41518 -11.78125,2.84375 -3.57142,1.42857 -24.65625,29.65625 -24.65625,29.65625 0,0 17.15625,-16.42857 24.65625,-22.5 7.5,-6.07142 16.78125,-11.0625 16.78125,-11.0625 0,0 -0.12612,-0.0201 -0.34375,-0.0312 -0.16323,-0.008 -0.37746,-0.0173 -0.65625,0 z m -1.15625,4.65625 c 0,0 -10,9.28572 -12.5,12.5 -2.5,3.21429 -16.0625,25.71875 -16.0625,25.71875 l 20.375,-22.5 c 0,0 0.33036,-0.72322 3.1875,-3.9375 2.85714,-3.21429 5,-11.78125 5,-11.78125 z m 185.21875,2.40625 -7.34375,2.53125 L -356.3125,543 c 0,0 4.53283,0.75508 10.59375,0.25 6.06091,-0.50507 7.34375,-4.5625 7.34375,-4.5625 z"
         style="fill:#d45500;stroke:none"
         inkscape:connector-curvature="0" />
      <path
         sodipodi:nodetypes="cssccsssssscccscscc"
         inkscape:connector-curvature="0"
         id="path4105"
         d="m -479.46875,502.54465 c 0,0 -14.28571,1.6116 -21.78571,1.25446 -7.5,-0.35714 -16.05357,0.36161 -19.625,3.21875 -3.57143,2.85715 -6.09375,4.27232 -11.09375,10.34375 -7.72882,10.73162 -3.65718,5.26499 -9.625,21.0625 0,0 1.41518,-0.34375 5.34375,-2.84375 3.92858,-2.5 4.66071,-4.63839 7.875,-6.78125 3.21428,-2.14286 4.26339,-1.07589 6.40625,-3.21875 2.14286,-2.14285 6.08482,-7.85268 9.65625,-9.28125 3.57142,-1.42857 4.29018,-1.08929 5.71875,-2.875 1.42857,-1.78572 2.5,-2.12053 10,-3.90625 7.5,-1.78571 17.12946,-6.97321 17.12946,-6.97321 z m -42.47321,19.25446 c 0.10603,0.006 0.15625,0.0312 0.15625,0.0312 0,0 0.16518,1.78571 -0.90625,2.5 -1.07143,0.71429 -3.1875,0.53125 -3.1875,0.53125 0,0 0.35268,-1.78571 1.78125,-2.5 1.07143,-0.53571 1.83817,-0.57924 2.15625,-0.5625 z"
         style="fill:#000000;stroke:none" />
    </g>
    <g
       id="g4062"
       transform="matrix(0.50959739,0,0,0.50959739,-264.21808,646.86165)">
      <g
         transform="translate(282.84271,-82.832509)"
         id="g4051">
        <path
           style="fill:#ffffff"
           d="m -772.85714,488.79075 c 0,0 68.57142,58.57143 75.71428,63.57143 7.14286,5 96.42857,66.42857 105.71429,70.71429 9.28571,4.28571 42.85714,20 51.42857,19.28571 8.57143,-0.71428 21.42857,-18.57143 27.14286,-25 5.71428,-6.42857 10.71428,-11.42857 15.71428,-7.14285 5,4.28571 13.57143,22.14285 18.57143,27.14285 5,5 12.14286,12.85715 15,21.42857 2.85714,8.57143 7.14286,9.28572 11.42857,14.28572 4.28572,5 15,-12.85714 15,-12.85714 l -1.42857,-38.57143 c 0,0 2.14286,-5.71429 0,-14.28572 -2.14286,-8.57143 -5,-20 -5,-20 0,0 8.57143,7.85714 13.57143,5.71429 5,-2.14286 13.57143,-32.85715 18.57143,-82.85715 5,-50 22.85714,-204.28571 22.85714,-204.28571 -4.7619,18.94693 -6.99843,26.56081 -12.77048,40.80094 -2.02031,-0.50508 -2.94596,-11.61977 -3.95395,-7.56127 -3.57401,14.39018 -4.82669,21.76033 -4.82669,21.76033 0,0 -3.32569,-10.84309 -6.30602,-5 0,0 -2.89287,24.10708 -5,32.85714 0,0 -4.04345,-14.6606 -5,-3.57143 -1.50812,17.48356 -8.60733,62.47462 -12.85714,94.28572 -2.66964,18.23674 0.70481,19.61227 -7.85715,26.42857 0,0 -12.14285,-15.71428 -17.85714,-15.71428 -7.92896,0 -4.60916,10.6064 -8.57143,9.99999 -3.96227,-0.60641 -3.62649,-6.43386 -4.28571,-10 -7.70982,-41.70709 5,-127.14285 5,-127.14285 l -3.57143,22.85714 -3.57143,5.71429 -2.85714,-2.85715 -4.28572,22.14286 c 0,0 -1.42857,-7.14286 -3.57143,-5.71429 -2.14285,1.42858 -7.14285,9.28572 -7.14285,9.28572 0,0 -1.42857,10 -4.28572,11.42857 -2.85714,1.42857 -7.85714,5 -7.85714,5 l -2.14286,6.42857 -6.42857,-6.42857 -9.28571,1.42857 c 0,0 -5,7.14286 -4.28572,10 0.71429,2.85714 -17.14285,-10.71428 -17.14285,-10.71428 L -555,433.79075 c 0,0 -9.28571,-5.71428 -12.14286,-5 -2.85714,0.71429 1.42857,8.57143 1.42857,8.57143 0,0 -15,-7.85714 -18.57142,-7.85714 -3.57143,0 -26.42858,-14.28572 -26.42858,-14.28572 l 84.28572,91.42858 2.85714,7.85714 c 0,0 -3.9059,6.42521 -7.14286,7.85714 -3.04838,1.34851 -6.78378,-0.8758 -10,0 -4.53098,1.23383 -8.67033,3.98157 -12.14285,7.14286 -3.90925,3.55888 -9.28572,12.85714 -9.28572,12.85714 0,0 -7.14285,5 -10,10 -2.85714,5 -7.85714,11.42857 -17.85714,8.57143 -10,-2.85714 -60,-30 -60,-30 0,0 -40.49021,-16.76033 -48.57143,-19.28571 -4.54569,-2.02031 -1.42857,4.28571 -1.42857,4.28571 0,0 -10.64341,-5.98638 -20,-10.71429 -1.5324,-0.77433 -2.85714,4.28572 -2.85714,4.28572 0,0 -10.69942,-6.88288 -19.28572,-11.42857 -4.04061,-0.50508 2.40283,2.14285 -2.64794,2.64793 z"
           id="path4042"
           inkscape:connector-curvature="0"
           sodipodi:nodetypes="cssssssssccscssccscscsccszscccccscsccccsccscscccssscsscccscccc" />
        <path
           inkscape:connector-curvature="0"
           style="fill:#000000;stroke:none"
           d="m -461.8125,607.96875 c -0.78197,-0.0124 -1.1875,0.4375 -1.03125,1.53125 0.71429,5 -0.0179,5.70982 -2.875,4.28125 -2.85714,-1.42857 0.71429,4.30804 0,8.59375 -0.85489,5.12933 1.4375,4.28125 1.4375,4.28125 L -462.84375,637 c 0,0 2.13839,16.08036 4.28125,23.9375 2.14286,7.85715 2.14286,6.4241 5,9.28125 2.85714,2.85714 8.5625,15.71875 8.5625,15.71875 l 5,4.28125 1.78125,-3.21875 c 0,0 2.50892,-3.92857 3.9375,-7.5 1.42857,-3.57143 7.51991,-10.70337 6.78125,-17.84375 -1.07143,-10.35715 -5.34375,-22.875 -5.34375,-22.875 0,0 -0.0268,-2.83482 -4.3125,-11.40625 -4.28571,-8.57142 -8.5625,-10.375 -8.5625,-10.375 0,0 -0.69642,6.42411 -4.625,-0.71875 -1.34463,-2.44479 -8.676,-8.2682 -11.46875,-8.3125 z M -455,660.9375 c 0,0 2.14733,-0.0179 3.21875,2.125 1.07143,2.14285 -0.71875,4.3125 -0.71875,4.3125 l -2.5,-6.4375 z"
           id="path4044" />
        <path
           style="fill:#ff6600;stroke:none"
           d="m -448.92857,677.36218 c 0,0 6.78571,15.71428 7.14285,23.57143 0.35715,7.85714 3.21429,39.28571 3.21429,39.28571 L -435,681.64789 c 0,0 -2.5,-1.78571 -3.92857,0 -1.42858,1.78572 -3.21429,1.42857 -5.71429,-1.42857 -2.5,-2.85714 -4.28571,-2.85714 -4.28571,-2.85714 z"
           id="path4046"
           inkscape:connector-curvature="0" />
      </g>
    </g>
    <g
       id="g4056"
       transform="matrix(-0.46385858,0,0,0.46385858,772.80166,544.51909)">
      <path
         sodipodi:nodetypes="sccscssscssssccscsssccsssssssssscsssscscssssccssccccccsssssscssssssssssssssssssssssscssssssssccsssssssssssssssssssssssssssscsssscscssscssssssssssccssssssssssssssscccsscsssssscssssssscsscsscssssssssssss"
         inkscape:connector-curvature="0"
         id="path3109"
         d="m 472.52546,643.18931 c -6.875,-1.86733 -12.725,-3.46688 -13,-3.55454 -0.275,-0.0877 -0.95,-0.28692 -1.5,-0.4428 -0.55,-0.15589 -5.52515,-1.69299 -11.05588,-3.41579 -5.53073,-1.7228 -10.75063,-2.86576 -11.59977,-2.53992 -0.84913,0.32585 -4.87399,-0.70161 -8.94412,-2.28323 -4.07012,-1.58162 -10.32523,-3.67697 -13.90023,-4.65635 -3.575,-0.97937 -8.69751,-2.63251 -11.38335,-3.67366 -2.68585,-1.04114 -5.61085,-1.91274 -6.5,-1.93688 -0.88916,-0.0241 -3.41665,-0.72613 -5.61665,-1.55997 -2.2,-0.83384 -5.51107,-1.75734 -7.35794,-2.05223 -1.84687,-0.29489 -4.99687,-1.24747 -7,-2.11684 -4.61363,-2.00235 -7.92777,-3.35711 -7.92777,-2.21002 0,1.48339 -2.18544,-0.38693 -5.27923,0.28552 -12.16281,1.30524 -3.52588,4.2345 -6.07792,4.89186 -2.38281,0.33072 -3.75111,1.71436 -8.85714,-0.23568 -11.84397,-4.52331 -22.15732,-7.41864 -26.5,-7.43952 -2.2,-0.0106 -4.64088,-0.43173 -5.42418,-0.9359 -0.7833,-0.50416 -3.3708,-0.91666 -5.75,-0.91666 -2.3792,0 -4.32582,-0.31875 -4.32582,-0.70834 0,-0.65323 -2.56063,-1.00908 -7.46919,-1.038 -1.08305,-0.006 -2.20805,-0.39602 -2.5,-0.86586 -0.29194,-0.46984 -2.24797,-1.12657 -4.34672,-1.45939 -2.09875,-0.33283 -5.78656,-1.50288 -8.19513,-2.60011 -2.40858,-1.09723 -4.75379,-1.99497 -5.21159,-1.99497 -0.4578,0 -1.94075,-0.77635 -3.29545,-1.72522 -1.35471,-0.94887 -3.36734,-1.85411 -4.47251,-2.01164 -1.10518,-0.15753 -2.68441,-0.56405 -3.50941,-0.90337 -0.825,-0.33933 -2.4,-0.727 -3.5,-0.86149 -2.34961,-0.28727 -11.33721,-3.6055 -13.5,-4.98422 -0.825,-0.52591 -2.22615,-1.06953 -3.11368,-1.20805 -3.21908,-0.50241 -6.88632,-2.28124 -6.88632,-3.34028 0,-0.59607 -0.34196,-0.87242 -0.75991,-0.61412 -1.16137,0.71777 -7.24009,-2.10523 -7.24009,-3.36235 0,-0.60901 -0.35941,-0.88516 -0.7987,-0.61367 -0.43928,0.27149 -2.57678,-0.57022 -4.75,-1.87047 -2.17321,-1.30025 -5.96056,-3.31332 -8.41631,-4.47349 -2.45576,-1.16016 -4.70576,-2.42939 -5,-2.82051 -0.29425,-0.39112 -3.45999,-2.22682 -7.03499,-4.07935 -21.88262,-11.33934 -27.5268,-14.22352 -27.75,-14.18024 -2.59834,0.50378 -10.25,-5.46293 -10.25,-7.99288 0,-0.59218 -0.41891,-0.81779 -0.9309,-0.50136 -0.512,0.31644 -1.22242,0.10365 -1.57872,-0.47286 -1.41769,-2.29386 -9.48379,-5.21305 -12.74585,-4.61282 -1.78449,0.32835 -4.42937,0.80102 -5.8775,1.05038 -7.30546,0.0453 -4.62573,0.21863 9.956,-10.86867 2.20309,-0.69653 1.22524,2.19918 0.62572,-1.5998 -0.32871,-2.08296 -2.69622,-2.80246 -7.70246,-2.38551 -3.30283,0.27509 -2.09155,-0.0143 -7.26858,0.62675 -11.80606,0.80456 -15.94465,0.81039 3.37904,-12.27689 7.73148,-6.01794 13.16639,-9.26517 13.92815,-8.79437 0.95345,-0.98492 3.44236,-2.00381 5.4651,-2.07202 6.60714,-0.97491 8.21697,-1.12049 12.39286,-0.82066 4.82152,-0.23173 2.12053,-0.18906 10.15239,-1.02933 3.49046,-0.71561 1.70475,-1.78704 -0.65684,-3.74426 -1.29888,-1.07648 -2.95423,-2.51973 -3.67857,-3.20723 -0.72434,-0.6875 -1.78329,-1.25 -2.35323,-1.25 -0.56993,0 -1.51551,-0.89552 -2.10128,-1.99005 -0.58578,-1.09452 -1.38911,-1.89445 -1.78519,-1.77761 -2.01436,0.5942 -14.22014,-9.57886 -14.22014,-11.85195 0,-0.66755 -0.3375,-1.36372 -0.75,-1.54706 -1.64037,-0.72905 -6.4536,-8.0837 -6.68803,-10.21937 -0.13719,-1.24972 -1.22085,-3.5866 -2.40814,-5.19309 -2.39239,-3.23705 -1.81555,-7.9272 1.41384,-11.49565 0.89554,-0.98956 1.3653,-2.22466 1.04392,-2.74467 -1.25969,-2.03821 5.51844,-8.92332 11.88841,-12.07607 9.52334,-4.71347 10.67025,-4.94815 23.33122,-4.77405 10.96876,0.15083 12.48906,0.38552 13.75978,2.12408 1.22328,1.67365 1.22774,2.15532 0.031,3.35204 -1.18169,1.18169 -1.18858,1.80029 -0.0446,4.00526 1.14928,2.21524 1.13647,2.84689 -0.0851,4.19674 -1.25971,1.39197 -1.20504,1.75695 0.44088,2.94326 1.23687,0.89149 1.72857,2.18336 1.43894,3.78059 -0.31151,1.71788 0.27264,2.98689 2.00058,4.34609 1.63974,1.28982 2.26902,2.57572 1.91778,3.91886 -0.28753,1.09951 0.2045,3.10908 1.09339,4.4657 0.88889,1.35662 1.61617,2.97394 1.61617,3.59404 0,0.6201 0.9,2.27162 2,3.67004 1.1,1.39842 2,3.32036 2,4.27098 0,3.39832 11.98588,19.88394 17.82348,24.51477 3.12209,2.47668 6.22003,4.94947 6.88431,5.49509 2.91074,2.39076 3.52409,1.5055 9.01257,-13.00797 1.35194,-3.575 2.47926,-7.175 2.50516,-8 0.0259,-0.825 0.44352,-2.00546 0.92804,-2.62325 0.48452,-0.61779 0.60004,-1.85529 0.2567,-2.75 -0.34337,-0.89471 -0.20795,-1.62675 0.30089,-1.62675 0.50885,0 1.01962,-1.2375 1.13506,-2.75 0.11544,-1.5125 0.59207,-7.025 1.05918,-12.25 0.4864,-5.44078 0.4635,-12.70465 -0.0536,-17 -1.10191,-9.15327 -0.9417,-28.09063 0.27492,-32.49688 1.09876,-3.97937 11.19637,-20.36433 14.0207,-22.75078 1.21152,-1.02369 1.82125,-2.39151 1.47189,-3.30193 -0.32804,-0.85486 -0.18762,-1.30163 0.31204,-0.99282 1.22794,0.75891 5.20791,-4.42319 4.40049,-5.72964 -0.35249,-0.57033 -0.18319,-0.75409 0.37623,-0.40836 0.55941,0.34574 3.80536,-3.16034 7.21321,-7.79128 9.59987,-13.04532 29.69394,-31.91845 40.04233,-37.60931 3.10666,-1.70844 7.96813,-5.51212 13.63601,-10.669 1.96463,-1.7875 3.98342,-3.25 4.4862,-3.25 0.50278,0 0.91415,-0.34577 0.91415,-0.76838 0,-0.42261 1.07485,-1.43511 2.38856,-2.25 2.20235,-1.36611 6.84711,-5.1951 14.91459,-12.29509 1.75827,-1.5474 4.98441,-4.0224 7.16921,-5.5 2.18479,-1.47759 4.68256,-3.36153 5.55058,-4.18653 0.86803,-0.825 3.08924,-2.625 4.93601,-4 1.84677,-1.375 3.92937,-3.0625 4.62798,-3.75 0.69862,-0.6875 1.56968,-1.25 1.9357,-1.25 0.36601,0 3.26985,-1.98064 6.45297,-4.40142 3.18312,-2.42078 6.82495,-4.95665 8.09296,-5.63527 1.26801,-0.67862 2.78381,-1.6162 3.36845,-2.08351 0.58465,-0.46731 2.47795,-1.98143 4.20735,-3.36473 1.72939,-1.38329 3.49802,-2.51507 3.93028,-2.51507 0.43226,0 3.5173,-1.72039 6.85564,-3.82309 17.45982,-10.99729 36.13989,-20.37442 49.06972,-24.63229 4.4,-1.44895 8.9,-3.0567 10,-3.57278 1.1,-0.51608 3.8,-1.05837 6,-1.20508 5.25271,-0.3503 6.1722,2.81423 1.6021,5.51386 -4.32494,2.5548 -7.57594,5.34682 -15.52325,13.33164 -13.63849,13.70287 -16.85845,17.42941 -17.12017,19.81357 -0.38701,3.52562 -1.47429,5.08912 -8.64562,12.43233 -3.56751,3.65301 -7.32271,7.93438 -8.34488,9.51416 -1.85849,2.87232 -1.85849,2.87232 1.08666,2.25177 5.76589,-1.21487 5.54547,0.63746 -0.87919,7.38843 -3.39564,3.56812 -6.54524,6.36383 -6.9991,6.2127 -0.45387,-0.15112 -0.55688,0.1594 -0.22891,0.69006 0.32796,0.53065 -0.10042,1.5543 -0.95197,2.27477 -5.24788,4.44011 -15.03639,15.15455 -16.0011,17.51471 -0.62841,1.53738 -1.55926,2.68274 -2.06856,2.54524 -0.50931,-0.1375 -0.93146,0.0875 -0.93812,0.5 -0.0192,1.18723 -6.56356,10.4546 -9.66743,13.68984 -1.55125,1.61691 -2.82108,3.64191 -2.82184,4.5 -7.7e-4,0.85809 -1.80731,3.58516 -4.01454,6.06016 -2.20723,2.475 -4.56646,5.7375 -5.24273,7.25 -0.67626,1.5125 -2.01972,2.75 -2.98546,2.75 -1.00398,0 -1.75772,0.74939 -1.76017,1.75 -0.002,0.9625 -1.23986,3.59146 -2.75,5.84212 -2.39965,3.57636 -4.50227,5.76854 -10.09045,10.52026 -0.76861,0.65357 -1.16593,2.36164 -0.92739,3.9869 0.41822,2.84955 -3.09889,8.02439 -6.14363,9.0393 -0.71318,0.23773 -1.40159,1.7663 -1.5298,3.39683 -0.1282,1.63052 -0.5304,3.75209 -0.89377,4.71459 -1.42619,3.77768 -1.53829,4.70761 -0.63478,5.26601 0.5162,0.31903 -0.20195,2.38672 -1.59589,4.59486 -1.39394,2.20814 -2.43753,4.77403 -2.31909,5.70197 0.36295,2.8435 -1.27554,9.20345 -2.22057,8.61939 -0.48969,-0.30264 -0.95889,0.48879 -1.04266,1.75875 -0.0838,1.26996 -0.2012,2.86268 -0.26094,3.53937 -0.0597,0.6767 -1.0037,2.23894 -2.09769,3.47165 -4.65811,5.24881 -5.31464,6.92691 -4.8634,12.43091 0.242,2.9519 0.0877,5.36709 -0.34282,5.36709 -0.43056,0 -0.81982,1.4625 -0.86501,3.25 -0.0452,1.7875 -0.63969,7.075 -1.32111,11.75 -0.68142,4.675 -1.41416,10.525 -1.62831,13 -0.74723,8.63615 -2.67682,23.51157 -3.24291,25 -0.31377,0.825 -0.68904,2.48822 -0.83394,3.69604 -0.14489,1.20783 -0.74227,3.09075 -1.3275,4.18426 -0.58523,1.09352 -1.06406,3.11624 -1.06406,4.49494 0,1.3787 -0.45,2.78484 -1,3.12476 -1.87558,1.15917 -0.95096,7.98811 2.02705,14.97115 1.63512,3.83414 2.97295,7.89651 2.97295,9.0275 0,1.13099 0.60872,2.94397 1.35271,4.02884 0.74399,1.08488 1.34399,4.11001 1.33334,6.72251 -0.0189,4.6267 -0.0994,4.75104 -3.10272,4.79004 -3.08333,0.04 -3.08333,0.04 -0.58333,1.40095 1.375,0.7485 2.86915,1.29298 3.32034,1.20996 0.45119,-0.083 1.2353,0.59055 1.74248,1.49682 0.50718,0.90627 3.51302,3.35162 6.67966,5.43411 3.16664,2.08249 5.98252,4.0842 6.25752,4.44826 0.275,0.36405 1.74895,0.96765 3.27544,1.34132 1.52649,0.37368 3.66399,1.56797 4.75,2.65398 1.08601,1.08601 1.97456,1.69781 1.97456,1.35955 0,-0.33826 1.08663,0.097 2.41472,0.96718 4.2934,2.81314 10.97494,6.63713 15.58528,8.9198 2.475,1.22542 4.65093,2.56833 4.83541,2.98426 0.18448,0.41593 0.74698,0.50187 1.25,0.19098 0.50302,-0.31088 0.91459,-0.0621 0.91459,0.55279 0,0.61492 0.45,0.83992 1,0.5 0.55,-0.33992 1,-0.11492 1,0.5 0,0.61492 0.41909,0.85902 0.93132,0.54245 0.85118,-0.52606 7.89282,2.20355 9.06868,3.51536 0.275,0.30679 3.2,1.48446 6.5,2.61704 9.26981,3.18144 12.93419,4.73558 13.73469,5.82515 0.48979,0.66667 0.74489,0.66667 0.76531,0 0.0204,-0.66667 0.27552,-0.66667 0.76531,0 0.40408,0.55 2.75969,1.75412 5.23469,2.67583 9.75929,3.63443 11.51852,4.34304 12,4.83354 0.275,0.28016 3.2,1.59589 6.5,2.92385 3.3,1.32797 6.33061,2.89875 6.73469,3.49063 0.40408,0.59188 0.74158,0.68355 0.75,0.20371 0.008,-0.47985 0.60132,-0.3861 1.31756,0.20832 0.71623,0.59442 5.31939,2.49865 10.22924,4.23161 10.16847,3.58902 29.73442,11.99993 29.18742,12.54693 -0.20009,0.20009 -5.9562,-1.94663 -12.79135,-4.77049 -20.0979,-8.30319 -30.79911,-11.827 -33.20916,-10.93546 -1.17163,0.43341 -3.72507,0.37639 -5.67432,-0.12671 -15.09662,-3.89647 -17.04408,-4.22054 -17.04408,-2.83624 0,0.64488 0.36045,0.94974 0.80101,0.67746 0.78601,-0.48578 13.73818,5.03674 16.36285,6.97676 1.58227,1.16952 11.23196,4.57349 14.23458,5.0213 2.82271,0.42098 27.57963,7.32568 30.10156,8.39533 4.68058,1.9852 -2.32527,0.74972 -14.5,-2.55709 z"
         style="fill:#ffffff;fill-opacity:1" />
      <path
         id="path3911"
         d="m 136.28125,520.09375 c -2.11979,0.1301 -6.85439,2.5261 -21.25,10.15625 -11.58887,6.14248 -21.0625,11.36116 -21.0625,11.59375 0,1.0692 3.137973,-0.0537 18.75,-6.65625 11.48403,-4.85678 19.30491,-8.43188 25.1875,-8.5625 11.96559,-0.26569 13.40756,-1.44644 7.0625,-4.1875 -2.8746,-1.24182 -6.22409,-0.97188 -7.1875,-1.84375 -0.38514,-0.34855 -0.7934,-0.54337 -1.5,-0.5 z m 22.4375,8.15625 c -2.02116,0.0152 -28.58038,11.72978 -31.8125,14.03125 -1.6277,1.15903 -2.9375,2.58486 -2.9375,3.15625 0,0.59311 0.75092,0.71766 1.75,0.3125 6.35203,-2.57595 13.36456,-4.75702 17.21875,-5.34375 3.46653,-0.52772 4.77506,-1.24981 5.71875,-3.21875 0.71662,-1.49517 3.33042,-3.52416 6.28125,-4.90625 4.79879,-2.24764 6.47599,-4.05155 3.78125,-4.03125 z m 180.96875,67.84375 c -1.3079,0.0314 -2.39732,0.41964 -2.53125,1.625 -0.35714,3.21428 21.0625,13.5625 21.0625,13.5625 0,0 5.34822,3.93303 8.5625,3.21875 3.21429,-0.71429 3.57143,0.004 2.5,-4.28125 C 368.20983,605.93304 344.65625,597 344.65625,597 c 0,0 -2.78892,-0.95857 -4.96875,-0.90625 z m -6.46875,16.96875 c 0,0 9.27679,5.36607 18.5625,6.4375 9.28572,1.07143 12.50892,1.0625 11.4375,-1.4375 -1.07143,-2.5 -7.15625,-5 -7.15625,-5 -6.54721,0.23111 -16.29348,-10e-6 -22.84375,0 z"
         style="fill:#e66009;fill-opacity:1"
         inkscape:connector-curvature="0" />
      <path
         id="path3943"
         d="m 174.03125,500.8125 c -5.66638,0.009 -10.79393,1.02113 -15.34375,3.0625 -3.70981,1.66447 -9.03978,4.67353 -11.84375,6.6875 -2.80397,2.01398 -5.24493,4.49004 -5.4375,4.625 -0.19258,0.13497 -0.05,0.007 0.3125,0.59375 0.94072,1.52206 28.18101,1.46492 29.125,-0.0625 0.51159,-0.82776 5.13523,-0.98751 16.5625,-0.5625 8.72177,0.32451 19.07093,0.3294 23,0 7.14378,-0.59891 7.13398,-0.6055 1.71875,-3.34375 -14.50205,-7.33308 -27.27611,-11.01715 -38.09375,-11 z m -7.34375,11.375 c 1.01015,0 2.75,1.25 2.75,1.25 l -5.03125,0.25 c 0,0 1.2711,-1.5 2.28125,-1.5 z"
         style="fill:#000000"
         inkscape:connector-curvature="0" />
      <path
         sodipodi:nodetypes="csssssssssssscsscc"
         inkscape:connector-curvature="0"
         id="path3985"
         d="m 126.95574,620.45692 c -5.83903,-9.86839 -5.15216,-9.81399 -6.39116,-4.8358 -0.99349,3.99172 -1.31057,5.00849 -1.31057,5.00849 -0.63827,-1.1446 -2.62926,-7.79916 -3.79682,-11.80039 -1.16757,-4.00122 -5.51937,-14.96915 -9.67067,-24.37318 -4.59332,-10.40536 -9.352578,-20.07816 -9.119512,-24.9393 0.448585,-9.3563 -0.561567,-5.31569 1.4244,-12.8137 0.81753,-3.08658 4.513702,-6.18953 6.368522,-7.67687 4.3824,-3.51411 15.55771,-8.17802 23.33113,-9.737 6.14588,-1.23258 6.14588,-1.23258 7.93862,1.30961 1.70767,2.42154 1.44193,6.71098 -0.48879,7.88957 -11.67337,7.12601 -11.1564,6.21898 -13.15594,23.0824 -2.55074,21.51203 -2.24242,28.03167 1.99926,42.27638 4.97775,16.7166 6.13368,21.02061 9.75037,21.28342 2.96773,0.90026 3.14198,1.04952 3.14198,1.04952 -1.01494,0.0184 -4.35049,-0.42502 -5.6232,-1.39876 -2.20394,-1.68622 -3.35018,-2.94544 -4.39765,-4.32439 z"
         style="fill:#800000;fill-opacity:1" />
    </g>
    <path
       sodipodi:nodetypes="cssssccccccc"
       inkscape:connector-curvature="0"
       id="path3985-0"
       d="m -353.96453,1037.7218 c 1.57966,1.1017 3.10022,2.553 0.26966,4.4226 -2.19355,1.4489 -6.62508,1.9161 -6.62508,1.9161 0.74806,0.3768 11.31897,0.3626 13.90539,1.0001 2.58628,0.6378 8.15996,3.3323 14.27646,5.7296 6.76773,2.6525 11.97068,3.4927 15.06827,3.213 6.47417,-0.812 7.55165,-0.8648 15.09928,-2.8572 8.639,-2.0455 7.23964,-7.2907 1.86766,-11.2907 -6.80329,-3.6554 -13.93183,-1.044 -20.69459,0.02 -14.13927,3.3819 -12.80209,2.9742 -24.05791,1.4365 -8.91159,-4.7034 -5.84494,-4.1853 -14.82167,-7.6971 3.02464,1.3618 4.80376,3.4762 5.71253,4.1078 z"
       style="fill:#800000;fill-opacity:1" />
  </g>
</svg>
