/* XPM */
static char * guide_xpm[] = {
"6 10 2 1",
" 	c None",
".	c #ADA5C6",
"   .  ",
"   .  ",
"   .  ",
"   .  ",
"   .  ",
"   .  ",
"   .  ",
"   .  ",
"   .  ",
"   .  "};
