/* XPM */ 
static char * ecbclose_xpm[] = {
"16 10 35 1",
" 	c None",
"!	c black",
"#	c white",
"$	c #7898B5",
"%	c #FCFCFB",
"&	c #FDFDFB",
"'	c #040404",
"(	c #FCFCFA",
")	c #F7F6F3",
"*	c #F7F7F5",
"+	c #F7F7F4",
",	c #F6F6F4",
"-	c #F1F0EB",
".	c #E5E1DA",
"0	c #A5A5C6",
"1	c #F5F5F1",
"2	c #DFDBD2",
"3	c #F2F2EE",
"4	c #F0F0EC",
"5	c #EDEDE7",
"6	c #EAE9E3",
"7	c #E3E0D9",
"8	c #DBD6CC",
"9	c #E4E1D9",
":	c #DCD8CF",
";	c #D8D3C9",
"<	c #D6D1C6",
"=	c #D2CCC0",
">	c #CFC8BB",
"?	c #D2CCBF",
"@	c #C6BEAE",
"A	c #C2B8A8",
"B	c #C1B8A7",
"C	c #C0B7A6",
"D	c #C3BAAA",
" #$$$$$$$#      ",
" $#######$      ",
" $%&&'%()$      ",
" $**+',-.$      ",
"0$1'''''2$      ",
" $345'678$      ",
" $9:;'<=>$      ",
" $?@ABBCD$      ",
" #$$$$$$$#      ",
"                "};