/* XPM */ 
static char * ecbhandle_xpm[] = {
"8 16 3 1",
" 	c None",
"!	c black",
"#	c #ADA5C6",
"        ",
"        ",
"        ",
"        ",
"        ",
"        ",
"        ",
"        ",
"########",
"        ",
"        ",
"        ",
"        ",
"        ",
"        ",
"        "};