/* XPM */
static char * access_xpm[] = {
"16 16 7 1",
" 	c None",
".	c #9E799A69FFFF",
"X	c #000000000000",
"o	c #FFFFEBADD75C",
"O	c #EFBEFFFFC71B",
"R	c #FFFF00000000",
"+	c #FFFFFFFFFFFF",
"                ",
"  ........X     ",
"  .oooooooX     ",
"  .o.........   ",
"  .o.OOOOOOOX   ",
"  .o.O......... ",
"  .o.O.+++++++X ",
"  .o.O.+++++++X ",
"  .o.O.+.+..++X ",
"  .o.O.+++++++X ",
"  XX.O.+X+X.++X ",
"    .O.+++++XXX ",
"    XX.+++++X+X ",
" RR RR.RR+++XX  ",
" RR RRXRRXXXX   ",
"                "};
