/* XPM */
static char * lha_xpm[] = {
"16 16 9 1",
" 	c None",
".	c #61856595CF3C",
"X	c #E79DE79DE79D",
"o	c #BEFBBEFBBEFB",
"O	c #000000000000",
"+	c #08200C300820",
"@	c #965896589658",
"#	c #C71BC30BC71B",
"$	c #FFFFEBAD79E7",
"                ",
"         ...    ",
"         ...    ",
"        .....   ",
"   XXXXX ...    ",
"  XoooooX .     ",
" XooooOoXOXXOX+ ",
" XoooOOoOOoOO@+ ",
" X#oO$OO$OO$O@O ",
" X#O$$O$$O$$O@O ",
" X#O$$O$$O$$O@O ",
" X#O$$O$$O$$O@O ",
" X#O$OO$OO$Oo@O ",
" X@OO@OO@OO@@@O ",
" OOOOOOOOOOOOOO ",
"                "};
