/* XPM */
static char * draft_xpm[] = {
"16 16 6 1",
" 	c None",
".	c #000000000000",
"X	c #EFBEFFFFC71B",
"o	c #FFFFFFFFFFFF",
"O	c #59656595C71B",
"+	c #79E7B2CAF7DE",
"                ",
" ...........  ..",
"  .XXXXXXXXX. ..",
"  .XXXXXXXXX..o.",
"   .XXXXXXX.ooo.",
"   .XXXXXX.oooo.",
"  .......X.oooo.",
"  .OOOOO.X.ooo. ",
"  ........oo.o. ",
"   .+++.X.oo.o. ",
"  .+o+++..oo.o. ",
" .+o+++++.o.oo. ",
" .OoOOOOO...o.X.",
" .OoOOOOO.X..XX.",
" .OOOOOOO.X.XXX.",
"  .......X..... "};
