/* XPM */
static char * file_xpm[] = {
"16 16 5 1",
" 	c None",
".	c #000000",
"+	c #FFFFFF",
"@	c #CFD3CF",
"#	c #303030",
"                ",
"                ",
"  .........     ",
"  .++++++.+.    ",
"  .++++++.++.   ",
"  .++++++....@  ",
"  .++++++@@@.@  ",
"  .+++++++++.@  ",
"  .+++++++++.@  ",
"  .+++++++++.@  ",
"  #+++++++++#@  ",
"  #+++++++++#@  ",
"  #+++++++++#@  ",
"  ###########@  ",
"   @@@@@@@@@@@  ",
"                "};
