/* XPM */
static char * filter_xpm[] = {
"16 16 15 1",
" 	c None",
".	c #CF3CCF3CCF3C",
"X	c #E79DE79DE79D",
"o	c #CF3CEFBEFFFF",
"O	c #FFFF79E7A699",
"+	c #FFFF34D371C6",
"@	c #000000000000",
"#	c #BEFBE79DF7DE",
"$	c #B6DADF7DF7DE",
"%	c #AEBAD75CEFBE",
"&	c #9E79A2899E79",
"*	c #A699CF3CEFBE",
"=	c #965892488617",
"-	c #618565956185",
";	c #9E79C71BE79D",
"                ",
"        ..XX    ",
"       .ooooX   ",
"      .oOOO+o.  ",
"     .oO+ooO+o.@",
"     .####O+##.@",
"     X$$$O+$$$.@",
"     X%%%%%%%%.@",
"     &X**O+**.=@",
"      -X;;;;.=@ ",
"     --&X...=@  ",
"    --&@&&&&@   ",
"   --&@ @@@@    ",
"  --&@          ",
"  &&@           ",
"  @@            "};
