/* XPM */
static char * jmail_xpm[] = {
"18 13 4 1",
" 	s None c None",
".	c gray85",
"X	c yellow",
"o	c black",
"                  ",
"                  ",
"   .XXXXXXXXXXX.  ",
"   XoXXXXXXXXXoXoo",
"   XXoXXXXXXXoXXoo",
"   XXXoXXXXXoXXXoo",
"   XXX.oXXXo.XXXoo",
"   XXXo.oXo.oXXXoo",
"   XXoXXXoXXXoXXoo",
"   XoXXXXXXXXXoXoo",
"   .XXXXXXXXXXX.oo",
"     ooooooooooooo",
"     ooooooooooooo"};
