/* XPM */
static char * maildir_xpm[] = {
"16 16 7 1",
" 	c None",
".	c #000000000000",
"X	c #FFFFFFFFFFFF",
"o	c #CF3CD34CCF3C",
"O	c #DF7DD75C79E7",
"+	c #BEFBB2CA69A6",
"@	c #A6999E795965",
"                ",
"                ",
"  .........     ",
"  .XXXXXX.X.    ",
"  .XXXXXX.XX.   ",
"  .XXXXXX....o  ",
"  .XXXXXXooo.o  ",
"  .XXXXXXXXX.o  ",
"  .XXXXXXXXX.o  ",
"  .XXXXXXXXX.o  ",
" OOOOOOOOOOO+++ ",
" O++++++++++@@@ ",
" O++++++++++@@@ ",
" O++++++++++@@@ ",
" .............. ",
"                "};
