/* XPM */
static char * opened_xpm[] = {
"16 16 5 1",
" 	c None",
".	c #000000000000",
"X	c #9E798E3869A6",
"o	c #FFFFE38DB6DA",
"O	c #CF3CBAEA9658",
"                ",
"                ",
"   ....         ",
"  .XXXX.        ",
"  ....XX....... ",
" .oooo.XXXXXXXX.",
".oOOOOo......XX.",
".oOOOOOoooooo.X.",
" .oOOOOOOOOOO.X.",
" .oOOOOOOOOOOO..",
" .oOOOOOOOOOOO..",
"  .oOOOOOOOOOOO.",
"  .oOOOOOOOOOOO.",
"   ............ ",
"                ",
"                "};
