/* XPM */
static char * queue_xpm[] = {
"16 16 8 1",
" 	c None",
".	c #69A68E38EFBE",
"X	c #000000000000",
"o	c #FFFFFFFFFFFF",
"O	c #CF3CD34CCF3C",
"+	c #E79DCB2B9E79",
"@	c #CF3CBAEA9658",
"#	c #9E798E3869A6",
"      .         ",
"     ...        ",
"    .....       ",
"   .......      ",
"     ...        ",
"   XX...XXX     ",
"   Xo...oXoX    ",
"   Xo...oXXXO   ",
"   XoooooOOXO   ",
"   XoooooooXO   ",
"   XoooooooXO   ",
"   XoooooooXO   ",
" +++++++++++@@  ",
" +@@@@@@@@@@##  ",
" +@@@@@@@@@@##  ",
" XXXXXXXXXXXXX  "};
