/* XPM */
static char * trash_xpm[] = {
"16 16 5 1",
" 	c None",
".	c #000000000000",
"X	c #BEFBBEFBBEFB",
"o	c #E79DE79DE79D",
"O	c #71C671C671C6",
"                ",
"    .......     ",
"   .XXXXXXX.    ",
"  .XXXXXXXXX.   ",
"  ..XXXXXXX..   ",
"  .o.......O.   ",
"  .oXoXXXOXO.   ",
"  .oXoXXXOXO.   ",
"  .oXoXXXOXO.   ",
"  .oXoXXXOXO.   ",
"  .oXoXXXOXO.   ",
"  .oXoXXXOXO.   ",
"  .oXoXXXOXO.   ",
"   .XoXXXOX.    ",
"    .......     ",
"                "};
