/* XPM */
static char * trash_xpm[] = {
"16 16 6 1",
" 	c None",
".	c #000000000000",
"X	c #BEFBBEFBBEFB",
"o	c #F7DEF7DEF7DE",
"O	c #E79DE79DE79D",
"+	c #71C671C671C6",
"   ......       ",
"  .XXXXXX..     ",
"   .XXXXXXX.    ",
"  .o.....XXX.   ",
"  ..ooooo....   ",
"  .O.......+.   ",
"  .OXOXXX+X+.   ",
"  .OXOXXX+X+.   ",
"  .OXOXXX+X+.   ",
"  .OXOXXX+X+.   ",
"  .OXOXXX+X+.   ",
"  .OXOXXX+X+.   ",
"  .OXOXXX+X+.   ",
"   .XOXXX+X.    ",
"    .......     ",
"                "};
