#define wl_alpha_xmas_logo_width 464
#define wl_alpha_xmas_logo_height 160
static char wl_alpha_xmas_logo_bits[] = {
 0x00,0x00,0x00,0x00,0x00,0x00,0x00,0x00,0x00,0x00,0x00,0x00,0x00,0x00,0x00,
 0x00,0x00,0x00,0x00,0x00,0x00,0x00,0x00,0x00,0x00,0x00,0x00,0x00,0x00,0x00,
 0x00,0x00,0x00,0x00,0x00,0x00,0x00,0x00,0x00,0x00,0x00,0x00,0x00,0x00,0x00,
 0x00,0x00,0x00,0x00,0x00,0x00,0x00,0x00,0x00,0x00,0x00,0x00,0x00,0x00,0x00,
 0x00,0x00,0x00,0x00,0x00,0x00,0x00,0x00,0x00,0x00,0x00,0x00,0x00,0x00,0x00,
 0x00,0x00,0x00,0x00,0x00,0x00,0x00,0x00,0x00,0x00,0x00,0x00,0x00,0x00,0x00,
 0x00,0x00,0x00,0x00,0x00,0x00,0x00,0x00,0x00,0x00,0x00,0x00,0x00,0x00,0x00,
 0x00,0x00,0x00,0x00,0x00,0x00,0x00,0x00,0x00,0x00,0x00,0x00,0x00,0x00,0x00,
 0x00,0x00,0x00,0x00,0x00,0x00,0x00,0x00,0x00,0x00,0x00,0x00,0x00,0x00,0x00,
 0x00,0x00,0x00,0x00,0x00,0x00,0x00,0x00,0x00,0x00,0x00,0x00,0x00,0x00,0x00,
 0x00,0x00,0x00,0x00,0x00,0x00,0x00,0x00,0x00,0x00,0x00,0x00,0x00,0x00,0x00,
 0x00,0x00,0x00,0x00,0x00,0x00,0x00,0x00,0x00,0x00,0x00,0x00,0x00,0x00,0x00,
 0x00,0x00,0x00,0x00,0x00,0x00,0x00,0x00,0x00,0x00,0x00,0x00,0x00,0x00,0x00,
 0x00,0x00,0x00,0x00,0x00,0x00,0x00,0x00,0x00,0x00,0x00,0x00,0x00,0x00,0x00,
 0x00,0x00,0x00,0x00,0x00,0x00,0x00,0x00,0x00,0x00,0x00,0x00,0x00,0x00,0x00,
 0x00,0x00,0x00,0x00,0x00,0x00,0x00,0x00,0x00,0x00,0x00,0x00,0x00,0x00,0x00,
 0x00,0x00,0x00,0x00,0x00,0x00,0x00,0x00,0x00,0x00,0x00,0x00,0x00,0x00,0x00,
 0x00,0x00,0x00,0x00,0x00,0x00,0x00,0x00,0x00,0x00,0x00,0x00,0x00,0x00,0x00,
 0x00,0x00,0x00,0x00,0x00,0x00,0x00,0x00,0x00,0x00,0x00,0x00,0x00,0x00,0x00,
 0x00,0x00,0x00,0x00,0x00,0x00,0x00,0x00,0x00,0x00,0x00,0x00,0x00,0x00,0x00,
 0x00,0x00,0x00,0x00,0x00,0x00,0x00,0x00,0x00,0x00,0x00,0x00,0x00,0x00,0x00,
 0x00,0x00,0x00,0x00,0x00,0x00,0x00,0x00,0x00,0x00,0x00,0x00,0x00,0x00,0x00,
 0x00,0x00,0x00,0x00,0x00,0x00,0x00,0x00,0x00,0x00,0x00,0x00,0x00,0x00,0x00,
 0x00,0x00,0x00,0x00,0x00,0x00,0x00,0x00,0x00,0x00,0x00,0x00,0x00,0x00,0x00,
 0x00,0x00,0x00,0x00,0x00,0x00,0x00,0x00,0x00,0x00,0x00,0x00,0x00,0x00,0x00,
 0x00,0x00,0x00,0x00,0x00,0x00,0x00,0x00,0x00,0x00,0x00,0x00,0x00,0x00,0x00,
 0x00,0x00,0x00,0x00,0x00,0x00,0x00,0x00,0x00,0x00,0x00,0x00,0x00,0x00,0x00,
 0x00,0x00,0x00,0x00,0x00,0x00,0x00,0x00,0x00,0x18,0x00,0x00,0x00,0x00,0x00,
 0x00,0x00,0x00,0x00,0x00,0x00,0x00,0x00,0x00,0x00,0x00,0x00,0x00,0xa0,0xaa,
 0x00,0x00,0x00,0x00,0x00,0x00,0x00,0x00,0x00,0x00,0x00,0x00,0x00,0x00,0x00,
 0x00,0x00,0x00,0x00,0x00,0x00,0x00,0x00,0x00,0x00,0x00,0x00,0x00,0x00,0x00,
 0x00,0x00,0x00,0x00,0x00,0x00,0x00,0x2e,0x00,0x00,0x00,0x00,0x00,0x00,0x00,
 0x00,0x00,0x00,0x00,0x00,0x00,0x00,0x00,0x00,0x00,0x50,0x15,0x11,0x2a,0x00,
 0x00,0x00,0x00,0x00,0x00,0x00,0x00,0x00,0x00,0x00,0x00,0x00,0x00,0x00,0x00,
 0x00,0x00,0x00,0x00,0x00,0x00,0x00,0x00,0x00,0x00,0x00,0x00,0x00,0x00,0x00,
 0x00,0x00,0x00,0x00,0x00,0x7a,0x00,0x00,0x00,0x00,0x00,0x00,0x00,0x00,0x00,
 0x00,0x00,0x00,0x00,0x00,0x00,0x00,0x80,0x8a,0x88,0x88,0x84,0x02,0x00,0x00,
 0x00,0x00,0x00,0x00,0x00,0x00,0x00,0x00,0x00,0x00,0x00,0x00,0x00,0x00,0x00,
 0x00,0x00,0x00,0x00,0x00,0x00,0x00,0x00,0x00,0x00,0x00,0x00,0x00,0x00,0x00,
 0x00,0x00,0x80,0x77,0x00,0x00,0x00,0x00,0x00,0x00,0x00,0x00,0x00,0x00,0x00,
 0x00,0x00,0x00,0x00,0x00,0x48,0x20,0x52,0x24,0x21,0x28,0x00,0x00,0x00,0x00,
 0x00,0x00,0x00,0x00,0x00,0x00,0x00,0x00,0x00,0x00,0x00,0x00,0x00,0x00,0x00,
 0x00,0x00,0x00,0x00,0x00,0x00,0x00,0x00,0x00,0x00,0x00,0x00,0x00,0x00,0x00,
 0x80,0x7a,0x00,0x00,0x00,0x00,0x00,0x00,0x00,0x00,0x00,0x00,0x00,0x00,0x00,
 0x00,0x00,0x00,0x22,0x95,0x84,0x42,0x94,0x82,0x00,0x00,0x00,0x00,0x00,0x00,
 0x00,0x00,0x00,0x00,0x00,0x00,0x00,0x00,0x00,0x00,0x00,0x00,0x00,0x00,0x00,
 0x00,0x00,0x00,0x00,0x00,0x00,0x00,0x00,0x00,0x00,0x00,0x00,0x00,0xf0,0x6d,
 0x00,0x00,0x00,0x00,0x00,0x00,0x00,0x00,0x00,0x00,0x00,0x00,0x00,0x00,0x00,
 0x90,0x14,0x02,0x21,0x14,0x41,0x28,0x04,0x00,0x00,0x00,0x00,0x00,0x00,0x00,
 0x00,0x00,0x00,0x00,0x00,0x00,0x00,0x00,0x00,0x00,0x00,0x00,0x00,0x00,0x00,
 0x00,0x00,0x00,0x00,0x00,0x00,0x00,0x00,0x00,0x00,0x00,0xa8,0x76,0x00,0x00,
 0x00,0x00,0x00,0x00,0x00,0x00,0x00,0x00,0x00,0x00,0x00,0x00,0x00,0x40,0x81,
 0x54,0x14,0x41,0x14,0x01,0x11,0x00,0x00,0x00,0x00,0x00,0x00,0x00,0x00,0x00,
 0x00,0x00,0x00,0x00,0x00,0x00,0x00,0x00,0x00,0x00,0x00,0x00,0x00,0x00,0x00,
 0x00,0x00,0x00,0x00,0x00,0x00,0x00,0x00,0x00,0xb4,0x6b,0x00,0x00,0x00,0x00,
 0x00,0x00,0x00,0x00,0x00,0x00,0x00,0x00,0x00,0x00,0x00,0x15,0x2a,0x41,0xa2,
 0x94,0x42,0xb8,0x44,0x01,0x00,0x00,0x00,0x00,0x00,0x00,0x00,0x00,0x00,0x00,
 0x00,0x00,0x00,0x00,0x00,0x00,0x00,0x00,0x00,0x00,0x00,0x00,0x00,0x00,0x00,
 0x00,0x00,0x00,0x00,0x00,0x00,0x00,0x6c,0x7d,0x00,0x00,0x00,0x00,0x00,0x00,
 0x00,0x00,0x00,0x00,0x00,0x00,0x00,0x00,0x40,0xa2,0x90,0x14,0x09,0x22,0x10,
 0x3e,0x10,0x00,0x00,0x00,0x00,0x00,0x00,0x00,0x00,0x00,0x00,0x00,0x00,0x00,
 0x00,0x00,0x00,0x00,0x00,0x00,0x00,0x00,0x00,0x00,0x00,0x00,0x00,0x00,0x00,
 0x00,0x00,0x00,0x00,0x80,0xb7,0x6b,0x00,0x00,0x00,0x00,0x00,0x00,0x00,0x00,
 0x00,0x00,0x00,0x00,0x00,0x80,0xa8,0x14,0x25,0xa2,0x50,0x11,0x45,0xbf,0x42,
 0x0a,0x00,0x00,0x00,0x00,0x00,0x00,0x00,0x00,0x00,0x00,0x00,0x00,0x00,0x00,
 0x00,0x00,0x00,0x00,0x00,0x00,0x00,0x00,0x00,0x00,0x00,0x00,0x00,0x00,0x00,
 0x00,0x00,0x40,0xdd,0x76,0x00,0x00,0x00,0x00,0x00,0x00,0x00,0x00,0x00,0x00,
 0x00,0x00,0x00,0x80,0x12,0xa2,0x88,0x08,0x05,0x08,0x10,0x3e,0x08,0x10,0x00,
 0x00,0x00,0x00,0x00,0x00,0x00,0x00,0x00,0x00,0x00,0x00,0x00,0x00,0x00,0x00,
 0x00,0x00,0x00,0x00,0x00,0x00,0x00,0x00,0x00,0x00,0x00,0x00,0x00,0x00,0x00,
 0xa0,0x6b,0x7b,0x00,0x00,0x00,0x00,0x00,0x00,0x00,0x00,0x00,0x00,0x00,0x00,
 0x00,0x60,0x7d,0x15,0x44,0x52,0x50,0xc5,0x8f,0xba,0xa2,0x22,0x00,0x00,0x00,
 0x00,0x00,0x00,0x00,0x00,0x00,0x00,0x00,0x00,0x00,0x00,0x00,0x00,0x00,0x00,
 0x00,0x00,0x00,0x00,0x00,0x00,0x00,0x00,0x00,0x00,0x00,0x00,0x00,0x68,0xbd,
 0x6d,0x00,0x00,0x00,0x00,0x00,0x00,0x00,0x00,0x00,0x00,0x00,0x00,0x00,0x80,
 0x8a,0xa0,0x22,0x84,0x8a,0xe0,0x5f,0x30,0x08,0x80,0x00,0x00,0x00,0x00,0x00,
 0x00,0x00,0x00,0x00,0x00,0x00,0x00,0x00,0x00,0x00,0x00,0x00,0x00,0x00,0x00,
 0x00,0x00,0x00,0x00,0x00,0x00,0x00,0x00,0x00,0x00,0x00,0xb8,0xd7,0x76,0x00,
 0x00,0x00,0x00,0x00,0x40,0x01,0x00,0x00,0x00,0x00,0x00,0x00,0x50,0x2d,0x95,
 0x48,0x51,0x00,0xd5,0x3f,0x75,0x82,0x14,0x01,0x00,0x00,0x00,0x00,0x00,0x00,
 0x00,0x00,0x00,0x00,0x00,0x00,0x00,0x00,0x00,0x00,0x00,0x00,0x00,0x00,0x00,
 0x00,0x00,0x00,0x00,0x00,0x00,0x00,0x00,0x00,0xdf,0x7a,0x7b,0x00,0x00,0x00,
 0x00,0x00,0xa0,0x0a,0x00,0x00,0x00,0x00,0x00,0x00,0x80,0x52,0x4a,0x12,0x09,
 0xf8,0x20,0x3f,0xf0,0x28,0x80,0x02,0x00,0x00,0x00,0x00,0x00,0x00,0x00,0x00,
 0x00,0x00,0x00,0x00,0x00,0x00,0x00,0x00,0x00,0x00,0x00,0x00,0x00,0x00,0x00,
 0x00,0x00,0x00,0x00,0x00,0x00,0xc0,0x6a,0xad,0x6d,0x00,0x00,0x00,0x00,0x00,
 0x58,0x15,0x00,0x00,0x00,0x00,0x00,0x00,0xb4,0x3b,0x11,0x45,0x44,0xfe,0x17,
 0xff,0xea,0x02,0x25,0x04,0x00,0x00,0x00,0x00,0x00,0x00,0x00,0x00,0x00,0x00,
 0x00,0x00,0x00,0x00,0x00,0x00,0x00,0x05,0x00,0x00,0x00,0x00,0x00,0x00,0x00,
 0x00,0x00,0x00,0x00,0x40,0xbb,0x77,0x3b,0x00,0x00,0x00,0x00,0x00,0xac,0x2a,
 0x00,0x00,0x00,0x00,0x00,0x00,0xd2,0x9d,0xa4,0x28,0x12,0xef,0x47,0xff,0xe0,
 0x50,0x80,0x0c,0x00,0x00,0x00,0x00,0x00,0x00,0x00,0x00,0x00,0x00,0x00,0x00,
 0x00,0x00,0x00,0x00,0x80,0x06,0x00,0x00,0x00,0x00,0x00,0x00,0x00,0x00,0x00,
 0x00,0x00,0xf8,0xd7,0xaa,0x3d,0x00,0x00,0x00,0x00,0x00,0xab,0x75,0x00,0x00,
 0x00,0x00,0x00,0x80,0x4a,0x4a,0x12,0x42,0x91,0x97,0x2f,0xfe,0xeb,0x84,0x14,
 0x08,0x00,0x00,0x00,0x00,0x00,0x00,0x00,0x00,0x00,0x00,0x00,0x00,0x00,0x00,
 0x00,0x00,0x40,0x12,0x00,0x00,0x00,0x00,0x00,0x00,0x00,0x00,0x00,0x00,0x00,
 0x56,0xbd,0xfd,0x36,0x00,0x00,0x00,0x00,0x80,0xaa,0x56,0x00,0x00,0x00,0x00,
 0x00,0x40,0xa9,0x24,0x49,0x01,0x94,0x4f,0x9f,0xde,0xc3,0x11,0x40,0x11,0x00,
 0x00,0x00,0x00,0x00,0x00,0x00,0x00,0x00,0x00,0x00,0x00,0x00,0x00,0x00,0x00,
 0x20,0x19,0x00,0x00,0x00,0x00,0x00,0x00,0x00,0x00,0x00,0x00,0x80,0x6d,0x6b,
 0xab,0x3d,0x00,0x00,0x00,0x00,0x40,0xb5,0xea,0x00,0x00,0x00,0x00,0x00,0xa0,
 0x14,0xa9,0x24,0xf8,0xdf,0xc3,0x5f,0xbe,0xcb,0x84,0x2a,0x24,0x00,0x00,0x00,
 0x00,0x00,0x00,0x00,0x00,0x00,0x00,0x00,0x00,0x00,0x00,0x00,0x00,0xc0,0x16,
 0x00,0x00,0x00,0x00,0x00,0x00,0x00,0x00,0x00,0x00,0x60,0xbb,0xdd,0xdd,0x1e,
 0x00,0x00,0x00,0x00,0x40,0x55,0xd5,0x00,0x00,0x00,0x00,0x00,0x28,0xa5,0x44,
 0x02,0xff,0xc0,0x01,0x58,0x19,0xc7,0x20,0x34,0x60,0x00,0x00,0x00,0x00,0x00,
 0x00,0x00,0x00,0x00,0x00,0x00,0x00,0x00,0x00,0x00,0x00,0x60,0x1a,0x00,0x00,
 0x00,0x00,0x00,0x00,0x00,0x00,0x00,0xa0,0xa8,0xed,0x76,0x6b,0x1b,0x00,0x00,
 0x00,0x00,0xb0,0xaa,0xea,0x00,0x00,0x00,0x00,0x00,0x94,0x92,0x92,0xe6,0x7f,
 0xc0,0x01,0x78,0xba,0xce,0x8b,0x68,0x49,0x00,0x00,0x00,0x00,0x00,0x00,0x11,
 0x00,0x00,0x00,0x00,0x00,0x00,0x00,0x00,0x00,0x00,0x05,0x00,0x00,0x00,0x00,
 0x00,0x00,0x00,0x00,0x00,0xd0,0x7d,0xb7,0xad,0xdd,0x1e,0x00,0x00,0x00,0x00,
 0x50,0x57,0xed,0x00,0x00,0x00,0x00,0x00,0xaa,0x54,0xd5,0xf3,0x3f,0xc0,0x00,
 0x78,0x38,0xfd,0x23,0x3c,0x80,0x00,0x00,0x00,0x00,0x00,0x00,0x25,0x00,0x00,
 0x00,0x00,0x00,0x00,0x00,0x00,0x00,0x80,0x07,0x00,0x00,0x00,0x00,0x00,0x00,
 0x00,0x00,0x00,0xc8,0xd6,0x6d,0xf7,0x6e,0x0f,0x00,0x00,0x00,0x00,0x68,0xb5,
 0x75,0x00,0x00,0x00,0x00,0x40,0x45,0x4a,0xf8,0xf8,0x1f,0xc0,0x00,0x70,0x38,
 0xfa,0x8b,0x82,0xa4,0x01,0x00,0x00,0x00,0x00,0xc0,0x3a,0x00,0x00,0x00,0x00,
 0x00,0x00,0x00,0x00,0x00,0x00,0x00,0x00,0x00,0x00,0x00,0x00,0x00,0x00,0xc0,
 0x01,0x26,0xff,0xde,0xad,0xb5,0x0f,0x00,0x00,0x00,0x00,0xa8,0xaa,0x6a,0x00,
 0x00,0x00,0x00,0x80,0x54,0x09,0x08,0xe0,0x0f,0xc0,0x00,0x70,0x30,0xf4,0x03,
 0x10,0x00,0x01,0x00,0x00,0x00,0x00,0x00,0x15,0x00,0x00,0x00,0x00,0x00,0x00,
 0x00,0x00,0x00,0x00,0x00,0x00,0x00,0x00,0x00,0x00,0x00,0x00,0x40,0xfd,0xdb,
 0xaa,0xb5,0x76,0xdb,0x06,0x00,0x00,0x00,0x00,0x54,0x55,0x75,0x00,0x00,0x00,
 0x00,0xa0,0x92,0xc2,0x3f,0x00,0x0e,0xc0,0x01,0xf0,0x30,0xe8,0x57,0x8a,0x24,
 0x03,0x00,0x00,0x00,0x00,0x80,0x1a,0x00,0x00,0x00,0x00,0x00,0x00,0x00,0x00,
 0x00,0x00,0x00,0x00,0x00,0x00,0x00,0x00,0x00,0x00,0x80,0x57,0xdd,0xdf,0xee,
 0xdb,0xb6,0x07,0x00,0x00,0x00,0x00,0xdb,0x5a,0x75,0x00,0x00,0x00,0x00,0xa8,
 0xaa,0xf4,0x3f,0x00,0x0e,0xc0,0x01,0xe0,0x70,0xc0,0x03,0x20,0x80,0x02,0x00,
 0x00,0x00,0x00,0x00,0x25,0x00,0x00,0x00,0x00,0x00,0x00,0x00,0x00,0x00,0x00,
 0x00,0x00,0x00,0x00,0x00,0x00,0x00,0x00,0x80,0xfa,0xaf,0x76,0xbb,0xb6,0xed,
 0x03,0x00,0x00,0x00,0x00,0x55,0xab,0x3a,0x00,0x00,0x00,0x00,0x50,0x4a,0xf2,
 0x7f,0x00,0x1c,0x80,0x01,0xe0,0x70,0xc0,0xaf,0x84,0x12,0x06,0x00,0x00,0x00,
 0x00,0x40,0x37,0x00,0x00,0x00,0x00,0x00,0x00,0x00,0x00,0x00,0x00,0x00,0x00,
 0x00,0x00,0x00,0x00,0x00,0x00,0x80,0x5f,0xf5,0xdb,0x6d,0xef,0xde,0x01,0x00,
 0x00,0x00,0x00,0x6d,0x55,0x3b,0x00,0x00,0x00,0x00,0x4c,0xa9,0xfb,0x7c,0x00,
 0x18,0x80,0x01,0xe0,0xf0,0xc0,0x07,0x10,0x40,0x06,0x00,0x00,0x00,0x00,0x80,
 0x19,0x00,0x00,0x00,0x00,0x00,0x00,0x00,0x00,0x00,0x00,0x00,0x00,0x00,0x00,
 0x00,0x00,0x00,0x00,0x80,0xea,0xff,0x6e,0xdb,0xba,0xf5,0x00,0x00,0x00,0x00,
 0x40,0xab,0x6a,0x1d,0x00,0x00,0x00,0x00,0xa5,0xca,0x39,0x78,0x00,0x18,0x80,
 0x03,0xe0,0xf0,0x81,0x97,0x02,0x09,0x04,0x00,0x00,0x00,0x00,0x00,0x00,0x00,
 0x00,0x00,0x00,0x00,0x00,0x00,0x00,0x00,0x00,0x00,0x00,0x00,0x00,0x00,0x00,
 0x00,0x00,0x00,0xbf,0xaa,0xfb,0xee,0x6d,0x77,0x00,0x00,0x00,0x00,0xa0,0xd5,
 0x56,0x1d,0x00,0x00,0x00,0x00,0x02,0xf4,0x1c,0x70,0x00,0x38,0x00,0x07,0xe0,
 0xf8,0x03,0x20,0x48,0x20,0x0d,0x00,0x00,0x00,0x00,0x00,0x00,0x00,0x00,0x00,
 0x00,0x00,0x00,0x00,0x00,0x00,0x00,0x00,0x00,0x00,0x00,0x00,0x00,0x00,0x00,
 0x00,0xd5,0xdf,0xad,0x5b,0xb7,0x3d,0x00,0x00,0x00,0x00,0x40,0xad,0xaa,0x0e,
 0x00,0x00,0x00,0x40,0xf0,0x3b,0x1c,0x20,0x00,0x38,0x00,0x07,0xf0,0xf8,0x03,
 0x04,0x01,0x04,0x0c,0x00,0x00,0x00,0x00,0x00,0x00,0x00,0x00,0x00,0x00,0x00,
 0x00,0x00,0x00,0x00,0x00,0x00,0x00,0x00,0x00,0x00,0x00,0x00,0x00,0x00,0x7e,
 0x75,0xf7,0xee,0xda,0x1e,0x00,0x00,0x00,0x00,0xb0,0xd5,0x5a,0x0f,0x00,0x00,
 0x00,0x00,0xff,0x1f,0x1c,0x00,0x00,0x38,0x00,0x0e,0x70,0xf8,0x00,0x50,0x20,
 0x91,0x0c,0x00,0x00,0x00,0x00,0x00,0x00,0x00,0x00,0x00,0x00,0x00,0x00,0x00,
 0x00,0x00,0x00,0x00,0x00,0x00,0x00,0x00,0x00,0x00,0x00,0x00,0xd6,0xbf,0xad,
 0x75,0xb7,0x0f,0x00,0x00,0x00,0x00,0xd0,0x5a,0xab,0x07,0x00,0x00,0x00,0xc0,
 0xff,0x07,0x1c,0x00,0x00,0x30,0x00,0x3c,0x38,0x00,0x00,0x00,0x9e,0x00,0x08,
 0x00,0x00,0x00,0x00,0x00,0x00,0x00,0x00,0x00,0x00,0x00,0x00,0x00,0x00,0x00,
 0x00,0x00,0x00,0x00,0x00,0x00,0x00,0x00,0x00,0x00,0x7a,0xd5,0x7b,0xaf,0xed,
 0x07,0x00,0x00,0x00,0x00,0x68,0xad,0xaa,0x03,0x00,0x00,0x00,0xe0,0xdf,0x0f,
 0x3c,0x00,0x00,0x70,0x00,0x7c,0x3e,0x00,0x00,0x00,0x17,0x24,0x19,0x40,0x01,
 0x00,0x00,0x00,0x00,0x00,0x00,0x00,0x00,0x00,0x00,0x00,0x00,0x00,0x00,0x00,
 0x00,0x00,0x00,0x00,0x00,0x00,0x00,0x00,0xac,0xff,0xd6,0xda,0xee,0x01,0x00,
 0x00,0x00,0x00,0x58,0x6b,0xd5,0x01,0x00,0x00,0x00,0xf4,0xf7,0x0e,0xf8,0x7f,
 0x00,0x70,0x00,0xf8,0x1f,0x00,0x00,0x00,0x97,0x00,0x18,0xa0,0x01,0x00,0x00,
 0x00,0x00,0x00,0x80,0x01,0x00,0x00,0x00,0x00,0x00,0x00,0x0c,0x00,0x00,0x00,
 0x00,0x00,0x00,0x00,0x00,0x00,0xf8,0x55,0xbf,0x77,0xca,0x00,0x00,0x00,0x00,
 0x00,0x6e,0xad,0xf6,0x00,0x00,0x00,0xf8,0xd3,0x7b,0x1c,0xf0,0xff,0x00,0x70,
 0x00,0xe0,0x0f,0x00,0x00,0x00,0x37,0x48,0x1a,0x90,0x04,0x00,0x00,0x00,0x00,
 0x00,0x80,0x01,0x00,0x00,0x00,0x00,0x00,0x00,0x0c,0x00,0x00,0x00,0x00,0x00,
 0xb8,0x01,0x00,0x00,0xa8,0xfe,0xea,0xad,0x75,0x00,0x00,0x00,0x00,0x00,0xa8,
 0x6a,0x75,0x00,0x00,0x00,0xff,0xcf,0x1f,0x1c,0xe0,0xff,0x01,0xf0,0x00,0x00,
 0x07,0x00,0x00,0xc0,0x98,0x02,0x18,0x48,0x06,0x00,0x00,0x00,0x00,0x00,0x00,
 0x03,0x00,0x00,0x00,0x00,0x00,0x00,0x0a,0x00,0x00,0x00,0x00,0x80,0x6b,0x1b,
 0x00,0x00,0xf0,0xab,0xbf,0xde,0x2a,0x00,0x00,0x00,0x00,0x00,0xb7,0xad,0x3a,
 0x00,0x00,0xe0,0xff,0x57,0x0f,0x0c,0x00,0xff,0x03,0xe0,0x3f,0x00,0x00,0x00,
 0x00,0x00,0x27,0x90,0x18,0xb0,0x05,0x00,0x00,0x00,0x00,0xc0,0x80,0x3b,0x00,
 0x00,0x00,0x00,0x00,0xc0,0x0e,0x00,0x00,0x00,0x00,0x0c,0xf3,0x1b,0x00,0x00,
 0xa0,0xfe,0xd5,0xf5,0x35,0x00,0x00,0x00,0x00,0x80,0x5a,0xb5,0x1d,0x00,0x00,
 0xf0,0xcf,0xaf,0x06,0x0e,0x00,0x80,0x03,0xf0,0x3f,0x00,0x00,0x00,0x00,0x80,
 0xa7,0x04,0x12,0x98,0x06,0x00,0x00,0x00,0x00,0x80,0x81,0x3e,0x00,0x00,0x00,
 0x00,0x30,0xc6,0x0d,0x00,0x00,0x00,0x00,0x98,0xd1,0x18,0x00,0x00,0xc0,0xab,
 0x7e,0x5b,0x4a,0x00,0x00,0x00,0x00,0x80,0xaa,0xd5,0x0e,0x00,0xc0,0xf9,0x21,
 0xd7,0x0e,0x0f,0x00,0x00,0x03,0xf8,0x1f,0x00,0x00,0x00,0x00,0x80,0x27,0x40,
 0x18,0x40,0x01,0x00,0x00,0x00,0x00,0xc0,0x01,0x1b,0x00,0x00,0x00,0x00,0x30,
 0x06,0x07,0x00,0x00,0x00,0x00,0xdc,0x71,0x0f,0x00,0x00,0x00,0xfd,0xd5,0xfe,
 0x6e,0x00,0x00,0x00,0x00,0x40,0xdb,0x6a,0x07,0x00,0xf8,0xe1,0x51,0xef,0x9e,
 0x0f,0x00,0x00,0x07,0xfc,0x0f,0x00,0x00,0x00,0x00,0xc0,0x3f,0x13,0x35,0xe0,
 0x01,0x00,0x00,0x00,0x00,0x80,0x01,0x0e,0xa0,0x00,0x00,0x00,0xa0,0x87,0x03,
 0x00,0x00,0x00,0x00,0xb8,0x60,0x07,0x00,0x00,0x00,0x54,0xbf,0x3b,0x33,0x00,
 0x00,0x00,0x00,0x40,0xad,0xf6,0x03,0x00,0xfc,0xc1,0x49,0x75,0xfc,0x0f,0x00,
 0x00,0x03,0x3c,0x00,0x00,0x00,0x00,0x00,0xe0,0x3f,0x01,0x3a,0x00,0x00,0x00,
 0x00,0x00,0x00,0x00,0x81,0x07,0x94,0x01,0x00,0x00,0xb0,0x81,0x01,0x00,0x00,
 0x00,0x00,0xe0,0xf0,0x01,0x00,0x00,0x00,0xe0,0xef,0x1e,0x00,0x00,0x00,0x00,
 0x00,0xa0,0xb5,0x92,0x01,0x30,0xfc,0x80,0x11,0x3d,0xfc,0x0f,0xe0,0x80,0x03,
 0x0c,0x00,0x00,0x00,0x00,0x00,0xf0,0x3f,0x49,0x35,0x00,0x00,0x00,0x00,0x00,
 0x00,0x80,0x03,0x03,0xc0,0x01,0x00,0x00,0xf0,0xe1,0x01,0x00,0x00,0x00,0x00,
 0x70,0xe3,0x00,0x00,0x00,0x00,0x00,0xb4,0x07,0x00,0x00,0x00,0x00,0x00,0xd0,
 0xaa,0xc9,0x00,0x3e,0xf0,0x80,0xcb,0x1e,0x3c,0x0f,0xe0,0xc1,0x03,0x00,0x00,
 0x00,0x00,0x00,0x00,0xf0,0xdf,0x01,0x2a,0x00,0x00,0x00,0x00,0x00,0x00,0x00,
 0xf6,0x01,0x94,0x01,0x00,0x00,0xc0,0xd1,0x00,0x00,0x00,0x00,0x00,0xb0,0xd3,
 0x00,0x00,0x00,0x00,0x00,0xda,0x07,0x00,0x00,0x00,0x00,0x00,0x50,0xb7,0xb6,
 0x80,0x3f,0xe0,0x80,0xe3,0x0f,0x18,0x1e,0xc0,0xc3,0x03,0x00,0x00,0x00,0x00,
 0x00,0x1d,0xf0,0xff,0xff,0x75,0x00,0x00,0x00,0x00,0x00,0x00,0x00,0xdb,0x00,
 0xa2,0x01,0x00,0x00,0x80,0xfb,0x00,0x00,0x00,0x00,0x00,0xe0,0x7d,0x00,0x00,
 0x00,0x00,0x00,0xee,0x01,0x00,0x00,0x00,0x00,0x00,0x68,0xad,0xd7,0x80,0x1f,
 0xe0,0x80,0xff,0x07,0x18,0x3c,0xc0,0xff,0x01,0x00,0x00,0x00,0x00,0x00,0x17,
 0xe0,0x13,0xaa,0x6e,0x00,0x00,0x00,0x00,0x00,0x00,0x00,0x7f,0x80,0x88,0x01,
 0x00,0x00,0x00,0x1d,0x00,0x00,0x00,0x00,0x00,0x00,0x1b,0x00,0x00,0x00,0x00,
 0x00,0xfa,0x01,0x00,0x00,0x00,0x00,0x00,0xa8,0x6a,0x2b,0x80,0x1f,0xe0,0x80,
 0xff,0x03,0x38,0x78,0xc0,0xff,0x00,0x00,0x00,0x00,0x00,0x00,0x1d,0x00,0x10,
 0xdb,0x7b,0x00,0x00,0x00,0x00,0x00,0x00,0x00,0x1a,0x00,0xa4,0x01,0x00,0x00,
 0x00,0x16,0x00,0x00,0x00,0x00,0x00,0x00,0x1d,0x00,0x00,0x00,0x00,0x80,0xef,
 0x00,0x00,0x00,0x00,0x00,0x00,0xb4,0xdb,0x3f,0x00,0x3e,0xe0,0x80,0xff,0x03,
 0x38,0xf0,0x83,0x07,0x00,0x00,0x00,0x00,0x00,0x00,0x1b,0x38,0x1c,0x6d,0x1f,
 0x00,0x00,0x00,0x00,0x00,0x00,0x00,0x1b,0x80,0x90,0x01,0x00,0x00,0x00,0x1b,
 0x00,0x00,0x00,0x00,0x00,0x00,0x1e,0x00,0x00,0x00,0x00,0x80,0x7a,0x00,0x00,
 0x00,0x00,0x00,0x00,0xd4,0xec,0x01,0x00,0x3c,0xe0,0x80,0xff,0x21,0x30,0xe0,
 0x87,0xa1,0x00,0x00,0x00,0x00,0x00,0x00,0x1d,0xf8,0x3f,0xfb,0xd9,0x01,0x00,
 0x00,0x00,0x30,0x00,0x00,0x1d,0x00,0x5a,0x00,0x60,0x00,0x00,0x1d,0x00,0x1c,
 0x00,0x80,0xee,0xb6,0x1f,0x00,0x00,0x00,0x00,0xc0,0x3f,0x00,0x00,0x00,0x00,
 0x00,0x00,0x5a,0xf7,0x00,0x00,0x70,0xe0,0x40,0x7e,0x30,0xf8,0xc0,0x07,0xd0,
 0x00,0x00,0x00,0x00,0x00,0x00,0x16,0xf8,0x1f,0xb6,0x66,0x01,0x00,0x00,0x00,
 0x60,0x00,0x00,0xeb,0xee,0x1e,0x0f,0xd8,0x01,0xd8,0xb6,0x03,0x1b,0x0e,0xb8,
 0xff,0xff,0x1a,0x00,0x00,0x00,0x00,0x60,0x1d,0x00,0x00,0x00,0x00,0x00,0x00,
 0xb4,0x6a,0x00,0x00,0xf0,0xe0,0xb0,0x3e,0x30,0xf0,0x81,0x01,0x48,0x02,0x00,
 0x00,0x00,0x00,0x00,0x1d,0xf0,0x1f,0xbd,0xb2,0x03,0x00,0x00,0x00,0xd0,0x00,
 0xf0,0xfd,0xff,0xeb,0x1a,0xb6,0x7e,0xfb,0xfb,0x77,0xed,0xdb,0xff,0x06,0x00,
 0x1d,0x00,0x00,0x00,0x00,0xb0,0x0f,0x00,0x00,0x00,0x00,0x00,0x00,0xdb,0x7a,
 0x00,0x00,0xe0,0xe1,0x90,0x1e,0x70,0xf8,0x03,0x00,0x24,0x03,0x00,0x00,0x00,
 0x00,0x00,0x37,0xe0,0x1f,0xf7,0xd2,0x0f,0x00,0x00,0x00,0xbd,0x41,0xff,0x17,
 0x00,0xff,0x77,0xdf,0xfb,0x0f,0x1d,0xfe,0xff,0xfd,0x87,0x0d,0x00,0x1b,0x18,
 0x00,0x00,0x00,0xe8,0x06,0x00,0x00,0x00,0x00,0x00,0x00,0x68,0x37,0x00,0x00,
 0xc0,0xe1,0xa0,0x0c,0x70,0xf8,0x01,0x00,0xd8,0x02,0x00,0x00,0x00,0x00,0x00,
 0xda,0xbd,0xfb,0x3a,0xb1,0x1a,0x1d,0xd0,0xc1,0xff,0xdd,0x55,0x1d,0x50,0xdc,
 0xff,0x7f,0xdd,0xdd,0x16,0x00,0x1f,0x1f,0x00,0xdb,0xee,0x1e,0x1c,0x00,0x00,
 0x00,0xb8,0x03,0x00,0x00,0x00,0x00,0x00,0x00,0xaf,0x3a,0x00,0x00,0xc0,0xe1,
 0x58,0x0d,0x70,0x78,0x00,0x00,0x4c,0x03,0x00,0x00,0x00,0x00,0x00,0x6f,0xd7,
 0x56,0xbf,0xda,0x6d,0xb7,0xbb,0xfe,0x41,0x6b,0xfb,0x1b,0x00,0xe1,0x00,0xc0,
 0x6b,0x6b,0x1f,0x00,0x00,0x00,0x80,0x6d,0x5b,0x1b,0x0c,0x00,0x00,0x00,0xe8,
 0x03,0x00,0x00,0x00,0x00,0x00,0xc0,0xbf,0x1d,0x00,0x00,0x80,0x61,0xa8,0x1d,
 0x7e,0x00,0x00,0x00,0xa0,0x00,0x00,0x00,0x00,0x00,0x00,0xdb,0xba,0xed,0x95,
 0xe8,0xfe,0xfa,0xef,0x3f,0xc0,0xde,0x56,0x1d,0xa8,0x68,0x00,0x80,0xdd,0xde,
 0x0a,0x00,0x00,0x00,0x00,0xb7,0xed,0x1d,0x0e,0x00,0x00,0x00,0xfe,0x01,0x00,
 0x00,0x00,0x00,0x00,0xc0,0xff,0x1e,0x00,0x00,0x80,0x67,0xd6,0xfd,0x7f,0x00,
 0x00,0x00,0xf0,0x00,0x00,0x00,0x00,0x00,0x00,0x76,0xef,0x5e,0x7d,0xb4,0x15,
 0x1f,0xf0,0x01,0x80,0x75,0xbb,0x0f,0x04,0x74,0x00,0x00,0xb6,0x75,0x0f,0x00,
 0x00,0x00,0x00,0xed,0xb6,0x4e,0x06,0x00,0x00,0x00,0xea,0x00,0x00,0x00,0x00,
 0x00,0xc0,0xe0,0x7f,0x0d,0x00,0x00,0x00,0x7f,0xd4,0xfc,0x1f,0x00,0x00,0x00,
 0x00,0x00,0x00,0x00,0x00,0x00,0x00,0xac,0xbf,0xff,0x1b,0xdb,0x1f,0x18,0x00,
 0x00,0x80,0xde,0x6d,0x07,0xa8,0x32,0x00,0x00,0xed,0xae,0x07,0x00,0x00,0x00,
 0x00,0xbb,0xdd,0x0f,0x07,0x00,0x00,0x00,0x7e,0x00,0x00,0x00,0x00,0x00,0xf8,
 0xd1,0xff,0x0f,0x00,0x00,0x00,0xfe,0x6b,0xfe,0x03,0x00,0x00,0x00,0x00,0x00,
 0x00,0x00,0x00,0x00,0x00,0xf0,0xd1,0x0f,0x3d,0xed,0x00,0x00,0x00,0x00,0x00,
 0x6b,0xdb,0x01,0x42,0x38,0x00,0x00,0x5b,0xf7,0x02,0x00,0x00,0x00,0x00,0xd6,
 0x6b,0x85,0x03,0x00,0x00,0x80,0x3b,0x00,0x00,0x00,0x00,0x00,0xf8,0x55,0xfd,
 0x0e,0x00,0x00,0x00,0xfc,0x74,0x7f,0x00,0x00,0x00,0x00,0x00,0x00,0x00,0x00,
 0x00,0x00,0x00,0x50,0x61,0x7f,0x96,0x76,0x00,0x00,0x00,0x00,0x80,0xb6,0x6f,
 0x01,0x10,0x1d,0x00,0x80,0xfe,0xaf,0x03,0x20,0x02,0x00,0x00,0xbd,0xbe,0xc7,
 0x01,0x00,0x00,0xc0,0x3e,0x00,0x00,0x00,0x00,0x70,0xf8,0x6a,0xfd,0x07,0x00,
 0x00,0x00,0xfc,0x75,0x0e,0x00,0x00,0x00,0x00,0x00,0x00,0x00,0x00,0x00,0x00,
 0x00,0xb0,0xb1,0x3f,0x9b,0x7b,0x00,0x00,0x00,0x00,0x80,0xdb,0xbf,0x83,0x4a,
 0x0e,0x00,0x40,0x0f,0x70,0x03,0xa0,0x04,0x00,0x80,0xeb,0xf3,0xee,0x00,0x00,
 0x00,0x40,0x1f,0x00,0x00,0x00,0x00,0x7e,0xf0,0x5d,0xbd,0x07,0x00,0x00,0x00,
 0xf8,0x3a,0x04,0x00,0x00,0x00,0x00,0x00,0x00,0x00,0x00,0x00,0x00,0xd0,0xd6,
 0xea,0xb6,0xfd,0x36,0x00,0x00,0x00,0x00,0x80,0xfe,0xf0,0x0d,0x90,0x06,0x00,
 0xc0,0x07,0xb0,0x0d,0x58,0x07,0x00,0x00,0xff,0xc1,0x7b,0x00,0x00,0x00,0xc0,
 0x0d,0x00,0x00,0x00,0x00,0x7e,0xe0,0xea,0xdc,0x07,0x00,0x00,0x00,0xf8,0x1d,
 0x00,0x00,0x00,0x00,0x00,0x00,0x00,0x00,0x00,0x00,0x00,0x70,0x7b,0xbf,0xdb,
 0x56,0x1f,0x00,0x00,0x00,0x00,0xe0,0x07,0xc0,0x1f,0x25,0x07,0x00,0x60,0x01,
 0xc0,0x0e,0xa0,0x02,0x00,0xc0,0x0d,0x00,0x3f,0x00,0x00,0x00,0x70,0x0f,0x00,
 0x00,0x00,0x00,0x7f,0xe0,0xaf,0x2c,0x07,0x00,0x00,0x00,0xf0,0x1e,0x05,0x00,
 0x00,0x00,0x00,0x00,0x00,0x00,0x00,0x00,0x00,0xd0,0xd6,0xd5,0xb6,0xed,0x0d,
 0x00,0x00,0x00,0x00,0xa0,0x01,0x00,0x56,0xc2,0x03,0x00,0xd0,0x01,0x00,0x1b,
 0x50,0x03,0x80,0x61,0x07,0x00,0x34,0x00,0x00,0x00,0xd8,0x07,0x00,0x00,0x85,
 0x07,0x7c,0xd8,0xb6,0x6e,0x0f,0x00,0x00,0x00,0xa0,0x8e,0x06,0x00,0x00,0x00,
 0x00,0x00,0x00,0x00,0x00,0x00,0x00,0xb0,0x6d,0xbb,0xdd,0x5b,0x07,0x00,0x00,
 0x00,0x00,0xf0,0x01,0x00,0xb8,0xd4,0x01,0x00,0xf0,0x00,0x00,0x1e,0xa0,0x04,
 0xd0,0xd1,0x03,0x00,0x3c,0x00,0x00,0x00,0xf0,0x03,0x00,0x80,0xf6,0x1f,0x78,
 0xc8,0x5b,0x3f,0x1f,0x00,0x00,0x00,0x50,0x07,0x05,0x00,0x38,0x00,0x00,0x00,
 0x00,0x00,0x00,0x00,0x00,0xf0,0xff,0xff,0xff,0xff,0x03,0x00,0x50,0x01,0x00,
 0xf0,0x01,0x00,0x3c,0xe1,0x00,0x00,0x78,0x00,0x00,0x1c,0xe8,0x06,0xc4,0xf0,
 0x00,0x00,0x3e,0x00,0x00,0x00,0xbc,0x03,0x00,0x40,0xf6,0x3f,0x60,0xd6,0x6f,
 0xfd,0x1f,0x00,0x00,0x00,0x50,0x87,0x07,0x00,0x56,0x00,0x00,0x00,0x00,0x00,
 0x00,0x00,0x00,0x00,0x00,0x00,0x54,0xc2,0x00,0x00,0x92,0x0a,0x00,0xd4,0x01,
 0x00,0x00,0x7a,0x00,0x00,0x00,0x00,0x00,0x00,0x30,0x03,0xe0,0x00,0x00,0x10,
 0x07,0x00,0x00,0x00,0xea,0x01,0x00,0x20,0xf9,0xfc,0xe0,0xc4,0xb3,0xfc,0x3f,
 0x00,0x00,0x00,0xa8,0x03,0x00,0x00,0xec,0x00,0x00,0x00,0x18,0x00,0x00,0x00,
 0x00,0x00,0x40,0x15,0x54,0xe9,0x00,0x80,0x54,0x1a,0x00,0xea,0x00,0x00,0xa8,
 0x38,0x00,0x28,0x12,0x00,0x00,0x00,0x00,0x00,0x49,0x00,0x80,0x00,0x03,0x00,
 0x00,0x00,0xff,0x00,0x00,0xc0,0x36,0xf8,0xe0,0xf6,0xaf,0xfe,0x3f,0x00,0x00,
 0x00,0xd4,0x03,0x00,0x00,0xbb,0x01,0x00,0x00,0x6a,0x00,0x00,0x00,0x00,0x00,
 0xb4,0x0f,0xaa,0x60,0x00,0x40,0xaa,0x1a,0x00,0x65,0x00,0x00,0x40,0x1e,0x00,
 0x34,0x48,0x00,0x00,0x00,0x00,0x40,0x80,0x00,0x10,0x00,0x00,0x00,0x00,0x00,
 0xea,0x00,0x00,0x60,0x3e,0xe0,0xe0,0xff,0x77,0xde,0x70,0x00,0x00,0x00,0xd4,
 0x01,0x00,0xff,0xee,0x01,0x00,0x80,0xed,0x00,0x00,0x00,0x00,0x80,0xfa,0x00,
 0x55,0x74,0x00,0xa0,0x4b,0x1d,0x80,0x52,0x00,0x00,0x28,0x0f,0x00,0x92,0xe2,
 0x00,0x00,0x00,0x00,0x00,0x49,0x01,0x42,0x24,0x00,0x0f,0x00,0x80,0x7f,0x00,
 0x00,0x00,0x3d,0xe0,0xe8,0xff,0xab,0xee,0xf1,0x01,0x00,0x00,0xd6,0x00,0xf0,
 0xfa,0xf5,0x01,0x00,0x80,0x76,0x00,0x2c,0x00,0x00,0xa0,0x1e,0x00,0x15,0x30,
 0x00,0xd4,0xa9,0x1a,0xa0,0x28,0x01,0x00,0x40,0x07,0x00,0xc9,0xe9,0x00,0x40,
 0x12,0x00,0x20,0x00,0x02,0x00,0x00,0xe0,0x03,0x00,0x40,0x75,0x00,0x1f,0x80,
 0x37,0xc0,0xe8,0x9f,0x6f,0xbf,0xf1,0x03,0x00,0x00,0xf5,0x00,0xac,0x87,0xde,
 0x00,0x00,0x60,0x7b,0x00,0xd7,0x00,0x00,0xa0,0x07,0x00,0x95,0x3a,0x00,0x64,
 0x90,0x1c,0x40,0x95,0x02,0x00,0x94,0x03,0x00,0xb6,0x60,0x00,0x00,0x31,0x00,
 0x00,0x49,0x06,0x70,0xf1,0x7f,0x00,0x00,0xe0,0x3f,0xe0,0x1f,0x00,0x30,0xc0,
 0xdf,0x83,0xb6,0xac,0xf1,0x03,0x00,0x00,0x6a,0x00,0xfb,0xc0,0x75,0x00,0x00,
 0xd0,0x75,0xc0,0xfa,0x00,0x00,0xd8,0x03,0x80,0x0a,0x1c,0x00,0x1a,0x50,0x0f,
 0xa0,0xa4,0x18,0x00,0xe0,0x01,0x00,0xd3,0x7a,0x00,0x20,0x3c,0x00,0x40,0x00,
 0x04,0x00,0x30,0x00,0x00,0x00,0xa0,0x3a,0xe0,0x1f,0x00,0x70,0xe0,0xca,0x43,
 0xae,0x7e,0xf3,0x01,0x00,0x00,0x75,0xc0,0x7d,0x40,0x5f,0x00,0x00,0xb0,0x3e,
 0x40,0xab,0x01,0x00,0xec,0x01,0x00,0x25,0x0d,0x80,0x0e,0x40,0x07,0x40,0x12,
 0x35,0x00,0x74,0x00,0x00,0x28,0x39,0x00,0x00,0x19,0x00,0xc0,0x94,0x0c,0x00,
 0x38,0x00,0x00,0x00,0xd0,0x1f,0xe0,0x0f,0x00,0x60,0xf0,0xfd,0x81,0x5e,0xbe,
 0x23,0x00,0x00,0x80,0x3a,0xa0,0x1e,0x80,0xea,0x01,0x00,0x6c,0x1b,0xb0,0xd5,
 0x01,0x00,0xeb,0x00,0xc0,0x02,0x0e,0x80,0x0e,0xa8,0x03,0xa0,0xaa,0x34,0x00,
 0x39,0x00,0x00,0x7c,0x1e,0x00,0x50,0x1c,0x00,0x20,0x00,0x08,0x80,0x1c,0x00,
 0x00,0x00,0x70,0x1c,0xc0,0x07,0x00,0xe0,0xfc,0xbe,0xc3,0x0e,0xff,0x06,0x00,
 0x00,0x00,0x3a,0xe8,0x1f,0x80,0x5d,0x03,0x00,0xb8,0x1d,0xd0,0xbe,0x01,0x00,
 0x75,0x00,0x40,0x29,0x07,0x40,0x07,0xe4,0x01,0xc8,0xa5,0x3a,0x0a,0x3a,0x00,
 0x00,0x88,0x07,0x00,0x08,0x0f,0x00,0x09,0x22,0x19,0x00,0x1c,0x00,0x00,0x00,
 0x0c,0x1f,0x80,0x0f,0x00,0xe0,0x7f,0x8f,0x43,0xfe,0xff,0x06,0x00,0x00,0x80,
 0x1d,0x7c,0x0d,0x00,0xb7,0x07,0x00,0xd6,0x0e,0xbc,0xd2,0x01,0xc0,0x7a,0x00,
 0x40,0x01,0x03,0x40,0x03,0xf2,0x00,0x00,0x94,0x1c,0x0d,0x1c,0x00,0x00,0xd2,
 0x03,0x00,0xa2,0x07,0x00,0x00,0x08,0x18,0x20,0x0c,0x00,0x00,0x00,0xe4,0x0f,
 0x00,0x0e,0x00,0xe0,0xff,0x07,0x83,0xfe,0x77,0x0d,0x00,0x00,0x40,0x1d,0xaa,
 0x07,0x80,0xec,0x06,0x00,0x7b,0x0f,0xf0,0xae,0x01,0x80,0x36,0x00,0xa0,0xa4,
 0x03,0xa0,0x43,0x3d,0x00,0x02,0x50,0x0f,0x0a,0x0d,0x00,0x00,0xe0,0x00,0x00,
 0xc4,0x01,0x00,0x00,0x80,0x1c,0x00,0x0e,0x00,0x00,0x00,0xf2,0x1f,0x00,0x0e,
 0x00,0xc0,0xaf,0x03,0xc7,0xfe,0xae,0x0e,0x00,0x00,0xa0,0x0e,0xfe,0x07,0x80,
 0xb8,0x0e,0x00,0xad,0x07,0x49,0xdb,0x01,0x60,0x3b,0x00,0x50,0xc1,0x01,0x90,
 0xaa,0x0f,0x00,0x00,0x20,0x07,0x0f,0x0d,0x00,0x00,0x75,0x00,0x80,0xe0,0x00,
 0x00,0x00,0x20,0x1a,0x00,0x06,0x00,0x00,0x00,0xfe,0x1f,0x00,0x1e,0x00,0xc0,
 0xff,0x01,0x8f,0xde,0xb5,0x1b,0x00,0x00,0xa0,0x0e,0x55,0x07,0x40,0xd0,0x0f,
 0x80,0xd6,0x06,0x00,0xb5,0x01,0x50,0x35,0x00,0xac,0xd0,0x00,0x50,0xff,0x00,
 0x00,0x00,0xc0,0x03,0x80,0x0c,0x00,0x00,0x70,0x00,0x00,0x74,0x00,0x00,0x00,
 0x00,0x0c,0x20,0x06,0x00,0x00,0x00,0xd7,0x3f,0x00,0x1c,0x00,0xe0,0x77,0x80,
 0x5f,0xbb,0xda,0x14,0x00,0x00,0xa0,0x0e,0xff,0x07,0x20,0x78,0x0d,0x00,0xbb,
 0x07,0x80,0xad,0x01,0xd0,0x3a,0x00,0x52,0xe5,0x00,0xc8,0x03,0x00,0x00,0x00,
 0xd0,0x01,0x00,0x0a,0x00,0x00,0x35,0x00,0x80,0x32,0x00,0x00,0x00,0x20,0x0d,
 0x00,0x06,0x00,0x00,0x80,0x7a,0x3f,0x00,0x1c,0xc0,0xa8,0x3d,0x80,0x9f,0xd5,
 0x6d,0x3b,0x00,0x00,0x40,0x87,0xab,0x06,0x10,0xac,0x0f,0xc0,0xd6,0x03,0x80,
 0xd6,0x01,0x50,0x6b,0x00,0xa2,0x72,0x00,0xa8,0x01,0x00,0x00,0x00,0xe8,0x00,
 0x40,0x11,0x00,0x80,0x30,0x00,0x00,0x30,0x00,0x00,0x00,0x00,0x0e,0x40,0x04,
 0x00,0x00,0xc0,0x5f,0x7f,0x00,0x1c,0xc0,0xb4,0x0f,0x80,0x0f,0x55,0xab,0x6d,
 0x00,0x00,0x70,0x47,0xfd,0x07,0x0c,0xd8,0x0e,0x90,0x6d,0x03,0x00,0x7b,0x03,
 0x68,0x55,0x40,0xd5,0x3a,0x00,0x50,0x03,0x00,0x40,0x00,0x64,0x00,0x08,0x2a,
 0x00,0x00,0x4a,0x00,0x50,0x35,0x00,0x00,0x00,0x00,0x07,0x08,0x0c,0x00,0x00,
 0x80,0x6a,0xff,0x00,0x1c,0xc0,0x9d,0x03,0x00,0x80,0x94,0xb5,0x6a,0x00,0x00,
 0x88,0xc3,0x57,0x0d,0x15,0x76,0x0f,0x48,0xb7,0x07,0x80,0x95,0x03,0xaa,0xb6,
 0x51,0xa9,0x1a,0x00,0xaa,0x06,0x00,0x20,0x00,0x70,0x00,0x60,0x01,0x00,0x40,
 0xc1,0x00,0x04,0x20,0x00,0x08,0x09,0x40,0x03,0x20,0x10,0x00,0x00,0xe0,0x3f,
 0xff,0x01,0x18,0xc0,0xb7,0x3f,0x00,0x00,0xeb,0xdd,0xd6,0x00,0x00,0xb0,0x83,
 0xfa,0xf7,0x0b,0xac,0x05,0xf3,0x5a,0x15,0x00,0xed,0x82,0x69,0xab,0xda,0xa8,
 0x2a,0x80,0x90,0x0a,0x00,0x88,0x00,0x6d,0x80,0x9a,0x54,0x01,0x20,0x2a,0x00,
 0xa0,0x4a,0x80,0x44,0x18,0x80,0x03,0x00,0x01,0x00,0x08,0xa0,0x6a,0xdb,0x03,
 0x38,0xc0,0x9b,0x7f,0x00,0x00,0xd5,0x6a,0xb5,0x01,0x00,0xa8,0xe3,0x5f,0x5d,
 0x07,0x7b,0xef,0x4c,0xef,0x0e,0x80,0xb6,0x76,0xb7,0xda,0x6a,0x51,0x55,0x55,
 0x56,0x25,0x00,0x42,0x40,0x62,0x00,0x0e,0x45,0x14,0xa4,0x10,0x05,0x1d,0x00,
 0xa0,0x01,0x12,0xc0,0x01,0x10,0x08,0x00,0x07,0xe0,0x7f,0xcf,0x03,0x38,0xd8,
 0xdd,0x3f,0x00,0x00,0xea,0xad,0xae,0x01,0x00,0xd4,0xa1,0xea,0xef,0x83,0xd6,
 0xaa,0xa7,0xb5,0x07,0x80,0x55,0xdb,0xd3,0xaa,0x6a,0xa8,0xaa,0xaa,0x53,0xaa,
 0xaa,0x3c,0x00,0x55,0xa9,0x87,0x90,0xa2,0x3a,0xa4,0x50,0x4f,0x55,0xe5,0x90,
 0x30,0xd0,0x00,0x00,0x00,0x80,0x03,0x70,0x55,0xef,0x07,0x70,0xc6,0xdf,0x07,
 0x00,0x00,0x94,0xb6,0x6b,0x03,0x00,0xd4,0xe1,0x7f,0xf5,0x81,0x7f,0xff,0x61,
 0xbb,0x03,0x00,0xda,0xea,0xa8,0x56,0x3d,0x6a,0x55,0xd5,0xa9,0xa9,0x92,0x1e,
 0xa0,0x92,0xca,0x43,0x2a,0x10,0x8e,0x02,0x8a,0x23,0x00,0x70,0x00,0x2a,0x60,
 0x00,0x90,0x20,0xe0,0x01,0xa8,0x7f,0xff,0x0f,0x70,0xe0,0x0f,0x00,0x00,0x00,
 0xdd,0x5b,0xb5,0x06,0x00,0xd4,0xa1,0xaa,0xff,0x40,0xd5,0xea,0xc0,0xd6,0x01,
 0x00,0x6f,0x7d,0x70,0xb5,0x9d,0xa0,0x55,0x94,0x50,0x55,0x55,0x0f,0x40,0x49,
 0xe4,0x01,0x41,0xa5,0x07,0x54,0xe1,0x01,0x55,0x3d,0x40,0x40,0x32,0x00,0x00,
 0x02,0x72,0x00,0xf8,0x2a,0xff,0x1f,0xf0,0xff,0x03,0x00,0x00,0x00,0xf6,0x6a,
 0xad,0x0d,0x00,0xd4,0xc0,0xff,0x3a,0x80,0xbb,0x3f,0xa0,0xed,0x00,0x00,0xb5,
 0x3b,0x90,0xab,0x0e,0xaa,0xaa,0xeb,0xa0,0x4a,0xaa,0x07,0x20,0xaa,0x72,0x80,
 0x14,0xc2,0x43,0x01,0xe8,0xa0,0x00,0x0e,0x80,0x24,0x1c,0x00,0x20,0x00,0x3c,
 0x00,0x50,0x7f,0xff,0x1f,0xf2,0xff,0x01,0x00,0x00,0x00,0xa0,0xb6,0x56,0x0d,
 0x00,0xea,0x80,0xaa,0x1f,0xc0,0xd6,0x1e,0x60,0x7b,0x00,0x00,0xd5,0x1e,0xe0,
 0xac,0xa7,0xb0,0xaa,0x54,0x40,0xa9,0xd2,0x01,0x50,0x25,0x3d,0x00,0xa2,0xf4,
 0x00,0xaa,0x7a,0x00,0xaa,0x07,0x20,0x80,0x0e,0x00,0x00,0x11,0x0e,0x00,0xfc,
 0x55,0xff,0xfd,0xfb,0x7f,0x00,0x00,0x00,0x00,0x60,0xab,0xeb,0x1a,0x00,0xea,
 0x80,0xff,0x07,0x80,0xfd,0x07,0xc0,0x3d,0x00,0x00,0xb6,0x07,0xa0,0xf6,0x0b,
 0x5a,0x55,0x6b,0x80,0x2a,0xf5,0x00,0xa0,0x94,0x1e,0x00,0x14,0x78,0x00,0x10,
 0x1e,0x80,0xc0,0x03,0x00,0x92,0x07,0x00,0x00,0xc0,0x07,0x00,0xac,0x7e,0xb7,
 0x3e,0xf9,0x3f,0x00,0x00,0x00,0x00,0xa0,0x6d,0x35,0x37,0x00,0x75,0x00,0xea,
 0x01,0x00,0xeb,0x01,0x80,0x1e,0x00,0x00,0xda,0x03,0x40,0xf5,0x90,0x1c,0xab,
 0x94,0x00,0x55,0x3d,0x00,0x80,0x52,0x0f,0x00,0xa0,0x1f,0x00,0xa4,0x0f,0x00,
 0xfa,0x00,0x00,0xe1,0x01,0x00,0x80,0xe0,0x01,0x00,0xf4,0x57,0xdf,0xf9,0xff,
 0x0f,0x00,0x00,0x00,0x00,0x80,0xb6,0xad,0x29,0x00,0x6a,0x00,0x00,0x00,0x00,
 0x3e,0x00,0x80,0x0f,0x00,0x00,0xf8,0x00,0x00,0x3f,0x04,0x0f,0xfe,0xdd,0x00,
 0xa6,0x0f,0x00,0x00,0xca,0x03,0x00,0xe0,0x03,0x00,0xf8,0x01,0x00,0x3e,0x00,
 0x00,0x7e,0x00,0x00,0x00,0x7f,0x00,0x00,0xb8,0x7a,0x77,0xfd,0xbb,0x07,0x00,
 0x00,0x00,0x00,0x80,0xaa,0xb6,0x6e,0x00,0x75,0x00,0x00,0x00,0x00,0x00,0x00,
 0x00,0x02,0x00,0x00,0x00,0x00,0x00,0x00,0x51,0x07,0x00,0x66,0x00,0xf0,0x01,
 0x00,0x00,0xfc,0x00,0x00,0x00,0x00,0x00,0x00,0x00,0x00,0x00,0x00,0x00,0x00,
 0x00,0x00,0x00,0x00,0x00,0x00,0xdc,0x1f,0xd7,0xff,0xed,0x01,0x00,0x00,0x00,
 0x00,0x00,0x6b,0xd5,0xb2,0x00,0x75,0x00,0x00,0x00,0x00,0x00,0x00,0x00,0x00,
 0x00,0x00,0x00,0x00,0x00,0x00,0xc4,0x03,0x00,0x00,0x00,0x00,0x00,0x00,0x00,
 0x00,0x00,0x00,0x00,0x00,0x00,0x00,0x00,0x00,0x00,0x00,0x00,0x00,0x00,0x00,
 0x00,0x00,0x00,0x00,0xec,0xaa,0x7f,0x7d,0x7f,0x00,0x00,0x00,0x00,0x00,0x00,
 0xac,0x55,0xcd,0x81,0x3a,0x00,0x00,0x00,0x00,0x00,0x00,0x00,0x00,0x00,0x00,
 0x00,0x00,0x00,0x80,0xe0,0x00,0x00,0x00,0x00,0x00,0x00,0x00,0x00,0x00,0x00,
 0x00,0x00,0x00,0x00,0x00,0x00,0x00,0x00,0x00,0x00,0x00,0x00,0x00,0x00,0x00,
 0x00,0x00,0x74,0xbf,0xbf,0xdb,0x3d,0x00,0x0c,0x03,0x00,0x00,0x00,0xab,0x5a,
 0x35,0x03,0x35,0x00,0x00,0x00,0x00,0x18,0x1c,0x00,0x00,0x00,0x00,0x00,0x00,
 0x00,0x20,0x73,0x00,0x00,0x00,0x00,0x00,0x00,0x00,0x00,0x00,0x00,0x7c,0x00,
 0x00,0xc0,0x1f,0x00,0x00,0x00,0x00,0x00,0x00,0x00,0x00,0x00,0x00,0x00,0x00,
 0xb8,0xab,0xff,0xbe,0x0f,0x00,0x08,0xe1,0xef,0x1f,0x80,0xa7,0xe7,0xea,0xf2,
 0x7f,0x10,0xfe,0xf8,0x00,0x38,0x1c,0xfe,0x70,0xe0,0xc0,0x00,0x03,0x7f,0x08,
 0x7b,0x90,0x7f,0xfe,0xf8,0xc0,0x0f,0x03,0x0e,0x7f,0x00,0xc6,0x30,0x04,0xc0,
 0x00,0x82,0xc0,0x80,0x83,0x83,0x3f,0x86,0x00,0x00,0x00,0x00,0x00,0xdc,0xdd,
 0xb7,0xeb,0x03,0x00,0x98,0x60,0x04,0x07,0x80,0x54,0x57,0x3a,0x87,0x70,0x10,
 0x02,0x28,0x01,0x38,0x06,0x02,0xac,0x58,0xc1,0xc1,0x0d,0x45,0x40,0xda,0x10,
 0x1c,0x92,0x28,0x63,0x80,0x83,0x1b,0x49,0x00,0x83,0x31,0x04,0x40,0x00,0xc2,
 0xe0,0xe0,0x46,0x8c,0x24,0x86,0x00,0x00,0x00,0x00,0x00,0xe8,0x76,0xdf,0xfe,
 0x00,0x00,0xd0,0x20,0x00,0x03,0x80,0x44,0xd5,0x0c,0x8a,0x71,0x10,0x02,0x08,
 0x01,0x48,0x1a,0x02,0x04,0x08,0x40,0x21,0x00,0x01,0x29,0x43,0x11,0x0c,0x02,
 0x08,0x23,0x80,0xc2,0x00,0x01,0x00,0x01,0x51,0x04,0x40,0x07,0xc6,0xa1,0x30,
 0x40,0x80,0x00,0x8a,0x00,0x00,0x00,0x00,0x00,0x78,0xdf,0x75,0x3f,0x00,0x00,
 0x60,0xe0,0x03,0x03,0xc0,0x4c,0x49,0xcd,0x96,0xd8,0x1f,0x3e,0xf8,0x01,0x58,
 0x0b,0x3e,0x78,0xf0,0x20,0x21,0x00,0x1f,0x84,0x43,0x13,0x0c,0x3e,0xf8,0xe1,
 0x83,0x44,0x00,0x1f,0x00,0x01,0x91,0x04,0x40,0x06,0xa4,0x20,0x11,0xc0,0x83,
 0x0f,0x92,0x00,0x00,0x00,0x00,0x00,0xa0,0x75,0xdf,0x0f,0x00,0x00,0x20,0x20,
 0x01,0x03,0x40,0x8f,0x75,0x24,0xb6,0x58,0x00,0x2a,0xc8,0x40,0xd8,0x19,0x2a,
 0x80,0x01,0xa3,0x22,0x0e,0x13,0xf0,0x43,0x16,0x0c,0x16,0x88,0x20,0xc0,0x44,
 0x00,0x0b,0x00,0x81,0x11,0x05,0x40,0x00,0xaa,0x30,0x11,0x00,0x8d,0x05,0xa2,
 0x00,0x00,0x00,0x00,0x00,0xe0,0xdf,0xf5,0x01,0x00,0x00,0x20,0x20,0x00,0x03,
 0x60,0x00,0x6b,0x4d,0xd3,0x5a,0x10,0x02,0x88,0x50,0x99,0x18,0x02,0x00,0x01,
 0xb2,0x22,0x08,0x01,0x75,0x42,0x18,0x0c,0x02,0x88,0x61,0x40,0xce,0x10,0x01,
 0x00,0x83,0x10,0x07,0x40,0x00,0x98,0x90,0x33,0x04,0x88,0x00,0xe2,0x00,0x00,
 0x00,0x00,0x00,0x00,0x75,0x3f,0x00,0x00,0x00,0x20,0xe0,0x0f,0x03,0x20,0x10,
 0x48,0xfa,0xa1,0x59,0x10,0xfe,0x08,0xa9,0x9a,0x18,0xfe,0xdc,0xb8,0x11,0xc4,
 0x0d,0x7f,0x3c,0x42,0x08,0x0c,0xfe,0x08,0x21,0x20,0x88,0x1f,0x7f,0x00,0xfc,
 0x10,0x06,0xc0,0x1f,0x92,0x09,0xe2,0xc7,0x8d,0x3f,0xc2,0x00,0x00,0x00,0x00,
 0x00,0x00,0xfe,0x03,0x00,0x00,0x00,0x40,0x00,0x04,0x00,0x00,0x00,0xaa,0x04,
 0xa8,0x1c,0x10,0x40,0x00,0x25,0x05,0x00,0x40,0x50,0xa0,0x00,0x80,0x00,0x41,
 0x0e,0x02,0x10,0x00,0x90,0x00,0x00,0x00,0x00,0x04,0x48,0x00,0x00,0x00,0x00,
 0x40,0x08,0x00,0x00,0x00,0x01,0x00,0x28,0x00,0x00,0x00,0x00,0x00,0x00,0x00,
 0x00,0x00,0x00,0x00,0x00,0x00,0x00,0x00,0x00,0x00,0x00,0x50,0x34,0x55,0x1c,
 0x00,0x00,0x00,0xa8,0x12,0x01,0x00,0x00,0x00,0x00,0x00,0x00,0x80,0x07,0x00,
 0x00,0x00,0x00,0x00,0x00,0x00,0x00,0x00,0x00,0x00,0x00,0x00,0x00,0x00,0x00,
 0x00,0x00,0x00,0x00,0x00,0x00,0x00,0x00,0x00,0x00,0x00,0x00,0x00,0x00,0x00,
 0x00,0x00,0x00,0x00,0x00,0x00,0x00,0x00,0x00,0x50,0x57,0x55,0x0d,0x00,0x00,
 0x00,0x55,0xa9,0x0a,0x00,0x00,0x00,0x00,0x00,0x20,0xe5,0x01,0x00,0x00,0x00,
 0x00,0x00,0x00,0x00,0x00,0x00,0x00,0x00,0x00,0x00,0x00,0x00,0x00,0x00,0x00,
 0x00,0x00,0x00,0x00,0x00,0x00,0x00,0x00,0x00,0x00,0x00,0x00,0x00,0x00,0x00,
 0x00,0x00,0x00,0x00,0x00,0x00,0x00,0xa0,0x54,0x55,0x0d,0x00,0x00,0x00,0x92,
 0x8a,0x14,0x00,0x00,0x00,0x00,0x00,0x80,0x78,0x00,0x00,0x00,0x00,0x00,0x00,
 0x00,0x00,0x00,0x00,0x00,0x00,0x00,0x00,0x00,0x00,0x00,0x00,0x00,0x00,0x00,
 0x00,0x00,0x00,0x00,0x88,0x00,0x00,0x00,0x00,0x00,0x00,0x00,0x00,0x00,0x00,
 0x00,0x00,0x00,0x00,0x00,0x40,0xab,0xaa,0x0e,0x00,0x00,0x80,0x55,0x6a,0x2a,
 0x00,0x00,0x00,0x00,0x00,0x2a,0x3d,0x00,0x00,0x00,0x00,0x00,0x00,0x00,0x00,
 0x00,0x00,0x00,0x00,0x00,0x00,0x00,0x00,0x00,0x00,0x00,0x00,0x00,0x00,0x00,
 0x00,0x00,0x28,0x01,0x00,0x00,0x00,0x00,0x00,0x00,0x00,0x00,0x00,0x00,0x00,
 0x00,0x00,0x00,0x00,0x75,0x5b,0x0d,0x00,0x00,0x00,0x4a,0x15,0x65,0x00,0x00,
 0x00,0x00,0x00,0x00,0x0f,0x00,0x00,0x00,0x00,0x00,0x00,0x00,0x00,0x00,0x00,
 0x00,0x00,0x00,0x00,0x00,0x00,0x00,0x00,0x00,0x00,0x00,0x00,0x00,0x00,0x00,
 0xd6,0x01,0x00,0x00,0x00,0x00,0x00,0x00,0x00,0x00,0x00,0x00,0x00,0x00,0x00,
 0x00,0x00,0x94,0xaa,0x0e,0x00,0x00,0x00,0xa9,0xd2,0x52,0x00,0x00,0x00,0x00,
 0x80,0xea,0x03,0x00,0x00,0x00,0x00,0x00,0x00,0x00,0x00,0x00,0x00,0x00,0x00,
 0x00,0x00,0x00,0x00,0x00,0x00,0x00,0x00,0x00,0x00,0x00,0x00,0x00,0xa8,0x00,
 0x00,0x00,0x00,0x00,0x00,0x00,0x00,0x00,0x00,0x00,0x00,0x00,0x00,0x00,0x00,
 0x6c,0xd5,0x0a,0x00,0x00,0x00,0x55,0x2a,0xaa,0x00,0x00,0x00,0x00,0x48,0xf8,
 0x00,0x00,0x00,0x00,0x00,0x00,0x00,0x00,0x00,0x00,0x00,0x00,0x00,0x00,0x00,
 0x00,0x00,0x00,0x00,0x00,0x00,0x00,0x00,0x00,0x00,0x00,0xd4,0x00,0x00,0x00,
 0x00,0x00,0x00,0x00,0x00,0x00,0x00,0x00,0x00,0x00,0x00,0x00,0x00,0xb0,0x56,
 0x1d,0x00,0x00,0x00,0x4a,0x55,0x55,0x01,0x00,0x00,0x00,0x90,0x3e,0x00,0x00,
 0x00,0x00,0x00,0x00,0x00,0x00,0x00,0x00,0x00,0x00,0x00,0x00,0x00,0x00,0x00,
 0x00,0x00,0x00,0x00,0x00,0x00,0x00,0x00,0x00,0x28,0x01,0x00,0x00,0x00,0x00,
 0x00,0x00,0x00,0x00,0x00,0x00,0x00,0x00,0x00,0x00,0x00,0xd0,0x5a,0x15,0x00,
 0x00,0x00,0xa8,0xa4,0x92,0x02,0x00,0x00,0x00,0x85,0x0f,0x00,0x00,0x00,0x00,
 0x00,0x00,0x00,0x00,0x00,0x00,0x00,0x00,0x00,0x00,0x00,0x00,0x00,0x00,0x00,
 0x00,0x00,0x00,0x00,0x00,0x00,0x00,0xba,0x01,0x00,0x00,0x00,0x00,0x00,0x00,
 0x00,0x00,0x00,0x00,0x00,0x00,0x00,0x00,0x00,0xa0,0xaa,0x35,0x00,0x00,0x00,
 0xa4,0x2a,0x49,0x0a,0x00,0x00,0xa4,0xf0,0x01,0x00,0x00,0x00,0x00,0x00,0x00,
 0x00,0x00,0x00,0x00,0x00,0x00,0x00,0x00,0x00,0x00,0x00,0x00,0x00,0x00,0x00,
 0x00,0x00,0x00,0x00,0x00,0xcc,0x00,0x00,0x00,0x00,0x00,0x00,0x00,0x00,0x00,
 0x00,0x00,0x00,0x00,0x00,0x00,0x00,0x00,0x55,0x75,0x00,0x00,0x00,0x28,0xa5,
 0xaa,0x12,0x00,0x20,0x11,0x7e,0x00,0x00,0x00,0x00,0x00,0x00,0x00,0x00,0x00,
 0x00,0x00,0x00,0x00,0x00,0x00,0x00,0x00,0x00,0x00,0x00,0x00,0x00,0x00,0x00,
 0x00,0x00,0x00,0x00,0x00,0x00,0x00,0x00,0x00,0x00,0x00,0x00,0x00,0x00,0x00,
 0x00,0x00,0x00,0x00,0x00,0x00,0xab,0x56,0x00,0x00,0x00,0xa0,0x94,0x54,0x4a,
 0x25,0x49,0xc4,0x0f,0x00,0x00,0x00,0x00,0x00,0x00,0x40,0x04,0x00,0x00,0x00,
 0x00,0x00,0x00,0x00,0x00,0x00,0x00,0x00,0x00,0x00,0x00,0x00,0x00,0x00,0x00,
 0x00,0x00,0x00,0x00,0x00,0x00,0x00,0x00,0x00,0x00,0x00,0x00,0x00,0x00,0x00,
 0x00,0x00,0x00,0x00,0xb4,0xea,0x00,0x00,0x00,0x80,0xaa,0x4a,0x29,0x51,0x12,
 0xfd,0x01,0x00,0x00,0x00,0x00,0x00,0x00,0x40,0x09,0x00,0x00,0x00,0x00,0x00,
 0x00,0x00,0x00,0x00,0x00,0x00,0x00,0x00,0x00,0x00,0x00,0x00,0x00,0x00,0x00,
 0x00,0x00,0x00,0x00,0x00,0x00,0x00,0x00,0x00,0x00,0x00,0x00,0x00,0x00,0x00,
 0x00,0x00,0x54,0xd5,0x00,0x00,0x00,0x00,0x56,0x29,0xa5,0x2a,0xc9,0x1e,0x00,
 0x00,0x00,0x00,0x00,0x00,0x00,0xb0,0x0e,0x00,0x00,0x00,0x00,0x00,0x00,0x00,
 0x00,0x00,0x00,0x00,0x00,0x00,0x00,0x00,0x00,0x00,0x00,0x00,0x00,0x00,0x00,
 0x00,0x00,0x00,0x00,0x00,0x00,0x00,0x00,0x00,0x00,0x00,0x00,0x00,0x00,0x00,
 0xa8,0xaa,0x01,0x00,0x00,0x00,0xe0,0xa5,0x54,0x84,0xd4,0x12,0x00,0x00,0x00,
 0x00,0x00,0x00,0x00,0x40,0x05,0x00,0x00,0x00,0x00,0x00,0x00,0x00,0x00,0x00,
 0x00,0x00,0x00,0x00,0x00,0x00,0x00,0x00,0x00,0x00,0x00,0x00,0x00,0x00,0x00,
 0x00,0x00,0x00,0x05,0x00,0x00,0x00,0x00,0x00,0x00,0x00,0x00,0x00,0x50,0xab,
 0x01,0x00,0x00,0x00,0x00,0xfc,0x8a,0xfa,0x3f,0x19,0x00,0x00,0x00,0x00,0x00,
 0x00,0x00,0xa0,0x06,0x00,0x00,0x00,0x00,0x00,0x00,0x00,0x00,0x00,0x00,0x00,
 0x00,0x00,0x00,0x00,0x00,0x00,0x00,0x00,0x00,0x00,0x00,0x00,0x00,0x00,0x00,
 0x80,0x06,0x00,0x00,0x00,0x00,0x00,0x00,0x00,0x00,0x00,0x68,0x55,0x03,0x00,
 0x00,0x00,0x00,0x00,0xf8,0x1f,0xc0,0x16,0x00,0x00,0x00,0x00,0x00,0x00,0x00,
 0x40,0x09,0x00,0x00,0x00,0x00,0x00,0x00,0x00,0x00,0x00,0x00,0x00,0x00,0x00,
 0x00,0x00,0x00,0x00,0x00,0x00,0x00,0x00,0x00,0x00,0x00,0x00,0x00,0x00,0x05,
 0x00,0x00,0x00,0x00,0x00,0x00,0x00,0x00,0x00,0x50,0xad,0x03,0x00,0x00,0x00,
 0x00,0x00,0x00,0x00,0x60,0x1a,0x00,0x00,0x00,0x00,0x00,0x00,0x00,0xd0,0x0d,
 0x00,0x00,0x00,0x00,0x00,0x00,0x00,0x00,0x00,0x00,0x00,0x00,0x00,0x00,0x00,
 0x00,0x00,0x00,0x00,0x00,0x00,0x00,0x00,0x00,0x00,0x00,0x80,0x07,0x00,0x00,
 0x00,0x00,0x00,0x00,0x00,0x00,0x00,0x58,0xb5,0x02,0x00,0x00,0x00,0x00,0x00,
 0x00,0x00,0x00,0x05,0x00,0x00,0x00,0x00,0x00,0x00,0x00,0x60,0x06,0x00,0x00,
 0x00,0x00,0x00,0x00,0x00,0x00,0x00,0x00,0x00,0x00,0x00,0x00,0x00,0x00,0x00,
 0x00,0x00,0x00,0x00,0x00,0x00,0x00,0x00,0x00,0x00,0x00,0x00,0x00,0x00,0x00,
 0x00,0x00,0x00,0x00,0x00,0x50,0x55,0x07,0x00,0x00,0x00,0x00,0x00,0x00,0x00,
 0x80,0x07,0x00,0x00,0x00,0x00,0x00,0x00,0x00,0x00,0x00,0x00,0x00,0x00,0x00,
 0x00,0x00,0x00,0x00,0x00,0x00,0x05,0x00,0x00,0x00,0x00,0x00,0x00,0x00,0x00,
 0x00,0x00,0x00,0x00,0x00,0x00,0x00,0x00,0x00,0x00,0x00,0x00,0x00,0x00,0x00,
 0x00,0x00,0x00,0xa8,0xaa,0x06,0x00,0x00,0x00,0x00,0x00,0x00,0x00,0x00,0x00,
 0x00,0x00,0x00,0x00,0x00,0x00,0x00,0x00,0x00,0x00,0x00,0x00,0x00,0x00,0x00,
 0x00,0x00,0x00,0x80,0x06,0x00,0x00,0x00,0x00,0x00,0x00,0x00,0x00,0x00,0x00,
 0x00,0x00,0x00,0x00,0x00,0x00,0x00,0x00,0x50,0x00,0x00,0x00,0x00,0x00,0x00,
 0x00,0x68,0xab,0x06,0x00,0x00,0x00,0x00,0x00,0x00,0x00,0x00,0x00,0x00,0x00,
 0x00,0x00,0x00,0x00,0x00,0x00,0x00,0x00,0x00,0x00,0x00,0x00,0x00,0x00,0x00,
 0x00,0x00,0x05,0x00,0x00,0x00,0x00,0x00,0x00,0x00,0x00,0x00,0x00,0x00,0x00,
 0x00,0x00,0x00,0x00,0x00,0x00,0x68,0x00,0x00,0x00,0x00,0x00,0x00,0x00,0x50,
 0x55,0x0d,0x00,0x00,0x00,0x00,0x00,0x00,0x00,0x00,0x00,0x00,0x00,0x00,0x00,
 0x00,0x00,0x00,0x00,0x00,0x00,0x00,0x00,0x00,0x00,0x00,0x00,0x00,0x00,0x80,
 0x07,0x00,0x00,0x00,0x00,0x00,0x00,0x00,0x00,0x00,0x00,0x00,0x00,0x00,0x00,
 0x00,0x00,0x00,0x00,0x24,0x01,0x00,0x00,0x00,0x00,0x00,0x00,0xa8,0xaa,0x0e,
 0x00,0x00,0x00,0x00,0x00,0x00,0x00,0x00,0x00,0x00,0x00,0x00,0x00,0x00,0x00,
 0x00,0x00,0x00,0x00,0x00,0x00,0x00,0x00,0x00,0x00,0x00,0x00,0x00,0x00,0x00,
 0x00,0x00,0x00,0x00,0x00,0x00,0x00,0x00,0x00,0x00,0x00,0x00,0x00,0x00,0x00,
 0x00,0x00,0x92,0x01,0x00,0x00,0x00,0x00,0x00,0x00,0x50,0x6d,0x0d,0x00,0x00,
 0x00,0x00,0x00,0x00,0x00,0x00,0x00,0x00,0x00,0x00,0x00,0x00,0x00,0x00,0x00,
 0x00,0x00,0x00,0x00,0x00,0x00,0x00,0x00,0x00,0x00,0x00,0x00,0x00,0x00,0x00,
 0x00,0x00,0x00,0x00,0x00,0x00,0x00,0x00,0x00,0x00,0x00,0x00,0x00,0x00,0x00,
 0x6c,0x01,0x00,0x00,0x00,0x00,0x00,0x00,0xb0,0xaa,0x0a,0x00,0x00,0x00,0x00,
 0x00,0x00,0x00,0x00,0x00,0x00,0x00,0x00,0x00,0x00,0x00,0x00,0x00,0x00,0x00,
 0x00,0x00,0x00,0x00,0x00,0x00,0x00,0x00,0x00,0x00,0x00,0x00,0x00,0x00,0x00,
 0x00,0x00,0x00,0x00,0x00,0x00,0x00,0x00,0x00,0x00,0x00,0x00,0x00,0xa6,0x01,
 0x00,0x00,0x00,0x00,0x00,0x00,0x50,0x55,0x1d,0x00,0x00,0x00,0x00,0x00,0x00,
 0x00,0x00,0x00,0x00,0x00,0x00,0x00,0x00,0x00,0x00,0x00,0x00,0x00,0x00,0x00,
 0x00,0x00,0x00,0x00,0x00,0x00,0x00,0x00,0x00,0x00,0x00,0x00,0x00,0x00,0x00,
 0x00,0x00,0x00,0x00,0x00,0x00,0x00,0x00,0x00,0x00,0x00,0x50,0x00,0x00,0x00,
 0x00,0x00,0x00,0x00,0xd0,0xaa,0x1a,0x00,0x00,0x00,0x00,0x00,0x00,0x00,0x00,
 0x00,0x00,0x00,0x00,0x00,0x00,0x00,0x00,0x00,0x00,0x00,0x00,0x00,0x00,0x00,
 0x00,0x00,0x00,0x00,0x00,0x00,0x00,0x00,0x00,0x00,0x00,0x00,0x00,0x00,0x00,
 0x00,0x00,0x00,0x00,0x00,0x00,0x00,0x00,0x00,0x78,0x00,0x00,0x00,0x00,0x00,
 0x00,0x00,0x50,0x55,0x1d,0x00,0x00,0x00,0x00,0x00,0x00,0x00,0x00,0x00,0x00,
 0x00,0x00,0x00,0x00,0x00,0x00,0x00,0x00,0x00,0x00,0x00,0x00,0x00,0x00,0x00,
 0x00,0x00,0x00,0x00,0x00,0x00,0x00,0x00,0x00,0x00,0x00,0x00,0x00,0x00,0x00,
 0x00,0x00,0x00,0x00,0x00,0x00,0x00,0x00,0x00,0x00,0x00,0x00,0x00,0x00,0x00,
 0x50,0xad,0x1a,0x00,0x00,0x00,0x00,0x00,0x00,0x00,0x00,0x00,0x00,0x00,0x00,
 0x00,0x00,0x00,0x00,0x00,0x00,0x00,0x00,0x00,0x00,0x00,0x00,0x00,0x00,0x00,
 0x00,0x00,0x00,0x00,0x00,0x00,0x00,0x00,0x00,0x00,0x00,0x00,0x00,0x00,0x00,
 0x00,0x00,0x00,0x00,0x00,0x00,0x00,0x00,0x00,0x00,0x00,0x00,0x00,0xa0,0x6a,
 0x35,0x00,0x00,0x00,0x00,0x00,0x00,0x00,0x00,0x00,0x00,0x00,0x00,0x00,0x00,
 0x00,0x00,0x00,0x00,0x00,0x00,0x00,0x00,0x00,0x00,0x00,0x00,0x00,0x00,0x00,
 0x00,0x00,0x00,0x00,0x00,0x00,0x00,0x00,0x00,0x00,0x00,0x00,0x00,0x00,0x00,
 0x00,0x00,0x00,0x00,0x00,0x00,0x00,0x00,0x00,0x00,0x00,0xc0,0xaa,0x3a,0x00,
 0x00,0x00,0x00,0x00,0x00,0x00,0x00,0x00,0x00,0x00,0x00,0x00,0x00,0x00,0x00,
 0x00,0x00,0x00,0x00,0x00,0x00,0x00,0x00,0x00,0x00,0x00,0x00,0x00,0x00,0x00,
 0x00,0x00,0x00,0x00,0x00,0x00,0x00,0x00,0x00,0x00,0x00,0x00,0x00,0x00,0x00,
 0x00,0x00,0x00,0x00,0x00,0x00,0x00,0x00,0x00,0x40,0x55,0x35,0x00,0x00,0x00,
 0x00,0x00,0x00,0x00,0x00,0x00,0x00,0x00,0x00,0x00,0x00,0x00,0x00,0x00,0x00,
 0x00,0x00,0x00,0x00,0x00,0x00,0x00,0x00,0x00,0x00,0x00,0x00,0x00,0x00,0x00,
 0x00,0x00,0x00,0x00,0x00,0x00,0x00,0x00,0x00,0x00,0x00,0x00,0x00,0x00,0x00,
 0x00,0x00,0x00,0x00,0x00,0x00,0x00,0x60,0xab,0x3a,0x00,0x00,0x00,0x00,0x00,
 0x00,0x00,0x00,0x00,0x00,0x00,0x00,0x00,0x00,0x00,0x00,0x00,0x00,0x00,0x00,
 0x00,0x00,0x00,0x00,0x00,0x00,0x00,0x00,0x00,0x00,0x00,0x00,0x00,0x00,0x00,
 0x00,0x00,0x00,0x00,0x00,0x00,0x00,0x00,0x00,0x00,0x00,0x00,0x00,0x00,0x00,
 0x00,0x00,0x00,0x00,0x00,0x40,0x55,0x35,0x00,0x00,0x00,0x00,0x00,0x00,0x00,
 0x00,0x00,0x00,0x00,0x00,0x00,0x00,0x00,0x00,0x00,0x00,0x00,0x00,0x00,0x00,
 0x00,0x14,0x00,0x00,0x00,0x00,0x00,0x00,0x00,0x00,0x00,0x00,0x00,0x00,0x00,
 0x00,0x00,0x00,0x00,0x00,0x00,0x00,0x00,0x00,0x00,0x00,0x00,0x00,0x00,0x00,
 0x00,0x00,0x00,0x40,0xb5,0x3a,0x00,0x00,0x00,0x00,0x00,0x00,0x00,0x00,0x00,
 0x00,0x00,0x00,0x00,0x00,0x00,0x00,0x00,0x00,0x00,0x00,0x00,0x00,0x00,0x1a,
 0x00,0x00,0x00,0x00,0x00,0x00,0x00,0x00,0x00,0x00,0x00,0x00,0x00,0x00,0x00,
 0x00,0x00,0x00,0x00,0x00,0x00,0x00,0x00,0x00,0x00,0x00,0x00,0x00,0x00,0x00,
 0x00,0x40,0x55,0x35,0x00,0x00,0x00,0x00,0x00,0x00,0x00,0x00,0x00,0x00,0x00,
 0x00,0x00,0x00,0x00,0x00,0x00,0x00,0x00,0x00,0x00,0x00,0x00,0x49,0x00,0x00,
 0x00,0x00,0x00,0x00,0x00,0x00,0x00,0x00,0x00,0x00,0x00,0x00,0x00,0x00,0x00,
 0x00,0x00,0x00,0x00,0x00,0x00,0x00,0x00,0x00,0x00,0x00,0x00,0x00,0x00,0x80,
 0xd6,0x3a,0x00,0x00,0x00,0x00,0x00,0x00,0x00,0x00,0x00,0x00,0x00,0x00,0x00,
 0x00,0x00,0x00,0x00,0x00,0x00,0x00,0x00,0x00,0x80,0x64,0x00,0x00,0x00,0x00,
 0x00,0x00,0x00,0x00,0x00,0x00,0x00,0x00,0x00,0x00,0x00,0x00,0x00,0x00,0x00,
 0x00,0x00,0x00,0x00,0x00,0x00,0x00,0x00,0x00,0x00,0x00,0x00,0x00,0x55,0x35,
 0x00,0x00,0x00,0x00,0x00,0x00,0x00,0x00,0x00,0x00,0x00,0x00,0x00,0x00,0x00,
 0x00,0x00,0x00,0x00,0x00,0x00,0x00,0x00,0x5b,0x00,0x00,0x00,0x00,0x00,0x00,
 0x00,0x00,0x00,0x00,0x00,0x00,0x00,0x00,0x00,0x00,0x00,0x00,0x00,0x00,0x00,
 0x00,0x00,0x00,0x00,0x00,0x00,0x00,0x00,0x00,0x00,0x00,0xaa,0x3a,0x00,0x00,
 0x00,0x00,0x00,0x00,0x00,0x00,0x00,0x00,0x00,0x00,0x00,0x00,0x00,0x00,0x00,
 0x00,0x00,0x00,0x00,0x00,0x80,0x69,0x00,0x00,0x00,0x00,0x00,0x00,0x00,0x00,
 0x00,0x00,0x00,0x00,0x00,0x00,0x00,0x00,0x00,0x00,0x00,0x00,0x00,0x00,0x00,
 0x00,0x00,0x00,0x00,0x00,0x00,0x00,0x00,0x00,0x55,0x35,0x00,0x00,0x00,0x00,
 0x00,0x00,0x00,0x00,0x00,0x00,0x00,0x00,0x00,0x00,0x00,0x00,0x00,0x00,0x00,
 0x00,0x00,0x00,0x00,0x14,0x00,0x00,0x00,0x00,0x00,0x00,0x00,0x00,0x00,0x00,
 0x00,0x00,0x00,0x00,0x00,0x00,0x00,0x00,0x00,0x00,0x00,0x00,0x00,0x00,0x00,
 0x00,0x00,0x00,0x00,0x00,0x00,0x00,0xaa,0x3a,0x00,0x00,0x00,0x00,0x00,0x00,
 0x00,0x00,0x00,0x00,0x00,0x00,0x00,0x00,0x00,0x00,0x00,0x00,0x00,0x00,0x00,
 0x00,0x00,0x1e,0x00,0x00,0x00,0x00,0x00,0x00,0x00,0x00,0x00,0x00,0x00,0x00,
 0x00,0x00,0x00,0x00,0x00,0x00,0x00,0x00,0x00,0x00,0x00,0x00,0x00,0x00,0x00,
 0x00,0x00,0x00,0x00,0x00,0xd4,0x3a,0x00,0x00,0x00,0x00,0x00,0x00,0x00,0x00,
 0x00,0x00,0x00,0x00,0x00,0x00,0x00,0x00,0x00,0x00,0x00,0x00,0x00,0x00,0x00,
 0x00,0x00,0x00,0x00,0x00,0x00,0x00,0x00,0x00,0x00,0x00,0x00,0x00,0x00,0x00,
 0x00,0x00,0x00,0x00,0x00,0x00,0x00,0x00,0x00,0x00,0x00,0x00,0x00,0x00,0x00,
 0x00,0x00,0x00,0x58,0x1d,0x00,0x00,0x00,0x00,0x00,0x00,0x00,0x00,0x00,0x00,
 0x00,0x00,0x00,0x00,0x00,0x00,0x00,0x00,0x00,0x00,0x00,0x00,0x00,0x00,0x00,
 0x00,0x00,0x00,0x00,0x00,0x00,0x00,0x00,0x00,0x00,0x00,0x00,0x00,0x00,0x00,
 0x00,0x00,0x00,0x00,0x00,0x00,0x00,0x00,0x00,0x00,0x00,0x00,0x00,0x00,0x00,
 0x00,0x50,0x1d,0x00,0x00,0x00,0x00,0x00,0x00,0x00,0x00,0x00,0x00,0x00,0x00,
 0x00,0x00,0x00,0x00,0x00,0x00,0x00,0x00,0x00,0x00,0x00,0x00,0x00,0x00,0x00,
 0x00,0x00,0x00,0x00,0x00,0x00,0x00,0x00,0x00,0x00,0x00,0x00,0x00,0x00,0x00,
 0x00,0x00,0x00,0x00,0x00,0x00,0x00,0x00,0x00,0x00,0x00,0x00,0x00,0x00,0xa0,
 0x1e,0x00,0x00,0x00,0x00,0x00,0x00,0x00,0x00,0x00,0x00,0x00,0x00,0x00,0x00,
 0x00,0x00,0x00,0x00,0x00,0x00,0x00,0x00,0x00,0x00,0x00,0x00,0x00,0x00,0x00,
 0x00,0x00,0x00,0x00,0x00,0x00,0x00,0x00,0x00,0x00,0x00,0x00,0x00,0x00,0x00,
 0x00,0x00,0x00,0x00,0x00,0x00,0x00,0x00,0x00,0x00,0x00,0x00,0xc0,0x0f,0x00,
 0x00,0x00,0x00,0x00,0x00,0x00,0x00,0x00,0x00,0x00,0x00,0x00,0x00,0x00,0x00,
 0x00,0x00,0x00,0x00,0x00,0x00,0x00,0x00,0x00,0x00,0x00,0x00,0x00,0x00,0x00,
 0x00,0x00,0x00,0x00,0x00,0x00,0x00,0x00,0x00,0x00};
