#define wl_beta_xmas_logo_width 464
#define wl_beta_xmas_logo_height 160
static char wl_beta_xmas_logo_bits[] = {
 0x00,0x00,0x00,0x00,0x00,0x00,0x00,0x00,0x00,0x00,0x00,0x00,0x00,0x00,0x00,
 0x00,0x00,0x00,0x00,0x00,0x00,0x00,0x00,0x00,0x00,0x00,0x00,0x00,0x00,0x00,
 0x00,0x00,0x00,0x00,0x00,0x00,0x00,0x00,0x00,0x00,0x00,0x00,0x00,0x00,0x00,
 0x00,0x00,0x00,0x00,0x00,0x00,0x00,0x00,0x00,0x00,0x00,0x00,0x00,0x00,0x00,
 0x00,0x00,0x00,0x00,0x00,0x00,0x00,0x00,0x00,0x00,0x00,0x00,0x00,0x00,0x00,
 0x00,0x00,0x00,0x00,0x00,0x00,0x00,0x00,0x00,0x00,0x00,0x00,0x00,0x00,0x00,
 0x00,0x00,0x00,0x00,0x00,0x00,0x00,0x00,0x00,0x00,0x00,0x00,0x00,0x00,0x00,
 0x00,0x00,0x00,0x00,0x00,0x00,0x00,0x00,0x00,0x00,0x00,0x00,0x00,0x00,0x00,
 0x00,0x00,0x00,0x00,0x00,0x00,0x00,0x00,0x00,0x00,0x00,0x00,0x00,0x00,0x00,
 0x00,0x00,0x00,0x00,0x00,0x00,0x00,0x00,0x00,0x00,0x00,0x00,0x00,0x00,0x00,
 0x00,0x00,0x00,0x00,0x00,0x00,0x00,0x00,0x00,0x00,0x00,0x00,0x00,0x00,0x00,
 0x00,0x00,0x00,0x00,0x00,0x00,0x00,0x00,0x00,0x00,0x00,0x00,0x00,0x00,0x00,
 0x00,0x00,0x00,0x00,0x00,0x00,0x00,0x00,0x00,0x00,0x00,0x00,0x00,0x00,0x00,
 0x00,0x00,0x00,0x00,0x00,0x00,0x00,0x00,0x00,0x00,0x00,0x00,0x00,0x00,0x00,
 0x00,0x00,0x00,0x00,0x00,0x00,0x00,0x00,0x00,0x00,0x00,0x00,0x00,0x00,0x00,
 0x00,0x00,0x00,0x00,0x00,0x00,0x00,0x00,0x00,0x00,0x00,0x00,0x00,0x00,0x00,
 0x00,0x00,0x00,0x00,0x00,0x00,0x00,0x00,0x00,0x00,0x00,0x00,0x00,0x00,0x00,
 0x00,0x00,0x00,0x00,0x00,0x00,0x00,0x00,0x00,0x00,0x00,0x00,0x00,0x00,0x00,
 0x00,0x00,0x00,0x00,0x00,0x00,0x00,0x00,0x00,0x00,0x00,0x00,0x00,0x00,0x00,
 0x00,0x00,0x00,0x00,0x00,0x00,0x00,0x00,0x00,0x00,0x00,0x00,0x00,0x00,0x00,
 0x00,0x00,0x00,0x00,0x00,0x00,0x00,0x00,0x00,0x00,0x00,0x00,0x00,0x00,0x00,
 0x00,0x00,0x00,0x00,0x00,0x00,0x00,0x00,0x00,0x00,0x00,0x00,0x00,0x00,0x00,
 0x00,0x00,0x00,0x00,0x00,0x00,0x00,0x00,0x00,0x00,0x00,0x00,0x00,0x00,0x00,
 0x00,0x00,0x00,0x00,0x00,0x00,0x00,0x00,0x00,0x00,0x00,0x00,0x00,0x00,0x00,
 0x00,0x00,0x00,0x00,0x00,0x00,0x00,0x00,0x00,0x00,0x00,0x00,0x00,0x00,0x00,
 0x00,0x00,0x00,0x00,0x00,0x00,0x00,0x00,0x00,0x00,0x00,0x00,0x00,0x00,0x00,
 0x00,0x00,0x00,0x00,0x00,0x00,0x00,0x00,0x00,0x00,0x00,0x00,0x00,0x00,0x00,
 0x00,0x00,0x00,0x00,0x00,0x00,0x00,0x00,0x00,0x18,0x00,0x00,0x00,0x00,0x00,
 0x00,0x00,0x00,0x00,0x00,0x00,0x00,0x00,0x00,0x00,0x00,0x00,0x00,0xa0,0xaa,
 0x00,0x00,0x00,0x00,0x00,0x00,0x00,0x00,0x00,0x00,0x00,0x00,0x00,0x00,0x00,
 0x00,0x00,0x00,0x00,0x00,0x00,0x00,0x00,0x00,0x00,0x00,0x00,0x00,0x00,0x00,
 0x00,0x00,0x00,0x00,0x00,0x00,0x00,0x2e,0x00,0x00,0x00,0x00,0x00,0x00,0x00,
 0x00,0x00,0x00,0x00,0x00,0x00,0x00,0x00,0x00,0x00,0x50,0x15,0x11,0x2a,0x00,
 0x00,0x00,0x00,0x00,0x00,0x00,0x00,0x00,0x00,0x00,0x00,0x00,0x00,0x00,0x00,
 0x00,0x00,0x00,0x00,0x00,0x00,0x00,0x00,0x00,0x00,0x00,0x00,0x00,0x00,0x00,
 0x00,0x00,0x00,0x00,0x00,0x7a,0x00,0x00,0x00,0x00,0x00,0x00,0x00,0x00,0x00,
 0x00,0x00,0x00,0x00,0x00,0x00,0x00,0x80,0x8a,0x88,0x88,0x84,0x02,0x00,0x00,
 0x00,0x00,0x00,0x00,0x00,0x00,0x00,0x00,0x00,0x00,0x00,0x00,0x00,0x00,0x00,
 0x00,0x00,0x00,0x00,0x00,0x00,0x00,0x00,0x00,0x00,0x00,0x00,0x00,0x00,0x00,
 0x00,0x00,0x80,0x77,0x00,0x00,0x00,0x00,0x00,0x00,0x00,0x00,0x00,0x00,0x00,
 0x00,0x00,0x00,0x00,0x00,0x48,0x20,0x52,0x24,0x21,0x28,0x00,0x00,0x00,0x00,
 0x00,0x00,0x00,0x00,0x00,0x00,0x00,0x00,0x00,0x00,0x00,0x00,0x00,0x00,0x00,
 0x00,0x00,0x00,0x00,0x00,0x00,0x00,0x00,0x00,0x00,0x00,0x00,0x00,0x00,0x00,
 0x80,0x7a,0x00,0x00,0x00,0x00,0x00,0x00,0x00,0x00,0x00,0x00,0x00,0x00,0x00,
 0x00,0x00,0x00,0x25,0x95,0x84,0x92,0x80,0x82,0x00,0x00,0x00,0x00,0x00,0x00,
 0x00,0x00,0x00,0x00,0x00,0x00,0x00,0x00,0x00,0x00,0x00,0x00,0x00,0x00,0x00,
 0x00,0x00,0x00,0x00,0x00,0x00,0x00,0x00,0x00,0x00,0x00,0x00,0x00,0xf0,0x6d,
 0x00,0x00,0x00,0x00,0x00,0x00,0x00,0x00,0x00,0x00,0x00,0x00,0x00,0x00,0x00,
 0x90,0x10,0x02,0x21,0x40,0x58,0x28,0x04,0x00,0x00,0x00,0x00,0x00,0x00,0x00,
 0x00,0x00,0x00,0x00,0x00,0x00,0x00,0x00,0x00,0x00,0x00,0x00,0x00,0x00,0x00,
 0x00,0x00,0x00,0x00,0x00,0x00,0x00,0x00,0x00,0x00,0x00,0xa8,0x76,0x00,0x00,
 0x00,0x00,0x00,0x00,0x00,0x00,0x00,0x00,0x00,0x00,0x00,0x00,0x00,0x44,0x8a,
 0x54,0x4a,0x15,0x3c,0x02,0x11,0x00,0x00,0x00,0x00,0x00,0x00,0x00,0x00,0x00,
 0x00,0x00,0x00,0x00,0x00,0x00,0x00,0x00,0x00,0x00,0x00,0x00,0x00,0x00,0x00,
 0x00,0x00,0x00,0x00,0x00,0x00,0x00,0x00,0x00,0xb4,0x6b,0x00,0x00,0x00,0x00,
 0x00,0x00,0x00,0x00,0x00,0x00,0x00,0x00,0x00,0x00,0x00,0x29,0x51,0x88,0x10,
 0x42,0xff,0xa8,0x44,0x01,0x00,0x00,0x00,0x00,0x00,0x00,0x00,0x00,0x00,0x00,
 0x00,0x00,0x00,0x00,0x00,0x00,0x00,0x00,0x00,0x00,0x00,0x00,0x00,0x00,0x00,
 0x00,0x00,0x00,0x00,0x00,0x00,0x00,0x6c,0x7d,0x00,0x00,0x00,0x00,0x00,0x00,
 0x00,0x00,0x00,0x00,0x00,0x00,0x00,0x00,0x40,0x92,0x84,0x42,0x44,0x14,0x7f,
 0x02,0x10,0x00,0x00,0x00,0x00,0x00,0x00,0x00,0x00,0x00,0x00,0x00,0x00,0x00,
 0x00,0x00,0x00,0x00,0x00,0x00,0x00,0x00,0x00,0x00,0x00,0x00,0x00,0x00,0x00,
 0x00,0x00,0x00,0x00,0x80,0xb7,0x6b,0x00,0x00,0x00,0x00,0x00,0x00,0x00,0x00,
 0x00,0x00,0x00,0x00,0x00,0x80,0x58,0x49,0x52,0x28,0x09,0xa1,0x7e,0xa8,0x42,
 0x0a,0x00,0x00,0x00,0x00,0x00,0x00,0x00,0x00,0x00,0x00,0x00,0x00,0x00,0x00,
 0x00,0x00,0x00,0x00,0x00,0x00,0x00,0x00,0x00,0x00,0x00,0x00,0x00,0x00,0x00,
 0x00,0x00,0x40,0xdd,0x76,0x00,0x00,0x00,0x00,0x00,0x00,0x00,0x00,0x00,0x00,
 0x00,0x00,0x00,0x80,0x32,0x25,0x09,0x45,0xc2,0x0f,0xfa,0x02,0x08,0x10,0x00,
 0x00,0x00,0x00,0x00,0x00,0x00,0x00,0x00,0x00,0x00,0x00,0x00,0x00,0x00,0x00,
 0x00,0x00,0x00,0x00,0x00,0x00,0x00,0x00,0x00,0x00,0x00,0x00,0x00,0x00,0x00,
 0xa0,0x6b,0x7b,0x00,0x00,0x00,0x00,0x00,0x00,0x00,0x00,0x00,0x00,0x00,0x00,
 0x00,0x60,0x9d,0x94,0xa4,0x90,0xe4,0x5f,0x71,0x48,0xa2,0x22,0x00,0x00,0x00,
 0x00,0x00,0x00,0x00,0x00,0x00,0x00,0x00,0x00,0x00,0x00,0x00,0x00,0x00,0x00,
 0x00,0x00,0x00,0x00,0x00,0x00,0x00,0x00,0x00,0x00,0x00,0x00,0x00,0x68,0xbd,
 0x6d,0x00,0x00,0x00,0x00,0x00,0x00,0x00,0x00,0x00,0x00,0x00,0x00,0x00,0x80,
 0xaa,0x4a,0x42,0x00,0xc8,0x3f,0x64,0x82,0x08,0x80,0x00,0x00,0x00,0x00,0x00,
 0x00,0x00,0x00,0x00,0x00,0x00,0x00,0x00,0x00,0x00,0x00,0x00,0x00,0x00,0x00,
 0x00,0x00,0x00,0x00,0x00,0x00,0x00,0x00,0x00,0x00,0x00,0xb8,0xd7,0x76,0x00,
 0x00,0x00,0x00,0x00,0x40,0x01,0x00,0x00,0x00,0x00,0x00,0x00,0x50,0x5d,0x22,
 0x14,0x7c,0x82,0xbf,0xe2,0x28,0x82,0x14,0x01,0x00,0x00,0x00,0x00,0x00,0x00,
 0x00,0x00,0x00,0x00,0x00,0x00,0x00,0x00,0x00,0x00,0x00,0x00,0x00,0x00,0x00,
 0x00,0x00,0x00,0x00,0x00,0x00,0x00,0x00,0x00,0xdf,0x7a,0x7b,0x00,0x00,0x00,
 0x00,0x00,0xa0,0x0a,0x00,0x00,0x00,0x00,0x00,0x00,0x80,0x32,0x99,0x01,0xff,
 0x29,0x7f,0xe8,0x02,0x28,0x80,0x02,0x00,0x00,0x00,0x00,0x00,0x00,0x00,0x00,
 0x00,0x00,0x00,0x00,0x00,0x00,0x00,0x00,0x00,0x00,0x00,0x00,0x00,0x00,0x00,
 0x00,0x00,0x00,0x00,0x00,0x00,0xc0,0x6a,0xad,0x6d,0x00,0x00,0x00,0x00,0x00,
 0x58,0x15,0x00,0x00,0x00,0x00,0x00,0x00,0xb4,0x5b,0x45,0xaa,0xff,0x03,0xfe,
 0xe2,0xa9,0x02,0x25,0x04,0x00,0x00,0x00,0x00,0x00,0x00,0x00,0x00,0x00,0x00,
 0x00,0x00,0x00,0x00,0x00,0x00,0x00,0x05,0x00,0x00,0x00,0x00,0x00,0x00,0x00,
 0x00,0x00,0x00,0x00,0x40,0xbb,0x77,0x3b,0x00,0x00,0x00,0x00,0x00,0xac,0x2a,
 0x00,0x00,0x00,0x00,0x00,0x00,0xd2,0x2d,0xa9,0x84,0xff,0xa7,0xfe,0xc9,0x00,
 0x50,0x80,0x0c,0x00,0x00,0x00,0x00,0x00,0x00,0x00,0x00,0x00,0x00,0x00,0x00,
 0x00,0x00,0x00,0x00,0x80,0x06,0x00,0x00,0x00,0x00,0x00,0x00,0x00,0x00,0x00,
 0x00,0x00,0xf8,0xd7,0xaa,0x3d,0x00,0x00,0x00,0x00,0x00,0xab,0x75,0x00,0x00,
 0x00,0x00,0x00,0x80,0x4a,0x94,0x10,0xd2,0x47,0x1f,0xfc,0xc3,0xab,0x84,0x14,
 0x08,0x00,0x00,0x00,0x00,0x00,0x00,0x00,0x00,0x00,0x00,0x00,0x00,0x00,0x00,
 0x00,0x00,0x40,0x12,0x00,0x00,0x00,0x00,0x00,0x00,0x00,0x00,0x00,0x00,0x00,
 0x56,0xbd,0xfd,0x36,0x00,0x00,0x00,0x00,0x80,0xaa,0x56,0x00,0x00,0x00,0x00,
 0x00,0xa0,0x54,0x25,0x8c,0xc4,0xbb,0xbd,0xfc,0xd7,0x01,0x11,0x40,0x11,0x00,
 0x00,0x00,0x00,0x00,0x00,0x00,0x00,0x00,0x00,0x00,0x00,0x00,0x00,0x00,0x00,
 0x20,0x19,0x00,0x00,0x00,0x00,0x00,0x00,0x00,0x00,0x00,0x00,0x80,0x6d,0x6b,
 0xab,0x3d,0x00,0x00,0x00,0x00,0x40,0xb5,0xea,0x00,0x00,0x00,0x00,0x00,0x40,
 0x25,0x85,0x7f,0xd9,0x1f,0xf8,0x1b,0xcf,0x29,0x84,0x2a,0x24,0x00,0x00,0x00,
 0x00,0x00,0x00,0x00,0x00,0x00,0x00,0x00,0x00,0x00,0x00,0x00,0x00,0xc0,0x16,
 0x00,0x00,0x00,0x00,0x00,0x00,0x00,0x00,0x00,0x00,0x60,0xbb,0xdd,0xdd,0x1e,
 0x00,0x00,0x00,0x00,0x40,0x55,0xd5,0x00,0x00,0x00,0x00,0x00,0x28,0x92,0xe0,
 0xff,0xcf,0x01,0x30,0xf8,0xfe,0x03,0x21,0x34,0x60,0x00,0x00,0x00,0x00,0x00,
 0x00,0x00,0x00,0x00,0x00,0x00,0x00,0x00,0x00,0x00,0x00,0x60,0x1a,0x00,0x00,
 0x00,0x00,0x00,0x00,0x00,0x00,0x00,0xa0,0xa8,0xed,0x76,0x6b,0x1b,0x00,0x00,
 0x00,0x00,0xb0,0xaa,0xea,0x00,0x00,0x00,0x00,0x00,0x54,0xa9,0xfc,0x7f,0xc0,
 0x01,0x30,0x38,0xfc,0x57,0x88,0x68,0x49,0x00,0x00,0x00,0x00,0x00,0x00,0x11,
 0x00,0x00,0x00,0x00,0x00,0x00,0x00,0x00,0x00,0x00,0x05,0x00,0x00,0x00,0x00,
 0x00,0x00,0x00,0x00,0x00,0xd0,0x7d,0xb7,0xad,0xdd,0x1e,0x00,0x00,0x00,0x00,
 0x50,0x57,0xed,0x00,0x00,0x00,0x00,0x00,0x4a,0x95,0xfc,0x3f,0xe0,0x01,0x70,
 0x30,0xf8,0x07,0x22,0x3c,0x80,0x00,0x00,0x00,0x00,0x00,0x00,0x25,0x00,0x00,
 0x00,0x00,0x00,0x00,0x00,0x00,0x00,0x80,0x07,0x00,0x00,0x00,0x00,0x00,0x00,
 0x00,0x00,0x00,0xc8,0xd6,0x6d,0xf7,0x6e,0x0f,0x00,0x00,0x00,0x00,0x68,0xb5,
 0x75,0x00,0x00,0x00,0x00,0x40,0x29,0x40,0xfd,0x0f,0xc0,0x01,0x70,0x70,0xf8,
 0xaf,0x88,0x82,0xa4,0x01,0x00,0x00,0x00,0x00,0xc0,0x3a,0x00,0x00,0x00,0x00,
 0x00,0x00,0x00,0x00,0x00,0x00,0x00,0x00,0x00,0x00,0x00,0x00,0x00,0x00,0xc0,
 0x01,0x26,0xff,0xde,0xad,0xb5,0x0f,0x00,0x00,0x00,0x00,0xa8,0xaa,0x6a,0x00,
 0x00,0x00,0x00,0x20,0x05,0xbe,0x7e,0x0f,0x80,0x00,0x70,0x70,0xf0,0x0f,0x02,
 0x10,0x00,0x01,0x00,0x00,0x00,0x00,0x00,0x15,0x00,0x00,0x00,0x00,0x00,0x00,
 0x00,0x00,0x00,0x00,0x00,0x00,0x00,0x00,0x00,0x00,0x00,0x00,0x40,0xfd,0xdb,
 0xaa,0xb5,0x76,0xdb,0x06,0x00,0x00,0x00,0x00,0x54,0x55,0x75,0x00,0x00,0x00,
 0x00,0x90,0xe2,0xff,0x07,0x0e,0x80,0x01,0x60,0x70,0xf0,0xa7,0x50,0x8a,0x24,
 0x03,0x00,0x00,0x00,0x00,0x80,0x1a,0x00,0x00,0x00,0x00,0x00,0x00,0x00,0x00,
 0x00,0x00,0x00,0x00,0x00,0x00,0x00,0x00,0x00,0x00,0x80,0x57,0xdd,0xdf,0xee,
 0xdb,0xb6,0x07,0x00,0x00,0x00,0x00,0xdb,0x5a,0x75,0x00,0x00,0x00,0x00,0xa0,
 0xf8,0xff,0x00,0x06,0x80,0x01,0xf0,0x70,0xe0,0x1f,0x04,0x20,0x80,0x02,0x00,
 0x00,0x00,0x00,0x00,0x25,0x00,0x00,0x00,0x00,0x00,0x00,0x00,0x00,0x00,0x00,
 0x00,0x00,0x00,0x00,0x00,0x00,0x00,0x00,0x80,0xfa,0xaf,0x76,0xbb,0xb6,0xed,
 0x03,0x00,0x00,0x00,0x00,0x55,0xab,0x3a,0x00,0x00,0x00,0x00,0xa8,0xfc,0x3f,
 0x00,0x0e,0x80,0x01,0xf0,0x60,0x80,0x8f,0xa2,0x84,0x12,0x06,0x00,0x00,0x00,
 0x00,0x40,0x37,0x00,0x00,0x00,0x00,0x00,0x00,0x00,0x00,0x00,0x00,0x00,0x00,
 0x00,0x00,0x00,0x00,0x00,0x00,0x80,0x5f,0xf5,0xdb,0x6d,0xef,0xde,0x01,0x00,
 0x00,0x00,0x00,0x6d,0x55,0x3b,0x00,0x00,0x00,0x00,0x94,0xfc,0x7f,0x00,0x1c,
 0x80,0x03,0xf0,0xf0,0x01,0x07,0x08,0x10,0x40,0x06,0x00,0x00,0x00,0x00,0x80,
 0x19,0x00,0x00,0x00,0x00,0x00,0x00,0x00,0x00,0x00,0x00,0x00,0x00,0x00,0x00,
 0x00,0x00,0x00,0x00,0x80,0xea,0xff,0x6e,0xdb,0xba,0xf5,0x00,0x00,0x00,0x00,
 0x40,0xab,0x6a,0x1d,0x00,0x00,0x00,0x00,0x55,0xfc,0x7b,0x00,0x1c,0x00,0x03,
 0xf0,0xf0,0x07,0x06,0xa2,0x02,0x09,0x04,0x00,0x00,0x00,0x00,0x00,0x00,0x00,
 0x00,0x00,0x00,0x00,0x00,0x00,0x00,0x00,0x00,0x00,0x00,0x00,0x00,0x00,0x00,
 0x00,0x00,0x00,0xbf,0xaa,0xfb,0xee,0x6d,0x77,0x00,0x00,0x00,0x00,0xa0,0xd5,
 0x56,0x1d,0x00,0x00,0x00,0x00,0xaa,0xfe,0x78,0x00,0x3c,0x00,0x07,0xf0,0xf0,
 0x0f,0x00,0x08,0x48,0x20,0x0d,0x00,0x00,0x00,0x00,0x00,0x00,0x00,0x00,0x00,
 0x00,0x00,0x00,0x00,0x00,0x00,0x00,0x00,0x00,0x00,0x00,0x00,0x00,0x00,0x00,
 0x00,0xd5,0xdf,0xad,0x5b,0xb7,0x3d,0x00,0x00,0x00,0x00,0x40,0xad,0xaa,0x0e,
 0x00,0x00,0x00,0xfc,0x51,0x3e,0x70,0x00,0x38,0x00,0x07,0xf0,0xf0,0x07,0x00,
 0x20,0x01,0x04,0x0c,0x00,0x00,0x00,0x00,0x00,0x00,0x00,0x00,0x00,0x00,0x00,
 0x00,0x00,0x00,0x00,0x00,0x00,0x00,0x00,0x00,0x00,0x00,0x00,0x00,0x00,0x7e,
 0x75,0xf7,0xee,0xda,0x1e,0x00,0x00,0x00,0x00,0xb0,0xd5,0x5a,0x0f,0x00,0x00,
 0x80,0xff,0x4b,0x1d,0x00,0x00,0x38,0x00,0x0e,0xf8,0xe0,0x07,0x00,0x00,0x20,
 0x91,0x0c,0x00,0x00,0x00,0x00,0x00,0x00,0x00,0x00,0x00,0x00,0x00,0x00,0x00,
 0x00,0x00,0x00,0x00,0x00,0x00,0x00,0x00,0x00,0x00,0x00,0x00,0xd6,0xbf,0xad,
 0x75,0xb7,0x0f,0x00,0x00,0x00,0x00,0xd0,0x5a,0xab,0x07,0x00,0x00,0xe0,0xff,
 0xaf,0x1d,0x00,0x00,0x78,0x00,0xfc,0x78,0x00,0x00,0x00,0x50,0x9e,0x00,0x08,
 0x00,0x00,0x00,0x00,0x00,0x00,0x00,0x00,0x00,0x00,0x00,0x00,0x00,0x00,0x00,
 0x00,0x00,0x00,0x00,0x00,0x00,0x00,0x00,0x00,0x00,0x7a,0xd5,0x7b,0xaf,0xed,
 0x07,0x00,0x00,0x00,0x00,0x68,0xad,0xaa,0x03,0x00,0x00,0xf0,0xff,0xd7,0x39,
 0x00,0x00,0x70,0x00,0xf8,0x7f,0x00,0x00,0x00,0x00,0x17,0x24,0x19,0x40,0x01,
 0x00,0x00,0x00,0x00,0x00,0x00,0x00,0x00,0x00,0x00,0x00,0x00,0x00,0x00,0x00,
 0x00,0x00,0x00,0x00,0x00,0x00,0x00,0x00,0xac,0xff,0xd6,0xda,0xee,0x01,0x00,
 0x00,0x00,0x00,0x58,0x6b,0xd5,0x01,0x00,0x80,0xf0,0x2f,0xef,0xfc,0x1f,0x00,
 0xf0,0x00,0xf0,0x3f,0x00,0x00,0x00,0x00,0x97,0x00,0x18,0xa0,0x01,0x00,0x00,
 0x00,0x00,0x00,0x80,0x01,0x00,0x00,0x00,0x00,0x00,0x00,0x0c,0x00,0x00,0x00,
 0x00,0x00,0x00,0x00,0x00,0x00,0xf8,0x55,0xbf,0x77,0xca,0x00,0x00,0x00,0x00,
 0x00,0x6e,0xad,0xf6,0x00,0x00,0xfc,0xe1,0x53,0x7e,0xf8,0xff,0x00,0xf0,0x00,
 0xe0,0x1f,0x00,0x00,0x00,0x00,0x37,0x48,0x1a,0x90,0x04,0x00,0x00,0x00,0x00,
 0x00,0x80,0x01,0x00,0x00,0x00,0x00,0x00,0x00,0x0c,0x00,0x00,0x00,0x00,0x00,
 0xb8,0x01,0x00,0x00,0xa8,0xfe,0xea,0xad,0x75,0x00,0x00,0x00,0x00,0x00,0xa8,
 0x6a,0x75,0x00,0x00,0xfe,0xc1,0x2b,0x1f,0xf0,0xff,0x01,0xf0,0x05,0x80,0x0f,
 0x00,0x00,0x00,0xc0,0x98,0x02,0x18,0x48,0x06,0x00,0x00,0x00,0x00,0x00,0x00,
 0x03,0x00,0x00,0x00,0x00,0x00,0x00,0x0a,0x00,0x00,0x00,0x00,0x80,0x6b,0x1b,
 0x00,0x00,0xf0,0xab,0xbf,0xde,0x2a,0x00,0x00,0x00,0x00,0x00,0xb7,0xad,0x3a,
 0x00,0xe0,0xff,0x83,0x4b,0x0f,0xe0,0xef,0x03,0xf0,0x1f,0x00,0x01,0x00,0x00,
 0x00,0x00,0x27,0x90,0x18,0xb0,0x05,0x00,0x00,0x00,0x00,0xc0,0x80,0x3f,0x00,
 0x00,0x00,0x00,0x00,0xc0,0x0e,0x00,0x00,0x00,0x00,0x0c,0xf3,0x1b,0x00,0x00,
 0xa0,0xfe,0xd5,0xf5,0x35,0x00,0x00,0x00,0x00,0x80,0x5a,0xb5,0x1d,0x00,0xf8,
 0xff,0x43,0x17,0x0f,0x00,0xc0,0x03,0xf0,0x3f,0x00,0x00,0x00,0x00,0x00,0x80,
 0xa7,0x04,0x12,0x98,0x06,0x00,0x00,0x00,0x00,0x80,0x81,0x35,0x00,0x00,0x00,
 0x00,0x30,0xc6,0x0d,0x00,0x00,0x00,0x00,0x98,0xd1,0x18,0x00,0x00,0xc0,0xab,
 0x7e,0x5b,0x4a,0x00,0x00,0x00,0x00,0x80,0xaa,0xd5,0x0e,0x00,0xf8,0xff,0x03,
 0xc7,0x0f,0x00,0x80,0x03,0xf8,0x3f,0x00,0x00,0x00,0x00,0x00,0x80,0x27,0x40,
 0x18,0x40,0x01,0x00,0x00,0x00,0x00,0xc0,0x01,0x1e,0x00,0x00,0x00,0x00,0x30,
 0x06,0x07,0x00,0x00,0x00,0x00,0xdc,0x71,0x0f,0x00,0x00,0x00,0xfd,0xd5,0xfe,
 0x6e,0x00,0x00,0x00,0x00,0x40,0xdb,0x6a,0x07,0x78,0xf8,0x83,0x67,0xff,0x0f,
 0x00,0x00,0x03,0xfe,0x1f,0x00,0x00,0x00,0x00,0x00,0xc0,0x3f,0x13,0x35,0xe0,
 0x01,0x00,0x00,0x00,0x00,0x80,0x01,0x0f,0xa0,0x00,0x00,0x00,0xa0,0x87,0x03,
 0x00,0x00,0x00,0x00,0xb8,0xe0,0x07,0x00,0x00,0x00,0x54,0xbf,0x3b,0x33,0x00,
 0x00,0x00,0x00,0x40,0xad,0xf6,0x03,0xfe,0xf0,0x01,0x2f,0xfe,0x0f,0x00,0x80,
 0x03,0xfe,0x0f,0x00,0x00,0x00,0x00,0x00,0xe0,0x3f,0x01,0x3a,0x00,0x00,0x00,
 0x00,0x00,0x00,0x00,0x81,0x06,0x94,0x01,0x00,0x00,0xf0,0xc1,0x01,0x00,0x00,
 0x00,0x00,0xe0,0xb0,0x01,0x00,0x00,0x00,0xe0,0xef,0x1e,0x00,0x00,0x00,0x00,
 0x00,0xa0,0xb5,0x92,0x01,0xfe,0xe0,0x60,0xa8,0xfe,0x07,0x60,0x80,0x03,0xfc,
 0x01,0x00,0x00,0x00,0x00,0x00,0xf0,0x3f,0x49,0x35,0x00,0x00,0x00,0x00,0x00,
 0x00,0x80,0x83,0x03,0xc0,0x01,0x00,0x00,0xb0,0xa1,0x01,0x00,0x00,0x00,0x00,
 0xb0,0xe3,0x00,0x00,0x00,0x00,0x00,0xb4,0x07,0x00,0x00,0x00,0x00,0x00,0xd0,
 0xaa,0xc9,0x00,0xfc,0xc0,0xf1,0x54,0xfe,0x0f,0xc0,0xc0,0x07,0x78,0x00,0x00,
 0x00,0x00,0x00,0x00,0xf0,0xef,0x01,0x2a,0x00,0x00,0x00,0x00,0x00,0x00,0x00,
 0xd6,0x01,0x94,0x01,0x00,0x00,0xc0,0xe1,0x00,0x00,0x00,0x00,0x00,0x70,0xf3,
 0x00,0x00,0x00,0x00,0x00,0xda,0x07,0x00,0x00,0x00,0x00,0x00,0x50,0xb7,0xb6,
 0x0f,0x70,0xc0,0xfb,0x52,0xfd,0x0f,0xc0,0xe1,0x03,0x00,0x00,0x00,0x00,0x00,
 0x00,0x1f,0xf0,0xff,0xff,0x75,0x00,0x00,0x00,0x00,0x00,0x00,0x00,0xfb,0x00,
 0xa2,0x01,0x00,0x00,0x80,0xfd,0x00,0x00,0x00,0x00,0x00,0xe0,0x7d,0x00,0x00,
 0x00,0x00,0x00,0xee,0x01,0x00,0x00,0x00,0x00,0x00,0x68,0xad,0xd7,0x1f,0x70,
 0xc0,0xff,0xa9,0x7d,0x1c,0xc0,0xff,0x03,0x00,0x00,0x00,0x00,0x00,0x00,0x1a,
 0xe0,0x13,0xaa,0x6e,0x00,0x00,0x00,0x00,0x00,0x00,0x00,0x7f,0x80,0x88,0x01,
 0x00,0x00,0x00,0x1b,0x00,0x00,0x00,0x00,0x00,0x00,0x17,0x00,0x00,0x00,0x00,
 0x00,0xfa,0x01,0x00,0x00,0x00,0x00,0x00,0xa8,0x6a,0xeb,0x1f,0x70,0xc0,0xff,
 0xab,0x39,0x3c,0xc0,0xff,0x03,0x00,0x00,0x00,0x00,0x00,0x00,0x1b,0x00,0x10,
 0xf7,0x7b,0x00,0x00,0x00,0x00,0x00,0x00,0x00,0x15,0x00,0xa4,0x01,0x00,0x00,
 0x00,0x1e,0x00,0x00,0x00,0x00,0x00,0x00,0x1a,0x00,0x00,0x00,0x00,0x80,0xef,
 0x00,0x00,0x00,0x00,0x00,0x00,0xb4,0xdb,0xbf,0x0f,0x70,0xc0,0xff,0xd5,0x3d,
 0x78,0xc0,0xff,0x01,0x00,0x00,0x00,0x00,0x00,0x00,0x1d,0x38,0x1c,0xad,0x1f,
 0x00,0x00,0x00,0x00,0x00,0x00,0x00,0x1e,0x80,0x90,0x01,0x00,0x00,0x00,0x15,
 0x00,0x00,0x00,0x00,0x00,0x00,0x1f,0x00,0x00,0x00,0x00,0x80,0x7a,0x00,0x00,
 0x00,0x00,0x00,0x00,0xd4,0xec,0x01,0x0f,0x70,0x80,0xff,0xe1,0x38,0xf0,0xc1,
 0xdf,0xa0,0x00,0x00,0x00,0x00,0x00,0x00,0x17,0xf8,0x3f,0xfb,0xd9,0x01,0x00,
 0x00,0x00,0x30,0x00,0x00,0x1b,0x00,0x5e,0x00,0x60,0x00,0x00,0x1f,0x00,0x1c,
 0x00,0x80,0xf7,0xee,0x1e,0x00,0x00,0x00,0x00,0xc0,0x3f,0x00,0x00,0x00,0x00,
 0x00,0x00,0x5a,0xf7,0x00,0x1e,0x78,0x80,0xff,0x7a,0x38,0xe0,0x83,0x07,0xd0,
 0x00,0x00,0x00,0x00,0x00,0x00,0x1d,0xf8,0x1f,0x6e,0xb5,0x01,0x00,0x00,0x00,
 0x60,0x00,0x80,0x6d,0xef,0x1a,0x0f,0xdc,0x01,0xd8,0xda,0x03,0x1b,0x0f,0xbc,
 0xfe,0xff,0x1b,0x00,0x00,0x00,0x00,0x60,0x1d,0x00,0x00,0x00,0x00,0x00,0x00,
 0xb4,0x6a,0x00,0x1c,0x78,0x00,0xdf,0x39,0x38,0xc0,0x03,0x00,0x48,0x02,0x00,
 0x00,0x00,0x00,0x00,0x1b,0xf0,0x1f,0xbb,0x62,0x03,0x00,0x00,0x00,0xf0,0x00,
 0xd8,0xfe,0xff,0xed,0x1a,0xec,0xfe,0xfd,0xfd,0x7b,0xdd,0xea,0xfd,0x07,0x00,
 0x1e,0x00,0x00,0x00,0x00,0xb0,0x0f,0x00,0x00,0x00,0x00,0x00,0x00,0xdb,0x7a,
 0x00,0x18,0x78,0x00,0x57,0x3a,0xf8,0x80,0x03,0x00,0x24,0x03,0x00,0x00,0x00,
 0x00,0x00,0x36,0xe0,0x1f,0x7d,0xd5,0x0f,0x00,0x00,0x00,0xaf,0xc1,0xfb,0x15,
 0x00,0xfb,0xef,0x5b,0xfb,0x0f,0x17,0xfe,0xfb,0xff,0x07,0x0d,0x00,0x1b,0x18,
 0x00,0x00,0x00,0xe8,0x06,0x00,0x00,0x00,0x00,0x00,0x00,0x6d,0x37,0x00,0x70,
 0x70,0x00,0xa7,0x72,0xfc,0x01,0x00,0x00,0xd8,0x02,0x00,0x00,0x00,0x00,0x00,
 0x7d,0xbf,0x7b,0x57,0xf1,0x1a,0x1f,0xf0,0x61,0xff,0xb6,0xb6,0x1f,0x50,0xde,
 0xff,0xff,0xd7,0x6e,0x1d,0x00,0x1f,0x1f,0x80,0xdb,0xb6,0x1d,0x1c,0x00,0x00,
 0x00,0xb8,0x03,0x00,0x00,0x00,0x00,0x00,0x80,0xaa,0x3a,0x00,0xe0,0x70,0x00,
 0x5e,0x79,0xfc,0x01,0x00,0x00,0x4c,0x03,0x00,0x00,0x00,0x00,0x00,0xd7,0xea,
 0xd6,0xbd,0x52,0x6f,0xb5,0x57,0xf7,0x41,0x6f,0xef,0x1a,0x00,0xe1,0x00,0x40,
 0x7d,0xdb,0x1e,0x00,0x00,0x00,0x80,0xb6,0x6d,0x1b,0x0c,0x00,0x00,0x00,0xe8,
 0x03,0x00,0x00,0x00,0x00,0x80,0x83,0xb6,0x1d,0x00,0xe0,0x78,0x00,0x2e,0x7c,
 0xf8,0x01,0x00,0x00,0xa0,0x00,0x00,0x00,0x00,0x00,0x00,0xed,0xbd,0xfd,0xb6,
 0xf8,0xfa,0xfe,0xbf,0x3f,0xc0,0xda,0x5a,0x1f,0xa8,0x68,0x00,0x80,0xab,0xbd,
 0x0b,0x00,0x00,0x00,0x00,0x7b,0xf7,0x1e,0x0e,0x00,0x00,0x00,0xfe,0x01,0x00,
 0x00,0x00,0x00,0xf0,0x47,0xdb,0x1e,0x00,0xc0,0x79,0x00,0x8e,0xff,0x70,0x00,
 0x00,0x00,0xf0,0x00,0x00,0x00,0x00,0x00,0x00,0x5a,0x6b,0xab,0x5d,0x54,0x1f,
 0x17,0xf0,0x01,0x80,0xbf,0xf7,0x0d,0x04,0x75,0x00,0x00,0xf6,0xeb,0x0e,0x00,
 0x00,0x00,0x00,0xd6,0xad,0x4d,0x06,0x00,0x00,0x00,0xea,0x00,0x00,0x00,0x00,
 0x00,0xf0,0x8f,0x55,0x0d,0x00,0xc0,0xff,0x00,0xfe,0xff,0x00,0x00,0x00,0x00,
 0x00,0x00,0x00,0x00,0x00,0x00,0x00,0xfc,0xdf,0xff,0x37,0xef,0x1f,0x18,0x00,
 0x00,0x80,0x6a,0x5d,0x07,0x50,0x30,0x00,0x00,0x5d,0xbd,0x07,0x00,0x00,0x00,
 0x00,0xef,0xde,0x0f,0x07,0x00,0x00,0x00,0x7e,0x00,0x00,0x00,0x00,0x00,0xe0,
 0xff,0x6e,0x0f,0x00,0x80,0x7f,0x00,0xff,0x7f,0x00,0x00,0x00,0x00,0x00,0x00,
 0x00,0x00,0x00,0x00,0x00,0xa0,0xb1,0x0f,0x1d,0xfa,0x00,0x00,0x00,0x00,0x00,
 0xf7,0xeb,0x01,0x0a,0x3d,0x00,0x00,0xb7,0xd7,0x02,0x00,0x00,0x00,0x00,0xba,
 0xb5,0x86,0x03,0x00,0x00,0x80,0x3b,0x00,0x00,0x00,0x00,0x18,0xc0,0x7f,0xb5,
 0x0e,0x00,0x80,0xff,0x00,0xff,0x3f,0x00,0x00,0x00,0x00,0x00,0x00,0x00,0x00,
 0x00,0x00,0x00,0xd0,0xe1,0x5f,0x9b,0x57,0x00,0x00,0x00,0x00,0x80,0xad,0xbe,
 0x01,0xa0,0x18,0x00,0x80,0xfd,0xbf,0x03,0x20,0x02,0x00,0x00,0xd7,0xef,0xc7,
 0x01,0x00,0x00,0xc0,0x3e,0x00,0x00,0x00,0xc0,0x7f,0x00,0xff,0xdb,0x07,0x00,
 0x00,0x7f,0x80,0xfe,0x07,0x00,0x00,0x00,0x00,0x00,0x00,0x00,0x00,0x00,0x00,
 0x00,0x70,0xb1,0x3f,0xdd,0x7a,0x00,0x00,0x00,0x00,0x00,0xfb,0x6f,0x03,0x15,
 0x0e,0x00,0x80,0x0e,0x60,0x03,0xa0,0x04,0x00,0x80,0x7a,0x73,0xed,0x00,0x00,
 0x00,0x40,0x1f,0x00,0x00,0x00,0xe0,0xff,0x80,0xff,0x55,0x07,0x00,0x00,0x7e,
 0x40,0xfe,0x01,0x00,0x00,0x00,0x00,0x00,0x00,0x00,0x00,0x00,0x00,0xd0,0xd7,
 0xdd,0x7e,0x5b,0x3f,0x00,0x00,0x00,0x00,0xc0,0xfe,0xf0,0x8e,0x40,0x07,0x00,
 0xe0,0x07,0xf0,0x0d,0x58,0x07,0x00,0x80,0xff,0xc1,0x7f,0x00,0x00,0x00,0xc0,
 0x0d,0x00,0x00,0x00,0xfe,0xff,0x80,0xff,0xb6,0x03,0x00,0x00,0xfe,0x40,0x1d,
 0x00,0x00,0x00,0x00,0x00,0x00,0x00,0x00,0x00,0x00,0x00,0xb0,0x7a,0x6b,0xab,
 0xf7,0x1a,0x00,0x00,0x00,0x00,0xc0,0x07,0xc0,0x1b,0x2a,0x07,0x00,0xa0,0x01,
 0xc0,0x0f,0xa0,0x02,0x00,0x60,0x0d,0x00,0x3b,0x00,0x00,0x00,0x70,0x0f,0x00,
 0x00,0x80,0xff,0xff,0x40,0xff,0xac,0x03,0x00,0x00,0x7c,0xa0,0x1e,0x05,0x00,
 0x00,0x00,0x00,0x00,0x00,0x00,0x00,0x00,0x00,0x60,0xdf,0xde,0x7d,0xad,0x0f,
 0x00,0x00,0x00,0x00,0xb0,0x01,0x00,0x9e,0xc4,0x03,0x00,0xd0,0x01,0x00,0x1b,
 0x50,0x03,0x80,0xa1,0x07,0x00,0x3c,0x00,0x00,0x00,0xd8,0x07,0x00,0x00,0x85,
 0xff,0xe7,0x38,0xd7,0xd7,0x03,0x00,0x00,0x78,0xa0,0x8e,0x06,0x00,0x00,0x00,
 0x00,0x00,0x00,0x00,0x00,0x00,0x00,0xf0,0xea,0xf5,0xd6,0xfb,0x06,0x00,0x00,
 0x00,0x00,0xf0,0x01,0x00,0x34,0xd1,0x01,0x00,0xf0,0x00,0x00,0x1e,0xa0,0x04,
 0xd0,0xe1,0x03,0x00,0x3c,0x00,0x00,0x00,0xf0,0x03,0x00,0xc0,0x86,0xff,0xc3,
 0x94,0xcf,0xbb,0x01,0x00,0x00,0x70,0x50,0x07,0x05,0x00,0x38,0x00,0x00,0x00,
 0x00,0x00,0x00,0x00,0x00,0xf0,0xff,0xff,0xff,0xff,0x03,0x00,0x50,0x01,0x00,
 0xf0,0x01,0x00,0xbc,0xe8,0x00,0x00,0x78,0x00,0x00,0x1c,0xe8,0x06,0xc4,0xf0,
 0x00,0x00,0x3e,0x00,0x00,0x00,0xbc,0x03,0x00,0xd8,0x96,0x87,0x83,0x6b,0xe7,
 0xd3,0x01,0x00,0x00,0x20,0xa8,0x87,0x07,0x00,0x56,0x00,0x00,0x00,0x00,0x00,
 0x00,0x00,0x00,0x00,0x00,0x00,0x28,0xc1,0x00,0x00,0x24,0x0d,0x00,0xca,0x01,
 0x00,0x20,0x75,0x00,0x00,0x00,0x00,0x00,0x00,0x30,0x03,0xe0,0x00,0x00,0x10,
 0x07,0x00,0x00,0x00,0xea,0x01,0x00,0x3e,0x19,0x87,0x03,0x3d,0xff,0xe7,0x01,
 0x00,0x00,0x00,0xa8,0x03,0x00,0x00,0xec,0x00,0x00,0x00,0x18,0x00,0x00,0x00,
 0x00,0x00,0xa0,0x0a,0xad,0xe2,0x00,0x80,0xaa,0x1a,0x00,0xf0,0x00,0x00,0x48,
 0x38,0x00,0x28,0x08,0x00,0x00,0x00,0x00,0x00,0x49,0x00,0x80,0x00,0x03,0x00,
 0x00,0x00,0xff,0x00,0x80,0xdf,0x16,0x87,0xc3,0xb7,0xff,0xcf,0x00,0x00,0x00,
 0x00,0xa8,0x03,0x00,0x00,0xbb,0x01,0x00,0x00,0x6a,0x00,0x00,0x00,0x00,0x00,
 0xa8,0x0f,0x54,0x68,0x00,0x40,0x52,0x19,0x00,0x6b,0x00,0x00,0x90,0x1e,0x00,
 0xb4,0x64,0x00,0x00,0x00,0x00,0x40,0x80,0x00,0x10,0x04,0x00,0x00,0x00,0x00,
 0xea,0x00,0xe0,0xff,0x1e,0x06,0x43,0x9d,0xff,0xbf,0x00,0x00,0x00,0x00,0xd6,
 0x01,0x00,0xff,0xee,0x01,0x00,0x80,0xed,0x00,0x00,0x00,0x00,0x80,0xfa,0x00,
 0xaa,0x70,0x00,0xa0,0x2b,0x1d,0x80,0x24,0x00,0x00,0x20,0x0f,0x00,0x92,0xc2,
 0x00,0x00,0x00,0x00,0x00,0x49,0x01,0x44,0x10,0x00,0x0f,0x00,0x80,0x7f,0x00,
 0xe0,0x3f,0x1d,0x0e,0x7f,0x0f,0xff,0xbf,0x01,0x00,0x00,0x00,0xe8,0x00,0xf0,
 0xfa,0xf5,0x01,0x00,0x80,0x76,0x00,0x2c,0x00,0x00,0x40,0x1f,0x00,0x2b,0x34,
 0x00,0xd4,0xa9,0x1a,0xa0,0x52,0x01,0x00,0x48,0x07,0x00,0xc9,0xe8,0x00,0x00,
 0x12,0x00,0x10,0x00,0x02,0x00,0x00,0xe0,0x03,0x00,0x40,0x75,0x00,0xc0,0x9f,
 0x3f,0x0e,0xae,0x07,0xbf,0x7d,0x01,0x00,0x00,0x00,0xed,0x00,0xac,0x87,0xde,
 0x00,0x00,0x60,0x7b,0x00,0xd7,0x00,0x00,0x60,0x07,0x80,0x8a,0x38,0x00,0x64,
 0x40,0x1d,0x40,0x4a,0x02,0x00,0x84,0x03,0x00,0xb6,0x65,0x00,0x80,0x30,0x00,
 0x20,0x49,0x06,0x70,0xf1,0x7f,0x00,0x00,0xe0,0x0f,0x3e,0x80,0x0f,0x10,0x0c,
 0xee,0x03,0xef,0xfc,0x01,0x00,0x00,0x00,0x75,0x00,0xfb,0xc0,0x75,0x00,0x00,
 0xd0,0x75,0xc0,0xfa,0x00,0x00,0xd8,0x03,0x00,0x0a,0x1c,0x00,0x1a,0xa0,0x0e,
 0x20,0x29,0x19,0x00,0xf0,0x01,0x00,0xd3,0x70,0x00,0x40,0x3c,0x00,0x40,0x00,
 0x04,0x00,0x30,0x00,0x00,0x00,0xa0,0x20,0xff,0x00,0x07,0x00,0x80,0xfe,0x40,
 0x5f,0xfd,0x03,0x00,0x00,0x00,0x75,0xc0,0x7d,0x40,0x5f,0x00,0x00,0xb0,0x3e,
 0x40,0xab,0x01,0x00,0xec,0x01,0x80,0x45,0x0e,0x80,0x0e,0x20,0x07,0x40,0x55,
 0x35,0x00,0x6a,0x00,0x00,0x28,0x3d,0x00,0x10,0x19,0x00,0xc0,0x94,0x0c,0x00,
 0x38,0x00,0x00,0x00,0xd0,0xfd,0xff,0x01,0x87,0x01,0x40,0x7e,0x00,0xb7,0xfd,
 0x03,0x00,0x00,0x00,0x35,0xa0,0x1e,0x80,0xea,0x01,0x00,0x6c,0x1b,0xb0,0xd5,
 0x01,0x00,0xeb,0x00,0x80,0x12,0x0e,0x80,0x0e,0xd8,0x03,0x50,0x89,0x34,0x00,
 0x38,0x00,0x00,0x7c,0x1e,0x00,0x40,0x1e,0x00,0x20,0x00,0x08,0x80,0x1c,0x00,
 0x00,0x00,0x70,0xfd,0xfb,0x03,0xef,0x03,0xd0,0x3e,0x00,0x57,0xfd,0x07,0x00,
 0x00,0x80,0x3a,0xe8,0x1f,0x80,0x5d,0x03,0x00,0xb8,0x1d,0xd0,0xbe,0x01,0x00,
 0x75,0x00,0x40,0x41,0x07,0x40,0x07,0xd0,0x01,0xc8,0x65,0x3a,0x0a,0x3a,0x00,
 0x00,0x84,0x07,0x00,0x14,0x0e,0x00,0x08,0x22,0x19,0x00,0x1c,0x00,0x00,0x00,
 0xbc,0xfd,0xc1,0x03,0xff,0x07,0x68,0x1d,0x80,0xef,0xf6,0x06,0x00,0x00,0x40,
 0x1d,0x7c,0x0d,0x00,0xb7,0x07,0x00,0xd6,0x0e,0xbc,0xd2,0x01,0xc0,0x7a,0x00,
 0x40,0x09,0x03,0x40,0x03,0xed,0x00,0x00,0x14,0x1d,0x0d,0x1d,0x00,0x00,0xd0,
 0x03,0x00,0x80,0x07,0x00,0x00,0x08,0x18,0x00,0x0c,0x00,0x00,0x00,0xe8,0xfe,
 0x81,0x03,0xfe,0x07,0xba,0x1d,0x80,0x5f,0x5b,0x0d,0x00,0x00,0x40,0x1d,0xaa,
 0x07,0x80,0xec,0x06,0x00,0x7b,0x0f,0xf0,0xae,0x01,0x80,0x36,0x00,0xa0,0xa2,
 0x03,0xa0,0x43,0x3a,0x00,0x02,0xd0,0x0e,0x8a,0x0c,0x00,0x00,0xe5,0x00,0x00,
 0xea,0x01,0x00,0x00,0x80,0x1c,0x40,0x0e,0x00,0x00,0x00,0xbe,0xef,0x80,0x07,
 0xfe,0x0f,0xd6,0x1b,0x80,0xbf,0xaa,0x0d,0x00,0x00,0x80,0x0e,0xfe,0x07,0x80,
 0xb8,0x0e,0x00,0xad,0x07,0x49,0xdb,0x01,0x60,0x3b,0x00,0xd8,0xc0,0x01,0x40,
 0xd5,0x0f,0x00,0x00,0x20,0x07,0x0f,0x0e,0x00,0x00,0x70,0x00,0x00,0xe0,0x00,
 0x00,0x00,0x20,0x1a,0x00,0x06,0x00,0x00,0x00,0xd6,0xed,0x80,0x03,0xfc,0xcf,
 0xfb,0xb9,0x40,0xff,0xdd,0x1a,0x00,0x00,0xa0,0x0e,0x55,0x07,0x40,0xd0,0x0f,
 0x80,0xd6,0x06,0x00,0xb5,0x01,0x50,0x35,0x00,0x50,0xca,0x00,0x50,0xff,0x00,
 0x00,0x00,0xd0,0x03,0x00,0x0d,0x00,0x00,0x75,0x00,0x80,0x72,0x00,0x00,0x00,
 0x00,0x0c,0x00,0x06,0x00,0x00,0x00,0x7b,0xcf,0xc1,0x03,0x7c,0x06,0x7d,0xfc,
 0x41,0xbf,0x6a,0x1b,0x00,0x00,0xc0,0x0e,0xff,0x07,0x20,0x78,0x0d,0x00,0xbb,
 0x07,0x80,0xad,0x01,0xd0,0x3a,0x00,0x56,0xe1,0x00,0xa8,0x03,0x00,0x00,0x00,
 0xc0,0x01,0x80,0x08,0x00,0x00,0x30,0x00,0x40,0x30,0x00,0x00,0x00,0x20,0x0d,
 0x20,0x06,0x00,0x00,0x80,0xdf,0xcd,0xe1,0x07,0x3c,0x98,0x3e,0xfc,0x83,0xaa,
 0xad,0x35,0x00,0x00,0x50,0x87,0xab,0x06,0x10,0xac,0x0f,0xc0,0xd6,0x03,0x80,
 0xd6,0x01,0x50,0x6b,0x00,0x51,0x75,0x00,0xa8,0x01,0x00,0x00,0x00,0xe8,0x00,
 0x40,0x15,0x00,0x40,0x35,0x00,0x00,0x35,0x00,0x00,0x00,0x00,0x0e,0x08,0x04,
 0x00,0x00,0xc0,0x6a,0x8f,0xff,0x07,0x38,0xd4,0x0d,0xfe,0x81,0xd5,0x56,0x6d,
 0x00,0x00,0x50,0x47,0xfd,0x07,0x0c,0xd8,0x0e,0x90,0x6d,0x03,0x00,0x7b,0x03,
 0x68,0x55,0x80,0xa4,0x3a,0x00,0x50,0x03,0x00,0x40,0x00,0x68,0x00,0x88,0x24,
 0x00,0x00,0x40,0x00,0x40,0x30,0x00,0x00,0x00,0x00,0x07,0x40,0x0c,0x00,0x00,
 0x40,0xff,0x9d,0xff,0x0f,0x38,0xad,0x07,0xfe,0x00,0x94,0x7b,0x6b,0x00,0x00,
 0xa8,0xc3,0x57,0x0d,0x15,0x76,0x0f,0x48,0xb7,0x07,0x80,0x95,0x03,0xaa,0xb6,
 0x69,0xb1,0x1a,0x00,0xaa,0x06,0x00,0x20,0x00,0x74,0x00,0x22,0x09,0x00,0x40,
 0xd5,0x00,0x14,0x25,0x00,0x08,0x09,0x40,0x03,0x00,0x10,0x00,0x00,0xa0,0xab,
 0x9e,0xff,0x1f,0xb0,0x81,0x07,0x7c,0x00,0xeb,0xaa,0xda,0x00,0x00,0xa8,0x83,
 0xfa,0xf7,0x0b,0xac,0x05,0xf3,0x5a,0x15,0x00,0xed,0x82,0x69,0xab,0xd4,0xd4,
 0x2a,0x80,0xa8,0x0a,0x00,0x88,0x00,0x65,0x80,0x98,0xa4,0x04,0x80,0x08,0x00,
 0x80,0x40,0x80,0x44,0x18,0x80,0x03,0x10,0x01,0x00,0x08,0xe0,0xfd,0xb7,0x7f,
 0x3c,0x60,0xf4,0x07,0x00,0x00,0xd5,0xd6,0xad,0x01,0x00,0xa8,0xe3,0x5f,0x5d,
 0x07,0x7b,0xef,0x4c,0xef,0x0e,0x80,0xb6,0x76,0xb7,0x5a,0x6b,0x51,0x55,0x55,
 0x56,0x25,0x00,0x42,0x80,0x68,0x20,0x4e,0x12,0x11,0x28,0x52,0x05,0x5d,0x14,
 0xa0,0x01,0x15,0xc0,0x01,0x00,0x08,0x00,0x07,0xa0,0xae,0x3a,0x1f,0x78,0xe8,
 0xff,0x07,0x00,0x00,0x6a,0xbb,0xb6,0x01,0x00,0xd0,0xa1,0xea,0xef,0x83,0xd6,
 0xaa,0xa7,0xb5,0x07,0x80,0x55,0xdb,0xd3,0x6a,0x75,0xa8,0xaa,0xaa,0x4b,0xaa,
 0xaa,0x3c,0x40,0x55,0x89,0x07,0xa9,0x44,0xbd,0x04,0x50,0x0f,0x42,0xe5,0x20,
 0x30,0xd0,0x00,0x44,0x00,0x80,0x03,0xf0,0xf7,0x6f,0x0f,0x78,0xe4,0xff,0x03,
 0x00,0x00,0x94,0x55,0x55,0x03,0x00,0xd4,0xe1,0x7f,0xf5,0x81,0x7f,0xff,0x61,
 0xbb,0x03,0x00,0xda,0xea,0x58,0xab,0x3a,0x52,0x55,0xd5,0xa9,0xaa,0x92,0x1e,
 0x80,0x24,0xe5,0x83,0x8a,0x28,0x0e,0xa8,0x8a,0x43,0x11,0x70,0x00,0x21,0x60,
 0x00,0x10,0x20,0xe0,0x01,0xa8,0xba,0x7a,0x0f,0xf8,0xf3,0xff,0x01,0x00,0x00,
 0xdd,0x6d,0xdb,0x06,0x00,0xd8,0xa1,0xaa,0xff,0x40,0xd5,0xea,0xc0,0xd6,0x01,
 0x00,0x6f,0x7d,0x68,0xb5,0x1d,0x51,0x55,0x94,0xa8,0x52,0x55,0x0f,0x50,0x92,
 0xd4,0x41,0x44,0x84,0x87,0x42,0xe0,0x21,0x44,0x3d,0x40,0x54,0x32,0x00,0x40,
 0x02,0x72,0x00,0xf8,0xdf,0x5f,0x07,0xf0,0xfa,0x7f,0x00,0x00,0x00,0xf6,0xb6,
 0x6d,0x0d,0x00,0xd4,0xc0,0xff,0x3a,0x80,0xbb,0x3f,0xa0,0xed,0x00,0x00,0xb5,
 0x3b,0xa0,0xad,0x4e,0xd4,0xaa,0xeb,0xa0,0x4a,0xaa,0x07,0xa0,0xaa,0x72,0x00,
 0x29,0xd2,0x03,0x91,0xea,0x10,0x11,0x0e,0x00,0x00,0x1c,0x00,0x00,0x00,0x3c,
 0x00,0xa8,0xea,0xea,0x1e,0xf0,0xf5,0x1f,0x00,0x00,0x00,0x50,0xab,0xaa,0x0d,
 0x00,0xea,0x80,0xaa,0x1f,0xc0,0xd6,0x1e,0x60,0x7b,0x00,0x00,0xd5,0x1e,0xb0,
 0xaa,0x07,0x51,0xab,0x54,0xa0,0xaa,0xd2,0x01,0x20,0x49,0x3d,0x00,0x45,0xe9,
 0x00,0x0a,0x78,0x80,0x84,0x07,0xa0,0x92,0x0e,0x00,0x00,0x11,0x0e,0x00,0xf4,
 0x7f,0x5f,0x3d,0x7e,0x7b,0x00,0x00,0x00,0x00,0xc0,0xda,0xb6,0x1a,0x00,0xea,
 0x80,0xff,0x07,0x80,0xfd,0x07,0xc0,0x3d,0x00,0x00,0xb6,0x07,0x40,0xed,0x57,
 0x78,0x55,0x6b,0x80,0x2a,0xf5,0x00,0x80,0x2a,0x1e,0x00,0xa8,0x78,0x00,0xa0,
 0x1e,0x00,0xe1,0x03,0x00,0x80,0x07,0x00,0x20,0xc0,0x07,0x00,0xbc,0xaa,0xf5,
 0x8c,0xbf,0x3f,0x00,0x00,0x00,0x00,0x60,0x6d,0xd5,0x36,0x00,0x75,0x00,0xea,
 0x01,0x00,0xeb,0x01,0x80,0x1e,0x00,0x00,0xda,0x03,0xc0,0xf6,0x00,0x9e,0xaa,
 0x94,0x80,0x52,0x3d,0x00,0x80,0xa4,0x0f,0x00,0x08,0x1f,0x00,0x94,0x0f,0x00,
 0xfa,0x00,0x00,0xf2,0x01,0x00,0x80,0xe0,0x01,0x00,0x68,0xff,0xbf,0xde,0xff,
 0x0e,0x00,0x00,0x00,0x00,0x80,0xab,0xad,0x2a,0x00,0x6a,0x00,0x00,0x00,0x00,
 0x3e,0x00,0x80,0x0f,0x00,0x00,0xf8,0x00,0x00,0x3f,0xa8,0x0e,0xff,0xdd,0x00,
 0xaa,0x0f,0x00,0x00,0xd3,0x03,0x00,0xe0,0x03,0x00,0xf8,0x01,0x00,0x3e,0x00,
 0x00,0x7e,0x00,0x00,0x00,0x7f,0x00,0x00,0xdc,0x55,0xd5,0xfe,0xdf,0x07,0x00,
 0x00,0x00,0x00,0x00,0xb5,0x6a,0x6d,0x00,0x75,0x00,0x00,0x00,0x00,0x00,0x00,
 0x00,0x02,0x00,0x00,0x00,0x00,0x00,0x00,0x02,0x07,0x00,0x66,0x00,0xf0,0x01,
 0x00,0x00,0xfc,0x00,0x00,0x00,0x00,0x00,0x00,0x00,0x00,0x00,0x00,0x00,0x00,
 0x00,0x00,0x00,0x00,0x00,0x00,0xf4,0xfe,0x7f,0xfe,0xff,0x01,0x00,0x00,0x00,
 0x00,0x00,0xdb,0xb6,0xb5,0x00,0x75,0x00,0x00,0x00,0x00,0x00,0x00,0x00,0x00,
 0x00,0x00,0x00,0x00,0x00,0x00,0xd1,0x03,0x00,0x00,0x00,0x00,0x00,0x00,0x00,
 0x00,0x00,0x00,0x00,0x00,0x00,0x00,0x00,0x00,0x00,0x00,0x00,0x00,0x00,0x00,
 0x00,0x00,0x00,0x00,0x5c,0x57,0xd5,0xfe,0x77,0x00,0x00,0x00,0x00,0x00,0x00,
 0x54,0xab,0xca,0x81,0x3a,0x00,0x00,0x00,0x00,0x00,0x00,0x00,0x00,0x00,0x00,
 0x00,0x00,0x00,0x40,0xe4,0x00,0x00,0x00,0x00,0x00,0x00,0x00,0x00,0x00,0x00,
 0x00,0x00,0x00,0x00,0x00,0x00,0x00,0x00,0x00,0x00,0x00,0x00,0x00,0x00,0x00,
 0x00,0x00,0xf4,0xfb,0x7f,0xff,0x3e,0x00,0x0c,0x03,0x00,0x00,0x00,0x6b,0x55,
 0x35,0x03,0x35,0x00,0x00,0x00,0x00,0x18,0x1c,0x00,0x00,0x00,0x00,0x00,0x00,
 0x00,0x10,0x73,0x00,0x00,0x00,0x00,0x00,0x00,0x00,0x00,0x00,0x00,0x7c,0x00,
 0x00,0xc0,0x1f,0x00,0x00,0x00,0x00,0x00,0x00,0x00,0x00,0x00,0x00,0x00,0x00,
 0x58,0xad,0xaa,0xbb,0x0f,0x00,0x08,0xe1,0xef,0x1f,0x80,0xa7,0xeb,0xea,0xf2,
 0x7f,0x10,0xfe,0xf8,0x00,0x38,0x1c,0xfe,0x70,0xe0,0xc0,0x00,0x03,0x7f,0x80,
 0x7a,0x90,0x7f,0xfe,0xf8,0xc0,0x0f,0x03,0x0e,0x7f,0x00,0xc6,0x30,0x04,0xc0,
 0x00,0x82,0xc0,0x80,0x83,0x83,0x3f,0x86,0x00,0x00,0x00,0x00,0x00,0xec,0xf7,
 0xff,0xed,0x03,0x00,0x98,0x60,0x04,0x07,0x80,0x54,0x57,0x3a,0x87,0x70,0x10,
 0x02,0x28,0x01,0x38,0x06,0x02,0xac,0x58,0xc1,0xc1,0x0d,0x45,0x50,0xda,0x10,
 0x1c,0x8a,0x18,0x63,0x80,0x83,0x1b,0x45,0x00,0x83,0x31,0x04,0x40,0x00,0xc2,
 0xe0,0xe0,0x46,0x8c,0x24,0x86,0x00,0x00,0x00,0x00,0x00,0x7c,0xbd,0xaa,0xfe,
 0x00,0x00,0xd0,0x20,0x00,0x03,0x80,0x44,0x55,0x0d,0x8a,0x71,0x10,0x02,0x08,
 0x01,0x48,0x1a,0x02,0x04,0x08,0x40,0x21,0x00,0x01,0x04,0x43,0x11,0x08,0x02,
 0x08,0x23,0x80,0xc2,0x00,0x01,0x00,0x01,0x51,0x04,0x40,0x07,0xc6,0xa1,0x30,
 0x40,0x80,0x00,0x8a,0x00,0x00,0x00,0x00,0x00,0xa8,0xd7,0xff,0x3f,0x00,0x00,
 0x60,0xe0,0x03,0x03,0xc0,0x8c,0xca,0xcc,0x96,0xdc,0x1f,0x3e,0xf8,0x01,0x58,
 0x0b,0x3e,0x78,0xf0,0x20,0x21,0x00,0x1f,0xd2,0x43,0x13,0x0c,0x3e,0xf8,0xe1,
 0x83,0x44,0x00,0x1f,0x00,0x01,0x91,0x04,0x40,0x06,0xa4,0x20,0x11,0xc0,0x83,
 0x0f,0x92,0x00,0x00,0x00,0x00,0x00,0xf0,0x7a,0x55,0x0f,0x00,0x00,0x20,0x20,
 0x01,0x03,0x40,0x0f,0x5b,0x4c,0xb6,0x58,0x00,0x2a,0xc8,0x40,0xd8,0x19,0x2a,
 0x80,0x01,0xa3,0x22,0x0e,0x93,0xe0,0x43,0x14,0x0c,0x26,0x88,0x20,0xc0,0x44,
 0x00,0x13,0x00,0x81,0x11,0x05,0x40,0x00,0xaa,0x30,0x11,0x00,0x8d,0x05,0xa2,
 0x00,0x00,0x00,0x00,0x00,0xa0,0xaf,0xff,0x01,0x00,0x00,0x20,0x20,0x00,0x03,
 0x60,0x10,0xe9,0x4a,0xd3,0x59,0x10,0x02,0x88,0x50,0x99,0x18,0x02,0x00,0x01,
 0xb2,0x22,0x08,0x01,0x7a,0x42,0x1c,0x0c,0x02,0x88,0x61,0x40,0xce,0x10,0x01,
 0x00,0x83,0x10,0x07,0x40,0x00,0x98,0x90,0x33,0x04,0x88,0x00,0xe2,0x00,0x00,
 0x00,0x00,0x00,0x80,0xfa,0x3e,0x00,0x00,0x00,0x20,0xe0,0x0f,0x03,0x20,0x10,
 0x52,0xba,0xa1,0x58,0x10,0xfe,0x08,0xa9,0x9a,0x18,0xfe,0xdc,0xb8,0x11,0xc4,
 0x0d,0x77,0x3c,0x42,0x08,0x0c,0xfe,0x08,0x21,0x20,0x88,0x1f,0x7f,0x00,0xfc,
 0x10,0x06,0xc0,0x1f,0x92,0x09,0xe2,0xc7,0x8d,0x3f,0xc2,0x00,0x00,0x00,0x00,
 0x00,0x00,0xfe,0x03,0x00,0x00,0x00,0x40,0x00,0x04,0x00,0x00,0x00,0xaa,0x44,
 0xa8,0x1c,0x10,0x40,0x00,0x45,0x09,0x00,0x40,0x50,0xa0,0x00,0x80,0x00,0x49,
 0x0e,0x02,0x10,0x00,0x90,0x10,0x00,0x00,0x00,0x04,0x48,0x00,0x00,0x00,0x00,
 0x40,0x08,0x00,0x00,0x00,0x01,0x00,0x24,0x00,0x00,0x00,0x00,0x00,0x00,0x00,
 0x00,0x00,0x00,0x00,0x00,0x00,0x00,0x00,0x00,0x00,0x00,0x28,0x34,0xaa,0x1c,
 0x00,0x00,0x00,0x30,0x05,0x01,0x00,0x00,0x00,0x00,0x00,0x00,0x80,0x07,0x00,
 0x00,0x00,0x00,0x00,0x00,0x00,0x00,0x00,0x00,0x00,0x00,0x00,0x00,0x00,0x00,
 0x00,0x00,0x00,0x00,0x00,0x00,0x00,0x00,0x00,0x00,0x00,0x00,0x00,0x00,0x00,
 0x00,0x00,0x00,0x00,0x00,0x00,0x00,0x00,0x00,0xa0,0xab,0x55,0x0d,0x00,0x00,
 0x00,0x96,0xb4,0x0a,0x00,0x00,0x00,0x00,0x00,0x20,0xe5,0x01,0x00,0x00,0x00,
 0x00,0x00,0x00,0x00,0x00,0x00,0x00,0x00,0x00,0x00,0x00,0x00,0x00,0x00,0x00,
 0x00,0x00,0x00,0x00,0x00,0x00,0x00,0x00,0x00,0x00,0x00,0x00,0x00,0x00,0x00,
 0x00,0x00,0x00,0x00,0x00,0x00,0x00,0xa0,0xaa,0xaa,0x0e,0x00,0x00,0x80,0xd2,
 0x8a,0x14,0x00,0x00,0x00,0x00,0x00,0x80,0x78,0x00,0x00,0x00,0x00,0x00,0x00,
 0x00,0x00,0x00,0x00,0x00,0x00,0x00,0x00,0x00,0x00,0x00,0x00,0x00,0x00,0x00,
 0x00,0x00,0x00,0x00,0x88,0x00,0x00,0x00,0x00,0x00,0x00,0x00,0x00,0x00,0x00,
 0x00,0x00,0x00,0x00,0x00,0x40,0x55,0x55,0x0d,0x00,0x00,0x80,0x2a,0x6a,0x2a,
 0x00,0x00,0x00,0x00,0x00,0x54,0x3c,0x00,0x00,0x00,0x00,0x00,0x00,0x00,0x00,
 0x00,0x00,0x00,0x00,0x00,0x00,0x00,0x00,0x00,0x00,0x00,0x00,0x00,0x00,0x00,
 0x00,0x00,0x28,0x01,0x00,0x00,0x00,0x00,0x00,0x00,0x00,0x00,0x00,0x00,0x00,
 0x00,0x00,0x00,0x00,0xb6,0x5a,0x0d,0x00,0x00,0x00,0x55,0x25,0x65,0x00,0x00,
 0x00,0x00,0x00,0x02,0x0f,0x00,0x00,0x00,0x00,0x00,0x00,0x00,0x00,0x00,0x00,
 0x00,0x00,0x00,0x00,0x00,0x00,0x00,0x00,0x00,0x00,0x00,0x00,0x00,0x00,0x00,
 0xd6,0x01,0x00,0x00,0x00,0x00,0x00,0x00,0x00,0x00,0x00,0x00,0x00,0x00,0x00,
 0x00,0x00,0x54,0xab,0x0e,0x00,0x00,0x00,0x49,0x95,0x52,0x00,0x00,0x00,0x00,
 0x80,0xe8,0x03,0x00,0x00,0x00,0x00,0x00,0x00,0x00,0x00,0x00,0x00,0x00,0x00,
 0x00,0x00,0x00,0x00,0x00,0x00,0x00,0x00,0x00,0x00,0x00,0x00,0x00,0xa8,0x00,
 0x00,0x00,0x00,0x00,0x00,0x00,0x00,0x00,0x00,0x00,0x00,0x00,0x00,0x00,0x00,
 0xd8,0x6a,0x0d,0x00,0x00,0x00,0x2a,0xa9,0xaa,0x00,0x00,0x00,0x00,0x50,0xfa,
 0x00,0x00,0x00,0x00,0x00,0x00,0x00,0x00,0x00,0x00,0x00,0x00,0x00,0x00,0x00,
 0x00,0x00,0x00,0x00,0x00,0x00,0x00,0x00,0x00,0x00,0x00,0xd4,0x00,0x00,0x00,
 0x00,0x00,0x00,0x00,0x00,0x00,0x00,0x00,0x00,0x00,0x00,0x00,0x00,0xa8,0xaa,
 0x1a,0x00,0x00,0x00,0xaa,0xaa,0x54,0x01,0x00,0x00,0x00,0x04,0x3d,0x00,0x00,
 0x00,0x00,0x00,0x00,0x00,0x00,0x00,0x00,0x00,0x00,0x00,0x00,0x00,0x00,0x00,
 0x00,0x00,0x00,0x00,0x00,0x00,0x00,0x00,0x00,0x28,0x01,0x00,0x00,0x00,0x00,
 0x00,0x00,0x00,0x00,0x00,0x00,0x00,0x00,0x00,0x00,0x00,0x50,0x55,0x15,0x00,
 0x00,0x00,0x54,0xa5,0x92,0x02,0x00,0x00,0x40,0xa2,0x0f,0x00,0x00,0x00,0x00,
 0x00,0x00,0x00,0x00,0x00,0x00,0x00,0x00,0x00,0x00,0x00,0x00,0x00,0x00,0x00,
 0x00,0x00,0x00,0x00,0x00,0x00,0x00,0xba,0x01,0x00,0x00,0x00,0x00,0x00,0x00,
 0x00,0x00,0x00,0x00,0x00,0x00,0x00,0x00,0x00,0xa0,0xad,0x3a,0x00,0x00,0x00,
 0xa4,0x54,0x4a,0x0a,0x00,0x00,0x84,0xf4,0x01,0x00,0x00,0x00,0x00,0x00,0x00,
 0x00,0x00,0x00,0x00,0x00,0x00,0x00,0x00,0x00,0x00,0x00,0x00,0x00,0x00,0x00,
 0x00,0x00,0x00,0x00,0x00,0xcc,0x00,0x00,0x00,0x00,0x00,0x00,0x00,0x00,0x00,
 0x00,0x00,0x00,0x00,0x00,0x00,0x00,0x80,0x6a,0x6b,0x00,0x00,0x00,0x50,0x95,
 0xaa,0x12,0x00,0x90,0x28,0x7c,0x00,0x00,0x00,0x00,0x00,0x00,0x00,0x00,0x00,
 0x00,0x00,0x00,0x00,0x00,0x00,0x00,0x00,0x00,0x00,0x00,0x00,0x00,0x00,0x00,
 0x00,0x00,0x00,0x00,0x00,0x00,0x00,0x00,0x00,0x00,0x00,0x00,0x00,0x00,0x00,
 0x00,0x00,0x00,0x00,0x00,0x00,0xaa,0x6a,0x00,0x00,0x00,0xa0,0xaa,0x52,0x4a,
 0xa5,0x44,0xc4,0x0f,0x00,0x00,0x00,0x00,0x00,0x00,0x40,0x04,0x00,0x00,0x00,
 0x00,0x00,0x00,0x00,0x00,0x00,0x00,0x00,0x00,0x00,0x00,0x00,0x00,0x00,0x00,
 0x00,0x00,0x00,0x00,0x00,0x00,0x00,0x00,0x00,0x00,0x00,0x00,0x00,0x00,0x00,
 0x00,0x00,0x00,0x00,0x56,0xd5,0x00,0x00,0x00,0x80,0x52,0x4a,0xa9,0x94,0x2a,
 0xfd,0x01,0x00,0x00,0x00,0x00,0x00,0x00,0x40,0x09,0x00,0x00,0x00,0x00,0x00,
 0x00,0x00,0x00,0x00,0x00,0x00,0x00,0x00,0x00,0x00,0x00,0x00,0x00,0x00,0x00,
 0x00,0x00,0x00,0x00,0x00,0x00,0x00,0x00,0x00,0x00,0x00,0x00,0x00,0x00,0x00,
 0x00,0x00,0x58,0xd5,0x00,0x00,0x00,0x00,0x4c,0xa9,0x4a,0x52,0xa2,0x1e,0x00,
 0x00,0x00,0x00,0x00,0x00,0x00,0xb0,0x0e,0x00,0x00,0x00,0x00,0x00,0x00,0x00,
 0x00,0x00,0x00,0x00,0x00,0x00,0x00,0x00,0x00,0x00,0x00,0x00,0x00,0x00,0x00,
 0x00,0x00,0x00,0x00,0x00,0x00,0x00,0x00,0x00,0x00,0x00,0x00,0x00,0x00,0x00,
 0xd0,0xaa,0x01,0x00,0x00,0x00,0xe0,0x4a,0xa4,0x4a,0xdd,0x12,0x00,0x00,0x00,
 0x00,0x00,0x00,0x00,0x40,0x05,0x00,0x00,0x00,0x00,0x00,0x00,0x00,0x00,0x00,
 0x00,0x00,0x00,0x00,0x00,0x00,0x00,0x00,0x00,0x00,0x00,0x00,0x00,0x00,0x00,
 0x00,0x00,0x00,0x05,0x00,0x00,0x00,0x00,0x00,0x00,0x00,0x00,0x00,0x50,0xb5,
 0x01,0x00,0x00,0x00,0x00,0xfc,0x15,0xf5,0x3f,0x19,0x00,0x00,0x00,0x00,0x00,
 0x00,0x00,0xa0,0x06,0x00,0x00,0x00,0x00,0x00,0x00,0x00,0x00,0x00,0x00,0x00,
 0x00,0x00,0x00,0x00,0x00,0x00,0x00,0x00,0x00,0x00,0x00,0x00,0x00,0x00,0x00,
 0x80,0x06,0x00,0x00,0x00,0x00,0x00,0x00,0x00,0x00,0x00,0x58,0xab,0x03,0x00,
 0x00,0x00,0x00,0x00,0xf8,0x1f,0xc0,0x16,0x00,0x00,0x00,0x00,0x00,0x00,0x00,
 0x40,0x09,0x00,0x00,0x00,0x00,0x00,0x00,0x00,0x00,0x00,0x00,0x00,0x00,0x00,
 0x00,0x00,0x00,0x00,0x00,0x00,0x00,0x00,0x00,0x00,0x00,0x00,0x00,0x00,0x05,
 0x00,0x00,0x00,0x00,0x00,0x00,0x00,0x00,0x00,0x50,0x55,0x03,0x00,0x00,0x00,
 0x00,0x00,0x00,0x00,0x60,0x1a,0x00,0x00,0x00,0x00,0x00,0x00,0x00,0xd0,0x0d,
 0x00,0x00,0x00,0x00,0x00,0x00,0x00,0x00,0x00,0x00,0x00,0x00,0x00,0x00,0x00,
 0x00,0x00,0x00,0x00,0x00,0x00,0x00,0x00,0x00,0x00,0x00,0x80,0x07,0x00,0x00,
 0x00,0x00,0x00,0x00,0x00,0x00,0x00,0x68,0x55,0x03,0x00,0x00,0x00,0x00,0x00,
 0x00,0x00,0x00,0x05,0x00,0x00,0x00,0x00,0x00,0x00,0x00,0x60,0x06,0x00,0x00,
 0x00,0x00,0x00,0x00,0x00,0x00,0x00,0x00,0x00,0x00,0x00,0x00,0x00,0x00,0x00,
 0x00,0x00,0x00,0x00,0x00,0x00,0x00,0x00,0x00,0x00,0x00,0x00,0x00,0x00,0x00,
 0x00,0x00,0x00,0x00,0x00,0xa8,0xaa,0x06,0x00,0x00,0x00,0x00,0x00,0x00,0x00,
 0x80,0x07,0x00,0x00,0x00,0x00,0x00,0x00,0x00,0x00,0x00,0x00,0x00,0x00,0x00,
 0x00,0x00,0x00,0x00,0x00,0x00,0x05,0x00,0x00,0x00,0x00,0x00,0x00,0x00,0x00,
 0x00,0x00,0x00,0x00,0x00,0x00,0x00,0x00,0x00,0x00,0x00,0x00,0x00,0x00,0x00,
 0x00,0x00,0x00,0xa8,0x56,0x07,0x00,0x00,0x00,0x00,0x00,0x00,0x00,0x00,0x00,
 0x00,0x00,0x00,0x00,0x00,0x00,0x00,0x00,0x00,0x00,0x00,0x00,0x00,0x00,0x00,
 0x00,0x00,0x00,0x80,0x06,0x00,0x00,0x00,0x00,0x00,0x00,0x00,0x00,0x00,0x00,
 0x00,0x00,0x00,0x00,0x00,0x00,0x00,0x00,0x50,0x00,0x00,0x00,0x00,0x00,0x00,
 0x00,0xa8,0x5a,0x05,0x00,0x00,0x00,0x00,0x00,0x00,0x00,0x00,0x00,0x00,0x00,
 0x00,0x00,0x00,0x00,0x00,0x00,0x00,0x00,0x00,0x00,0x00,0x00,0x00,0x00,0x00,
 0x00,0x00,0x05,0x00,0x00,0x00,0x00,0x00,0x00,0x00,0x00,0x00,0x00,0x00,0x00,
 0x00,0x00,0x00,0x00,0x00,0x00,0x68,0x00,0x00,0x00,0x00,0x00,0x00,0x00,0xd0,
 0xaa,0x0e,0x00,0x00,0x00,0x00,0x00,0x00,0x00,0x00,0x00,0x00,0x00,0x00,0x00,
 0x00,0x00,0x00,0x00,0x00,0x00,0x00,0x00,0x00,0x00,0x00,0x00,0x00,0x00,0x80,
 0x07,0x00,0x00,0x00,0x00,0x00,0x00,0x00,0x00,0x00,0x00,0x00,0x00,0x00,0x00,
 0x00,0x00,0x00,0x00,0x24,0x01,0x00,0x00,0x00,0x00,0x00,0x00,0x50,0x55,0x0d,
 0x00,0x00,0x00,0x00,0x00,0x00,0x00,0x00,0x00,0x00,0x00,0x00,0x00,0x00,0x00,
 0x00,0x00,0x00,0x00,0x00,0x00,0x00,0x00,0x00,0x00,0x00,0x00,0x00,0x00,0x00,
 0x00,0x00,0x00,0x00,0x00,0x00,0x00,0x00,0x00,0x00,0x00,0x00,0x00,0x00,0x00,
 0x00,0x00,0x92,0x01,0x00,0x00,0x00,0x00,0x00,0x00,0xa8,0x6a,0x0d,0x00,0x00,
 0x00,0x00,0x00,0x00,0x00,0x00,0x00,0x00,0x00,0x00,0x00,0x00,0x00,0x00,0x00,
 0x00,0x00,0x00,0x00,0x00,0x00,0x00,0x00,0x00,0x00,0x00,0x00,0x00,0x00,0x00,
 0x00,0x00,0x00,0x00,0x00,0x00,0x00,0x00,0x00,0x00,0x00,0x00,0x00,0x00,0x00,
 0x6c,0x01,0x00,0x00,0x00,0x00,0x00,0x00,0x50,0x55,0x0d,0x00,0x00,0x00,0x00,
 0x00,0x00,0x00,0x00,0x00,0x00,0x00,0x00,0x00,0x00,0x00,0x00,0x00,0x00,0x00,
 0x00,0x00,0x00,0x00,0x00,0x00,0x00,0x00,0x00,0x00,0x00,0x00,0x00,0x00,0x00,
 0x00,0x00,0x00,0x00,0x00,0x00,0x00,0x00,0x00,0x00,0x00,0x00,0x00,0xa6,0x01,
 0x00,0x00,0x00,0x00,0x00,0x00,0x60,0xab,0x1a,0x00,0x00,0x00,0x00,0x00,0x00,
 0x00,0x00,0x00,0x00,0x00,0x00,0x00,0x00,0x00,0x00,0x00,0x00,0x00,0x00,0x00,
 0x00,0x00,0x00,0x00,0x00,0x00,0x00,0x00,0x00,0x00,0x00,0x00,0x00,0x00,0x00,
 0x00,0x00,0x00,0x00,0x00,0x00,0x00,0x00,0x00,0x00,0x00,0x50,0x00,0x00,0x00,
 0x00,0x00,0x00,0x00,0x50,0x55,0x1d,0x00,0x00,0x00,0x00,0x00,0x00,0x00,0x00,
 0x00,0x00,0x00,0x00,0x00,0x00,0x00,0x00,0x00,0x00,0x00,0x00,0x00,0x00,0x00,
 0x00,0x00,0x00,0x00,0x00,0x00,0x00,0x00,0x00,0x00,0x00,0x00,0x00,0x00,0x00,
 0x00,0x00,0x00,0x00,0x00,0x00,0x00,0x00,0x00,0x78,0x00,0x00,0x00,0x00,0x00,
 0x00,0x00,0xa0,0xaa,0x1a,0x00,0x00,0x00,0x00,0x00,0x00,0x00,0x00,0x00,0x00,
 0x00,0x00,0x00,0x00,0x00,0x00,0x00,0x00,0x00,0x00,0x00,0x00,0x00,0x00,0x00,
 0x00,0x00,0x00,0x00,0x00,0x00,0x00,0x00,0x00,0x00,0x00,0x00,0x00,0x00,0x00,
 0x00,0x00,0x00,0x00,0x00,0x00,0x00,0x00,0x00,0x00,0x00,0x00,0x00,0x00,0x00,
 0x50,0xb5,0x1a,0x00,0x00,0x00,0x00,0x00,0x00,0x00,0x00,0x00,0x00,0x00,0x00,
 0x00,0x00,0x00,0x00,0x00,0x00,0x00,0x00,0x00,0x00,0x00,0x00,0x00,0x00,0x00,
 0x00,0x00,0x00,0x00,0x00,0x00,0x00,0x00,0x00,0x00,0x00,0x00,0x00,0x00,0x00,
 0x00,0x00,0x00,0x00,0x00,0x00,0x00,0x00,0x00,0x00,0x00,0x00,0x00,0xc0,0x56,
 0x35,0x00,0x00,0x00,0x00,0x00,0x00,0x00,0x00,0x00,0x00,0x00,0x00,0x00,0x00,
 0x00,0x00,0x00,0x00,0x00,0x00,0x00,0x00,0x00,0x00,0x00,0x00,0x00,0x00,0x00,
 0x00,0x00,0x00,0x00,0x00,0x00,0x00,0x00,0x00,0x00,0x00,0x00,0x00,0x00,0x00,
 0x00,0x00,0x00,0x00,0x00,0x00,0x00,0x00,0x00,0x00,0x00,0xa0,0xaa,0x3a,0x00,
 0x00,0x00,0x00,0x00,0x00,0x00,0x00,0x00,0x00,0x00,0x00,0x00,0x00,0x00,0x00,
 0x00,0x00,0x00,0x00,0x00,0x00,0x00,0x00,0x00,0x00,0x00,0x00,0x00,0x00,0x00,
 0x00,0x00,0x00,0x00,0x00,0x00,0x00,0x00,0x00,0x00,0x00,0x00,0x00,0x00,0x00,
 0x00,0x00,0x00,0x00,0x00,0x00,0x00,0x00,0x00,0x40,0x55,0x35,0x00,0x00,0x00,
 0x00,0x00,0x00,0x00,0x00,0x00,0x00,0x00,0x00,0x00,0x00,0x00,0x00,0x00,0x00,
 0x00,0x00,0x00,0x00,0x00,0x00,0x00,0x00,0x00,0x00,0x00,0x00,0x00,0x00,0x00,
 0x00,0x00,0x00,0x00,0x00,0x00,0x00,0x00,0x00,0x00,0x00,0x00,0x00,0x00,0x00,
 0x00,0x00,0x00,0x00,0x00,0x00,0x00,0x60,0xd5,0x3a,0x00,0x00,0x00,0x00,0x00,
 0x00,0x00,0x00,0x00,0x00,0x00,0x00,0x00,0x00,0x00,0x00,0x00,0x00,0x00,0x00,
 0x00,0x00,0x00,0x00,0x00,0x00,0x00,0x00,0x00,0x00,0x00,0x00,0x00,0x00,0x00,
 0x00,0x00,0x00,0x00,0x00,0x00,0x00,0x00,0x00,0x00,0x00,0x00,0x00,0x00,0x00,
 0x00,0x00,0x00,0x00,0x00,0x80,0x5a,0x35,0x00,0x00,0x00,0x00,0x00,0x00,0x00,
 0x00,0x00,0x00,0x00,0x00,0x00,0x00,0x00,0x00,0x00,0x00,0x00,0x00,0x00,0x00,
 0x00,0x14,0x00,0x00,0x00,0x00,0x00,0x00,0x00,0x00,0x00,0x00,0x00,0x00,0x00,
 0x00,0x00,0x00,0x00,0x00,0x00,0x00,0x00,0x00,0x00,0x00,0x00,0x00,0x00,0x00,
 0x00,0x00,0x00,0x40,0xab,0x3a,0x00,0x00,0x00,0x00,0x00,0x00,0x00,0x00,0x00,
 0x00,0x00,0x00,0x00,0x00,0x00,0x00,0x00,0x00,0x00,0x00,0x00,0x00,0x00,0x1a,
 0x00,0x00,0x00,0x00,0x00,0x00,0x00,0x00,0x00,0x00,0x00,0x00,0x00,0x00,0x00,
 0x00,0x00,0x00,0x00,0x00,0x00,0x00,0x00,0x00,0x00,0x00,0x00,0x00,0x00,0x00,
 0x00,0x40,0x55,0x35,0x00,0x00,0x00,0x00,0x00,0x00,0x00,0x00,0x00,0x00,0x00,
 0x00,0x00,0x00,0x00,0x00,0x00,0x00,0x00,0x00,0x00,0x00,0x00,0x49,0x00,0x00,
 0x00,0x00,0x00,0x00,0x00,0x00,0x00,0x00,0x00,0x00,0x00,0x00,0x00,0x00,0x00,
 0x00,0x00,0x00,0x00,0x00,0x00,0x00,0x00,0x00,0x00,0x00,0x00,0x00,0x00,0x80,
 0xaa,0x3a,0x00,0x00,0x00,0x00,0x00,0x00,0x00,0x00,0x00,0x00,0x00,0x00,0x00,
 0x00,0x00,0x00,0x00,0x00,0x00,0x00,0x00,0x00,0x80,0x64,0x00,0x00,0x00,0x00,
 0x00,0x00,0x00,0x00,0x00,0x00,0x00,0x00,0x00,0x00,0x00,0x00,0x00,0x00,0x00,
 0x00,0x00,0x00,0x00,0x00,0x00,0x00,0x00,0x00,0x00,0x00,0x00,0x00,0x55,0x35,
 0x00,0x00,0x00,0x00,0x00,0x00,0x00,0x00,0x00,0x00,0x00,0x00,0x00,0x00,0x00,
 0x00,0x00,0x00,0x00,0x00,0x00,0x00,0x00,0x5b,0x00,0x00,0x00,0x00,0x00,0x00,
 0x00,0x00,0x00,0x00,0x00,0x00,0x00,0x00,0x00,0x00,0x00,0x00,0x00,0x00,0x00,
 0x00,0x00,0x00,0x00,0x00,0x00,0x00,0x00,0x00,0x00,0x00,0xda,0x3a,0x00,0x00,
 0x00,0x00,0x00,0x00,0x00,0x00,0x00,0x00,0x00,0x00,0x00,0x00,0x00,0x00,0x00,
 0x00,0x00,0x00,0x00,0x00,0x80,0x69,0x00,0x00,0x00,0x00,0x00,0x00,0x00,0x00,
 0x00,0x00,0x00,0x00,0x00,0x00,0x00,0x00,0x00,0x00,0x00,0x00,0x00,0x00,0x00,
 0x00,0x00,0x00,0x00,0x00,0x00,0x00,0x00,0x00,0x55,0x35,0x00,0x00,0x00,0x00,
 0x00,0x00,0x00,0x00,0x00,0x00,0x00,0x00,0x00,0x00,0x00,0x00,0x00,0x00,0x00,
 0x00,0x00,0x00,0x00,0x14,0x00,0x00,0x00,0x00,0x00,0x00,0x00,0x00,0x00,0x00,
 0x00,0x00,0x00,0x00,0x00,0x00,0x00,0x00,0x00,0x00,0x00,0x00,0x00,0x00,0x00,
 0x00,0x00,0x00,0x00,0x00,0x00,0x00,0xaa,0x3a,0x00,0x00,0x00,0x00,0x00,0x00,
 0x00,0x00,0x00,0x00,0x00,0x00,0x00,0x00,0x00,0x00,0x00,0x00,0x00,0x00,0x00,
 0x00,0x00,0x1e,0x00,0x00,0x00,0x00,0x00,0x00,0x00,0x00,0x00,0x00,0x00,0x00,
 0x00,0x00,0x00,0x00,0x00,0x00,0x00,0x00,0x00,0x00,0x00,0x00,0x00,0x00,0x00,
 0x00,0x00,0x00,0x00,0x00,0xaa,0x3a,0x00,0x00,0x00,0x00,0x00,0x00,0x00,0x00,
 0x00,0x00,0x00,0x00,0x00,0x00,0x00,0x00,0x00,0x00,0x00,0x00,0x00,0x00,0x00,
 0x00,0x00,0x00,0x00,0x00,0x00,0x00,0x00,0x00,0x00,0x00,0x00,0x00,0x00,0x00,
 0x00,0x00,0x00,0x00,0x00,0x00,0x00,0x00,0x00,0x00,0x00,0x00,0x00,0x00,0x00,
 0x00,0x00,0x00,0x54,0x1d,0x00,0x00,0x00,0x00,0x00,0x00,0x00,0x00,0x00,0x00,
 0x00,0x00,0x00,0x00,0x00,0x00,0x00,0x00,0x00,0x00,0x00,0x00,0x00,0x00,0x00,
 0x00,0x00,0x00,0x00,0x00,0x00,0x00,0x00,0x00,0x00,0x00,0x00,0x00,0x00,0x00,
 0x00,0x00,0x00,0x00,0x00,0x00,0x00,0x00,0x00,0x00,0x00,0x00,0x00,0x00,0x00,
 0x00,0x68,0x1d,0x00,0x00,0x00,0x00,0x00,0x00,0x00,0x00,0x00,0x00,0x00,0x00,
 0x00,0x00,0x00,0x00,0x00,0x00,0x00,0x00,0x00,0x00,0x00,0x00,0x00,0x00,0x00,
 0x00,0x00,0x00,0x00,0x00,0x00,0x00,0x00,0x00,0x00,0x00,0x00,0x00,0x00,0x00,
 0x00,0x00,0x00,0x00,0x00,0x00,0x00,0x00,0x00,0x00,0x00,0x00,0x00,0x00,0xa0,
 0x1e,0x00,0x00,0x00,0x00,0x00,0x00,0x00,0x00,0x00,0x00,0x00,0x00,0x00,0x00,
 0x00,0x00,0x00,0x00,0x00,0x00,0x00,0x00,0x00,0x00,0x00,0x00,0x00,0x00,0x00,
 0x00,0x00,0x00,0x00,0x00,0x00,0x00,0x00,0x00,0x00,0x00,0x00,0x00,0x00,0x00,
 0x00,0x00,0x00,0x00,0x00,0x00,0x00,0x00,0x00,0x00,0x00,0x00,0xc0,0x0f,0x00,
 0x00,0x00,0x00,0x00,0x00,0x00,0x00,0x00,0x00,0x00,0x00,0x00,0x00,0x00,0x00,
 0x00,0x00,0x00,0x00,0x00,0x00,0x00,0x00,0x00,0x00,0x00,0x00,0x00,0x00,0x00,
 0x00,0x00,0x00,0x00,0x00,0x00,0x00,0x00,0x00,0x00};
