/* XPM */
static char * wl_draft_send_and_exit_down_xpm[] = {
"32 32 7 1",
" 	c None",
".	c #000000000000",
"X	c #618596586185",
"o	c #0000FFFFFFFF",
"O	c #FFFFFFFF0000",
"+	c #FFFFE38DA699",
"@	c #9E799A699E79",
"                                ",
"                                ",
"                                ",
"           ......      ...      ",
"          .XXXXX...   .oo.      ",
"          .XXXXXXXX.  ...       ",
"           .XXOXXXX.  .         ",
"           .X....XX.            ",
"          ..........     ..     ",
"         ...........    .oo.    ",
"           .++.+.++.   . ..     ",
"           .++.+.++.            ",
"           .++.+.++.            ",
"           .+++++++.            ",
"            .+++++.             ",
"            .......             ",
"            .X.XXXX.@@@@@@      ",
"           .XXX.XXXX.@@@@@@     ",
"           .XXXX.XXX.@@@@@      ",
"           .XXXXX.....@@@       ",
"           .XXXXXX....@@        ",
"           ...........@         ",
"                  ....          ",
"                                ",
"                        .       ",
"        ...             .       ",
"       .     .  ...   ...       ",
"       ...  . . .  . .  .       ",
"          . ... .  . .  .       ",
"          . .   .  . .  .       ",
"       ...   .. .  .  ...       ",
"                                "};
