/* XPM */
static char * wl_draft_send_and_exit_up_xpm[] = {
"32 32 6 1",
" 	c None",
".	c #000000000000",
"X	c #618596586185",
"o	c #FFFFFFFF0000",
"O	c #FFFFE38DA699",
"+	c #9E799A699E79",
"                                ",
"                                ",
"                                ",
"           ......               ",
"          .XXXXX...             ",
"          .XXXXXXXX.            ",
"           .XXoXXXX.            ",
"           .X....XX.            ",
"          ..........            ",
"         ...........            ",
"           .OO.O.OO.            ",
"           .OO.O.OO.            ",
"           .OO.O.OO.            ",
"           .OOOOOOO.            ",
"            .OOOOO.             ",
"            .......             ",
"            .X.XXXX.++++++      ",
"           .XXX.XXXX.++++++     ",
"           .XXXX.XXX.+++++      ",
"           .XXXXX.....+++       ",
"           .XXXXXX....++        ",
"           ...........+         ",
"                  ....          ",
"                                ",
"                        .       ",
"        ...             .       ",
"       .     .  ...   ...       ",
"       ...  . . .  . .  .       ",
"          . ... .  . .  .       ",
"          . .   .  . .  .       ",
"       ...   .. .  .  ...       ",
"                                "};
