/* XPM */
static char * wl_draft_yank_original_up_xpm[] = {
"32 32 7 1",
" 	c None",
".	c #000000000000",
"X	c #EFBEFFFFC71B",
"o	c #FFFFFFFFFFFF",
"O	c #9E799A699E79",
"+	c #59656595C71B",
"@	c #79E7B2CAF7DE",
"                                ",
"             ...............   .",
"              .XXXXXXXXXXXXX. ..",
"               .XXXXXXXXXXXX..o.",
"  ..............XOXOOOXXXXX..o. ",
"  .oooooooooooo.XXXXXXXXXXX.oo. ",
"  .o++o    ooo.XXOXOOXXXX..ooo. ",
"  .o++oooooooo.XXXXXXXXX.oooo.  ",
"  .oooo    ooo.XXXXXXXX.oooo.   ",
"  .ooooooooooo.XXXXXXXX.oooo.   ",
"  .ooooooooooo.XXXXXXX.ooooo.   ",
"  .oooooooooooo.XXXXXX.oo.oo.OOO",
"  .oooooooooooo.XXXXXX.oo.o.X.OO",
"  .oooooooooooo.XXXXXX.oo.o.X.OO",
"  ..................XXXo.oo.XX.O",
"   OOOOOOOOOO.+++++.XXX..o.XXX.O",
"   OOOOOOOOOO.......XXXX..XXXX.O",
"              .@@@.XXXXX.XXXX.OO",
"             .@o@@@.XXXX.XXX.OOO",
"            .@o@@@@@........OOOO",
"            .+o+++++.  . OOOOO  ",
"            .+o+++++.OOOOOOO    ",
"            .+++++++.OO         ",
"             .......OOO         ",
"                     .          ",
"      ..  .          .          ",
"       .  . ..  ...  . .        ",
"       .  .   . .  . ..         ",
"        ..  ... .  . ..         ",
"        .   . . .  . . .        ",
"      ..    .. ..  . . .        ",
"                                "};
