/* XPM */
static char * wl_draft_insert_signature_up_xpm[] = {
"32 32 3 1",
" 	c None",
".	c #000000000000",
"X	c #FFFFFFFFFFFF",
"                        .       ",
"                       ..       ",
"                      .X.       ",
"                     .X.        ",
"                    .XX.        ",
"                  ..XXX.        ",
"                 .XXXX.         ",
"                .XXXX.          ",
"                .XXXX.          ",
"               .XXXXX.          ",
"               .XX.XX.          ",
"               .XX.X.           ",
"               .XX.X.           ",
"               .X.XX.           ",
"                ..X.            ",
"          ..     ..             ",
"  .  .   ...     .              ",
" .   . . . .     .              ",
" .  .... ... .   .              ",
" ... ... ... ....               ",
" ..     .. ...                  ",
"                                ",
"                                ",
"                                ",
"            .                   ",
"        ...                     ",
"       .    .  ... ...          ",
"       ...  . .  . .  .         ",
"          . . .  . .  .         ",
"          . .  ... .  .         ",
"       ...  .    . .  .         ",
"               ..               "};
