/* XPM */
static char * wl_draft_up_xpm[] = {
"32 32 7 1",
" 	c None",
".	c #000000000000",
"X	c #EFBEFFFFC71B",
"o	c #FFFFFFFFFFFF",
"O	c #9E799A699E79",
"+	c #59656595C71B",
"@	c #79E7B2CAF7DE",
"                                ",
"      ...............   .       ",
"       .XXXXXXXXXXXXX. ..       ",
"        .XXXXXXXXXXXX..o.       ",
"        .XXXXXXXXXXX..o.        ",
"        .XXXXXXXXXXX.oo.        ",
"       .XXXXXXXXXX..ooo.        ",
"       .XXXXXXXXX.oooo.         ",
"       .XXXXXXXX.oooo.          ",
"       .XXXXXXXX.oooo.          ",
"       .XXXXXXX.ooooo.          ",
"        .XXXXXX.oo.oo.OOOOOO    ",
"        .XXXXXX.oo.o.X.OOOOO    ",
"        .XXXXXX.oo.o.X.OOO      ",
"      .......XXXo.oo.XX.OO      ",
"      .+++++.XXX..o.XXX.O       ",
"      .......XXXX..XXXX.O  OOOO ",
"       .@@@.XXXXX.XXXX.OOOOO    ",
"      .@o@@@.XXXX.XXX.OOOOOO    ",
"     .@o@@@@@........OOOOO      ",
"     .+o+++++.  . OOOOO         ",
"     .+o+++++.OOOOOOO           ",
"     .+++++++.OO                ",
"      .......OOO                ",
"      OOOOOOOOO                 ",
"        .   .                   ",
"        ..  .  .  . . .         ",
"        . . . . . . . .         ",
"        . . . ... . . .         ",
"        .  .. .    . .          ",
"        .   .  ..  . .          ",
"                                "};
