/* XPM */
static char * wl_folder_empty_trash_up_xpm[] = {
"32 32 7 1",
" 	c None",
".	c #000000000000",
"X	c #E79DCB2B9E79",
"o	c #CF3CBAEA9658",
"O	c #B6DAA6998617",
"+	c #FFFFFFFFFFFF",
"@	c #965896589658",
"                                ",
"            ....                ",
"           .XXXX..              ",
"           .XoooXX..            ",
"       ..  .Xooooooo..          ",
"      .     .Xoooooooo.         ",
"     .       ..XXXooooO.        ",
"     .      .OO...OOOOO.        ",
"           .OOOOOO......        ",
"   ...     ...OOOOOOO...        ",
"  .+++.    .Xo.......OO.        ",
" . ++..    .XoXoooOoOOO.        ",
" . +.+.    .XoXoooOoOOO.        ",
"  .. .     .XoXoooOoOOO.        ",
"    .      .XoXoooOoOOO.        ",
"           .XoXoooOoOOO.        ",
"           .XoXoooOoOOO.        ",
"           .XoXoooOoOOO.        ",
"           .XoXoooOoOOO.        ",
"      @@   .XoXoooOoOOO.        ",
"     @@@@@ .XoXoooOoOOO.@@      ",
"      @@@   ..XoooOoO..@@@@     ",
"              .......@@@@@      ",
"              @@@@@@@@@         ",
"                       .        ",
"      ....             .        ",
"      .    ....  ...  ....  .   ",
"      ...  . . . .  .  . .  .   ",
"      .    . . . .  .  . .  .   ",
"      .    . . . .  .  .  ..    ",
"      .... . . . ...   .  .     ",
"                 .       .      "};
