/* XPM */
static char * wl_folder_goto_draft_folder_up_xpm[] = {
"32 32 7 1",
"       c None",
".	c #69A68E38EFBE",
"X	c #000000000000",
"o	c #EFBEFFFFC71B",
"O	c #9E798E3869A6",
"+	c #FFFFE38DB6DA",
"@	c #CF3CBAEA9658",
"                                ",
"                                ",
"               .....            ",
"               .....XXXXXXXXX   ",
"               .....ooooooooX   ",
"             .........ooooooX   ",
"        XXXXXX....... o   ooX   ",
"       XOOOOOOX.....ooooooooX   ",
"      XXXXXXOOOX... o    ooX    ",
"     X++++++XOOOO.oooooooooX    ",
"    X+@@@@@@+XXXXXXXXXoooooX    ",
"    X+@@@@@@@+++++++++XoooX     ",
"     X+@@@@@@@@@@@@@@@XoooX     ",
"     X+@@@@@@@@@@@@@@@XoooX     ",
"     X+@@@@@@@@@@@@@@@@XooX     ",
"      X+@@@@@@@@@@@@@@@XooXO    ",
"      X+@@@@@@@@@@@@@@@XooXO    ",
"      X+@@@@@@@@@@@@@@@@XXXO    ",
"       X+@@@@@@@@@@@@@@@XOOO    ",
"       X+@@@@@@@@@@@@@@@XO      ",
"       X+@@@@@@@@@@@@@@@XO      ",
"        XXXXXXXXXXXXXXXXXO      ",
"        OOOOOOOOOOOOOOOOOO      ",
"                                ",
"                     XX X       ",
"      XXX           X   X       ",
"      X  X X X XX  XXX XXX      ",
"      X  X XX    X  X   X       ",
"      X  X X   XXX  X   X       ",
"      X  X X   X X  X   X       ",
"      XXX  X   XXXX X   X       ",
"                                "};
