/* XPM */
static char * wl_folder_jump_to_current_entity_up_xpm[] = {
"32 32 6 1",
" 	c None",
".	c #69A68E38EFBE",
"X	c #000000000000",
"o	c #9E798E3869A6",
"O	c #FFFFE38DB6DA",
"+	c #CF3CBAEA9658",
"                                ",
"               .....            ",
"               .....            ",
"               .....            ",
"             .........          ",
"        XXXXXX.......           ",
"       XooooooX.....            ",
"      XXXXXXoooX...XXXXX        ",
"     XOOOOOOXoooo.ooooooX       ",
"    XO++++++OXXXXXXXXXooX       ",
"    XO+++++++OOOOOOOOOXoX       ",
"     XO+++++++++++++++XoX       ",
"     XO+++++++++++++++XoX       ",
"     XO++++++++++++++++XX       ",
"      XO+++++++++++++++XX       ",
"      XO+++++++++++++++XX       ",
"      XO++++++++++++++++X       ",
"       XO+++++++++++++++X       ",
"       XO+++++++++++++++X       ",
"       XO+++++++++++++++X       ",
"        XXXXXXXXXXXXXXXXX       ",
"                                ",
"                                ",
"                                ",
"                 X              ",
"      XXXX       X              ",
"      X    XXX  XXX X  X X      ",
"      XXX  X  X  X X X XX       ",
"      X    X  X  X XXX X        ",
"      X    X  X  X X   X        ",
"      XXXX X  X  X  XX X        ",
"                                "};
