/* XPM */
static char * wl_message_extract_content_up_xpm[] = {
"32 32 8 1",
" 	c None",
".	c #000000000000",
"X	c #FFFFE38DB6DA",
"o	c #E79DCB2B9E79",
"O	c #B6DAA6998617",
"+	c #CF3CBAEA9658",
"@	c #514471C6FFFF",
"#	c #AEBAAAAAAEBA",
"                                ",
"                                ",
"                                ",
"        ............            ",
"     ...XXXXXXXXXXXX...         ",
"    .XXXXXXXXXXXXXXXXXX.        ",
"    .XXXXXXXXXXXXXXXXXX.        ",
"    ....XXXXXXXXXXXX....        ",
"    .ooo............OOO.        ",
"    .ooo++++++++++++OOO.        ",
"    .ooo+++++++@++++OOO.        ",
"    .ooo++++++@@++++OOO.        ",
"    .ooo+++++@@@@@@@@@O@@ @@ @@ ",
"    .ooo++++@@@@@@@@@@O@@ @@ @@ ",
"    .ooo++++@@@@@@@@@@O@@ @@ @@ ",
"    .ooo+++++@@@@@@@@@O@@ @@ @@ ",
"    .ooo++++++@@++++OOO.        ",
"    .ooo+++++++@++++OOO.##      ",
"    .ooo++++++++++++OO+.####    ",
"     ...++++++++++++...#####    ",
"        ............#######     ",
"         ##############         ",
"                                ",
"                                ",
"              .             .   ",
"   ....       .             .   ",
"   .    .  . .... ...   .. ...  ",
"   ...  .  .  . ..   . .    .   ",
"   .     ..   . .  ... .    .   ",
"   .    .  .  . .  . . .    .   ",
"   .... .  .  . .  .. . ..  .   ",
"                                "};
