/* XPM */
static char * wl_folder_quit_up_xpm[] = {
"32 32 7 1",
" 	c None",
".	c #000000000000",
"X	c #FFFFE38DB6DA",
"o	c #CF3CBAEA9658",
"O	c #AEBAB2CAAEBA",
"+	c #B6DA965869A6",
"@	c #69A68E38EFBE",
"                                ",
"                                ",
"                                ",
"            ...........         ",
"            .XXooooooo.OO       ",
"            .X.......o.OO       ",
"            .o.++++X.o.OO       ",
"            .o.+oooX.o.OO       ",
"       @    .o.+oooX.o.OO       ",
"       @@   .o.+oooX.o.OO       ",
" @@@@@@@@@  .o.XXXXX.o.OO       ",
" @@@@@@@@@@ .o.......o.OO       ",
" @@@@@@@@@@@.XXooooooo.OO       ",
" @@@@@@@@@@O.XXooooooo.OO       ",
" @@@@@@@@@OO.o.......o.OO       ",
" OOOOOO@@OO .o.++++X.o.OO       ",
" OOOOOO@OO  .o.+oooX.o.OO       ",
"       OO   .o.+oooX.o.OO       ",
"       O    .o.+oooX.o.OO       ",
"       O    .o.XXXXX.o.OO       ",
"            .o.......o.OO       ",
"            .ooooooooo.OO       ",
"            ...........OO       ",
"             OOOOOOOOOOOO       ",
"                 .  .           ",
"       ....         .           ",
"       .    .  . . ...          ",
"       ...  .  . .  .           ",
"       .     ..  .  .           ",
"       .    .  . .  .           ",
"       .... .  . .  .           ",
"                                "};
