#define wl_stable_xmas_logo_width 464
#define wl_stable_xmas_logo_height 160
static char wl_stable_xmas_logo_bits[] = {
 0x00,0x00,0x00,0x00,0x00,0x00,0x00,0x00,0x00,0x00,0x00,0x00,0x00,0x00,0x00,
 0x00,0x00,0x00,0x00,0x00,0x00,0x00,0x00,0x00,0x00,0x00,0x00,0x00,0x00,0x00,
 0x00,0x00,0x00,0x00,0x00,0x00,0x00,0x00,0x00,0x00,0x00,0x00,0x00,0x00,0x00,
 0x00,0x00,0x00,0x00,0x00,0x00,0x00,0x00,0x00,0x00,0x00,0x00,0x00,0x00,0x00,
 0x00,0x00,0x00,0x00,0x00,0x00,0x00,0x00,0x00,0x00,0x00,0x00,0x00,0x00,0x00,
 0x00,0x00,0x00,0x00,0x00,0x00,0x00,0x00,0x00,0x00,0x00,0x00,0x00,0x00,0x00,
 0x00,0x00,0x00,0x00,0x00,0x00,0x00,0x00,0x00,0x00,0x00,0x00,0x00,0x00,0x00,
 0x00,0x00,0x00,0x00,0x00,0x00,0x00,0x00,0x00,0x00,0x00,0x00,0x00,0x00,0x00,
 0x00,0x00,0x00,0x00,0x00,0x00,0x00,0x00,0x00,0x00,0x00,0x00,0x00,0x00,0x00,
 0x00,0x00,0x00,0x00,0x00,0x00,0x00,0x00,0x00,0x00,0x00,0x00,0x00,0x00,0x00,
 0x00,0x00,0x00,0x00,0x00,0x00,0x00,0x00,0x00,0x00,0x00,0x00,0x00,0x00,0x00,
 0x00,0x00,0x00,0x00,0x00,0x00,0x00,0x00,0x00,0x00,0x00,0x00,0x00,0x00,0x00,
 0x00,0x00,0x00,0x00,0x00,0x00,0x00,0x00,0x00,0x00,0x00,0x00,0x00,0x00,0x00,
 0x00,0x00,0x00,0x00,0x00,0x00,0x00,0x00,0x00,0x00,0x00,0x00,0x00,0x00,0x00,
 0x00,0x00,0x00,0x00,0x00,0x00,0x00,0x00,0x00,0x00,0x00,0x00,0x00,0x00,0x00,
 0x00,0x00,0x00,0x00,0x00,0x00,0x00,0x00,0x00,0x00,0x00,0x00,0x00,0x00,0x00,
 0x00,0x00,0x00,0x00,0x00,0x00,0x00,0x00,0x00,0x00,0x00,0x00,0x00,0x00,0x00,
 0x00,0x00,0x00,0x00,0x00,0x00,0x00,0x00,0x00,0x00,0x00,0x00,0x00,0x00,0x00,
 0x00,0x00,0x00,0x00,0x00,0x00,0x00,0x00,0x00,0x00,0x00,0x00,0x00,0x00,0x00,
 0x00,0x00,0x00,0x00,0x00,0x00,0x00,0x00,0x00,0x00,0x00,0x00,0x00,0x00,0x00,
 0x00,0x00,0x00,0x00,0x00,0x00,0x00,0x00,0x00,0x00,0x00,0x00,0x00,0x00,0x00,
 0x00,0x00,0x00,0x00,0x00,0x00,0x00,0x00,0x00,0x00,0x00,0x00,0x00,0x00,0x00,
 0x00,0x00,0x00,0x00,0x00,0x00,0x00,0x00,0x00,0x00,0x00,0x00,0x00,0x00,0x00,
 0x00,0x00,0x00,0x00,0x00,0x00,0x00,0x00,0x00,0x00,0x00,0x00,0x00,0x00,0x00,
 0x00,0x00,0x00,0x00,0x00,0x00,0x00,0x00,0x00,0x00,0x00,0x00,0x00,0x00,0x00,
 0x00,0x00,0x00,0x00,0x00,0x00,0x00,0x00,0x00,0x00,0x00,0x00,0x00,0x00,0x00,
 0x00,0x00,0x00,0x00,0x00,0x00,0x00,0x00,0x00,0x00,0x00,0x00,0x00,0x00,0x00,
 0x00,0x00,0x00,0x00,0x00,0x00,0x00,0x00,0x00,0x18,0x00,0x00,0x00,0x00,0x00,
 0x00,0x00,0x00,0x00,0x00,0x00,0x00,0x00,0x00,0x00,0x00,0x00,0x00,0xa0,0xaa,
 0x00,0x00,0x00,0x00,0x00,0x00,0x00,0x00,0x00,0x00,0x00,0x00,0x00,0x00,0x00,
 0x00,0x00,0x00,0x00,0x00,0x00,0x00,0x00,0x00,0x00,0x00,0x00,0x00,0x00,0x00,
 0x00,0x00,0x00,0x00,0x00,0x00,0x00,0x2e,0x00,0x00,0x00,0x00,0x00,0x00,0x00,
 0x00,0x00,0x00,0x00,0x00,0x00,0x00,0x00,0x00,0x00,0x50,0x15,0x11,0x2a,0x00,
 0x00,0x00,0x00,0x00,0x00,0x00,0x00,0x00,0x00,0x00,0x00,0x00,0x00,0x00,0x00,
 0x00,0x00,0x00,0x00,0x00,0x00,0x00,0x00,0x00,0x00,0x00,0x00,0x00,0x00,0x00,
 0x00,0x00,0x00,0x00,0x00,0x7a,0x00,0x00,0x00,0x00,0x00,0x00,0x00,0x00,0x00,
 0x00,0x00,0x00,0x00,0x00,0x00,0x00,0x80,0x8a,0x88,0x88,0x84,0x02,0x00,0x00,
 0x00,0x00,0x00,0x00,0x00,0x00,0x00,0x00,0x00,0x00,0x00,0x00,0x00,0x00,0x00,
 0x00,0x00,0x00,0x00,0x00,0x00,0x00,0x00,0x00,0x00,0x00,0x00,0x00,0x00,0x00,
 0x00,0x00,0x80,0x77,0x00,0x00,0x00,0x00,0x00,0x00,0x00,0x00,0x00,0x00,0x00,
 0x00,0x00,0x00,0x00,0x00,0x48,0x20,0x52,0x24,0x21,0x28,0x00,0x00,0x00,0x00,
 0x00,0x00,0x00,0x00,0x00,0x00,0x00,0x00,0x00,0x00,0x00,0x00,0x00,0x00,0x00,
 0x00,0x00,0x00,0x00,0x00,0x00,0x00,0x00,0x00,0x00,0x00,0x00,0x00,0x00,0x00,
 0x80,0x7a,0x00,0x00,0x00,0x00,0x00,0x00,0x00,0x00,0x00,0x00,0x00,0x00,0x00,
 0x00,0x00,0x00,0x22,0x95,0x84,0x42,0x94,0x82,0x00,0x00,0x00,0x00,0x00,0x00,
 0x00,0x00,0x00,0x00,0x00,0x00,0x00,0x00,0x00,0x00,0x00,0x00,0x00,0x00,0x00,
 0x00,0x00,0x00,0x00,0x00,0x00,0x00,0x00,0x00,0x00,0x00,0x00,0x00,0xf0,0x6d,
 0x00,0x00,0x00,0x00,0x00,0x00,0x00,0x00,0x00,0x00,0x00,0x00,0x00,0x00,0x00,
 0x90,0x14,0x02,0x21,0x14,0x41,0x28,0x04,0x00,0x00,0x00,0x00,0x00,0x00,0x00,
 0x00,0x00,0x00,0x00,0x00,0x00,0x00,0x00,0x00,0x00,0x00,0x00,0x00,0x00,0x00,
 0x00,0x00,0x00,0x00,0x00,0x00,0x00,0x00,0x00,0x00,0x00,0xa8,0x76,0x00,0x00,
 0x00,0x00,0x00,0x00,0x00,0x00,0x00,0x00,0x00,0x00,0x00,0x00,0x00,0x40,0x82,
 0x54,0x14,0x41,0x14,0x02,0x11,0x00,0x00,0x00,0x00,0x00,0x00,0x00,0x00,0x00,
 0x00,0x00,0x00,0x00,0x00,0x00,0x00,0x00,0x00,0x00,0x00,0x00,0x00,0x00,0x00,
 0x00,0x00,0x00,0x00,0x00,0x00,0x00,0x00,0x00,0xb4,0x6b,0x00,0x00,0x00,0x00,
 0x00,0x00,0x00,0x00,0x00,0x00,0x00,0x00,0x00,0x00,0x80,0x2a,0x29,0x41,0xa2,
 0x94,0x82,0xa8,0x44,0x01,0x00,0x00,0x00,0x00,0x00,0x00,0x00,0x00,0x00,0x00,
 0x00,0x00,0x00,0x00,0x00,0x00,0x00,0x00,0x00,0x00,0x00,0x00,0x00,0x00,0x00,
 0x00,0x00,0x00,0x00,0x00,0x00,0x00,0x6c,0x7d,0x00,0x00,0x00,0x00,0x00,0x00,
 0x00,0x00,0x00,0x00,0x00,0x00,0x00,0x00,0x00,0x89,0x90,0x14,0x09,0x22,0x50,
 0x02,0x08,0x00,0x00,0x00,0x00,0x00,0x00,0x00,0x00,0x00,0x00,0x00,0x00,0x00,
 0x00,0x00,0x00,0x00,0x00,0x00,0x00,0x00,0x00,0x00,0x00,0x00,0x00,0x00,0x00,
 0x00,0x00,0x00,0x00,0x80,0xb7,0x6b,0x00,0x00,0x00,0x00,0x00,0x00,0x00,0x00,
 0x00,0x00,0x00,0x00,0x00,0x80,0xa8,0x24,0x45,0x88,0xa4,0x88,0x0a,0xa8,0x42,
 0x0a,0x00,0x00,0x00,0x00,0x00,0x00,0x00,0x00,0x00,0x00,0x00,0x00,0x00,0x00,
 0x00,0x00,0x00,0x00,0x00,0x00,0x00,0x00,0x00,0x00,0x00,0x00,0x00,0x00,0x00,
 0x00,0x00,0x40,0xdd,0x76,0x00,0x00,0x00,0x00,0x00,0x00,0x00,0x00,0x00,0x00,
 0x00,0x00,0x00,0x80,0x52,0x92,0x24,0x52,0x40,0x44,0xa0,0x02,0x10,0x10,0x00,
 0x00,0x00,0x00,0x00,0x00,0x00,0x00,0x00,0x00,0x00,0x00,0x00,0x00,0x00,0x00,
 0x00,0x00,0x00,0x00,0x00,0x00,0x00,0x00,0x00,0x00,0x00,0x00,0x00,0x00,0x00,
 0xa0,0x6b,0x7b,0x00,0x00,0x00,0x00,0x00,0x00,0x00,0x00,0x00,0x00,0x00,0x00,
 0x00,0x60,0x3d,0x29,0x91,0x04,0x95,0x92,0x0a,0x90,0x84,0x22,0x00,0x00,0x00,
 0x00,0x00,0x00,0x00,0x00,0x00,0x00,0x00,0x00,0x00,0x00,0x00,0x00,0x00,0x00,
 0x00,0x00,0x00,0x00,0x00,0x00,0x00,0x00,0x00,0x00,0x00,0x00,0x00,0x68,0xbd,
 0x6d,0x00,0x00,0x00,0x00,0x00,0x00,0x00,0x00,0x00,0x00,0x00,0x00,0x00,0x80,
 0x9a,0x84,0x24,0x51,0x22,0x20,0x50,0x25,0x22,0x80,0x00,0x00,0x00,0x00,0x00,
 0x00,0x00,0x00,0x00,0x00,0x00,0x00,0x00,0x00,0x00,0x00,0x00,0x00,0x00,0x00,
 0x00,0x00,0x00,0x00,0x00,0x00,0x00,0x00,0x00,0x00,0x00,0xb8,0xd7,0x76,0x00,
 0x00,0x00,0x00,0x00,0x40,0x01,0x00,0x00,0x00,0x00,0x00,0x00,0x50,0xad,0x52,
 0x88,0x88,0x48,0x15,0x05,0x80,0x90,0x14,0x01,0x00,0x00,0x00,0x00,0x00,0x00,
 0x00,0x00,0x00,0x00,0x00,0x00,0x00,0x00,0x00,0x00,0x00,0x00,0x00,0x00,0x00,
 0x00,0x00,0x00,0x00,0x00,0x00,0x00,0x00,0x00,0xdf,0x7a,0x7b,0x00,0x00,0x00,
 0x00,0x00,0xa0,0x0a,0x00,0x00,0x00,0x00,0x00,0x00,0x80,0x52,0x94,0x22,0x45,
 0x04,0x82,0xa0,0x2a,0x04,0x80,0x02,0x00,0x00,0x00,0x00,0x00,0x00,0x00,0x00,
 0x00,0x00,0x00,0x00,0x00,0x00,0x00,0x00,0x00,0x00,0x00,0x00,0x00,0x00,0x00,
 0x00,0x00,0x00,0x00,0x00,0x00,0xc0,0x6a,0xd7,0x76,0x00,0x00,0x00,0x00,0x00,
 0x58,0x15,0x00,0x00,0x00,0x00,0x00,0x00,0xb4,0x9b,0x12,0x49,0x28,0xa2,0x28,
 0x15,0x00,0x51,0x25,0x04,0x00,0x00,0x00,0x00,0x00,0x00,0x00,0x00,0x00,0x00,
 0x00,0x00,0x00,0x00,0x00,0x00,0x00,0x05,0x00,0x00,0x00,0x00,0x00,0x00,0x00,
 0x00,0x00,0x00,0x00,0x40,0xbb,0x6d,0x3b,0x00,0x00,0x00,0x00,0x00,0xac,0x2a,
 0x00,0x00,0x00,0x00,0x00,0x00,0xd2,0x5d,0xa2,0x24,0x82,0x14,0x44,0x40,0x55,
 0x04,0x80,0x0c,0x00,0x00,0x00,0x00,0x00,0x00,0x00,0x00,0x00,0x00,0x00,0x00,
 0x00,0x00,0x00,0x00,0x80,0x06,0x00,0x00,0x00,0x00,0x00,0x00,0x00,0x00,0x00,
 0x00,0x00,0xf8,0xd7,0xb6,0x3d,0x00,0x00,0x00,0x00,0x00,0xab,0x75,0x00,0x00,
 0x00,0x00,0x00,0x80,0x4a,0x24,0x15,0x42,0x29,0xa1,0x12,0x15,0x00,0x91,0x14,
 0x08,0x00,0x00,0x00,0x00,0x00,0x00,0x00,0x00,0x00,0x00,0x00,0x00,0x00,0x00,
 0x00,0x00,0x40,0x12,0x00,0x00,0x00,0x00,0x00,0x00,0x00,0x00,0x00,0x00,0x00,
 0xaa,0x7a,0xdb,0x36,0x00,0x00,0x00,0x00,0x80,0xaa,0x56,0x00,0x00,0x00,0x00,
 0x00,0x40,0xa9,0x92,0xa0,0x14,0xd4,0x4e,0xa0,0x80,0x52,0x20,0x20,0x11,0x00,
 0x00,0x00,0x00,0x00,0x00,0x00,0x00,0x00,0x00,0x00,0x00,0x00,0x00,0x00,0x00,
 0x20,0x19,0x00,0x00,0x00,0x00,0x00,0x00,0x00,0x00,0x00,0x00,0x80,0xde,0xae,
 0xbd,0x3d,0x00,0x00,0x00,0x00,0x40,0xb5,0xea,0x00,0x00,0x00,0x00,0x00,0x50,
 0x4a,0x4a,0x16,0xf9,0x1f,0xc0,0x0f,0x55,0x04,0x0a,0x29,0x24,0x00,0x00,0x00,
 0x00,0x00,0x00,0x00,0x00,0x00,0x00,0x00,0x00,0x00,0x00,0x00,0x00,0xc0,0x16,
 0x00,0x00,0x00,0x00,0x00,0x00,0x00,0x00,0x00,0x00,0xe0,0xb5,0x75,0xeb,0x1e,
 0x00,0x00,0x00,0x00,0x40,0x55,0xd5,0x00,0x00,0x00,0x00,0x00,0x24,0x25,0x55,
 0xe1,0x0f,0x00,0x00,0xe0,0x00,0x51,0x81,0xb4,0x60,0x00,0x00,0x00,0x00,0x00,
 0x00,0x00,0x00,0x00,0x00,0x00,0x00,0x00,0x00,0x00,0x00,0x60,0x1a,0x00,0x00,
 0x00,0x00,0x00,0x00,0x00,0x00,0x00,0xa0,0x58,0xef,0xde,0x5d,0x1b,0x00,0x00,
 0x00,0x00,0x60,0xab,0xea,0x00,0x00,0x00,0x00,0x00,0x92,0x52,0x21,0x7e,0x00,
 0x00,0x00,0x00,0x56,0x04,0x28,0x28,0x48,0x00,0x00,0x00,0x00,0x00,0x00,0x11,
 0x00,0x00,0x00,0x00,0x00,0x00,0x00,0x00,0x00,0x00,0x05,0x00,0x00,0x00,0x00,
 0x00,0x00,0x00,0x00,0x00,0xd0,0xeb,0xba,0x6b,0xeb,0x1e,0x00,0x00,0x00,0x00,
 0x50,0xad,0xf5,0x00,0x00,0x00,0x00,0x00,0xa9,0x94,0xd4,0x07,0x00,0x00,0x00,
 0x00,0x20,0x91,0x02,0x7d,0x82,0x00,0x00,0x00,0x00,0x00,0x00,0x25,0x00,0x00,
 0x00,0x00,0x00,0x00,0x00,0x00,0x00,0x80,0x07,0x00,0x00,0x00,0x00,0x00,0x00,
 0x00,0x00,0x00,0xc8,0x7e,0x6f,0xbd,0x5d,0x0f,0x00,0x00,0x00,0x00,0x68,0xb5,
 0x6a,0x00,0x00,0x00,0x00,0x40,0x54,0x4a,0xfa,0x00,0x00,0x00,0x00,0x00,0x80,
 0x20,0x50,0x04,0xa0,0x01,0x00,0x00,0x00,0x00,0xc0,0x3a,0x00,0x00,0x00,0x00,
 0x00,0x00,0x00,0x00,0x00,0x00,0x00,0x00,0x00,0x00,0x00,0x00,0x00,0x00,0xc0,
 0x01,0x26,0xab,0xb5,0xd7,0xb6,0x0f,0x00,0x00,0x00,0x00,0xa8,0x55,0x6d,0x00,
 0x00,0x00,0x00,0x20,0x93,0x52,0x1f,0x00,0x00,0x00,0x00,0x00,0x00,0x0a,0x05,
 0x21,0x09,0x01,0x00,0x00,0x00,0x00,0x00,0x15,0x00,0x00,0x00,0x00,0x00,0x00,
 0x00,0x00,0x00,0x00,0x00,0x00,0x00,0x00,0x00,0x00,0x00,0x00,0x80,0xfe,0xdb,
 0xfe,0xde,0xba,0x6d,0x07,0x00,0x00,0x00,0x00,0x56,0x55,0x75,0x00,0x00,0x00,
 0x00,0x90,0x4a,0xca,0x07,0x00,0x00,0x00,0x00,0x00,0x00,0x40,0x20,0x08,0x20,
 0x03,0x00,0x00,0x00,0x00,0x80,0x1a,0x00,0x00,0x00,0x00,0x00,0x00,0x00,0x00,
 0x00,0x00,0x00,0x00,0x00,0x00,0x00,0x00,0x00,0x00,0x80,0x55,0xdd,0xab,0xb5,
 0xed,0xb6,0x07,0x00,0x00,0x00,0x00,0xba,0xaa,0x75,0x00,0x00,0x00,0x00,0xa0,
 0x54,0xf9,0x00,0x00,0x00,0x00,0x00,0x00,0x00,0x20,0x4a,0xa2,0x84,0x02,0x00,
 0x00,0x00,0x00,0x00,0x25,0x00,0x00,0x00,0x00,0x00,0x00,0x00,0x00,0x00,0x00,
 0x00,0x00,0x00,0x00,0x00,0x00,0x00,0x00,0x00,0xff,0xaf,0x7e,0xef,0xb6,0xed,
 0x03,0x00,0x00,0x00,0x00,0xab,0xad,0x3a,0x00,0x00,0x00,0x00,0x54,0xa5,0x3e,
 0x00,0x00,0x00,0x00,0x00,0x00,0x00,0x80,0x00,0x00,0x01,0x06,0x00,0x00,0x00,
 0x00,0x40,0x37,0x00,0x00,0x00,0x00,0x00,0x00,0x00,0x00,0x00,0x00,0x00,0x00,
 0x00,0x00,0x00,0x00,0x00,0x00,0x80,0x55,0xf5,0xd7,0x75,0x6f,0xdb,0x01,0x00,
 0x00,0x00,0x00,0x55,0xb5,0x3a,0x00,0x00,0x00,0x00,0xa8,0x14,0x0f,0x00,0x00,
 0x00,0x00,0x00,0x00,0x00,0x00,0x52,0x15,0x50,0x06,0x00,0x00,0x00,0x00,0x80,
 0x19,0x00,0x00,0x00,0x00,0x00,0x00,0x00,0x00,0x00,0x00,0x00,0x00,0x00,0x00,
 0x00,0x00,0x00,0x00,0x00,0xff,0xbf,0xed,0xae,0xb5,0xf7,0x00,0x00,0x00,0x00,
 0xc0,0x6a,0x55,0x1d,0x00,0x00,0x00,0x00,0x95,0xea,0x03,0x00,0x00,0x00,0x00,
 0x00,0x00,0x00,0x00,0x04,0x80,0x04,0x04,0x00,0x00,0x00,0x00,0x00,0x00,0x00,
 0x00,0x00,0x00,0x00,0x00,0x00,0x00,0x00,0x00,0x00,0x00,0x00,0x00,0x00,0x00,
 0x00,0x00,0x00,0xab,0x6a,0x5b,0xfb,0x6e,0x7d,0x00,0x00,0x00,0x00,0x40,0xad,
 0x55,0x1d,0x00,0x00,0x00,0x80,0x52,0xf2,0x00,0x00,0x00,0x00,0x00,0x00,0x00,
 0x00,0x00,0x90,0x24,0x10,0x0d,0x00,0x00,0x00,0x00,0x00,0x00,0x00,0x00,0x00,
 0x00,0x00,0x00,0x00,0x00,0x00,0x00,0x00,0x00,0x00,0x00,0x00,0x00,0x00,0x00,
 0x00,0xfd,0xff,0xfd,0x57,0xbb,0x3b,0x00,0x00,0x00,0x00,0xa0,0xab,0x6a,0x0f,
 0x00,0x00,0x00,0x00,0x4a,0x3d,0x00,0x00,0x00,0x00,0x00,0x00,0x00,0x00,0x00,
 0x00,0x00,0x42,0x0c,0x00,0x00,0x00,0x00,0x00,0x00,0x00,0x00,0x00,0x00,0x00,
 0x00,0x00,0x00,0x00,0x00,0x00,0x00,0x00,0x00,0x00,0x00,0x00,0x00,0x00,0x57,
 0x55,0xaf,0xfa,0xd6,0x1e,0x00,0x00,0x00,0x00,0xb0,0x5a,0xad,0x0e,0x00,0x00,
 0x00,0xc0,0xaa,0x1e,0x00,0x00,0x00,0x00,0x00,0x00,0x00,0x00,0x00,0xa8,0xa0,
 0x00,0x0c,0x00,0x00,0x00,0x00,0x00,0x00,0x00,0x00,0x00,0x00,0x00,0x00,0x00,
 0x00,0x00,0x00,0x00,0x00,0x00,0x00,0x00,0x00,0x00,0x00,0x00,0xec,0xff,0x75,
 0xaf,0x7b,0x0f,0x00,0x00,0x00,0x00,0x50,0xd5,0xaa,0x07,0x00,0x00,0x00,0x50,
 0xaa,0x07,0x00,0x00,0x00,0x00,0x00,0x00,0x00,0x00,0x00,0x00,0x1e,0x28,0x09,
 0x00,0x00,0x00,0x00,0x00,0x00,0x00,0x00,0x00,0x00,0x00,0x00,0x00,0x00,0x00,
 0x00,0x00,0x00,0x00,0x00,0x00,0x00,0x00,0x00,0x00,0xbe,0xaa,0xde,0xda,0xd6,
 0x07,0x00,0x00,0x00,0x00,0xa8,0x5b,0xab,0x03,0x00,0x00,0x00,0xa0,0xd2,0x01,
 0x00,0x00,0x00,0x00,0x00,0x00,0x00,0x00,0x00,0x00,0x57,0x02,0x18,0x40,0x01,
 0x00,0x00,0x00,0x00,0x00,0x00,0x00,0x00,0x00,0x00,0x00,0x00,0x00,0x00,0x00,
 0x00,0x00,0x00,0x00,0x00,0x00,0x00,0x00,0xd4,0xff,0xb5,0xb7,0xee,0x01,0x00,
 0x00,0x00,0x00,0xd8,0x6a,0xed,0x01,0x00,0x00,0x00,0x98,0xea,0x00,0x00,0x00,
 0x00,0x00,0x00,0x00,0x00,0x00,0x00,0x00,0x17,0x20,0x19,0xa0,0x01,0x00,0x00,
 0x00,0x00,0x00,0x80,0x01,0x00,0x00,0x00,0x00,0x00,0x00,0x0c,0x00,0x00,0x00,
 0x00,0x00,0x00,0x00,0x00,0x00,0x78,0x55,0x7f,0x6d,0xca,0x00,0x00,0x00,0x00,
 0x00,0x6e,0xad,0xea,0x00,0x00,0x00,0x00,0x54,0x7a,0x00,0x00,0x00,0x00,0x00,
 0x00,0x00,0x00,0x00,0x00,0x00,0x57,0x09,0x18,0x90,0x04,0x00,0x00,0x00,0x00,
 0x00,0x80,0x01,0x00,0x00,0x00,0x00,0x00,0x00,0x0c,0x00,0x00,0x00,0x00,0x00,
 0xb8,0x01,0x00,0x00,0xa8,0xff,0xd5,0xbb,0x75,0x00,0x00,0x00,0x00,0x00,0x54,
 0x55,0x75,0x00,0x00,0x00,0x00,0xa5,0x1e,0x00,0x00,0x00,0x00,0x00,0x00,0x00,
 0x00,0x00,0x00,0xc0,0x18,0x20,0x19,0x48,0x06,0x00,0x00,0x00,0x00,0x00,0x00,
 0x03,0x00,0x00,0x00,0x00,0x00,0x00,0x0a,0x00,0x00,0x00,0x00,0x80,0x6b,0x1b,
 0x00,0x00,0xf0,0xaa,0x6e,0xdd,0x2a,0x00,0x00,0x00,0x00,0x00,0x6b,0xdb,0x3a,
 0x00,0x00,0x00,0x00,0x55,0x0f,0x00,0x00,0x00,0x00,0x00,0x00,0x00,0x00,0x00,
 0x00,0x00,0xa7,0x04,0x18,0xb0,0x05,0x00,0x00,0x00,0x00,0xc0,0x80,0x3f,0x00,
 0x00,0x00,0x00,0x00,0xc0,0x0e,0x00,0x00,0x00,0x00,0x0c,0xf3,0x1b,0x00,0x00,
 0x40,0xff,0xbb,0xeb,0x35,0x00,0x00,0x00,0x00,0x00,0xad,0x55,0x1f,0x00,0x00,
 0x00,0x80,0xaa,0x07,0x00,0x00,0x00,0x00,0x00,0x00,0x00,0x00,0x00,0x00,0x80,
 0x27,0x40,0x12,0x98,0x06,0x00,0x00,0x00,0x00,0x80,0x81,0x35,0x00,0x00,0x00,
 0x00,0x30,0xc6,0x0d,0x00,0x00,0x00,0x00,0x98,0xd1,0x18,0x00,0x00,0xc0,0xab,
 0xee,0x7e,0x4a,0x00,0x00,0x00,0x00,0x80,0xb5,0xaa,0x0e,0x00,0x00,0x00,0x40,
 0xd2,0x01,0x00,0x00,0x00,0x00,0x00,0x00,0x00,0x00,0x00,0x00,0x80,0x27,0x12,
 0x18,0x40,0x01,0x00,0x00,0x00,0x00,0xc0,0x01,0x1e,0x00,0x00,0x00,0x00,0x30,
 0x06,0x07,0x00,0x00,0x00,0x00,0xdc,0x71,0x0f,0x00,0x00,0x00,0xfd,0xbb,0xf5,
 0x6e,0x00,0x00,0x00,0x00,0x80,0xd6,0x6a,0x07,0x00,0x00,0x00,0xa0,0xea,0x00,
 0x00,0x00,0x00,0x00,0x00,0x00,0x00,0x00,0x00,0x00,0xc0,0x3f,0x41,0x36,0xe0,
 0x01,0x00,0x00,0x00,0x00,0x80,0x01,0x0f,0xa0,0x00,0x00,0x00,0xa0,0x87,0x03,
 0x00,0x00,0x00,0x00,0xb8,0xe0,0x07,0x00,0x00,0x00,0x54,0x6d,0x3f,0x33,0x00,
 0x00,0x00,0x00,0xc0,0x5a,0xf7,0x03,0x00,0x00,0x00,0x58,0x79,0x00,0x00,0x00,
 0x00,0x00,0x00,0x00,0x00,0x00,0x00,0x00,0xe0,0x3f,0x09,0x39,0x00,0x00,0x00,
 0x00,0x00,0x00,0x00,0x81,0x06,0x94,0x01,0x00,0x00,0xf0,0xc1,0x01,0x00,0x00,
 0x00,0x00,0xe0,0xb0,0x01,0x00,0x00,0x00,0xe0,0xff,0x1e,0x00,0x00,0x00,0x00,
 0x00,0x40,0x6b,0xb6,0x01,0x00,0x00,0x00,0x48,0x3d,0x00,0x00,0x00,0x00,0x00,
 0x00,0x00,0x00,0x00,0x00,0x00,0xf0,0x3f,0x23,0x35,0x00,0x00,0x00,0x00,0x00,
 0x00,0x80,0x83,0x03,0xc0,0x01,0x00,0x00,0xb0,0xa1,0x01,0x00,0x00,0x00,0x00,
 0xb0,0xe3,0x00,0x00,0x00,0x00,0x00,0xa8,0x07,0x00,0x00,0x00,0x00,0x00,0x70,
 0xad,0xc9,0x00,0x00,0x00,0x00,0xa4,0x1e,0x00,0x00,0x00,0x00,0x00,0x00,0x00,
 0x00,0x00,0x00,0x00,0xf0,0xff,0x01,0x2a,0x00,0x00,0x00,0x00,0x00,0x00,0x00,
 0xd6,0x01,0x94,0x01,0x00,0x00,0xc0,0xe1,0x00,0x00,0x00,0x00,0x00,0x70,0xf3,
 0x00,0x00,0x00,0x00,0x00,0xde,0x07,0x00,0x00,0x00,0x00,0x00,0xa0,0x55,0xb6,
 0x00,0x00,0x00,0x00,0x9a,0x0e,0x00,0x00,0x00,0x00,0x00,0x00,0x00,0x00,0x00,
 0x00,0x1f,0xf0,0xff,0xfd,0x75,0x00,0x00,0x00,0x00,0x00,0x00,0x00,0xfb,0x00,
 0xa2,0x01,0x00,0x00,0x80,0xfd,0x00,0x00,0x00,0x00,0x00,0xe0,0x7d,0x00,0x00,
 0x00,0x00,0x00,0xf4,0x01,0x00,0x00,0x00,0x00,0x00,0xd8,0xb6,0xd7,0x00,0x00,
 0x00,0x00,0x64,0x07,0x00,0x00,0x00,0x00,0x00,0x00,0x00,0x00,0x00,0x00,0x1a,
 0xe0,0x13,0x57,0x6f,0x00,0x00,0x00,0x00,0x00,0x00,0x00,0x7f,0x80,0x88,0x01,
 0x00,0x00,0x00,0x1b,0x00,0x00,0x00,0x00,0x00,0x00,0x17,0x00,0x00,0x00,0x00,
 0x00,0xdf,0x01,0x00,0x00,0x00,0x00,0x00,0xa8,0x5a,0x2b,0x00,0x00,0x00,0x00,
 0xd5,0x03,0x00,0x00,0x00,0x00,0x00,0x00,0x00,0x00,0x00,0x00,0x1b,0x00,0x10,
 0xed,0x7b,0x00,0x00,0x00,0x00,0x00,0x00,0x00,0x15,0x00,0xa4,0x01,0x00,0x00,
 0x00,0x1e,0x00,0x00,0x00,0x00,0x00,0x00,0x1a,0x00,0x00,0x00,0x00,0x80,0xf5,
 0x00,0x00,0x00,0x00,0x00,0x00,0x68,0xeb,0x3f,0x00,0x00,0x00,0x80,0xd5,0x01,
 0x00,0x00,0x00,0x00,0x00,0x00,0x00,0x00,0x00,0x00,0x1d,0x38,0x1c,0xba,0x1d,
 0x00,0x00,0x00,0x00,0x00,0x00,0x00,0x1e,0x80,0x90,0x01,0x00,0x00,0x00,0x15,
 0x00,0x00,0x00,0x00,0x00,0x00,0x1f,0x00,0x00,0x00,0x00,0xc0,0x7e,0x00,0x00,
 0x00,0x00,0x00,0x00,0xb4,0xed,0x01,0x00,0x00,0x00,0x40,0xf4,0x00,0x00,0x00,
 0x00,0xa0,0x00,0x00,0x00,0x00,0x00,0x00,0x17,0xf8,0x3f,0xef,0xdb,0x01,0x00,
 0x00,0x00,0x30,0x00,0x00,0x1b,0x00,0x5e,0x00,0x60,0x00,0x00,0x1f,0x00,0x1c,
 0x00,0x80,0xf7,0xee,0x1e,0x00,0x00,0x00,0x00,0x40,0x3b,0x00,0x00,0x00,0x00,
 0x00,0x00,0x5a,0xf5,0x00,0x00,0x00,0x00,0x80,0x75,0x00,0x00,0x00,0x00,0xd0,
 0x00,0x00,0x00,0x00,0x00,0x00,0x1d,0xf8,0x1f,0x7a,0xb5,0x01,0x00,0x00,0x00,
 0x60,0x00,0x80,0x6d,0xef,0x1a,0x0f,0xdc,0x01,0xd8,0xda,0x03,0x1b,0x0f,0xbc,
 0xfe,0xff,0x1b,0x00,0x00,0x00,0x00,0xc0,0x1f,0x00,0x00,0x00,0x00,0x00,0x00,
 0x6c,0x6b,0x00,0x00,0x00,0x00,0x60,0x3a,0x00,0x00,0x00,0x00,0x48,0x02,0x00,
 0x00,0x00,0x00,0x00,0x1b,0xf0,0x1f,0xb7,0x62,0x03,0x00,0x00,0x00,0xf0,0x00,
 0xd8,0xfe,0xff,0xed,0x1a,0xec,0xfe,0xfd,0xfd,0x7b,0xdd,0xea,0xfd,0x07,0x00,
 0x1e,0x00,0x00,0x00,0x00,0xf0,0x0e,0x00,0x00,0x00,0x00,0x00,0x00,0xab,0x7d,
 0x00,0x00,0x00,0x00,0xa0,0x1e,0x00,0x00,0x00,0x00,0x24,0x03,0x00,0x00,0x00,
 0x00,0x00,0x36,0xe0,0x1f,0x7d,0xd5,0x0f,0x00,0x00,0x00,0xaf,0xc1,0xfb,0x15,
 0x00,0xfb,0xef,0x5b,0xfb,0x0f,0x17,0xfe,0xfb,0xff,0x07,0x0d,0x00,0x1b,0x18,
 0x00,0x00,0x00,0xa8,0x07,0x00,0x00,0x00,0x00,0x00,0x00,0x6d,0x35,0x00,0x00,
 0x00,0x00,0xb0,0x0e,0x00,0x00,0x00,0x00,0xd8,0x02,0x00,0x00,0x00,0x00,0x00,
 0x7d,0xbf,0xf7,0x36,0xf1,0x1a,0x1f,0xf0,0x61,0xff,0xb6,0xb6,0x1f,0x50,0xde,
 0xff,0xff,0xd7,0x6e,0x1d,0x00,0x1f,0x1f,0x80,0xdb,0xb6,0x5d,0x1c,0x00,0x00,
 0x00,0xf8,0x03,0x00,0x00,0x00,0x00,0x00,0x80,0x56,0x3b,0x00,0x00,0x00,0x00,
 0x4c,0x07,0x00,0x00,0x00,0x00,0x4c,0x03,0x00,0x00,0x00,0x00,0x00,0xd7,0xea,
 0xba,0xbb,0x52,0x6f,0xb5,0x57,0xf7,0x41,0x6f,0xef,0x1a,0x00,0xe1,0x00,0x40,
 0x7d,0xdb,0x1e,0x00,0x00,0x00,0x80,0xb6,0x6d,0x1b,0x0c,0x00,0x00,0x00,0xa8,
 0x03,0x00,0x00,0x00,0x00,0x00,0x80,0xba,0x1d,0x00,0x00,0x00,0x00,0xb0,0x03,
 0x00,0x00,0x00,0x00,0xa0,0x00,0x00,0x00,0x00,0x00,0x00,0xed,0x5d,0xd7,0xbd,
 0xf8,0xfa,0xfe,0xbf,0x3f,0xc0,0xda,0x5a,0x1f,0xa8,0x68,0x00,0x80,0xab,0xbd,
 0x0b,0x00,0x00,0x00,0x00,0x7b,0xf7,0x1e,0x0e,0x00,0x00,0x00,0xfe,0x01,0x00,
 0x00,0x00,0x00,0x00,0x40,0xd7,0x1e,0x00,0x00,0x00,0x00,0xcc,0x03,0x00,0x00,
 0x00,0x00,0xf0,0x00,0x00,0x00,0x00,0x00,0x00,0x5a,0xef,0xbd,0x56,0x54,0x1f,
 0x17,0xf0,0x01,0x80,0xbf,0xf7,0x0d,0x04,0x75,0x00,0x00,0xf6,0xeb,0x0e,0x00,
 0x00,0x00,0x00,0xd6,0xad,0x0d,0x06,0x00,0x00,0x00,0xea,0x00,0x00,0x00,0x00,
 0x00,0x00,0xa0,0x5a,0x0d,0x00,0x00,0x00,0x00,0xea,0x01,0x00,0x00,0x00,0x00,
 0x00,0x00,0x00,0x00,0x00,0x00,0x00,0xbc,0x7f,0xff,0x3b,0xef,0x1f,0x18,0x00,
 0x00,0x80,0x6a,0x5d,0x07,0x50,0x30,0x00,0x00,0x5d,0xbd,0x07,0x00,0x00,0x00,
 0x00,0xef,0xde,0x8f,0x07,0x00,0x00,0x00,0x7f,0x00,0x00,0x00,0x00,0x00,0x00,
 0x50,0x6b,0x0f,0x00,0x00,0x00,0x00,0xeb,0x00,0x00,0x00,0x00,0x00,0x00,0x00,
 0x00,0x00,0x00,0x00,0x00,0xe0,0xa1,0x4f,0x1e,0xfa,0x00,0x00,0x00,0x00,0x00,
 0xf7,0xeb,0x01,0x0a,0x3d,0x00,0x00,0xb7,0xd7,0x02,0x00,0x00,0x00,0x00,0xba,
 0xb5,0x86,0x03,0x00,0x00,0x80,0x3a,0x00,0x00,0x00,0x00,0x00,0x00,0xd4,0xb5,
 0x0e,0x00,0x00,0x00,0x80,0x74,0x00,0x00,0x00,0x00,0x00,0x00,0x00,0x00,0x00,
 0x00,0x00,0x00,0x50,0xf1,0x3f,0x9b,0x57,0x00,0x00,0x00,0x00,0x80,0xad,0xbe,
 0x01,0xa0,0x18,0x00,0x80,0xfd,0xbf,0x03,0x20,0x02,0x00,0x00,0xd7,0xef,0xc7,
 0x01,0x00,0x00,0x80,0x3f,0x00,0x00,0x00,0x00,0x00,0x00,0x6c,0xdd,0x07,0x00,
 0x00,0x00,0x40,0x75,0x00,0x00,0x00,0x00,0x00,0x00,0x00,0x00,0x00,0x00,0x00,
 0x00,0xf0,0x51,0x3f,0xdd,0x7a,0x00,0x00,0x00,0x00,0x00,0xfb,0x6f,0x03,0x15,
 0x0e,0x00,0x80,0x0e,0x60,0x03,0xa0,0x04,0x00,0x80,0x7a,0xb3,0xee,0x00,0x00,
 0x00,0xc0,0x1d,0x00,0x00,0x00,0x00,0x00,0x00,0xb7,0x56,0x07,0x00,0x00,0x00,
 0x80,0x3a,0x00,0x00,0x00,0x00,0x00,0x00,0x00,0x00,0x00,0x00,0x00,0xd0,0x57,
 0xeb,0x6d,0x5b,0x3f,0x00,0x00,0x00,0x00,0xc0,0xfe,0xf0,0x8e,0x40,0x07,0x00,
 0xe0,0x07,0xf0,0x0d,0x58,0x07,0x00,0x80,0xff,0xc1,0x7d,0x00,0x00,0x00,0x60,
 0x0f,0x00,0x00,0x00,0x00,0x00,0x80,0xaa,0xb5,0x03,0x00,0x00,0x00,0x40,0x1d,
 0x00,0x00,0x00,0x00,0x00,0x00,0x00,0x00,0x00,0x00,0x00,0x70,0xbd,0x5d,0xb7,
 0xf7,0x1a,0x00,0x00,0x00,0x00,0xc0,0x07,0xc0,0x1b,0x2a,0x07,0x00,0xa0,0x01,
 0xc0,0x0f,0xa0,0x02,0x00,0x60,0x0d,0x00,0x3b,0x00,0x00,0x00,0xb0,0x0f,0x00,
 0x00,0x00,0x00,0x00,0xe0,0xde,0xd6,0x03,0x00,0x00,0x00,0x40,0x1d,0x05,0x00,
 0x00,0x00,0x00,0x00,0x00,0x00,0x00,0x00,0x00,0xa0,0xeb,0xf6,0x7b,0xad,0x0f,
 0x00,0x00,0x00,0x00,0xb0,0x01,0x00,0x9e,0xc4,0x03,0x00,0xd0,0x01,0x00,0x1b,
 0x50,0x03,0x80,0xa1,0x07,0x00,0x3c,0x00,0x00,0x00,0xd8,0x07,0x00,0x00,0x05,
 0x00,0x00,0x58,0x6b,0xab,0x03,0x00,0x00,0x00,0xb0,0x8e,0x06,0x00,0x00,0x00,
 0x00,0x00,0x00,0x00,0x00,0x00,0x00,0xf0,0x76,0xaf,0xd6,0xfb,0x06,0x00,0x00,
 0x00,0x00,0xf0,0x01,0x00,0x34,0xd1,0x01,0x00,0xf0,0x00,0x00,0x1e,0xa0,0x04,
 0xd0,0xe1,0x03,0x20,0x3c,0x00,0x00,0x00,0xb0,0x03,0x00,0x80,0x06,0x00,0x00,
 0xd4,0x57,0xdd,0x01,0x00,0x00,0x00,0x40,0x07,0x05,0x00,0x38,0x00,0x00,0x00,
 0x00,0x00,0x00,0x00,0x00,0xf0,0xff,0xff,0xff,0xff,0x03,0x00,0x50,0x01,0x00,
 0xf0,0x01,0x00,0xbc,0xe8,0x00,0x00,0x78,0x00,0x00,0x1c,0xe8,0x06,0xc4,0xf0,
 0x00,0x80,0x3e,0x00,0x00,0x00,0xfc,0x03,0x00,0x40,0x12,0x00,0x00,0xea,0x7b,
 0xeb,0x01,0x00,0x00,0x00,0xb0,0x87,0x07,0x00,0x56,0x00,0x00,0x00,0x00,0x00,
 0x00,0x00,0x00,0x00,0x00,0x00,0x28,0xc1,0x00,0x00,0x24,0x0d,0x00,0xc8,0x01,
 0x00,0x40,0x74,0x00,0x00,0x00,0x00,0x00,0x00,0x30,0x03,0xe0,0x00,0x00,0x00,
 0x07,0x00,0x00,0x00,0xd6,0x01,0x00,0x20,0x19,0x00,0x00,0xfd,0xac,0xda,0x01,
 0x00,0x00,0x00,0xac,0x03,0x00,0x00,0xec,0x00,0x00,0x00,0x18,0x00,0x00,0x00,
 0x00,0x00,0x40,0x15,0x56,0xe1,0x00,0x80,0xaa,0x1a,0x00,0xf5,0x00,0x00,0x90,
 0x3a,0x00,0x28,0x08,0x00,0x00,0x00,0x00,0x00,0x49,0x00,0x10,0x09,0x03,0x00,
 0x00,0x00,0xfa,0x00,0x00,0xc0,0x16,0x00,0xc0,0x7b,0xab,0xd7,0x00,0x00,0x00,
 0x00,0xa8,0x03,0x00,0x00,0xbb,0x01,0x00,0x00,0x6a,0x00,0x00,0x00,0x00,0x00,
 0xa8,0x0f,0xaa,0x68,0x00,0x40,0x52,0x19,0x80,0x64,0x00,0x00,0x48,0x1c,0x00,
 0xb4,0x64,0x00,0x00,0x00,0x00,0x40,0x80,0x00,0x40,0x00,0x00,0x00,0x00,0x00,
 0xef,0x00,0x00,0x60,0x1a,0x00,0x40,0x1d,0xdd,0xda,0x00,0x00,0x00,0x00,0xd4,
 0x01,0x00,0xff,0xee,0x01,0x00,0x80,0xed,0x00,0x00,0x00,0x00,0x00,0xfd,0x00,
 0x55,0x72,0x00,0xa0,0x2b,0x1d,0x00,0x2a,0x00,0x00,0x20,0x0f,0x00,0x92,0xc2,
 0x00,0x00,0x00,0x00,0x00,0x49,0x01,0x04,0x21,0x00,0x0f,0x00,0x80,0x7b,0x00,
 0x00,0x00,0x05,0x00,0x78,0x8f,0x6a,0xad,0x01,0x00,0x00,0x00,0xea,0x00,0xf0,
 0xfa,0xf5,0x01,0x00,0x80,0x76,0x00,0x2c,0x00,0x00,0xc0,0x1e,0x00,0x2a,0x30,
 0x00,0xd4,0xa9,0x1a,0xa0,0x49,0x01,0x00,0x88,0x07,0x00,0xc9,0xe8,0x00,0x00,
 0x12,0x00,0x10,0x00,0x02,0x00,0x84,0xe0,0x03,0x00,0x40,0x7d,0x00,0x00,0x80,
 0x07,0x00,0xd4,0x07,0xad,0xf5,0x01,0x00,0x00,0x00,0xea,0x00,0xd4,0x47,0xef,
 0x00,0x00,0x60,0x7b,0x00,0xd7,0x00,0x00,0xb0,0x07,0x00,0x15,0x3a,0x00,0x64,
 0x40,0x1d,0x40,0x54,0x02,0x00,0xa4,0x03,0x00,0xb6,0x65,0x00,0x80,0x30,0x00,
 0x20,0x49,0x06,0xf0,0x50,0x7f,0x00,0x00,0xc0,0x3f,0x00,0x00,0x00,0x00,0x00,
 0xdb,0x83,0xd7,0x9a,0x01,0x00,0x00,0x00,0x75,0x00,0xff,0x80,0x7a,0x00,0x00,
 0xd0,0x7a,0xc0,0xfa,0x00,0x00,0xd4,0x03,0x80,0x8a,0x1c,0x00,0x1a,0xa0,0x0e,
 0x50,0x25,0x19,0x00,0xe0,0x01,0x00,0xd3,0x70,0x00,0x40,0x3c,0x00,0x40,0x00,
 0x04,0x00,0x30,0x00,0x00,0x00,0xe0,0x3a,0x00,0x00,0x00,0x00,0x00,0xf5,0x80,
 0x7a,0x6f,0x03,0x00,0x00,0x00,0x75,0xc0,0x7a,0xc0,0x57,0x00,0x00,0xb0,0x3d,
 0x40,0xab,0x01,0x00,0xea,0x01,0x40,0x25,0x0c,0x80,0x0e,0x20,0x07,0x80,0x92,
 0x34,0x00,0x74,0x00,0x00,0x28,0x3d,0x00,0x10,0x19,0x00,0xc0,0x94,0x0c,0x00,
 0x3a,0x00,0x00,0x00,0x50,0x1f,0x00,0x00,0x00,0x00,0xc0,0x7f,0xc0,0xaa,0xb2,
 0x03,0x00,0x00,0x80,0x3a,0x60,0x1f,0x80,0xfa,0x01,0x00,0x6c,0x1b,0xb0,0xd5,
 0x01,0x00,0xea,0x00,0x80,0x82,0x0e,0x80,0x0e,0xd8,0x03,0xa0,0x54,0x35,0x00,
 0x39,0x00,0x00,0x7c,0x1e,0x00,0x40,0x1e,0x00,0x20,0x00,0x08,0x00,0x1c,0x00,
 0x00,0x00,0xf8,0x1d,0x00,0x00,0x00,0x00,0x50,0x3d,0x40,0xad,0xad,0x06,0x00,
 0x00,0x80,0x3a,0xd8,0x1d,0x00,0x57,0x03,0x00,0xd8,0x1e,0xd0,0xbe,0x01,0x80,
 0x76,0x00,0x40,0x09,0x07,0x40,0x07,0xd0,0x01,0xd0,0xa5,0x3a,0x0a,0x3a,0x00,
 0x00,0x84,0x07,0x00,0x14,0x0e,0x00,0x08,0x22,0x19,0x00,0x1c,0x00,0x00,0x00,
 0xac,0x1e,0x00,0x00,0x00,0x00,0xe8,0x0e,0x80,0xd7,0xda,0x06,0x00,0x00,0x00,
 0x1d,0x6c,0x0f,0x00,0xbd,0x07,0x00,0x6e,0x0f,0xbc,0xd2,0x01,0x80,0x7a,0x00,
 0x40,0x21,0x03,0x40,0x03,0xed,0x00,0x04,0x54,0x1c,0x0d,0x1c,0x00,0x00,0xd0,
 0x03,0x00,0x80,0x07,0x00,0x00,0x08,0x18,0x40,0x0c,0x00,0x00,0x00,0xf4,0x0f,
 0x00,0x00,0x00,0x00,0xb6,0x07,0xc0,0x7a,0x6d,0x0d,0x00,0x00,0x40,0x1d,0xf6,
 0x07,0x80,0xd5,0x06,0x00,0xda,0x0e,0xf0,0xae,0x01,0xc0,0x35,0x00,0xa0,0x84,
 0x03,0xa0,0x43,0x3a,0x00,0x00,0x20,0x0f,0x0a,0x0d,0x00,0x00,0xe5,0x00,0x00,
 0xd4,0x01,0x00,0x00,0x80,0x1c,0x00,0x0e,0x00,0x00,0x00,0x5c,0x0d,0x00,0x00,
 0x00,0x00,0xda,0x03,0x80,0xaa,0xab,0x0f,0x00,0x00,0x40,0x0d,0x5a,0x07,0x40,
 0x7c,0x0f,0x00,0x6f,0x07,0x49,0xf5,0x01,0xa0,0x3a,0x00,0x50,0xd1,0x01,0x40,
 0xd5,0x0f,0x00,0x00,0x90,0x07,0x0f,0x0d,0x00,0x00,0x70,0x00,0x00,0xe2,0x00,
 0x00,0x00,0x20,0x18,0x20,0x06,0x00,0x00,0x00,0xf7,0x0f,0x00,0x00,0x00,0xc0,
 0xff,0x01,0xc0,0x56,0x6d,0x19,0x00,0x00,0xa0,0x0e,0xee,0x07,0x40,0xa8,0x0d,
 0x00,0xb5,0x07,0x80,0x9b,0x01,0xa0,0x36,0x00,0xac,0xc0,0x00,0x50,0xff,0x00,
 0x00,0x00,0xa0,0x03,0x80,0x0c,0x00,0x00,0x75,0x00,0x00,0x71,0x00,0x00,0x00,
 0x00,0x0e,0x00,0x06,0x00,0x00,0x00,0xbd,0x0e,0x00,0x00,0x00,0x40,0x75,0x00,
 0x40,0xed,0x56,0x1d,0x00,0x00,0x40,0x8f,0xbb,0x06,0x00,0xf0,0x0e,0x80,0x6d,
 0x07,0x00,0xed,0x01,0xd0,0x3a,0x00,0xd2,0xea,0x00,0xa8,0x03,0x00,0x00,0x00,
 0xd0,0x01,0x00,0x0a,0x00,0x00,0x30,0x00,0x80,0x34,0x00,0x00,0x00,0xa0,0x0c,
 0x20,0x06,0x00,0x00,0x80,0xd7,0x0f,0x00,0x00,0x00,0xf8,0x3e,0x00,0x40,0x57,
 0xeb,0x36,0x00,0x00,0xb0,0x86,0xee,0x07,0x18,0x5c,0x0f,0xc0,0xb6,0x03,0x80,
 0x55,0x01,0x60,0x6b,0x00,0x52,0x71,0x00,0xa8,0x01,0x00,0x00,0x00,0xe8,0x00,
 0x40,0x11,0x00,0x40,0x35,0x00,0x40,0x30,0x00,0x00,0x00,0x00,0x0e,0x80,0x04,
 0x00,0x00,0xc0,0x7a,0x0d,0x00,0x00,0x00,0x54,0x0f,0x00,0x80,0x5c,0x3d,0x6b,
 0x00,0x00,0xa0,0x87,0x7b,0x07,0x08,0xe8,0x0e,0x50,0xdb,0x03,0x80,0xb6,0x03,
 0x58,0x55,0x40,0x51,0x3d,0x00,0x50,0x03,0x00,0x40,0x00,0x64,0x00,0x08,0x2a,
 0x00,0x00,0x40,0x00,0x10,0x35,0x00,0x00,0x00,0x00,0x07,0x08,0x0c,0x00,0x00,
 0x40,0xdf,0x1f,0x00,0x00,0x00,0xed,0x07,0x00,0x80,0x94,0xd5,0x6a,0x00,0x00,
 0x50,0xc3,0xae,0x0d,0x17,0xbe,0x0f,0x88,0xad,0x06,0x00,0xdb,0x03,0xab,0xb6,
 0x51,0x55,0x15,0x00,0xaa,0x06,0x00,0x20,0x00,0x70,0x00,0x60,0x01,0x00,0x40,
 0xd5,0x00,0x40,0x20,0x00,0x08,0x09,0x40,0x03,0x20,0x10,0x00,0x00,0xc0,0xb5,
 0x1a,0x00,0x00,0x80,0xdb,0x03,0x00,0x00,0xeb,0x6b,0xdb,0x00,0x00,0xa8,0x83,
 0xf7,0xb7,0x09,0xd4,0x06,0xf3,0xf6,0x15,0x00,0xad,0x82,0xd8,0xaa,0xda,0xa8,
 0x2a,0x80,0xa8,0x0a,0x00,0x88,0x00,0x6a,0x80,0x1a,0xaa,0x04,0x80,0x08,0x00,
 0x24,0x4a,0x80,0x44,0x18,0x80,0x03,0x00,0x01,0x00,0x08,0x60,0xef,0x3f,0x00,
 0x00,0xe0,0xfe,0x00,0x00,0x00,0x54,0xad,0xad,0x01,0x00,0xd0,0xe3,0x5d,0xfd,
 0x07,0x77,0xcf,0x4c,0x5b,0x0f,0x80,0x6b,0xdb,0x6f,0xdb,0x6a,0xa8,0x55,0x55,
 0x56,0x25,0x00,0x42,0x80,0x6a,0x20,0x4e,0x11,0x11,0x28,0x52,0x05,0x0d,0x01,
 0xa0,0x01,0x12,0xc0,0x01,0x10,0x10,0x00,0x07,0xf0,0x7b,0x35,0x00,0x00,0x58,
 0x7b,0x00,0x00,0x00,0xea,0x76,0xb5,0x01,0x00,0xac,0xa1,0xee,0xaf,0x83,0xba,
 0xf5,0xa7,0x6d,0x07,0x00,0xb5,0xed,0x53,0x55,0x75,0xa9,0xaa,0xaa,0x4b,0xaa,
 0xaa,0x3c,0x80,0x44,0x85,0x47,0x8a,0x44,0xbd,0x04,0x50,0xaf,0x54,0xe5,0x90,
 0x30,0xd0,0x00,0x00,0x02,0x80,0x03,0xa0,0xae,0x7f,0x00,0x00,0xec,0x1e,0x00,
 0x00,0x00,0x94,0xab,0x56,0x03,0x00,0xd4,0xe1,0x77,0xf5,0x01,0xd7,0xde,0xc1,
 0xb6,0x03,0x00,0xae,0xea,0xb0,0x6a,0x3b,0x50,0x55,0xd5,0xa9,0xaa,0x92,0x1e,
 0xa0,0xaa,0xd4,0x03,0x51,0x28,0x0e,0xa8,0x8a,0x03,0x00,0x70,0x00,0x2a,0x60,
 0x00,0x48,0x40,0xe4,0x01,0xf8,0xfb,0xd5,0x00,0x80,0xb7,0x0f,0x00,0x00,0x00,
 0xdd,0x5a,0xdb,0x06,0x00,0xe8,0xa1,0xba,0xff,0xc0,0xbd,0xf5,0xa0,0xed,0x01,
 0x00,0x75,0x7b,0x58,0x57,0x9d,0xaa,0x56,0x94,0xa8,0x52,0x55,0x0f,0x90,0x24,
 0xe9,0x81,0x8a,0x82,0x87,0x42,0xe0,0x51,0x55,0x3d,0xa0,0x40,0x30,0x00,0x00,
 0x02,0x70,0x00,0xb0,0xae,0x7e,0x03,0x70,0xed,0x03,0x00,0x00,0x00,0xf6,0xed,
 0x6a,0x0d,0x00,0xd4,0xc0,0xdf,0x3a,0x40,0x6b,0x3f,0xe0,0xf6,0x00,0x00,0xab,
 0x3d,0xa0,0xb5,0x0e,0xa0,0xaa,0xeb,0xa0,0x4a,0xaa,0x07,0x40,0x95,0x74,0x00,
 0x24,0xd4,0x03,0x91,0xea,0x00,0x00,0x0e,0x00,0x24,0x1d,0x00,0x20,0x10,0x3c,
 0x00,0xe8,0xf7,0xd7,0x1d,0xae,0xf7,0x01,0x00,0x00,0x00,0xa0,0x56,0xad,0x0d,
 0x00,0xea,0x40,0xb5,0x1f,0x80,0xdd,0x1f,0x40,0x7b,0x00,0x00,0xdd,0x1e,0x70,
 0xd5,0xa7,0xda,0xaa,0x54,0xa0,0xaa,0xd2,0x01,0x20,0xa9,0x3a,0x00,0x91,0xe2,
 0x00,0x0a,0x78,0xa0,0xaa,0x07,0x80,0x00,0x0e,0x00,0x00,0x81,0x0e,0x00,0xbc,
 0xba,0x7a,0xef,0xf5,0x7d,0x00,0x00,0x00,0x00,0xa0,0xb5,0xb6,0x1a,0x00,0xec,
 0x80,0xef,0x07,0xc0,0xee,0x07,0xc0,0x3d,0x00,0x00,0xaa,0x07,0xa0,0xd6,0x0b,
 0x78,0x55,0x6b,0x80,0x2a,0xf5,0x00,0xa0,0x4a,0x1e,0x00,0x4a,0x7c,0x00,0xa0,
 0x1e,0x00,0xc0,0x03,0x00,0xca,0x07,0x00,0x00,0x84,0x07,0x00,0xf4,0xdf,0xdf,
 0xb5,0xae,0x3e,0x00,0x00,0x00,0x00,0xc0,0xda,0xd5,0x36,0x00,0x75,0x00,0xfc,
 0x01,0x80,0xf5,0x01,0x80,0x1e,0x00,0x00,0xf4,0x03,0xc0,0xfa,0x40,0x9d,0xaa,
 0x94,0x80,0x52,0x3d,0x00,0x80,0xa4,0x0f,0x00,0x24,0x1f,0x00,0x94,0x0f,0x80,
 0xfa,0x00,0x00,0xe0,0x01,0x00,0x40,0xf0,0x01,0x00,0x5c,0xb5,0x6a,0xdf,0xdb,
 0x0f,0x00,0x00,0x00,0x00,0x40,0xad,0x5a,0x2b,0x00,0x6a,0x00,0x00,0x00,0x00,
 0x3e,0x00,0x80,0x0f,0x00,0x00,0xf8,0x00,0x00,0x3f,0x14,0x0e,0xff,0xdd,0x00,
 0xaa,0x0f,0x00,0x00,0xd2,0x03,0x00,0xe0,0x03,0x00,0xf8,0x01,0x00,0x3e,0x00,
 0x00,0x7e,0x00,0x00,0x00,0x7f,0x00,0x00,0xf4,0xef,0xff,0xf5,0xfe,0x07,0x00,
 0x00,0x00,0x00,0x80,0xb7,0xad,0x6c,0x00,0x75,0x00,0x00,0x00,0x00,0x00,0x00,
 0x00,0x02,0x00,0x00,0x00,0x00,0x00,0x00,0x82,0x07,0x00,0x66,0x00,0xf0,0x01,
 0x00,0x00,0xfc,0x00,0x00,0x00,0x00,0x00,0x00,0x00,0x00,0x00,0x00,0x00,0x00,
 0x00,0x00,0x00,0x00,0x00,0x00,0x5c,0x7b,0x55,0xbf,0xd5,0x01,0x00,0x00,0x00,
 0x00,0x00,0x54,0xb5,0xb5,0x00,0x75,0x00,0x00,0x00,0x00,0x00,0x00,0x00,0x00,
 0x00,0x00,0x00,0x00,0x00,0x80,0xd0,0x03,0x00,0x00,0x00,0x00,0x00,0x00,0x00,
 0x00,0x00,0x00,0x00,0x00,0x00,0x00,0x00,0x00,0x00,0x00,0x00,0x00,0x00,0x00,
 0x00,0x00,0x00,0x00,0xf4,0xad,0xff,0x6a,0x7f,0x00,0x00,0x00,0x00,0x00,0x00,
 0xd4,0xd6,0xca,0x81,0x3a,0x00,0x00,0x00,0x00,0x00,0x00,0x00,0x00,0x00,0x00,
 0x00,0x00,0x00,0x00,0xe4,0x00,0x00,0x00,0x00,0x00,0x00,0x00,0x00,0x00,0x00,
 0x00,0x00,0x00,0x00,0x00,0x00,0x00,0x00,0x00,0x00,0x00,0x00,0x00,0x00,0x00,
 0x00,0x00,0x5c,0xff,0xaa,0xdf,0x3d,0x00,0x0c,0x03,0x00,0x00,0x00,0xab,0xaa,
 0x36,0x03,0x35,0x00,0x00,0x00,0x00,0x18,0x1c,0x00,0x00,0x00,0x00,0x00,0x00,
 0x00,0xa0,0x73,0x00,0x00,0x00,0x00,0x00,0x00,0x00,0x00,0x00,0x00,0x7c,0x00,
 0x00,0xc0,0x1f,0x00,0x00,0x00,0x00,0x00,0x00,0x00,0x00,0x00,0x00,0x00,0x00,
 0xf4,0x55,0xff,0xf5,0x0f,0x00,0x08,0xe1,0xef,0x1f,0x80,0x6b,0xd7,0xea,0xf2,
 0x7f,0x10,0xfe,0xf8,0x00,0x38,0x1c,0xfe,0x70,0xe0,0xc0,0x00,0x03,0x7f,0x08,
 0x7a,0x90,0x7f,0xfe,0xf8,0xc0,0x0f,0x03,0x0e,0x7f,0x00,0xc6,0x30,0x04,0x40,
 0x00,0x82,0xc0,0x80,0x83,0x83,0x3f,0x86,0x00,0x00,0x00,0x00,0x00,0x6c,0xff,
 0xab,0xde,0x03,0x00,0x98,0x20,0x02,0x07,0x80,0x94,0x57,0x3a,0x87,0x70,0x10,
 0x02,0x28,0x01,0x38,0x06,0x06,0xac,0x58,0xc1,0xc1,0x0d,0x41,0x20,0xdb,0x10,
 0x1c,0x8a,0x18,0x63,0x80,0x83,0x1b,0x45,0x00,0x83,0x31,0x04,0x40,0x00,0xc2,
 0xe0,0xe0,0x46,0x8d,0x24,0x86,0x00,0x00,0x00,0x00,0x00,0xdc,0x55,0xfd,0xfb,
 0x00,0x00,0xd0,0x20,0x00,0x03,0x80,0xa4,0xd4,0x0c,0x8a,0x70,0x10,0x02,0x08,
 0x01,0x48,0x1a,0x02,0x04,0x08,0x40,0x21,0x00,0x01,0x12,0x43,0x11,0x08,0x02,
 0x08,0x23,0x80,0xc2,0x00,0x01,0x00,0x01,0x51,0x04,0xc0,0x07,0xc6,0xa0,0x30,
 0x40,0x80,0x00,0x8a,0x00,0x00,0x00,0x00,0x00,0xf8,0xfe,0xab,0x3e,0x00,0x00,
 0x60,0xe0,0x03,0x03,0xc0,0x84,0x4a,0xcc,0x96,0xd9,0x1f,0x3e,0xf8,0x01,0x58,
 0x0b,0x3e,0x78,0xf0,0x20,0x21,0x00,0x1f,0xc0,0x43,0x13,0x0c,0x3e,0xf8,0xe1,
 0x83,0x44,0x00,0x1f,0x00,0x01,0x91,0x04,0x40,0x06,0xa4,0x21,0x11,0xc0,0x83,
 0x0f,0x92,0x00,0x00,0x00,0x00,0x00,0xa0,0xab,0xfe,0x0f,0x00,0x00,0x20,0x20,
 0x01,0x03,0xc0,0x0f,0xdb,0x26,0xb6,0x58,0x00,0x2a,0xc8,0x40,0xd8,0x19,0x22,
 0x80,0x01,0xa3,0x22,0x0e,0x15,0xea,0x43,0x14,0x0c,0x16,0x88,0x20,0xc0,0x44,
 0x00,0x13,0x00,0x81,0x11,0x05,0x40,0x00,0xaa,0x30,0x11,0x00,0x8c,0x05,0xa2,
 0x00,0x00,0x00,0x00,0x00,0xe0,0xfe,0xeb,0x01,0x00,0x00,0x20,0x20,0x00,0x03,
 0x60,0x10,0x61,0x8c,0xd3,0x5a,0x10,0x02,0x88,0x50,0x99,0x18,0x02,0x00,0x01,
 0xb2,0x22,0x08,0x01,0x71,0x42,0x14,0x0c,0x02,0x88,0x21,0x40,0xce,0x10,0x01,
 0x00,0x83,0x10,0x07,0x40,0x00,0x98,0x90,0x33,0x04,0x88,0x00,0xe2,0x00,0x00,
 0x00,0x00,0x00,0x80,0x55,0x3f,0x00,0x00,0x00,0x20,0xe0,0x0f,0x03,0x20,0x10,
 0x5a,0xfa,0xa1,0x59,0x10,0xfa,0x08,0xa9,0x8a,0x18,0xfe,0xdc,0xb8,0x11,0xc4,
 0x0d,0x77,0x3c,0x42,0x18,0x0c,0xfe,0x08,0x61,0x20,0x88,0x1f,0x7f,0x00,0xfc,
 0x10,0x06,0x40,0x1f,0x92,0x08,0xe2,0xc7,0x8d,0x3f,0xc2,0x00,0x00,0x00,0x00,
 0x00,0x00,0xfe,0x03,0x00,0x00,0x00,0x40,0x00,0x02,0x00,0x00,0x00,0xa2,0x04,
 0x94,0x1c,0x10,0x24,0x00,0x45,0x0a,0x00,0x20,0x50,0xa0,0x00,0x00,0x00,0x29,
 0x0f,0x02,0x00,0x00,0x90,0x00,0x00,0x00,0x00,0x04,0x40,0x00,0x00,0x00,0x00,
 0x80,0x08,0x00,0x01,0x00,0x01,0x02,0x24,0x00,0x00,0x00,0x00,0x00,0x00,0x00,
 0x00,0x00,0x00,0x00,0x00,0x00,0x00,0x00,0x00,0x00,0x00,0x58,0x5a,0x68,0x1c,
 0x00,0x00,0x00,0x50,0x89,0x00,0x00,0x00,0x00,0x00,0x00,0x00,0x00,0x07,0x00,
 0x00,0x00,0x00,0x00,0x00,0x00,0x00,0x00,0x00,0x00,0x00,0x00,0x00,0x00,0x00,
 0x00,0x00,0x00,0x00,0x00,0x00,0x00,0x00,0x00,0x00,0x00,0x00,0x00,0x00,0x00,
 0x00,0x00,0x00,0x00,0x00,0x00,0x00,0x00,0x00,0x50,0x55,0x57,0x0d,0x00,0x00,
 0x00,0x56,0x55,0x0a,0x00,0x00,0x00,0x00,0x00,0x40,0xe5,0x01,0x00,0x00,0x00,
 0x00,0x00,0x00,0x00,0x00,0x00,0x00,0x00,0x00,0x00,0x00,0x00,0x00,0x00,0x00,
 0x00,0x00,0x00,0x00,0x00,0x00,0x00,0x00,0x00,0x00,0x00,0x00,0x00,0x00,0x00,
 0x00,0x00,0x00,0x00,0x00,0x00,0x00,0x40,0x55,0x55,0x0d,0x00,0x00,0x00,0xa9,
 0x4a,0x15,0x00,0x00,0x00,0x00,0x00,0x20,0x78,0x00,0x00,0x00,0x00,0x00,0x00,
 0x00,0x00,0x00,0x00,0x00,0x00,0x00,0x00,0x00,0x00,0x00,0x00,0x00,0x00,0x00,
 0x00,0x00,0x00,0x00,0x88,0x00,0x00,0x00,0x00,0x00,0x00,0x00,0x00,0x00,0x00,
 0x00,0x00,0x00,0x00,0x00,0x80,0x56,0x55,0x0d,0x00,0x00,0x00,0x25,0x29,0x29,
 0x00,0x00,0x00,0x00,0x00,0x14,0x3d,0x00,0x00,0x00,0x00,0x00,0x00,0x00,0x00,
 0x00,0x00,0x00,0x00,0x00,0x00,0x00,0x00,0x00,0x00,0x00,0x00,0x00,0x00,0x00,
 0x00,0x00,0x28,0x01,0x00,0x00,0x00,0x00,0x00,0x00,0x00,0x00,0x00,0x00,0x00,
 0x00,0x00,0x00,0x00,0xda,0xaa,0x0e,0x00,0x00,0x00,0x55,0xa5,0x64,0x00,0x00,
 0x00,0x00,0x80,0x42,0x0f,0x00,0x00,0x00,0x00,0x00,0x00,0x00,0x00,0x00,0x00,
 0x00,0x00,0x00,0x00,0x00,0x00,0x00,0x00,0x00,0x00,0x00,0x00,0x00,0x00,0x00,
 0xd6,0x01,0x00,0x00,0x00,0x00,0x00,0x00,0x00,0x00,0x00,0x00,0x00,0x00,0x00,
 0x00,0x00,0xaa,0x5a,0x0d,0x00,0x00,0x80,0x2a,0x55,0x55,0x00,0x00,0x00,0x00,
 0x00,0xd4,0x03,0x00,0x00,0x00,0x00,0x00,0x00,0x00,0x00,0x00,0x00,0x00,0x00,
 0x00,0x00,0x00,0x00,0x00,0x00,0x00,0x00,0x00,0x00,0x00,0x00,0x00,0xa8,0x00,
 0x00,0x00,0x00,0x00,0x00,0x00,0x00,0x00,0x00,0x00,0x00,0x00,0x00,0x00,0x00,
 0x54,0xab,0x0d,0x00,0x00,0x00,0xa5,0x94,0xaa,0x00,0x00,0x00,0x00,0x50,0xf9,
 0x00,0x00,0x00,0x00,0x00,0x00,0x00,0x00,0x00,0x00,0x00,0x00,0x00,0x00,0x00,
 0x00,0x00,0x00,0x00,0x00,0x00,0x00,0x00,0x00,0x00,0x00,0xd4,0x00,0x00,0x00,
 0x00,0x00,0x00,0x00,0x00,0x00,0x00,0x00,0x00,0x00,0x00,0x00,0x00,0xb8,0xaa,
 0x1a,0x00,0x00,0x00,0xaa,0x52,0x49,0x01,0x00,0x00,0x00,0x09,0x3e,0x00,0x00,
 0x00,0x00,0x00,0x00,0x00,0x00,0x00,0x00,0x00,0x00,0x00,0x00,0x00,0x00,0x00,
 0x00,0x00,0x00,0x00,0x00,0x00,0x00,0x00,0x00,0x28,0x01,0x00,0x00,0x00,0x00,
 0x00,0x00,0x00,0x00,0x00,0x00,0x00,0x00,0x00,0x00,0x00,0xc0,0x5a,0x15,0x00,
 0x00,0x00,0xa8,0xaa,0xa4,0x02,0x00,0x00,0x00,0xc4,0x0f,0x00,0x00,0x00,0x00,
 0x00,0x00,0x00,0x00,0x00,0x00,0x00,0x00,0x00,0x00,0x00,0x00,0x00,0x00,0x00,
 0x00,0x00,0x00,0x00,0x00,0x00,0x00,0xba,0x01,0x00,0x00,0x00,0x00,0x00,0x00,
 0x00,0x00,0x00,0x00,0x00,0x00,0x00,0x00,0x00,0x60,0xab,0x3a,0x00,0x00,0x00,
 0x94,0x4a,0x55,0x0a,0x00,0x00,0x52,0xf1,0x01,0x00,0x00,0x00,0x00,0x00,0x00,
 0x00,0x00,0x00,0x00,0x00,0x00,0x00,0x00,0x00,0x00,0x00,0x00,0x00,0x00,0x00,
 0x00,0x00,0x00,0x00,0x00,0xcc,0x00,0x00,0x00,0x00,0x00,0x00,0x00,0x00,0x00,
 0x00,0x00,0x00,0x00,0x00,0x00,0x00,0x00,0xd5,0x6a,0x00,0x00,0x00,0x50,0x2a,
 0x95,0x12,0x00,0x40,0x08,0x7e,0x00,0x00,0x00,0x00,0x00,0x00,0x00,0x00,0x00,
 0x00,0x00,0x00,0x00,0x00,0x00,0x00,0x00,0x00,0x00,0x00,0x00,0x00,0x00,0x00,
 0x00,0x00,0x00,0x00,0x00,0x00,0x00,0x00,0x00,0x00,0x00,0x00,0x00,0x00,0x00,
 0x00,0x00,0x00,0x00,0x00,0x00,0x5a,0x6b,0x00,0x00,0x00,0x40,0xa5,0x52,0x4a,
 0x25,0x29,0xc5,0x0f,0x00,0x00,0x00,0x00,0x00,0x00,0x40,0x04,0x00,0x00,0x00,
 0x00,0x00,0x00,0x00,0x00,0x00,0x00,0x00,0x00,0x00,0x00,0x00,0x00,0x00,0x00,
 0x00,0x00,0x00,0x00,0x00,0x00,0x00,0x00,0x00,0x00,0x00,0x00,0x00,0x00,0x00,
 0x00,0x00,0x00,0x00,0x54,0xd5,0x00,0x00,0x00,0x00,0x55,0x4a,0x29,0x92,0x04,
 0xfd,0x01,0x00,0x00,0x00,0x00,0x00,0x00,0x40,0x09,0x00,0x00,0x00,0x00,0x00,
 0x00,0x00,0x00,0x00,0x00,0x00,0x00,0x00,0x00,0x00,0x00,0x00,0x00,0x00,0x00,
 0x00,0x00,0x00,0x00,0x00,0x00,0x00,0x00,0x00,0x00,0x00,0x00,0x00,0x00,0x00,
 0x00,0x00,0x54,0xd5,0x00,0x00,0x00,0x00,0x54,0x29,0xa5,0x54,0xb2,0x1e,0x00,
 0x00,0x00,0x00,0x00,0x00,0x00,0xb0,0x0e,0x00,0x00,0x00,0x00,0x00,0x00,0x00,
 0x00,0x00,0x00,0x00,0x00,0x00,0x00,0x00,0x00,0x00,0x00,0x00,0x00,0x00,0x00,
 0x00,0x00,0x00,0x00,0x00,0x00,0x00,0x00,0x00,0x00,0x00,0x00,0x00,0x00,0x00,
 0xa8,0xaa,0x01,0x00,0x00,0x00,0xe0,0xa5,0x94,0x92,0xda,0x12,0x00,0x00,0x00,
 0x00,0x00,0x00,0x00,0x40,0x05,0x00,0x00,0x00,0x00,0x00,0x00,0x00,0x00,0x00,
 0x00,0x00,0x00,0x00,0x00,0x00,0x00,0x00,0x00,0x00,0x00,0x00,0x00,0x00,0x00,
 0x00,0x00,0x00,0x05,0x00,0x00,0x00,0x00,0x00,0x00,0x00,0x00,0x00,0x68,0xb5,
 0x01,0x00,0x00,0x00,0x00,0xfc,0xaa,0xec,0x3f,0x19,0x00,0x00,0x00,0x00,0x00,
 0x00,0x00,0xa0,0x06,0x00,0x00,0x00,0x00,0x00,0x00,0x00,0x00,0x00,0x00,0x00,
 0x00,0x00,0x00,0x00,0x00,0x00,0x00,0x00,0x00,0x00,0x00,0x00,0x00,0x00,0x00,
 0x80,0x06,0x00,0x00,0x00,0x00,0x00,0x00,0x00,0x00,0x00,0x50,0xab,0x03,0x00,
 0x00,0x00,0x00,0x00,0xf8,0x1f,0xc0,0x16,0x00,0x00,0x00,0x00,0x00,0x00,0x00,
 0x40,0x09,0x00,0x00,0x00,0x00,0x00,0x00,0x00,0x00,0x00,0x00,0x00,0x00,0x00,
 0x00,0x00,0x00,0x00,0x00,0x00,0x00,0x00,0x00,0x00,0x00,0x00,0x00,0x00,0x05,
 0x00,0x00,0x00,0x00,0x00,0x00,0x00,0x00,0x00,0x50,0x55,0x03,0x00,0x00,0x00,
 0x00,0x00,0x00,0x00,0x60,0x1a,0x00,0x00,0x00,0x00,0x00,0x00,0x00,0xd0,0x0d,
 0x00,0x00,0x00,0x00,0x00,0x00,0x00,0x00,0x00,0x00,0x00,0x00,0x00,0x00,0x00,
 0x00,0x00,0x00,0x00,0x00,0x00,0x00,0x00,0x00,0x00,0x00,0x80,0x07,0x00,0x00,
 0x00,0x00,0x00,0x00,0x00,0x00,0x00,0x58,0x55,0x03,0x00,0x00,0x00,0x00,0x00,
 0x00,0x00,0x00,0x05,0x00,0x00,0x00,0x00,0x00,0x00,0x00,0x60,0x06,0x00,0x00,
 0x00,0x00,0x00,0x00,0x00,0x00,0x00,0x00,0x00,0x00,0x00,0x00,0x00,0x00,0x00,
 0x00,0x00,0x00,0x00,0x00,0x00,0x00,0x00,0x00,0x00,0x00,0x00,0x00,0x00,0x00,
 0x00,0x00,0x00,0x00,0x00,0xa8,0xaa,0x06,0x00,0x00,0x00,0x00,0x00,0x00,0x00,
 0x80,0x07,0x00,0x00,0x00,0x00,0x00,0x00,0x00,0x00,0x00,0x00,0x00,0x00,0x00,
 0x00,0x00,0x00,0x00,0x00,0x00,0x05,0x00,0x00,0x00,0x00,0x00,0x00,0x00,0x00,
 0x00,0x00,0x00,0x00,0x00,0x00,0x00,0x00,0x00,0x00,0x00,0x00,0x00,0x00,0x00,
 0x00,0x00,0x00,0xd0,0x56,0x07,0x00,0x00,0x00,0x00,0x00,0x00,0x00,0x00,0x00,
 0x00,0x00,0x00,0x00,0x00,0x00,0x00,0x00,0x00,0x00,0x00,0x00,0x00,0x00,0x00,
 0x00,0x00,0x00,0x80,0x06,0x00,0x00,0x00,0x00,0x00,0x00,0x00,0x00,0x00,0x00,
 0x00,0x00,0x00,0x00,0x00,0x00,0x00,0x00,0x50,0x00,0x00,0x00,0x00,0x00,0x00,
 0x00,0xa8,0x5a,0x05,0x00,0x00,0x00,0x00,0x00,0x00,0x00,0x00,0x00,0x00,0x00,
 0x00,0x00,0x00,0x00,0x00,0x00,0x00,0x00,0x00,0x00,0x00,0x00,0x00,0x00,0x00,
 0x00,0x00,0x05,0x00,0x00,0x00,0x00,0x00,0x00,0x00,0x00,0x00,0x00,0x00,0x00,
 0x00,0x00,0x00,0x00,0x00,0x00,0x68,0x00,0x00,0x00,0x00,0x00,0x00,0x00,0xa8,
 0xaa,0x0e,0x00,0x00,0x00,0x00,0x00,0x00,0x00,0x00,0x00,0x00,0x00,0x00,0x00,
 0x00,0x00,0x00,0x00,0x00,0x00,0x00,0x00,0x00,0x00,0x00,0x00,0x00,0x00,0x80,
 0x07,0x00,0x00,0x00,0x00,0x00,0x00,0x00,0x00,0x00,0x00,0x00,0x00,0x00,0x00,
 0x00,0x00,0x00,0x00,0x24,0x01,0x00,0x00,0x00,0x00,0x00,0x00,0x50,0x55,0x0d,
 0x00,0x00,0x00,0x00,0x00,0x00,0x00,0x00,0x00,0x00,0x00,0x00,0x00,0x00,0x00,
 0x00,0x00,0x00,0x00,0x00,0x00,0x00,0x00,0x00,0x00,0x00,0x00,0x00,0x00,0x00,
 0x00,0x00,0x00,0x00,0x00,0x00,0x00,0x00,0x00,0x00,0x00,0x00,0x00,0x00,0x00,
 0x00,0x00,0x92,0x01,0x00,0x00,0x00,0x00,0x00,0x00,0xb0,0x6a,0x0d,0x00,0x00,
 0x00,0x00,0x00,0x00,0x00,0x00,0x00,0x00,0x00,0x00,0x00,0x00,0x00,0x00,0x00,
 0x00,0x00,0x00,0x00,0x00,0x00,0x00,0x00,0x00,0x00,0x00,0x00,0x00,0x00,0x00,
 0x00,0x00,0x00,0x00,0x00,0x00,0x00,0x00,0x00,0x00,0x00,0x00,0x00,0x00,0x00,
 0x6c,0x01,0x00,0x00,0x00,0x00,0x00,0x00,0x50,0x55,0x0d,0x00,0x00,0x00,0x00,
 0x00,0x00,0x00,0x00,0x00,0x00,0x00,0x00,0x00,0x00,0x00,0x00,0x00,0x00,0x00,
 0x00,0x00,0x00,0x00,0x00,0x00,0x00,0x00,0x00,0x00,0x00,0x00,0x00,0x00,0x00,
 0x00,0x00,0x00,0x00,0x00,0x00,0x00,0x00,0x00,0x00,0x00,0x00,0x00,0xa6,0x01,
 0x00,0x00,0x00,0x00,0x00,0x00,0x50,0xab,0x1a,0x00,0x00,0x00,0x00,0x00,0x00,
 0x00,0x00,0x00,0x00,0x00,0x00,0x00,0x00,0x00,0x00,0x00,0x00,0x00,0x00,0x00,
 0x00,0x00,0x00,0x00,0x00,0x00,0x00,0x00,0x00,0x00,0x00,0x00,0x00,0x00,0x00,
 0x00,0x00,0x00,0x00,0x00,0x00,0x00,0x00,0x00,0x00,0x00,0x50,0x00,0x00,0x00,
 0x00,0x00,0x00,0x00,0x60,0x55,0x1d,0x00,0x00,0x00,0x00,0x00,0x00,0x00,0x00,
 0x00,0x00,0x00,0x00,0x00,0x00,0x00,0x00,0x00,0x00,0x00,0x00,0x00,0x00,0x00,
 0x00,0x00,0x00,0x00,0x00,0x00,0x00,0x00,0x00,0x00,0x00,0x00,0x00,0x00,0x00,
 0x00,0x00,0x00,0x00,0x00,0x00,0x00,0x00,0x00,0x78,0x00,0x00,0x00,0x00,0x00,
 0x00,0x00,0xa0,0xaa,0x1a,0x00,0x00,0x00,0x00,0x00,0x00,0x00,0x00,0x00,0x00,
 0x00,0x00,0x00,0x00,0x00,0x00,0x00,0x00,0x00,0x00,0x00,0x00,0x00,0x00,0x00,
 0x00,0x00,0x00,0x00,0x00,0x00,0x00,0x00,0x00,0x00,0x00,0x00,0x00,0x00,0x00,
 0x00,0x00,0x00,0x00,0x00,0x00,0x00,0x00,0x00,0x00,0x00,0x00,0x00,0x00,0x00,
 0x50,0xd5,0x1a,0x00,0x00,0x00,0x00,0x00,0x00,0x00,0x00,0x00,0x00,0x00,0x00,
 0x00,0x00,0x00,0x00,0x00,0x00,0x00,0x00,0x00,0x00,0x00,0x00,0x00,0x00,0x00,
 0x00,0x00,0x00,0x00,0x00,0x00,0x00,0x00,0x00,0x00,0x00,0x00,0x00,0x00,0x00,
 0x00,0x00,0x00,0x00,0x00,0x00,0x00,0x00,0x00,0x00,0x00,0x00,0x00,0x60,0x5b,
 0x35,0x00,0x00,0x00,0x00,0x00,0x00,0x00,0x00,0x00,0x00,0x00,0x00,0x00,0x00,
 0x00,0x00,0x00,0x00,0x00,0x00,0x00,0x00,0x00,0x00,0x00,0x00,0x00,0x00,0x00,
 0x00,0x00,0x00,0x00,0x00,0x00,0x00,0x00,0x00,0x00,0x00,0x00,0x00,0x00,0x00,
 0x00,0x00,0x00,0x00,0x00,0x00,0x00,0x00,0x00,0x00,0x00,0x80,0xaa,0x3a,0x00,
 0x00,0x00,0x00,0x00,0x00,0x00,0x00,0x00,0x00,0x00,0x00,0x00,0x00,0x00,0x00,
 0x00,0x00,0x00,0x00,0x00,0x00,0x00,0x00,0x00,0x00,0x00,0x00,0x00,0x00,0x00,
 0x00,0x00,0x00,0x00,0x00,0x00,0x00,0x00,0x00,0x00,0x00,0x00,0x00,0x00,0x00,
 0x00,0x00,0x00,0x00,0x00,0x00,0x00,0x00,0x00,0x60,0x55,0x35,0x00,0x00,0x00,
 0x00,0x00,0x00,0x00,0x00,0x00,0x00,0x00,0x00,0x00,0x00,0x00,0x00,0x00,0x00,
 0x00,0x00,0x00,0x00,0x00,0x00,0x00,0x00,0x00,0x00,0x00,0x00,0x00,0x00,0x00,
 0x00,0x00,0x00,0x00,0x00,0x00,0x00,0x00,0x00,0x00,0x00,0x00,0x00,0x00,0x00,
 0x00,0x00,0x00,0x00,0x00,0x00,0x00,0xa0,0xaa,0x3a,0x00,0x00,0x00,0x00,0x00,
 0x00,0x00,0x00,0x00,0x00,0x00,0x00,0x00,0x00,0x00,0x00,0x00,0x00,0x00,0x00,
 0x00,0x00,0x00,0x00,0x00,0x00,0x00,0x00,0x00,0x00,0x00,0x00,0x00,0x00,0x00,
 0x00,0x00,0x00,0x00,0x00,0x00,0x00,0x00,0x00,0x00,0x00,0x00,0x00,0x00,0x00,
 0x00,0x00,0x00,0x00,0x00,0x40,0x55,0x35,0x00,0x00,0x00,0x00,0x00,0x00,0x00,
 0x00,0x00,0x00,0x00,0x00,0x00,0x00,0x00,0x00,0x00,0x00,0x00,0x00,0x00,0x00,
 0x00,0x14,0x00,0x00,0x00,0x00,0x00,0x00,0x00,0x00,0x00,0x00,0x00,0x00,0x00,
 0x00,0x00,0x00,0x00,0x00,0x00,0x00,0x00,0x00,0x00,0x00,0x00,0x00,0x00,0x00,
 0x00,0x00,0x00,0x40,0xdb,0x3a,0x00,0x00,0x00,0x00,0x00,0x00,0x00,0x00,0x00,
 0x00,0x00,0x00,0x00,0x00,0x00,0x00,0x00,0x00,0x00,0x00,0x00,0x00,0x00,0x1a,
 0x00,0x00,0x00,0x00,0x00,0x00,0x00,0x00,0x00,0x00,0x00,0x00,0x00,0x00,0x00,
 0x00,0x00,0x00,0x00,0x00,0x00,0x00,0x00,0x00,0x00,0x00,0x00,0x00,0x00,0x00,
 0x00,0x40,0x55,0x35,0x00,0x00,0x00,0x00,0x00,0x00,0x00,0x00,0x00,0x00,0x00,
 0x00,0x00,0x00,0x00,0x00,0x00,0x00,0x00,0x00,0x00,0x00,0x00,0x49,0x00,0x00,
 0x00,0x00,0x00,0x00,0x00,0x00,0x00,0x00,0x00,0x00,0x00,0x00,0x00,0x00,0x00,
 0x00,0x00,0x00,0x00,0x00,0x00,0x00,0x00,0x00,0x00,0x00,0x00,0x00,0x00,0x80,
 0xaa,0x3a,0x00,0x00,0x00,0x00,0x00,0x00,0x00,0x00,0x00,0x00,0x00,0x00,0x00,
 0x00,0x00,0x00,0x00,0x00,0x00,0x00,0x00,0x00,0x80,0x64,0x00,0x00,0x00,0x00,
 0x00,0x00,0x00,0x00,0x00,0x00,0x00,0x00,0x00,0x00,0x00,0x00,0x00,0x00,0x00,
 0x00,0x00,0x00,0x00,0x00,0x00,0x00,0x00,0x00,0x00,0x00,0x00,0x00,0x55,0x35,
 0x00,0x00,0x00,0x00,0x00,0x00,0x00,0x00,0x00,0x00,0x00,0x00,0x00,0x00,0x00,
 0x00,0x00,0x00,0x00,0x00,0x00,0x00,0x00,0x5b,0x00,0x00,0x00,0x00,0x00,0x00,
 0x00,0x00,0x00,0x00,0x00,0x00,0x00,0x00,0x00,0x00,0x00,0x00,0x00,0x00,0x00,
 0x00,0x00,0x00,0x00,0x00,0x00,0x00,0x00,0x00,0x00,0x00,0xaa,0x3a,0x00,0x00,
 0x00,0x00,0x00,0x00,0x00,0x00,0x00,0x00,0x00,0x00,0x00,0x00,0x00,0x00,0x00,
 0x00,0x00,0x00,0x00,0x00,0x80,0x69,0x00,0x00,0x00,0x00,0x00,0x00,0x00,0x00,
 0x00,0x00,0x00,0x00,0x00,0x00,0x00,0x00,0x00,0x00,0x00,0x00,0x00,0x00,0x00,
 0x00,0x00,0x00,0x00,0x00,0x00,0x00,0x00,0x00,0x5b,0x35,0x00,0x00,0x00,0x00,
 0x00,0x00,0x00,0x00,0x00,0x00,0x00,0x00,0x00,0x00,0x00,0x00,0x00,0x00,0x00,
 0x00,0x00,0x00,0x00,0x14,0x00,0x00,0x00,0x00,0x00,0x00,0x00,0x00,0x00,0x00,
 0x00,0x00,0x00,0x00,0x00,0x00,0x00,0x00,0x00,0x00,0x00,0x00,0x00,0x00,0x00,
 0x00,0x00,0x00,0x00,0x00,0x00,0x00,0xd4,0x3a,0x00,0x00,0x00,0x00,0x00,0x00,
 0x00,0x00,0x00,0x00,0x00,0x00,0x00,0x00,0x00,0x00,0x00,0x00,0x00,0x00,0x00,
 0x00,0x00,0x1e,0x00,0x00,0x00,0x00,0x00,0x00,0x00,0x00,0x00,0x00,0x00,0x00,
 0x00,0x00,0x00,0x00,0x00,0x00,0x00,0x00,0x00,0x00,0x00,0x00,0x00,0x00,0x00,
 0x00,0x00,0x00,0x00,0x00,0x54,0x3b,0x00,0x00,0x00,0x00,0x00,0x00,0x00,0x00,
 0x00,0x00,0x00,0x00,0x00,0x00,0x00,0x00,0x00,0x00,0x00,0x00,0x00,0x00,0x00,
 0x00,0x00,0x00,0x00,0x00,0x00,0x00,0x00,0x00,0x00,0x00,0x00,0x00,0x00,0x00,
 0x00,0x00,0x00,0x00,0x00,0x00,0x00,0x00,0x00,0x00,0x00,0x00,0x00,0x00,0x00,
 0x00,0x00,0x00,0xa8,0x1c,0x00,0x00,0x00,0x00,0x00,0x00,0x00,0x00,0x00,0x00,
 0x00,0x00,0x00,0x00,0x00,0x00,0x00,0x00,0x00,0x00,0x00,0x00,0x00,0x00,0x00,
 0x00,0x00,0x00,0x00,0x00,0x00,0x00,0x00,0x00,0x00,0x00,0x00,0x00,0x00,0x00,
 0x00,0x00,0x00,0x00,0x00,0x00,0x00,0x00,0x00,0x00,0x00,0x00,0x00,0x00,0x00,
 0x00,0xa8,0x1e,0x00,0x00,0x00,0x00,0x00,0x00,0x00,0x00,0x00,0x00,0x00,0x00,
 0x00,0x00,0x00,0x00,0x00,0x00,0x00,0x00,0x00,0x00,0x00,0x00,0x00,0x00,0x00,
 0x00,0x00,0x00,0x00,0x00,0x00,0x00,0x00,0x00,0x00,0x00,0x00,0x00,0x00,0x00,
 0x00,0x00,0x00,0x00,0x00,0x00,0x00,0x00,0x00,0x00,0x00,0x00,0x00,0x00,0x50,
 0x1d,0x00,0x00,0x00,0x00,0x00,0x00,0x00,0x00,0x00,0x00,0x00,0x00,0x00,0x00,
 0x00,0x00,0x00,0x00,0x00,0x00,0x00,0x00,0x00,0x00,0x00,0x00,0x00,0x00,0x00,
 0x00,0x00,0x00,0x00,0x00,0x00,0x00,0x00,0x00,0x00,0x00,0x00,0x00,0x00,0x00,
 0x00,0x00,0x00,0x00,0x00,0x00,0x00,0x00,0x00,0x00,0x00,0x00,0xc0,0x0f,0x00,
 0x00,0x00,0x00,0x00,0x00,0x00,0x00,0x00,0x00,0x00,0x00,0x00,0x00,0x00,0x00,
 0x00,0x00,0x00,0x00,0x00,0x00,0x00,0x00,0x00,0x00,0x00,0x00,0x00,0x00,0x00,
 0x00,0x00,0x00,0x00,0x00,0x00,0x00,0x00,0x00,0x00};
