/* XPM */
static char * wl_summary_dispose_up_xpm[] = {
"32 32 8 1",
" 	c None",
".	c #000000000000",
"X	c #E79DCB2B9E79",
"o	c #69A68E38EFBE",
"O	c #CF3CBAEA9658",
"+	c #FFFFFFFFFFFF",
"@	c #B6DAA6998617",
"#	c #965896589658",
"                                ",
"            ....                ",
"           .XXXX..              ",
"     o     .XOOOXX..            ",
"     oo   ..XOOOOOOO..          ",
" ooooooo .++.XOOOOOOOO.         ",
" oooooooo .. ..@@@OOOO@.        ",
" ooooooooo.+.++...@@@@@.        ",
" oooooooo  .++..++......        ",
" ooooooo   ...++.+.+#...        ",
"     oo    .XO.......@@.        ",
"     o     .XOXOOO@O@@@.        ",
"           .XOXOOO@O@@@.        ",
"           .XOXOOO@O@@@.        ",
"           .XOXOOO@O@@@.        ",
"           .XOXOOO@O@@@.        ",
"           .XOXOOO@O@@@.        ",
"           .XOXOOO@O@@@.        ",
"           .XOXOOO@O@@@.        ",
"           .XOXOOO@O@@@.        ",
"           .XOXOOO@O@@@.##      ",
"            ..XOOO@O@..####     ",
"              .......#####      ",
"              #########         ",
"        .                       ",
"  ....                          ",
"  .   . .  .. ...   ..   ..  .  ",
"  .   . . .   .  . .  . .   . . ",
"  .   . . ... .  . .  . ... ... ",
"  .   . .   . .  . .  .   . .   ",
"  ....  . ..  ...   ..  ..   .. ",
"              .                 "};
