/* XPM */
static char * wl_summary_set_flags_up_xpm[] = {
"32 32 6 1",
" 	c None",
".	c #93805A",
"+	c #000000",
"@	c #E4EAB4",
"#	c #B22E2E",
"$	c #9E9A9E",
"                                ",
"                                ",
"            .++++               ",
"            .+@@@++             ",
"            .+@@@@@+++    ++++  ",
"            .+@@@@@@@@++++@@@+  ",
"           .+@@@@@@@@@@@@@@@+   ",
"           .+@@@@@@@@@@@@@@@+   ",
"           .+###@@@@@@@@@@@@+   ",
"           .+#####@@@@@@@@@+$$$$",
"          .+##########@@@@@+$$$$",
"          .+###############+$$  ",
"          .+##############+$$   ",
"          .+++############+$    ",
"         .+   +##########+$$    ",
"         .+ $$$+++++++###+$     ",
"         .+ $$$$$$$$$$+++$$     ",
"         .+$$        $$$$$      ",
"        .+$$                    ",
"        .+$                     ",
"        .+$                     ",
"        .+$                     ",
"                                ",
"                                ",
"        ++++ +                  ",
"        +    +                  ",
"        +    + ++   +++         ",
"        +++  +   + +  +         ",
"        +    + +++ +  +         ",
"        +    + + +  +++         ",
"        +    + ++ +   +         ",
"                    ++          "};
