/* XPM */
static char * wl_summary_reply_up_xpm[] = {
"32 32 7 1",
" 	c None",
".	c #000000000000",
"X	c #EFBEFFFFC71B",
"o	c #FFFFFFFFFFFF",
"O	c #59656595C71B",
"+	c #9E799A699E79",
"@	c #79E7B2CAF7DE",
"                                ",
"             ...............   .",
"              .XXXXXXXXXXXXX. ..",
"               .XXXXXXXXXXXX..o.",
"  ..............XXXXXXXXXXX..o. ",
"  .oooooooooooo.XXXXXXXXXXX.oo. ",
"  .oOOo    ooo.XXXXXXXXXX..ooo. ",
"  .oOOoooooooo.XXXXXXXXX.oooo.  ",
"  .oooo    ooo.XXXXXXXX.oooo.   ",
"  .ooooooooooo.XXXXXXXX.oooo.   ",
"  .ooooooooooo.XXXXXXX.ooooo.   ",
"  .oooooooooooo.XXXXXX.oo.oo.+++",
"  .oooooooooooo.XXXXXX.oo.o.X.++",
"  .oooooooooooo.XXXXXX.oo.o.X.++",
"  ..................XXXo.oo.XX.+",
"   ++++++++++.OOOOO.XXX..o.XXX.+",
"   ++++++++++.......XXXX..XXXX.+",
"              .@@@.XXXXX.XXXX.++",
"             .@o@@@.XXXX.XXX.+++",
"            .@o@@@@@........++++",
"            .OoOOOOO.  . +++++  ",
"            .OoOOOOO.+++++++    ",
"            .OOOOOOO.++         ",
"             .......+++         ",
"                     .          ",
"       ...           .          ",
"       .  .  .  ...  . .  .     ",
"       .  . . . .  . . .  .     ",
"       ...  ... .  . . .  .     ",
"       .  . .   .  . .  ..      ",
"       .  .  .. ...  .  .       ",
"                .      .        "};
