/* XPM */
static char * wl_summary_forward_up_xpm[] = {
"32 32 6 1",
" 	c None",
".	c #000000000000",
"X	c #FFFFFFFFFFFF",
"o	c #59656595C71B",
"O	c #9E799A699E79",
"+	c #D75C38E34103",
"                                ",
"  ..................            ",
"  .XXXXXXXXXXXXXXXX.            ",
"  .XooX    XXXXXXXX.O           ",
"  .XooXXXXXXXXXXXXX.O           ",
"  .XXXX    XXXXXXXX.O           ",
"  .XXXXXXXXXXXXXXXX.O +         ",
"  .XXXXXXXXXXXXXXXX.O++         ",
"  .XXXXXXXXXXXXXXXX.+++++       ",
"  .XXXXXXXXXXXXXXXX.O++ +       ",
"  .XXXXXXXXXXXXXXXX.O + +       ",
"  ..................O   +       ",
"   OOOOOOOOOOOOOOOOOO   +       ",
"   OOOOOOOOOO.................. ",
"             .XXXXXXXXXXXXXXXX. ",
"             .XooX    XXXXXXXX.O",
"             .XooXXXXXXXXXXXXX.O",
"             .XXXX    XXXXXXXX.O",
"             .XXXXXXXXXXXXXXXX.O",
"             .XXXXXXXXXXXXXXXX.O",
"             .XXXXXXXXXXXXXXXX.O",
"             .XXXXXXXXXXXXXXXX.O",
"             .XXXXXXXXXXXXXXXX.O",
"             ..................O",
"              OOOOOOOOOOOOOOOO.O",
"  ....        OOOOOOOOOOOOOOOO.O",
"  .    ..  . .. . . ..  . . ... ",
"  ... .  . .. . . .   . .. .  . ",
"  .   .  . .  . . . ... .  .  . ",
"  .   .  . .   . .  . . .  .  . ",
"  .    ..  .   . .  .. ..   ... ",
"                                "};
