/* XPM */
static char * wl_folder_sync_current_entity_up_xpm[] = {
"32 32 20 1",
" 	c None",
".	c #000000000000",
"X	c #FFFFE38DB6DA",
"o	c #E79DCB2B9E79",
"O	c #B6DAA6998617",
"+	c #CF3CBAEA9658",
"@	c #514471C6FFFF",
"#	c #59656DB6EFBE",
"$	c #618569A6DF7D",
"%	c #69A66595D75C",
"&	c #79E76185C71B",
"*	c #AEBAAAAAAEBA",
"=	c #86175D75BEFB",
"-	c #96585965AEBA",
";	c #9E7955559E79",
":	c #A69951448E38",
">	c #C71BC30BC71B",
",	c #AEBA4D348617",
"<	c #BEFB492471C6",
"1	c #C71B492469A6",
"                                ",
"                                ",
"                                ",
"        ............            ",
"     ...XXXXXXXXXXXX...         ",
"    .XXXXXXXXXXXXXXXXXX.        ",
"    .XXXXXXXXXXXXXXXXXX.        ",
"    ....XXXXXXXXXXXX....        ",
"    .ooo............OOO.        ",
"    .ooo++++++++++++OOO.        ",
"    .ooo++++++++++++OOO.        ",
"    .ooo++++++++++++OOO.        ",
"    .ooo+++++@@+++++OOO.        ",
"    .ooo++++####++++OOO.        ",
"    .ooo+++$$$$$$+++OOO.        ",
"    .ooo++%%%%%%%%++OOO.        ",
"    .ooo++++&&&&+++++OO.        ",
"    *...++++====++++...***      ",
"    ****....----....*******     ",
"     *******;;;;************    ",
"        **::::::::*********     ",
"         >>,,,,,,*********      ",
"            <<<<                ",
"             11                 ",
"                                ",
"        ...                     ",
"       .    .  . ...   ..       ",
"       ...  .  . .  . .         ",
"          . .  . .  . .         ",
"          .  ..  .  . .         ",
"       ...   .   .  .  ..       ",
"            .                   "};
