/* XPM */
static char *antenna-up[] = {
/* width height num_colors chars_per_pixel */
"    34    30       21            1",
/* colors */
". c #b6b2b6 s backgroundToolBarColor",
"# c #fff749",
"a c #000000",
"b c #869661",
"c c #96a679",
"d c #b6c7be",
"e c #303871",
"f c #081018",
"g c #8e9e69",
"h c #8ea271",
"i c #181c38",
"j c #96aa86",
"k c #9eae8e",
"l c #000008",
"m c #96aa9e",
"n c #9eb296",
"o c #a6b69e",
"p c #a6baa6",
"q c #8ea2c7",
"r c #96bec7",
"s c #aebeae",
/* pixels */
"....##..##........................",
".....######.......................",
"......#####.......................",
".......#..##......................",
"...........#............aaa.......",
".............aaa......aabba.......",
".............acdae..aabbbaf.......",
".............aca..eeggggadf.......",
"..............a.eahheeeadi........",
"..............e.aeccccaddi........",
"...............ejkejaaddl.........",
"..............aekkkadddml.........",
".............anennaddmml..........",
"............aooeaaddmlaa..........",
"...........apppammmmlqqra.........",
"..........assafmmmllqqqra.........",
"..........aaaaaaal..aqqra.........",
"....................aqqqra........",
"...................aqqqqqra.......",
"..................aqqqqqqqra......",
"..................aaaaaaaaaa......",
".............a....................",
"...a.........a....................",
"...a...aaa..aaa..a..aaa..aaa..aa..",
"..a.a..a..a..a..a.a.a..a.a..a...a.",
"..aaa..a..a..a..aaa.a..a.a..a.aaa.",
".a...a.a..a..a..a...a..a.a..a.a.a.",
".a...a.a..a..a...aa.a..a.a..a.aa.a",
"..................................",
".................................."
};
