/* XPM */
static char *home-up[] = {
/* width height num_colors chars_per_pixel */
"    32    30       12            1",
/* colors */
". c #b6b2b6 s backgroundToolBarColor",
"# c #000000",
"a c #ffffff",
"b c #6992cf",
"c c #8eaebe",
"d c #30009e",
"e c #b69669",
"f c #cfba96",
"g c #aeaaae",
"h c #8eff38",
"i c #18cb00",
"j c #10aa00",
/* pixels */
"................................",
"................................",
"................................",
".........###..#####.............",
".........#a#.#a#bbb#............",
".........#c##abb#bbb#...........",
".........#c#ab#bb#bbb#..........",
".........##ab#c#bb#bbb#.........",
".........#ab#ccc#bb#bbb#........",
"........#ab#ccccc#bb#bbb#.......",
".......#ab#ccccccc#bb#bbb#......",
"......####ccccccccc#######......",
"........#acccdddacc.#bbb#.......",
"........#acccdeeaccc#bbb#.......",
"........#acccdefaccc#bgb#.......",
"........#acccdefaccc#bgb#.......",
"........hicccdefachhhhii#.......",
"......hhijjhhhhhhhhhhhjjjj......",
".....eeeeeeefffffffffeeeeee.....",
"................................",
"................................",
".....#...#......................",
".....#...#......................",
".....#...#..##..##.##...##......",
".....#####.#..#.#.#..#.#..#.....",
".....#...#.#..#.#.#..#.####.....",
".....#...#.#..#.#.#..#.#........",
".....#...#..##..#.#..#..###.....",
"................................",
"................................"
};
