/* XPM */
static char *image-up[] = {
/* width height num_colors chars_per_pixel */
"    32    30       14            1",
/* colors */
". c #b6b2b6 s backgroundToolBarColor",
"# c #000000",
"a c #efffc7",
"b c #cfba96",
"c c #f7ffbe",
"d c #aeb2ae",
"e c #a6a6a6",
"f c #c7d7ff",
"g c #b6c7f7",
"h c #a6b6ef",
"i c #c7ff86",
"j c #9ea6e7",
"k c #38c700",
"l c #8e96df",
/* pixels */
"................................",
"............#############.......",
"...........#a#bccccccccc#d......",
"..........#aa#bccccccccc#e......",
".........#a###bccccccccc#e......",
".........##b########cdcc#e......",
".........#bc#ffffff#cccc#e......",
"......#..#cc#gggggg#cccc#e......",
"......##.#cc#hhhhhh#ddcc#e......",
"......#i##cc#jjjjjj#cccc#e......",
"...####ki#cc#llllll#cccc#e......",
"...#iiikki#c########ddcc#e......",
"...#kkkkkki#cccccccccccc#e......",
"...#kkkkkk#ccccccccccccc#e......",
"...####kk#ccddccdcdccdcc#e......",
"......#k##cccccccccccccc#e......",
"......##.#ccdcddcdcddccc#e......",
"......#..#cccccccccccccc#e......",
".........#cccccccccccccc#e......",
".........################e......",
"..........eeeeeeeeeeeeeeee......",
"..#.............................",
"..#.............................",
"..#.##.##...##...###..##...###..",
"..#.#.#..#.#..#.#..#.#..#.#.....",
"..#.#.#..#..###.#..#.####..##...",
"..#.#.#..#.#..#.#..#.#.......#..",
"..#.#.#..#..##.#.###..###.###...",
"................#..#............",
".................##............."
};
