/* XPM */
static char *open-up[] = {
/* width height num_colors chars_per_pixel */
"    32    30        9            1",
/* colors */
". c #b6b2b6 s backgroundToolBarColor",
"# c #000000",
"a c #efffc7",
"b c #cfba96",
"c c #f7ffbe",
"d c #aeb2ae",
"e c #a6a6a6",
"f c #79b2f7",
"g c #698eef",
/* pixels */
"................................",
"............#############.......",
"...........#a#bccccccccc#dd.....",
"..........#aa#bccccccccc#ed.....",
".........#a###bccccccccc#ed.....",
".........##bbbbccdcdddcc#ed.....",
".........#bccccccccccccc#ed.....",
"......#..#cccccccccccccc#ed.....",
"......##.#ccddccccddddcc#ed.....",
"......#f##cccccccccccccc#ed.....",
"...####gf#cccccccccccccc#ed.....",
"...#fffggf#cdccddcccddcc#ed.....",
"...#ggggggf#cccccccccccc#ed.....",
"...#gggggg#ccccccccccccc#ed.....",
"...####gg#ccddccddcdddcc#ed.....",
"......#g##cccccccccccccc#ed.....",
"......##.#cccccccccccccc#ed.....",
"......#..#cccccccccccccc#ed.....",
".........#cccccccccccccc#ed.....",
".........################ed.....",
"..........eeeeeeeeeeeeeeeed.....",
".......##.......................",
"......#..#......................",
".....#....#.###...##..#.#.......",
".....#....#.#..#.#..#.##.#......",
".....#....#.#..#.####.#..#......",
"......#..#..#..#.#....#..#......",
".......##...###...###.#..#......",
"............#...................",
"............#..................."
};
