/* XPM */
static char * parent_disabled_xpm[] = {
" 32 30 12 1",
"  c #b6b2b6 s backgroundToolBarColor",
"# c #606060",
"a c #d7d7d7",
"b c #c6c6c6",
"c c #bebebe",
"d c #b6b6b6",
"e c #a9ada9",
"f c #a1a5a1",
"g c #999999",
"h c #bebabe",
"i c #898989",
"j c #797979",
/* pixels */
"                                ",
"                                ",
"                                ",
"                                ",
"                                ",
"               #                ",
"              #a#               ",
"             #aba#              ",
"            #abbba#             ",
"           #accccca#            ",
"          #accccccca#           ",
"         #addddddddda#          ",
"        #####eeeee#####         ",
"        hhhh#fffff#hhhh         ",
"            #ggggg#             ",
"            #iiiii#             ",
"            #jjjjj#             ",
"            #######             ",
"            hhhhhhh             ",
"                                ",
"           #   #                ",
"           #   # ###            ",
"           #   # #  #           ",
"           #   # #  #           ",
"           #   # #  #           ",
"            ###  ###            ",
"                 #              ",
"                 #              ",
"                                ",
"                                "};
