/* XPM */
static char *reload-up[] = {
/* width height num_colors chars_per_pixel */
"    32    30       11            1",
/* colors */
". c #b6b8b6 s backgroundToolBarColor",
"# c #aeb4ae",
"a c #000000",
"b c #6580c9",
"c c #6984d7",
"d c #7788d7",
"e c #768cdf",
"f c #788fe7",
"g c #6580e7",
"h c #5195ef",
"i c #5197f7",
/* pixels */
"................................",
"..............#aaaaa............",
".............aabbbbbaa..........",
"............abbbbbbbbba.........",
"...........accccaaacccca........",
"..........#addda###addda#.......",
"..........aeeea#####aeeea.......",
"..........afffa#..aaafffaaa.....",
"..........aaaaa....aggggga#.....",
"......##a...........ahhha##.....",
".....##aia...........aia##......",
"....##ahhha...........a##.......",
"....#aggggga....aaaaa...........",
"....aaafffaaa..#afffa...........",
"......aeeea#####aeeea...........",
"......#addda###addda#...........",
".......accccaaacccca............",
"........abbbbbbbbba.............",
".........aabbbbbaa..............",
"...........aaaaa#...............",
"................................",
"..aaaa.......a..............a...",
"..a...a......a..............a...",
"..a...a..aa..a..aa...aa...aaa...",
"..aaaa..a..a.a.a..a.a..a.a..a...",
"..a...a.aaaa.a.a..a..aaa.a..a...",
"..a...a.a....a.a..a.a..a.a..a...",
"..a...a..aaa.a..aa...aa.a.aaa...",
"................................",
"................................"
};
