/* XPM */
static char * sb_ro_xpm[] = {
"10 10 4 1",
" 	c None",
".	c #828282",
"+	c #000000",
"@	c #FFF993",
"  .++++.  ",
" .++..++. ",
" .++..++. ",
".++++++++.",
".+@@@@@@+.",
".+@@++@@+.",
".+@@++@@+.",
".+@@@@@@+.",
".++++++++.",
".........."};
